<svg width="50" height="50" viewBox="0 0 50 50" fill="none" xmlns="http://www.w3.org/2000/svg">
<path d="M25 50C38.8071 50 50 38.8071 50 25C50 11.1929 38.8071 0 25 0C11.1929 0 0 11.1929 0 25C0 38.8071 11.1929 50 25 50Z" fill="#1769FF"/>
<path d="M18.7264 15C19.5907 15 20.3892 15.0659 21.122 15.2634C21.8546 15.3951 22.4556 15.6669 22.9907 15.9961C23.5259 16.3254 23.921 16.7946 24.1926 17.3956C24.4561 17.9966 24.596 18.7292 24.596 19.5279C24.596 20.4581 24.3985 21.2566 23.9293 21.8576C23.5259 22.4585 22.8672 22.9936 22.0605 23.3889C23.1965 23.7181 24.0609 24.3191 24.5878 25.1176C25.1146 25.9161 25.4522 26.9122 25.4522 28.0484C25.4522 28.9786 25.2546 29.7771 24.9171 30.444C24.5878 31.1108 24.0528 31.7117 23.4517 32.1069C22.8507 32.5104 22.1181 32.8396 21.3195 33.0371C20.521 33.2348 19.7225 33.3665 18.9239 33.3665L10 33.383V15H18.7264ZM18.1912 22.4585C18.9239 22.4585 19.5249 22.261 19.9859 21.9235C20.4469 21.5859 20.6528 20.9931 20.6528 20.2605C20.6528 19.8571 20.5869 19.462 20.4551 19.1985C20.3234 18.9351 20.1259 18.7292 19.8541 18.5317C19.5908 18.4 19.3191 18.2682 18.9897 18.2024C18.6605 18.1365 18.323 18.1365 17.9277 18.1365H14.0667V22.4668C14.0667 22.4585 18.1912 22.4585 18.1912 22.4585ZM18.3889 30.3205C18.7922 30.3205 19.1874 30.2546 19.5249 30.1887C19.8541 30.1229 20.1917 29.9913 20.4551 29.7854C20.7186 29.5796 20.9244 29.382 21.122 29.0528C21.2537 28.7234 21.3854 28.32 21.3854 27.8507C21.3854 26.9205 21.122 26.2537 20.5869 25.7845C20.0517 25.381 19.3191 25.1835 18.4546 25.1835H14.0667V30.3123H18.3889V30.3205Z" fill="white"/>
<path d="M31.2475 30.2546C31.7826 30.7897 32.5811 31.0532 33.6431 31.0532C34.3759 31.0532 35.0426 30.8556 35.5777 30.5181C36.1129 30.1147 36.4421 29.7196 36.5739 29.3161H39.8339C39.2989 30.9132 38.5002 32.0493 37.4382 32.7819C36.3764 33.4488 35.1085 33.8439 33.5772 33.8439C32.5154 33.8439 31.5769 33.6463 30.7124 33.3088C29.848 32.9796 29.1813 32.5103 28.5803 31.8434C27.9793 31.2424 27.5182 30.5098 27.2466 29.6454C26.9172 28.7811 26.7774 27.8507 26.7774 26.7806C26.7774 25.7844 26.909 24.8459 27.2466 23.9816C27.5841 23.1171 28.0451 22.3844 28.6461 21.7176C29.2471 21.1167 29.9798 20.5816 30.7783 20.2522C31.6428 19.9229 32.5071 19.7172 33.5772 19.7172C34.7134 19.7172 35.7095 19.9147 36.5739 20.3839C37.4383 20.8532 38.1051 21.3801 38.6403 22.1786C39.1754 22.9113 39.5705 23.7757 39.8421 24.7059C39.9739 25.6362 40.0397 26.5747 39.9739 27.6367H30.3172C30.3172 28.7234 30.7124 29.7196 31.2475 30.2546ZM35.446 23.2571C34.9769 22.7878 34.2441 22.5244 33.3797 22.5244C32.7787 22.5244 32.3177 22.6561 31.9144 22.8537C31.511 23.0513 31.2475 23.3229 30.9841 23.5863C30.7206 23.8498 30.5807 24.1873 30.5149 24.5167C30.449 24.8459 30.3831 25.1176 30.3831 25.3811H36.3764C36.2446 24.3932 35.9071 23.7263 35.446 23.2571ZM29.5846 16.2678H37.0431V18.0624H29.5846V16.2678Z" fill="white"/>
</svg>
