<svg width="1440" height="744" viewBox="0 0 1440 744" fill="none" xmlns="http://www.w3.org/2000/svg">
<g clip-path="url(#clip0_1476_7661)">
<rect width="1440" height="744" fill="white"/>
<g opacity="0.4">
<rect width="1440" height="600" fill="white"/>
<line x1="1464" y1="672.5" x2="-24" y2="672.5" stroke="#D5DAE1"/>
<line x1="1464" y1="696.5" x2="-24" y2="696.5" stroke="#D5DAE1"/>
<line x1="1464" y1="720.5" x2="-24" y2="720.5" stroke="#D5DAE1"/>
<line x1="24.5" y1="648" x2="24.5" y2="1368" stroke="#D5DAE1"/>
<line x1="24.5" y1="648" x2="24.5" y2="1368" stroke="#D5DAE1"/>
<line x1="48.5" y1="648" x2="48.5" y2="1368" stroke="#D5DAE1"/>
<line x1="72.5" y1="648" x2="72.5" y2="1368" stroke="#D5DAE1"/>
<line x1="96.5" y1="648" x2="96.5" y2="1368" stroke="#D5DAE1"/>
<line x1="120.5" y1="648" x2="120.5" y2="1368" stroke="#D5DAE1"/>
<line x1="144.5" y1="648" x2="144.5" y2="1368" stroke="#D5DAE1"/>
<line x1="168.5" y1="648" x2="168.5" y2="1368" stroke="#D5DAE1"/>
<line x1="192.5" y1="648" x2="192.5" y2="1368" stroke="#D5DAE1"/>
<line x1="216.5" y1="648" x2="216.5" y2="1368" stroke="#D5DAE1"/>
<line x1="240.5" y1="648" x2="240.5" y2="1368" stroke="#D5DAE1"/>
<line x1="264.5" y1="648" x2="264.5" y2="1368" stroke="#D5DAE1"/>
<line x1="288.5" y1="648" x2="288.5" y2="1368" stroke="#D5DAE1"/>
<line x1="312.5" y1="648" x2="312.5" y2="1368" stroke="#D5DAE1"/>
<line x1="336.5" y1="648" x2="336.5" y2="1368" stroke="#D5DAE1"/>
<line x1="360.5" y1="648" x2="360.5" y2="1368" stroke="#D5DAE1"/>
<line x1="384.5" y1="648" x2="384.5" y2="1368" stroke="#D5DAE1"/>
<line x1="408.5" y1="648" x2="408.5" y2="1368" stroke="#D5DAE1"/>
<line x1="432.5" y1="648" x2="432.5" y2="1368" stroke="#D5DAE1"/>
<line x1="456.5" y1="648" x2="456.5" y2="1368" stroke="#D5DAE1"/>
<line x1="480.5" y1="648" x2="480.5" y2="1368" stroke="#D5DAE1"/>
<line x1="504.5" y1="648" x2="504.5" y2="1368" stroke="#D5DAE1"/>
<line x1="528.5" y1="648" x2="528.5" y2="1368" stroke="#D5DAE1"/>
<line x1="552.5" y1="648" x2="552.5" y2="1368" stroke="#D5DAE1"/>
<line x1="576.5" y1="648" x2="576.5" y2="1368" stroke="#D5DAE1"/>
<line x1="600.5" y1="648" x2="600.5" y2="1368" stroke="#D5DAE1"/>
<line x1="624.5" y1="648" x2="624.5" y2="1368" stroke="#D5DAE1"/>
<line x1="648.5" y1="648" x2="648.5" y2="1368" stroke="#D5DAE1"/>
<line x1="672.5" y1="648" x2="672.5" y2="1368" stroke="#D5DAE1"/>
<line x1="696.5" y1="648" x2="696.5" y2="1368" stroke="#D5DAE1"/>
<line x1="720.5" y1="648" x2="720.5" y2="1368" stroke="#D5DAE1"/>
<line x1="744.5" y1="648" x2="744.5" y2="1368" stroke="#D5DAE1"/>
<line x1="768.5" y1="648" x2="768.5" y2="1368" stroke="#D5DAE1"/>
<line x1="792.5" y1="648" x2="792.5" y2="1368" stroke="#D5DAE1"/>
<line x1="816.5" y1="648" x2="816.5" y2="1368" stroke="#D5DAE1"/>
<line x1="840.5" y1="648" x2="840.5" y2="1368" stroke="#D5DAE1"/>
<line x1="864.5" y1="648" x2="864.5" y2="1368" stroke="#D5DAE1"/>
<line x1="888.5" y1="648" x2="888.5" y2="1368" stroke="#D5DAE1"/>
<line x1="912.5" y1="648" x2="912.5" y2="1368" stroke="#D5DAE1"/>
<line x1="936.5" y1="648" x2="936.5" y2="1368" stroke="#D5DAE1"/>
<line x1="960.5" y1="648" x2="960.5" y2="1368" stroke="#D5DAE1"/>
<line x1="984.5" y1="648" x2="984.5" y2="1368" stroke="#D5DAE1"/>
<line x1="1008.5" y1="648" x2="1008.5" y2="1368" stroke="#D5DAE1"/>
<line x1="1032.5" y1="648" x2="1032.5" y2="1368" stroke="#D5DAE1"/>
<line x1="1056.5" y1="648" x2="1056.5" y2="1368" stroke="#D5DAE1"/>
<line x1="1080.5" y1="648" x2="1080.5" y2="1368" stroke="#D5DAE1"/>
<line x1="1104.5" y1="648" x2="1104.5" y2="1368" stroke="#D5DAE1"/>
<line x1="1128.5" y1="648" x2="1128.5" y2="1368" stroke="#D5DAE1"/>
<line x1="1152.5" y1="648" x2="1152.5" y2="1368" stroke="#D5DAE1"/>
<line x1="1176.5" y1="648" x2="1176.5" y2="1368" stroke="#D5DAE1"/>
<line x1="1200.5" y1="648" x2="1200.5" y2="1368" stroke="#D5DAE1"/>
<line x1="1224.5" y1="648" x2="1224.5" y2="1368" stroke="#D5DAE1"/>
<line x1="1248.5" y1="648" x2="1248.5" y2="1368" stroke="#D5DAE1"/>
<line x1="1272.5" y1="648" x2="1272.5" y2="1368" stroke="#D5DAE1"/>
<line x1="1296.5" y1="648" x2="1296.5" y2="1368" stroke="#D5DAE1"/>
<line x1="1320.5" y1="648" x2="1320.5" y2="1368" stroke="#D5DAE1"/>
<line x1="1344.5" y1="648" x2="1344.5" y2="1368" stroke="#D5DAE1"/>
<line x1="1368.5" y1="648" x2="1368.5" y2="1368" stroke="#D5DAE1"/>
<line x1="1392.5" y1="648" x2="1392.5" y2="1368" stroke="#D5DAE1"/>
<line x1="1416.5" y1="648" x2="1416.5" y2="1368" stroke="#D5DAE1"/>
<line x1="0.5" y1="-48" x2="0.499969" y2="672" stroke="#D5DAE1"/>
<line x1="1464" y1="0.5" x2="-24" y2="0.5" stroke="#D5DAE1"/>
<line x1="1464" y1="24.5" x2="-24" y2="24.5" stroke="#D5DAE1"/>
<line x1="1464" y1="48.5" x2="-24" y2="48.5" stroke="#D5DAE1"/>
<line x1="1464" y1="72.5" x2="-24" y2="72.5" stroke="#D5DAE1"/>
<line x1="1464" y1="96.5" x2="-24" y2="96.5" stroke="#D5DAE1"/>
<line x1="1464" y1="120.5" x2="-24" y2="120.5" stroke="#D5DAE1"/>
<line x1="1464" y1="144.5" x2="-24" y2="144.5" stroke="#D5DAE1"/>
<line x1="1464" y1="168.5" x2="-24" y2="168.5" stroke="#D5DAE1"/>
<line x1="1464" y1="192.5" x2="-24" y2="192.5" stroke="#D5DAE1"/>
<line x1="1464" y1="216.5" x2="-24" y2="216.5" stroke="#D5DAE1"/>
<line x1="1464" y1="240.5" x2="-24" y2="240.5" stroke="#D5DAE1"/>
<line x1="1464" y1="264.5" x2="-24" y2="264.5" stroke="#D5DAE1"/>
<line x1="1464" y1="288.5" x2="-24" y2="288.5" stroke="#D5DAE1"/>
<line x1="1464" y1="312.5" x2="-24" y2="312.5" stroke="#D5DAE1"/>
<line x1="1464" y1="336.5" x2="-24" y2="336.5" stroke="#D5DAE1"/>
<line x1="1464" y1="360.5" x2="-24" y2="360.5" stroke="#D5DAE1"/>
<line x1="1464" y1="384.5" x2="-24" y2="384.5" stroke="#D5DAE1"/>
<line x1="1464" y1="408.5" x2="-24" y2="408.5" stroke="#D5DAE1"/>
<line x1="1464" y1="432.5" x2="-24" y2="432.5" stroke="#D5DAE1"/>
<line x1="1464" y1="456.5" x2="-24" y2="456.5" stroke="#D5DAE1"/>
<line x1="1464" y1="480.5" x2="-24" y2="480.5" stroke="#D5DAE1"/>
<line x1="1464" y1="504.5" x2="-24" y2="504.5" stroke="#D5DAE1"/>
<line x1="1464" y1="528.5" x2="-24" y2="528.5" stroke="#D5DAE1"/>
<line x1="1464" y1="552.5" x2="-24" y2="552.5" stroke="#D5DAE1"/>
<line x1="1464" y1="576.5" x2="-24" y2="576.5" stroke="#D5DAE1"/>
<line x1="1464" y1="600.5" x2="-24" y2="600.5" stroke="#D5DAE1"/>
<line x1="1464" y1="624.5" x2="-24" y2="624.5" stroke="#D5DAE1"/>
<line x1="1464" y1="648.5" x2="-24" y2="648.5" stroke="#D5DAE1"/>
<line x1="24.5" y1="-48" x2="24.5" y2="672" stroke="#D5DAE1"/>
<line x1="24.5" y1="-48" x2="24.5" y2="672" stroke="#D5DAE1"/>
<line x1="48.5" y1="-48" x2="48.5" y2="672" stroke="#D5DAE1"/>
<line x1="72.5" y1="-48" x2="72.5" y2="672" stroke="#D5DAE1"/>
<line x1="96.5" y1="-48" x2="96.5" y2="672" stroke="#D5DAE1"/>
<line x1="120.5" y1="-48" x2="120.5" y2="672" stroke="#D5DAE1"/>
<line x1="144.5" y1="-48" x2="144.5" y2="672" stroke="#D5DAE1"/>
<line x1="168.5" y1="-48" x2="168.5" y2="672" stroke="#D5DAE1"/>
<line x1="192.5" y1="-48" x2="192.5" y2="672" stroke="#D5DAE1"/>
<line x1="216.5" y1="-48" x2="216.5" y2="672" stroke="#D5DAE1"/>
<line x1="240.5" y1="-48" x2="240.5" y2="672" stroke="#D5DAE1"/>
<line x1="264.5" y1="-48" x2="264.5" y2="672" stroke="#D5DAE1"/>
<line x1="288.5" y1="-48" x2="288.5" y2="672" stroke="#D5DAE1"/>
<line x1="312.5" y1="-48" x2="312.5" y2="672" stroke="#D5DAE1"/>
<line x1="336.5" y1="-48" x2="336.5" y2="672" stroke="#D5DAE1"/>
<line x1="360.5" y1="-48" x2="360.5" y2="672" stroke="#D5DAE1"/>
<line x1="384.5" y1="-48" x2="384.5" y2="672" stroke="#D5DAE1"/>
<line x1="408.5" y1="-48" x2="408.5" y2="672" stroke="#D5DAE1"/>
<line x1="432.5" y1="-48" x2="432.5" y2="672" stroke="#D5DAE1"/>
<line x1="456.5" y1="-48" x2="456.5" y2="672" stroke="#D5DAE1"/>
<line x1="480.5" y1="-48" x2="480.5" y2="672" stroke="#D5DAE1"/>
<line x1="504.5" y1="-48" x2="504.5" y2="672" stroke="#D5DAE1"/>
<line x1="528.5" y1="-48" x2="528.5" y2="672" stroke="#D5DAE1"/>
<line x1="552.5" y1="-48" x2="552.5" y2="672" stroke="#D5DAE1"/>
<line x1="576.5" y1="-48" x2="576.5" y2="672" stroke="#D5DAE1"/>
<line x1="600.5" y1="-48" x2="600.5" y2="672" stroke="#D5DAE1"/>
<line x1="624.5" y1="-48" x2="624.5" y2="672" stroke="#D5DAE1"/>
<line x1="648.5" y1="-48" x2="648.5" y2="672" stroke="#D5DAE1"/>
<line x1="672.5" y1="-48" x2="672.5" y2="672" stroke="#D5DAE1"/>
<line x1="696.5" y1="-48" x2="696.5" y2="672" stroke="#D5DAE1"/>
<line x1="720.5" y1="-48" x2="720.5" y2="672" stroke="#D5DAE1"/>
<line x1="744.5" y1="-48" x2="744.5" y2="672" stroke="#D5DAE1"/>
<line x1="768.5" y1="-48" x2="768.5" y2="672" stroke="#D5DAE1"/>
<line x1="792.5" y1="-48" x2="792.5" y2="672" stroke="#D5DAE1"/>
<line x1="816.5" y1="-48" x2="816.5" y2="672" stroke="#D5DAE1"/>
<line x1="840.5" y1="-48" x2="840.5" y2="672" stroke="#D5DAE1"/>
<line x1="864.5" y1="-48" x2="864.5" y2="672" stroke="#D5DAE1"/>
<line x1="888.5" y1="-48" x2="888.5" y2="672" stroke="#D5DAE1"/>
<line x1="912.5" y1="-48" x2="912.5" y2="672" stroke="#D5DAE1"/>
<line x1="936.5" y1="-48" x2="936.5" y2="672" stroke="#D5DAE1"/>
<line x1="960.5" y1="-48" x2="960.5" y2="672" stroke="#D5DAE1"/>
<line x1="984.5" y1="-48" x2="984.5" y2="672" stroke="#D5DAE1"/>
<line x1="1008.5" y1="-48" x2="1008.5" y2="672" stroke="#D5DAE1"/>
<line x1="1032.5" y1="-48" x2="1032.5" y2="672" stroke="#D5DAE1"/>
<line x1="1056.5" y1="-48" x2="1056.5" y2="672" stroke="#D5DAE1"/>
<line x1="1080.5" y1="-48" x2="1080.5" y2="672" stroke="#D5DAE1"/>
<line x1="1104.5" y1="-48" x2="1104.5" y2="672" stroke="#D5DAE1"/>
<line x1="1128.5" y1="-48" x2="1128.5" y2="672" stroke="#D5DAE1"/>
<line x1="1152.5" y1="-48" x2="1152.5" y2="672" stroke="#D5DAE1"/>
<line x1="1176.5" y1="-48" x2="1176.5" y2="672" stroke="#D5DAE1"/>
<line x1="1200.5" y1="-48" x2="1200.5" y2="672" stroke="#D5DAE1"/>
<line x1="1224.5" y1="-48" x2="1224.5" y2="672" stroke="#D5DAE1"/>
<line x1="1248.5" y1="-48" x2="1248.5" y2="672" stroke="#D5DAE1"/>
<line x1="1272.5" y1="-48" x2="1272.5" y2="672" stroke="#D5DAE1"/>
<line x1="1296.5" y1="-48" x2="1296.5" y2="672" stroke="#D5DAE1"/>
<line x1="1320.5" y1="-48" x2="1320.5" y2="672" stroke="#D5DAE1"/>
<line x1="1344.5" y1="-48" x2="1344.5" y2="672" stroke="#D5DAE1"/>
<line x1="1368.5" y1="-48" x2="1368.5" y2="672" stroke="#D5DAE1"/>
<line x1="1392.5" y1="-48" x2="1392.5" y2="672" stroke="#D5DAE1"/>
<line x1="1416.5" y1="-48" x2="1416.5" y2="672" stroke="#D5DAE1"/>
<rect width="1440" height="744" fill="url(#paint0_radial_1476_7661)"/>
<g style="mix-blend-mode:lighten" filter="url(#filter0_f_1476_7661)">
<circle cx="887.067" cy="484.001" r="19.0669" fill="#0EA5E9"/>
</g>
<g opacity="0.4" filter="url(#filter1_f_1476_7661)">
<circle cx="1177.8" cy="74.7993" r="74.7993" fill="#0B99FF"/>
</g>
<g opacity="0.4" filter="url(#filter2_f_1476_7661)">
<circle cx="1364.8" cy="285.799" r="74.7993" fill="#F59E0B"/>
</g>
<g style="mix-blend-mode:lighten" filter="url(#filter3_f_1476_7661)">
<circle cx="887.067" cy="484.001" r="19.0669" fill="#0EA5E9"/>
</g>
<g opacity="0.4" filter="url(#filter4_f_1476_7661)">
<circle cx="1177.8" cy="74.7993" r="74.7993" fill="#0B99FF"/>
</g>
<g opacity="0.4" filter="url(#filter5_f_1476_7661)">
<circle cx="1364.8" cy="285.799" r="74.7993" fill="#F59E0B"/>
</g>
<g style="mix-blend-mode:lighten" filter="url(#filter6_f_1476_7661)">
<circle cx="887.067" cy="484.001" r="19.0669" fill="#0EA5E9"/>
</g>
<g opacity="0.4" filter="url(#filter7_f_1476_7661)">
<circle cx="1177.8" cy="74.7993" r="74.7993" fill="#0B99FF"/>
</g>
<g opacity="0.4" filter="url(#filter8_f_1476_7661)">
<circle cx="1364.8" cy="285.799" r="74.7993" fill="#F59E0B"/>
</g>
<g style="mix-blend-mode:lighten" filter="url(#filter9_f_1476_7661)">
<circle cx="887.067" cy="484.001" r="19.0669" fill="#0EA5E9"/>
</g>
<g opacity="0.4" filter="url(#filter10_f_1476_7661)">
<circle cx="1177.8" cy="74.7993" r="74.7993" fill="#0B99FF"/>
</g>
<g opacity="0.4" filter="url(#filter11_f_1476_7661)">
<circle cx="1364.8" cy="285.799" r="74.7993" fill="#F59E0B"/>
</g>
<g style="mix-blend-mode:lighten" filter="url(#filter12_f_1476_7661)">
<circle cx="887.067" cy="484.001" r="19.0669" fill="#0EA5E9"/>
</g>
<g opacity="0.4" filter="url(#filter13_f_1476_7661)">
<circle cx="1177.8" cy="74.7993" r="74.7993" fill="#0B99FF"/>
</g>
<g opacity="0.4" filter="url(#filter14_f_1476_7661)">
<circle cx="1364.8" cy="285.799" r="74.7993" fill="#F59E0B"/>
</g>
<g style="mix-blend-mode:lighten" filter="url(#filter15_f_1476_7661)">
<circle cx="887.067" cy="484.001" r="19.0669" fill="#0EA5E9"/>
</g>
<g opacity="0.4" filter="url(#filter16_f_1476_7661)">
<circle cx="1177.8" cy="74.7993" r="74.7993" fill="#0B99FF"/>
</g>
<g opacity="0.4" filter="url(#filter17_f_1476_7661)">
<circle cx="1364.8" cy="285.799" r="74.7993" fill="#F59E0B"/>
</g>
<g style="mix-blend-mode:lighten" filter="url(#filter18_f_1476_7661)">
<circle cx="887.067" cy="484.001" r="19.0669" fill="#0EA5E9"/>
</g>
<g opacity="0.4" filter="url(#filter19_f_1476_7661)">
<circle cx="1177.8" cy="74.7993" r="74.7993" fill="#0B99FF"/>
</g>
<g opacity="0.4" filter="url(#filter20_f_1476_7661)">
<circle cx="1364.8" cy="285.799" r="74.7993" fill="#F59E0B"/>
</g>
<g style="mix-blend-mode:lighten" filter="url(#filter21_f_1476_7661)">
<circle cx="887.067" cy="484.001" r="19.0669" fill="#0EA5E9"/>
</g>
<g opacity="0.4" filter="url(#filter22_f_1476_7661)">
<circle cx="1177.8" cy="74.7993" r="74.7993" fill="#0B99FF"/>
</g>
<g opacity="0.4" filter="url(#filter23_f_1476_7661)">
<circle cx="1364.8" cy="285.799" r="74.7993" fill="#F59E0B"/>
</g>
<g style="mix-blend-mode:lighten" filter="url(#filter24_f_1476_7661)">
<circle cx="19.0669" cy="581" r="19.0669" fill="#0EA5E9"/>
</g>
<g opacity="0.4" filter="url(#filter25_f_1476_7661)">
<circle cx="309.799" cy="171.799" r="74.7993" fill="#0B99FF"/>
</g>
<g opacity="0.4" filter="url(#filter26_f_1476_7661)">
<circle cx="496.799" cy="382.799" r="74.7993" fill="#F59E0B"/>
</g>
<g style="mix-blend-mode:lighten" filter="url(#filter27_f_1476_7661)">
<circle cx="19.0669" cy="581" r="19.0669" fill="#0EA5E9"/>
</g>
<g opacity="0.4" filter="url(#filter28_f_1476_7661)">
<circle cx="309.799" cy="171.799" r="74.7993" fill="#0B99FF"/>
</g>
<g opacity="0.4" filter="url(#filter29_f_1476_7661)">
<circle cx="496.799" cy="382.799" r="74.7993" fill="#F59E0B"/>
</g>
<g style="mix-blend-mode:lighten" filter="url(#filter30_f_1476_7661)">
<circle cx="19.0669" cy="581" r="19.0669" fill="#0EA5E9"/>
</g>
<g opacity="0.4" filter="url(#filter31_f_1476_7661)">
<circle cx="309.799" cy="171.799" r="74.7993" fill="#0B99FF"/>
</g>
<g opacity="0.4" filter="url(#filter32_f_1476_7661)">
<circle cx="496.799" cy="382.799" r="74.7993" fill="#F59E0B"/>
</g>
<g style="mix-blend-mode:lighten" filter="url(#filter33_f_1476_7661)">
<circle cx="19.0669" cy="581" r="19.0669" fill="#0EA5E9"/>
</g>
<g opacity="0.4" filter="url(#filter34_f_1476_7661)">
<circle cx="309.799" cy="171.799" r="74.7993" fill="#0B99FF"/>
</g>
<g opacity="0.4" filter="url(#filter35_f_1476_7661)">
<circle cx="496.799" cy="382.799" r="74.7993" fill="#F59E0B"/>
</g>
<g style="mix-blend-mode:lighten" filter="url(#filter36_f_1476_7661)">
<circle cx="19.0669" cy="581" r="19.0669" fill="#0EA5E9"/>
</g>
<g opacity="0.4" filter="url(#filter37_f_1476_7661)">
<circle cx="309.799" cy="171.799" r="74.7993" fill="#0B99FF"/>
</g>
<g opacity="0.4" filter="url(#filter38_f_1476_7661)">
<circle cx="496.799" cy="382.799" r="74.7993" fill="#F59E0B"/>
</g>
<g style="mix-blend-mode:lighten" filter="url(#filter39_f_1476_7661)">
<circle cx="19.0669" cy="581" r="19.0669" fill="#0EA5E9"/>
</g>
<g opacity="0.4" filter="url(#filter40_f_1476_7661)">
<circle cx="309.799" cy="171.799" r="74.7993" fill="#0B99FF"/>
</g>
<g opacity="0.4" filter="url(#filter41_f_1476_7661)">
<circle cx="496.799" cy="382.799" r="74.7993" fill="#F59E0B"/>
</g>
<g style="mix-blend-mode:lighten" filter="url(#filter42_f_1476_7661)">
<circle cx="19.0669" cy="581" r="19.0669" fill="#0EA5E9"/>
</g>
<g opacity="0.4" filter="url(#filter43_f_1476_7661)">
<circle cx="309.799" cy="171.799" r="74.7993" fill="#0B99FF"/>
</g>
<g opacity="0.4" filter="url(#filter44_f_1476_7661)">
<circle cx="496.799" cy="382.799" r="74.7993" fill="#F59E0B"/>
</g>
</g>
</g>
<defs>
<filter id="filter0_f_1476_7661" x="821.199" y="418.133" width="131.734" height="131.735" filterUnits="userSpaceOnUse" color-interpolation-filters="sRGB">
<feFlood flood-opacity="0" result="BackgroundImageFix"/>
<feBlend mode="normal" in="SourceGraphic" in2="BackgroundImageFix" result="shape"/>
<feGaussianBlur stdDeviation="23.4003" result="effect1_foregroundBlur_1476_7661"/>
</filter>
<filter id="filter1_f_1476_7661" x="919.402" y="-183.598" width="516.798" height="516.795" filterUnits="userSpaceOnUse" color-interpolation-filters="sRGB">
<feFlood flood-opacity="0" result="BackgroundImageFix"/>
<feBlend mode="normal" in="SourceGraphic" in2="BackgroundImageFix" result="shape"/>
<feGaussianBlur stdDeviation="91.7991" result="effect1_foregroundBlur_1476_7661"/>
</filter>
<filter id="filter2_f_1476_7661" x="1106.4" y="27.4017" width="516.798" height="516.795" filterUnits="userSpaceOnUse" color-interpolation-filters="sRGB">
<feFlood flood-opacity="0" result="BackgroundImageFix"/>
<feBlend mode="normal" in="SourceGraphic" in2="BackgroundImageFix" result="shape"/>
<feGaussianBlur stdDeviation="91.7991" result="effect1_foregroundBlur_1476_7661"/>
</filter>
<filter id="filter3_f_1476_7661" x="821.199" y="418.133" width="131.734" height="131.735" filterUnits="userSpaceOnUse" color-interpolation-filters="sRGB">
<feFlood flood-opacity="0" result="BackgroundImageFix"/>
<feBlend mode="normal" in="SourceGraphic" in2="BackgroundImageFix" result="shape"/>
<feGaussianBlur stdDeviation="23.4003" result="effect1_foregroundBlur_1476_7661"/>
</filter>
<filter id="filter4_f_1476_7661" x="919.402" y="-183.598" width="516.798" height="516.795" filterUnits="userSpaceOnUse" color-interpolation-filters="sRGB">
<feFlood flood-opacity="0" result="BackgroundImageFix"/>
<feBlend mode="normal" in="SourceGraphic" in2="BackgroundImageFix" result="shape"/>
<feGaussianBlur stdDeviation="91.7991" result="effect1_foregroundBlur_1476_7661"/>
</filter>
<filter id="filter5_f_1476_7661" x="1106.4" y="27.4017" width="516.798" height="516.795" filterUnits="userSpaceOnUse" color-interpolation-filters="sRGB">
<feFlood flood-opacity="0" result="BackgroundImageFix"/>
<feBlend mode="normal" in="SourceGraphic" in2="BackgroundImageFix" result="shape"/>
<feGaussianBlur stdDeviation="91.7991" result="effect1_foregroundBlur_1476_7661"/>
</filter>
<filter id="filter6_f_1476_7661" x="821.199" y="418.133" width="131.734" height="131.735" filterUnits="userSpaceOnUse" color-interpolation-filters="sRGB">
<feFlood flood-opacity="0" result="BackgroundImageFix"/>
<feBlend mode="normal" in="SourceGraphic" in2="BackgroundImageFix" result="shape"/>
<feGaussianBlur stdDeviation="23.4003" result="effect1_foregroundBlur_1476_7661"/>
</filter>
<filter id="filter7_f_1476_7661" x="919.402" y="-183.598" width="516.798" height="516.795" filterUnits="userSpaceOnUse" color-interpolation-filters="sRGB">
<feFlood flood-opacity="0" result="BackgroundImageFix"/>
<feBlend mode="normal" in="SourceGraphic" in2="BackgroundImageFix" result="shape"/>
<feGaussianBlur stdDeviation="91.7991" result="effect1_foregroundBlur_1476_7661"/>
</filter>
<filter id="filter8_f_1476_7661" x="1106.4" y="27.4017" width="516.798" height="516.795" filterUnits="userSpaceOnUse" color-interpolation-filters="sRGB">
<feFlood flood-opacity="0" result="BackgroundImageFix"/>
<feBlend mode="normal" in="SourceGraphic" in2="BackgroundImageFix" result="shape"/>
<feGaussianBlur stdDeviation="91.7991" result="effect1_foregroundBlur_1476_7661"/>
</filter>
<filter id="filter9_f_1476_7661" x="821.199" y="418.133" width="131.734" height="131.735" filterUnits="userSpaceOnUse" color-interpolation-filters="sRGB">
<feFlood flood-opacity="0" result="BackgroundImageFix"/>
<feBlend mode="normal" in="SourceGraphic" in2="BackgroundImageFix" result="shape"/>
<feGaussianBlur stdDeviation="23.4003" result="effect1_foregroundBlur_1476_7661"/>
</filter>
<filter id="filter10_f_1476_7661" x="919.402" y="-183.598" width="516.798" height="516.795" filterUnits="userSpaceOnUse" color-interpolation-filters="sRGB">
<feFlood flood-opacity="0" result="BackgroundImageFix"/>
<feBlend mode="normal" in="SourceGraphic" in2="BackgroundImageFix" result="shape"/>
<feGaussianBlur stdDeviation="91.7991" result="effect1_foregroundBlur_1476_7661"/>
</filter>
<filter id="filter11_f_1476_7661" x="1106.4" y="27.4017" width="516.798" height="516.795" filterUnits="userSpaceOnUse" color-interpolation-filters="sRGB">
<feFlood flood-opacity="0" result="BackgroundImageFix"/>
<feBlend mode="normal" in="SourceGraphic" in2="BackgroundImageFix" result="shape"/>
<feGaussianBlur stdDeviation="91.7991" result="effect1_foregroundBlur_1476_7661"/>
</filter>
<filter id="filter12_f_1476_7661" x="821.199" y="418.133" width="131.734" height="131.735" filterUnits="userSpaceOnUse" color-interpolation-filters="sRGB">
<feFlood flood-opacity="0" result="BackgroundImageFix"/>
<feBlend mode="normal" in="SourceGraphic" in2="BackgroundImageFix" result="shape"/>
<feGaussianBlur stdDeviation="23.4003" result="effect1_foregroundBlur_1476_7661"/>
</filter>
<filter id="filter13_f_1476_7661" x="919.402" y="-183.598" width="516.798" height="516.795" filterUnits="userSpaceOnUse" color-interpolation-filters="sRGB">
<feFlood flood-opacity="0" result="BackgroundImageFix"/>
<feBlend mode="normal" in="SourceGraphic" in2="BackgroundImageFix" result="shape"/>
<feGaussianBlur stdDeviation="91.7991" result="effect1_foregroundBlur_1476_7661"/>
</filter>
<filter id="filter14_f_1476_7661" x="1106.4" y="27.4017" width="516.798" height="516.795" filterUnits="userSpaceOnUse" color-interpolation-filters="sRGB">
<feFlood flood-opacity="0" result="BackgroundImageFix"/>
<feBlend mode="normal" in="SourceGraphic" in2="BackgroundImageFix" result="shape"/>
<feGaussianBlur stdDeviation="91.7991" result="effect1_foregroundBlur_1476_7661"/>
</filter>
<filter id="filter15_f_1476_7661" x="821.199" y="418.133" width="131.734" height="131.735" filterUnits="userSpaceOnUse" color-interpolation-filters="sRGB">
<feFlood flood-opacity="0" result="BackgroundImageFix"/>
<feBlend mode="normal" in="SourceGraphic" in2="BackgroundImageFix" result="shape"/>
<feGaussianBlur stdDeviation="23.4003" result="effect1_foregroundBlur_1476_7661"/>
</filter>
<filter id="filter16_f_1476_7661" x="919.402" y="-183.598" width="516.798" height="516.795" filterUnits="userSpaceOnUse" color-interpolation-filters="sRGB">
<feFlood flood-opacity="0" result="BackgroundImageFix"/>
<feBlend mode="normal" in="SourceGraphic" in2="BackgroundImageFix" result="shape"/>
<feGaussianBlur stdDeviation="91.7991" result="effect1_foregroundBlur_1476_7661"/>
</filter>
<filter id="filter17_f_1476_7661" x="1106.4" y="27.4017" width="516.798" height="516.795" filterUnits="userSpaceOnUse" color-interpolation-filters="sRGB">
<feFlood flood-opacity="0" result="BackgroundImageFix"/>
<feBlend mode="normal" in="SourceGraphic" in2="BackgroundImageFix" result="shape"/>
<feGaussianBlur stdDeviation="91.7991" result="effect1_foregroundBlur_1476_7661"/>
</filter>
<filter id="filter18_f_1476_7661" x="821.199" y="418.133" width="131.734" height="131.735" filterUnits="userSpaceOnUse" color-interpolation-filters="sRGB">
<feFlood flood-opacity="0" result="BackgroundImageFix"/>
<feBlend mode="normal" in="SourceGraphic" in2="BackgroundImageFix" result="shape"/>
<feGaussianBlur stdDeviation="23.4003" result="effect1_foregroundBlur_1476_7661"/>
</filter>
<filter id="filter19_f_1476_7661" x="919.402" y="-183.598" width="516.798" height="516.795" filterUnits="userSpaceOnUse" color-interpolation-filters="sRGB">
<feFlood flood-opacity="0" result="BackgroundImageFix"/>
<feBlend mode="normal" in="SourceGraphic" in2="BackgroundImageFix" result="shape"/>
<feGaussianBlur stdDeviation="91.7991" result="effect1_foregroundBlur_1476_7661"/>
</filter>
<filter id="filter20_f_1476_7661" x="1106.4" y="27.4017" width="516.798" height="516.795" filterUnits="userSpaceOnUse" color-interpolation-filters="sRGB">
<feFlood flood-opacity="0" result="BackgroundImageFix"/>
<feBlend mode="normal" in="SourceGraphic" in2="BackgroundImageFix" result="shape"/>
<feGaussianBlur stdDeviation="91.7991" result="effect1_foregroundBlur_1476_7661"/>
</filter>
<filter id="filter21_f_1476_7661" x="821.199" y="418.133" width="131.734" height="131.735" filterUnits="userSpaceOnUse" color-interpolation-filters="sRGB">
<feFlood flood-opacity="0" result="BackgroundImageFix"/>
<feBlend mode="normal" in="SourceGraphic" in2="BackgroundImageFix" result="shape"/>
<feGaussianBlur stdDeviation="23.4003" result="effect1_foregroundBlur_1476_7661"/>
</filter>
<filter id="filter22_f_1476_7661" x="919.402" y="-183.598" width="516.798" height="516.795" filterUnits="userSpaceOnUse" color-interpolation-filters="sRGB">
<feFlood flood-opacity="0" result="BackgroundImageFix"/>
<feBlend mode="normal" in="SourceGraphic" in2="BackgroundImageFix" result="shape"/>
<feGaussianBlur stdDeviation="91.7991" result="effect1_foregroundBlur_1476_7661"/>
</filter>
<filter id="filter23_f_1476_7661" x="1106.4" y="27.4017" width="516.798" height="516.795" filterUnits="userSpaceOnUse" color-interpolation-filters="sRGB">
<feFlood flood-opacity="0" result="BackgroundImageFix"/>
<feBlend mode="normal" in="SourceGraphic" in2="BackgroundImageFix" result="shape"/>
<feGaussianBlur stdDeviation="91.7991" result="effect1_foregroundBlur_1476_7661"/>
</filter>
<filter id="filter24_f_1476_7661" x="-46.8006" y="515.133" width="131.734" height="131.735" filterUnits="userSpaceOnUse" color-interpolation-filters="sRGB">
<feFlood flood-opacity="0" result="BackgroundImageFix"/>
<feBlend mode="normal" in="SourceGraphic" in2="BackgroundImageFix" result="shape"/>
<feGaussianBlur stdDeviation="23.4003" result="effect1_foregroundBlur_1476_7661"/>
</filter>
<filter id="filter25_f_1476_7661" x="51.4017" y="-86.5983" width="516.798" height="516.795" filterUnits="userSpaceOnUse" color-interpolation-filters="sRGB">
<feFlood flood-opacity="0" result="BackgroundImageFix"/>
<feBlend mode="normal" in="SourceGraphic" in2="BackgroundImageFix" result="shape"/>
<feGaussianBlur stdDeviation="91.7991" result="effect1_foregroundBlur_1476_7661"/>
</filter>
<filter id="filter26_f_1476_7661" x="238.402" y="124.402" width="516.798" height="516.795" filterUnits="userSpaceOnUse" color-interpolation-filters="sRGB">
<feFlood flood-opacity="0" result="BackgroundImageFix"/>
<feBlend mode="normal" in="SourceGraphic" in2="BackgroundImageFix" result="shape"/>
<feGaussianBlur stdDeviation="91.7991" result="effect1_foregroundBlur_1476_7661"/>
</filter>
<filter id="filter27_f_1476_7661" x="-46.8006" y="515.133" width="131.734" height="131.735" filterUnits="userSpaceOnUse" color-interpolation-filters="sRGB">
<feFlood flood-opacity="0" result="BackgroundImageFix"/>
<feBlend mode="normal" in="SourceGraphic" in2="BackgroundImageFix" result="shape"/>
<feGaussianBlur stdDeviation="23.4003" result="effect1_foregroundBlur_1476_7661"/>
</filter>
<filter id="filter28_f_1476_7661" x="51.4017" y="-86.5983" width="516.798" height="516.795" filterUnits="userSpaceOnUse" color-interpolation-filters="sRGB">
<feFlood flood-opacity="0" result="BackgroundImageFix"/>
<feBlend mode="normal" in="SourceGraphic" in2="BackgroundImageFix" result="shape"/>
<feGaussianBlur stdDeviation="91.7991" result="effect1_foregroundBlur_1476_7661"/>
</filter>
<filter id="filter29_f_1476_7661" x="238.402" y="124.402" width="516.798" height="516.795" filterUnits="userSpaceOnUse" color-interpolation-filters="sRGB">
<feFlood flood-opacity="0" result="BackgroundImageFix"/>
<feBlend mode="normal" in="SourceGraphic" in2="BackgroundImageFix" result="shape"/>
<feGaussianBlur stdDeviation="91.7991" result="effect1_foregroundBlur_1476_7661"/>
</filter>
<filter id="filter30_f_1476_7661" x="-46.8006" y="515.133" width="131.734" height="131.735" filterUnits="userSpaceOnUse" color-interpolation-filters="sRGB">
<feFlood flood-opacity="0" result="BackgroundImageFix"/>
<feBlend mode="normal" in="SourceGraphic" in2="BackgroundImageFix" result="shape"/>
<feGaussianBlur stdDeviation="23.4003" result="effect1_foregroundBlur_1476_7661"/>
</filter>
<filter id="filter31_f_1476_7661" x="51.4017" y="-86.5983" width="516.798" height="516.795" filterUnits="userSpaceOnUse" color-interpolation-filters="sRGB">
<feFlood flood-opacity="0" result="BackgroundImageFix"/>
<feBlend mode="normal" in="SourceGraphic" in2="BackgroundImageFix" result="shape"/>
<feGaussianBlur stdDeviation="91.7991" result="effect1_foregroundBlur_1476_7661"/>
</filter>
<filter id="filter32_f_1476_7661" x="238.402" y="124.402" width="516.798" height="516.795" filterUnits="userSpaceOnUse" color-interpolation-filters="sRGB">
<feFlood flood-opacity="0" result="BackgroundImageFix"/>
<feBlend mode="normal" in="SourceGraphic" in2="BackgroundImageFix" result="shape"/>
<feGaussianBlur stdDeviation="91.7991" result="effect1_foregroundBlur_1476_7661"/>
</filter>
<filter id="filter33_f_1476_7661" x="-46.8006" y="515.133" width="131.734" height="131.735" filterUnits="userSpaceOnUse" color-interpolation-filters="sRGB">
<feFlood flood-opacity="0" result="BackgroundImageFix"/>
<feBlend mode="normal" in="SourceGraphic" in2="BackgroundImageFix" result="shape"/>
<feGaussianBlur stdDeviation="23.4003" result="effect1_foregroundBlur_1476_7661"/>
</filter>
<filter id="filter34_f_1476_7661" x="51.4017" y="-86.5983" width="516.798" height="516.795" filterUnits="userSpaceOnUse" color-interpolation-filters="sRGB">
<feFlood flood-opacity="0" result="BackgroundImageFix"/>
<feBlend mode="normal" in="SourceGraphic" in2="BackgroundImageFix" result="shape"/>
<feGaussianBlur stdDeviation="91.7991" result="effect1_foregroundBlur_1476_7661"/>
</filter>
<filter id="filter35_f_1476_7661" x="238.402" y="124.402" width="516.798" height="516.795" filterUnits="userSpaceOnUse" color-interpolation-filters="sRGB">
<feFlood flood-opacity="0" result="BackgroundImageFix"/>
<feBlend mode="normal" in="SourceGraphic" in2="BackgroundImageFix" result="shape"/>
<feGaussianBlur stdDeviation="91.7991" result="effect1_foregroundBlur_1476_7661"/>
</filter>
<filter id="filter36_f_1476_7661" x="-46.8006" y="515.133" width="131.734" height="131.735" filterUnits="userSpaceOnUse" color-interpolation-filters="sRGB">
<feFlood flood-opacity="0" result="BackgroundImageFix"/>
<feBlend mode="normal" in="SourceGraphic" in2="BackgroundImageFix" result="shape"/>
<feGaussianBlur stdDeviation="23.4003" result="effect1_foregroundBlur_1476_7661"/>
</filter>
<filter id="filter37_f_1476_7661" x="51.4017" y="-86.5983" width="516.798" height="516.795" filterUnits="userSpaceOnUse" color-interpolation-filters="sRGB">
<feFlood flood-opacity="0" result="BackgroundImageFix"/>
<feBlend mode="normal" in="SourceGraphic" in2="BackgroundImageFix" result="shape"/>
<feGaussianBlur stdDeviation="91.7991" result="effect1_foregroundBlur_1476_7661"/>
</filter>
<filter id="filter38_f_1476_7661" x="238.402" y="124.402" width="516.798" height="516.795" filterUnits="userSpaceOnUse" color-interpolation-filters="sRGB">
<feFlood flood-opacity="0" result="BackgroundImageFix"/>
<feBlend mode="normal" in="SourceGraphic" in2="BackgroundImageFix" result="shape"/>
<feGaussianBlur stdDeviation="91.7991" result="effect1_foregroundBlur_1476_7661"/>
</filter>
<filter id="filter39_f_1476_7661" x="-46.8006" y="515.133" width="131.734" height="131.735" filterUnits="userSpaceOnUse" color-interpolation-filters="sRGB">
<feFlood flood-opacity="0" result="BackgroundImageFix"/>
<feBlend mode="normal" in="SourceGraphic" in2="BackgroundImageFix" result="shape"/>
<feGaussianBlur stdDeviation="23.4003" result="effect1_foregroundBlur_1476_7661"/>
</filter>
<filter id="filter40_f_1476_7661" x="51.4017" y="-86.5983" width="516.798" height="516.795" filterUnits="userSpaceOnUse" color-interpolation-filters="sRGB">
<feFlood flood-opacity="0" result="BackgroundImageFix"/>
<feBlend mode="normal" in="SourceGraphic" in2="BackgroundImageFix" result="shape"/>
<feGaussianBlur stdDeviation="91.7991" result="effect1_foregroundBlur_1476_7661"/>
</filter>
<filter id="filter41_f_1476_7661" x="238.402" y="124.402" width="516.798" height="516.795" filterUnits="userSpaceOnUse" color-interpolation-filters="sRGB">
<feFlood flood-opacity="0" result="BackgroundImageFix"/>
<feBlend mode="normal" in="SourceGraphic" in2="BackgroundImageFix" result="shape"/>
<feGaussianBlur stdDeviation="91.7991" result="effect1_foregroundBlur_1476_7661"/>
</filter>
<filter id="filter42_f_1476_7661" x="-46.8006" y="515.133" width="131.734" height="131.735" filterUnits="userSpaceOnUse" color-interpolation-filters="sRGB">
<feFlood flood-opacity="0" result="BackgroundImageFix"/>
<feBlend mode="normal" in="SourceGraphic" in2="BackgroundImageFix" result="shape"/>
<feGaussianBlur stdDeviation="23.4003" result="effect1_foregroundBlur_1476_7661"/>
</filter>
<filter id="filter43_f_1476_7661" x="51.4017" y="-86.5983" width="516.798" height="516.795" filterUnits="userSpaceOnUse" color-interpolation-filters="sRGB">
<feFlood flood-opacity="0" result="BackgroundImageFix"/>
<feBlend mode="normal" in="SourceGraphic" in2="BackgroundImageFix" result="shape"/>
<feGaussianBlur stdDeviation="91.7991" result="effect1_foregroundBlur_1476_7661"/>
</filter>
<filter id="filter44_f_1476_7661" x="238.402" y="124.402" width="516.798" height="516.795" filterUnits="userSpaceOnUse" color-interpolation-filters="sRGB">
<feFlood flood-opacity="0" result="BackgroundImageFix"/>
<feBlend mode="normal" in="SourceGraphic" in2="BackgroundImageFix" result="shape"/>
<feGaussianBlur stdDeviation="91.7991" result="effect1_foregroundBlur_1476_7661"/>
</filter>
<radialGradient id="paint0_radial_1476_7661" cx="0" cy="0" r="1" gradientUnits="userSpaceOnUse" gradientTransform="translate(710.5 415.4) rotate(88.344) scale(328.737 636.551)">
<stop stop-color="#F7F8F9" stop-opacity="0.36"/>
<stop offset="1" stop-color="#F7F8F9"/>
</radialGradient>
<clipPath id="clip0_1476_7661">
<rect width="1440" height="744" fill="white"/>
</clipPath>
</defs>
</svg>
