<svg width="173" height="173" viewBox="0 0 173 173" fill="none" xmlns="http://www.w3.org/2000/svg">
<g filter="url(#filter0_dd_102_2)">
<rect x="25" y="25" width="123" height="123" rx="20" fill="#303234"/>
<g filter="url(#filter1_d_102_2)">
<path d="M99.7719 90.1875L101.535 79.5099H90.5113V72.5808C90.5113 69.6596 92.0512 66.8122 96.9884 66.8122H102V57.7214C102 57.7214 97.4521 57 93.1039 57C84.0255 57 78.0914 62.1141 78.0914 71.372V79.5099H68V90.1875H78.0914V116H90.5113V90.1875H99.7719Z" fill="#03A9F1"/>
<path d="M102.5 67.3125H96.9883C94.6172 67.3125 93.1472 67.9931 92.2646 68.9414C91.3751 69.8974 91.0117 71.2016 91.0117 72.5811V79.0098H102.124L102.028 79.5918L100.266 90.2686L100.196 90.6875H91.0117V116.5H77.5918V90.6875H67.5V79.0098H77.5918V71.3721C77.5918 66.6326 79.1138 62.8966 81.8525 60.3486C84.5862 57.8055 88.4733 56.5001 93.1035 56.5C95.3024 56.5 97.5467 56.682 99.2363 56.8633C100.082 56.954 100.791 57.0451 101.289 57.1133C101.538 57.1473 101.735 57.1753 101.869 57.1953C101.936 57.2053 101.988 57.2133 102.023 57.2188C102.041 57.2215 102.055 57.2242 102.064 57.2256C102.069 57.2262 102.072 57.2262 102.074 57.2266C102.075 57.2267 102.077 57.2274 102.077 57.2275H102.078L102.5 57.2939V67.3125Z" stroke="#333030" stroke-opacity="0.5"/>
</g>
</g>
<defs>
<filter id="filter0_dd_102_2" x="0" y="0" width="173" height="173" filterUnits="userSpaceOnUse" color-interpolation-filters="sRGB">
<feFlood flood-opacity="0" result="BackgroundImageFix"/>
<feColorMatrix in="SourceAlpha" type="matrix" values="0 0 0 0 0 0 0 0 0 0 0 0 0 0 0 0 0 0 127 0" result="hardAlpha"/>
<feOffset dx="-9" dy="-9"/>
<feGaussianBlur stdDeviation="8"/>
<feColorMatrix type="matrix" values="0 0 0 0 0.2875 0 0 0 0 0.2875 0 0 0 0 0.2875 0 0 0 0.4 0"/>
<feBlend mode="normal" in2="BackgroundImageFix" result="effect1_dropShadow_102_2"/>
<feColorMatrix in="SourceAlpha" type="matrix" values="0 0 0 0 0 0 0 0 0 0 0 0 0 0 0 0 0 0 127 0" result="hardAlpha"/>
<feOffset dx="9" dy="9"/>
<feGaussianBlur stdDeviation="8"/>
<feColorMatrix type="matrix" values="0 0 0 0 0 0 0 0 0 0 0 0 0 0 0 0 0 0 0.4 0"/>
<feBlend mode="normal" in2="effect1_dropShadow_102_2" result="effect2_dropShadow_102_2"/>
<feBlend mode="normal" in="SourceGraphic" in2="effect2_dropShadow_102_2" result="shape"/>
</filter>
<filter id="filter1_d_102_2" x="65" y="54" width="44" height="69" filterUnits="userSpaceOnUse" color-interpolation-filters="sRGB">
<feFlood flood-opacity="0" result="BackgroundImageFix"/>
<feColorMatrix in="SourceAlpha" type="matrix" values="0 0 0 0 0 0 0 0 0 0 0 0 0 0 0 0 0 0 127 0" result="hardAlpha"/>
<feOffset dx="2" dy="2"/>
<feGaussianBlur stdDeviation="2"/>
<feColorMatrix type="matrix" values="0 0 0 0 0 0 0 0 0 0 0 0 0 0 0 0 0 0 0.25 0"/>
<feBlend mode="normal" in2="BackgroundImageFix" result="effect1_dropShadow_102_2"/>
<feBlend mode="normal" in="SourceGraphic" in2="effect1_dropShadow_102_2" result="shape"/>
</filter>
</defs>
</svg>
