<svg width="36" height="36" viewBox="0 0 36 36" fill="none" xmlns="http://www.w3.org/2000/svg">
<path d="M35.999 18.0005C35.999 27.0915 29.2598 34.607 20.5057 35.8269C19.6869 35.9409 18.8494 36 17.9995 36C17.0179 36 16.0551 35.9212 15.116 35.7699C6.5464 34.3904 0 26.9588 0 17.9995C0 8.05862 8.05862 0 17.9995 0C27.9403 0 35.999 8.05862 35.999 17.9995V18.0005Z" fill="#404143"/>
<path d="M16.5901 18.6858C16.274 18.2888 15.9112 17.9851 15.5049 17.7789C15.8646 17.5612 16.1724 17.2917 16.4274 16.9735C16.8575 16.4356 17.0762 15.7598 17.0762 14.9648C17.0762 14.3024 16.9011 13.694 16.5549 13.155C16.2097 12.6181 15.6966 12.1859 15.0302 11.8718C14.3761 11.564 13.5894 11.4075 12.6908 11.4075H7.58597V24.5898H12.925C13.7998 24.5898 14.5803 24.4302 15.2458 24.1171C15.9236 23.7979 16.4523 23.3511 16.815 22.7904C17.1788 22.2276 17.3634 21.5881 17.3634 20.8894C17.3634 20.0716 17.1032 19.3295 16.5891 18.6838L16.5901 18.6858ZM13.8786 16.2842C13.5625 16.5403 13.1033 16.6698 12.5115 16.6698H10.3037V13.7489H12.5115C13.1002 13.7489 13.5583 13.8837 13.8734 14.148C14.175 14.4019 14.3222 14.7523 14.3222 15.2177C14.3222 15.6831 14.1771 16.0417 13.8776 16.2842H13.8786ZM10.3037 19.0082H12.6742C13.2951 19.0082 13.7718 19.1585 14.1336 19.4684C14.4798 19.7648 14.6477 20.1597 14.6477 20.6759C14.6477 21.1921 14.4912 21.5559 14.1709 21.8275C13.8382 22.1104 13.3593 22.2535 12.7467 22.2535H10.3047V19.0082H10.3037Z" fill="white"/>
<path d="M27.7945 16.4811C27.383 15.7379 26.8015 15.1523 26.0635 14.7418C25.3265 14.3314 24.4756 14.123 23.5355 14.123C22.5953 14.123 21.6811 14.3376 20.9266 14.7595C20.1709 15.1824 19.577 15.7929 19.1593 16.5713C18.7426 17.3497 18.5322 18.2639 18.5322 19.288C18.5322 20.312 18.7499 21.2262 19.178 22.0047C19.6071 22.7841 20.2072 23.3967 20.9618 23.8248C21.7164 24.2539 22.5819 24.4705 23.5355 24.4705C24.7057 24.4705 25.7007 24.173 26.4926 23.5874C27.2835 23.0007 27.838 22.2389 28.1407 21.3206L28.1624 21.2553H25.8469L25.8334 21.2832C25.3877 22.185 24.6155 22.6421 23.5365 22.6421C22.784 22.6421 22.1413 22.4037 21.6241 21.9342C21.1194 21.476 20.8302 20.8635 20.7618 20.111H28.3334L28.3397 20.0685C28.3884 19.7658 28.4122 19.4238 28.4122 19.0516C28.4122 18.0867 28.2039 17.2212 27.7934 16.479L27.7945 16.4811ZM21.6594 16.6148C22.1517 16.1753 22.7529 15.9525 23.4453 15.9525C24.2092 15.9525 24.8591 16.1784 25.3763 16.6252C25.879 17.0595 26.1454 17.642 26.1682 18.3572H20.7825C20.8841 17.6306 21.1784 17.045 21.6594 16.6159V16.6148Z" fill="white"/>
<path d="M25.994 11.7134H20.9503V12.9085H25.994V11.7134Z" fill="white"/>
</svg>
