<svg width="36" height="36" viewBox="0 0 36 36" fill="none" xmlns="http://www.w3.org/2000/svg">
<path d="M35.998 17.9995C35.998 27.0904 29.2588 34.6059 20.5047 35.8259C19.6859 35.9399 18.8484 35.999 17.9985 35.999C17.017 35.999 16.0541 35.9202 15.1151 35.7689C6.54338 34.3893 -0.00198364 26.9588 -0.00198364 17.9995C-0.00198364 8.05862 8.05663 0 17.9975 0C27.9384 0 35.997 8.05862 35.997 17.9995H35.998Z" fill="#404143"/>
<path d="M20.5047 14.4526V18.3736H25.3554L24.5874 23.6565H20.5047V35.8268C19.6859 35.9408 18.8484 35.9999 17.9985 35.9999C17.017 35.9999 16.0541 35.9212 15.115 35.7698V23.6565H10.6416V18.3736H15.115V13.5768C15.115 10.6 17.528 8.18604 20.5058 8.18604V8.18914C20.5141 8.18914 20.5224 8.18604 20.5306 8.18604H25.3565V12.7538H22.2035C21.2655 12.7538 20.5058 13.5135 20.5058 14.4515L20.5047 14.4526Z" fill="white"/>
</svg>
