<svg width="43" height="42" viewBox="0 0 43 42" fill="none" xmlns="http://www.w3.org/2000/svg">
<path d="M21.4994 41.9988C20.3703 41.9988 19.2389 41.9088 18.1355 41.7312C13.2649 40.9469 8.80116 38.4432 5.56814 34.6819C2.30006 30.8796 0.5 26.0208 0.5 20.9994C0.5 9.41969 9.92088 0 21.4994 0C33.078 0 42.5 9.42086 42.5 20.9994C42.5 26.0979 40.6508 31.014 37.2916 34.842C33.9651 38.6349 29.3949 41.1047 24.4227 41.7978C23.4607 41.9322 22.4766 42 21.4994 42V41.9988ZM21.4994 1.40144C10.6935 1.40144 1.90261 10.1923 1.90261 20.9982C1.90261 30.6739 8.82333 38.8102 18.3587 40.3449C20.2803 40.6547 22.2942 40.6769 24.2286 40.4069C33.8447 39.0674 41.0962 30.723 41.0962 20.9982C41.0962 10.1923 32.3054 1.40144 21.4983 1.40144H21.4994Z" fill="#007EBB"/>
<path d="M11.078 14.1429C10.5369 13.6403 10.2668 13.0185 10.2668 12.2786C10.2668 11.5387 10.5369 10.8888 11.078 10.3862C11.6192 9.88362 12.3159 9.63232 13.1703 9.63232C14.0247 9.63232 14.6932 9.88362 15.2333 10.3862C15.7744 10.8888 16.0445 11.52 16.0445 12.2786C16.0445 13.0372 15.7744 13.6403 15.2333 14.1429C14.6921 14.6455 14.0049 14.8968 13.1703 14.8968C12.3358 14.8968 11.6192 14.6455 11.078 14.1429ZM15.5886 17.0252V32.4271H10.7227V17.0252H15.5886Z" fill="#007EBB"/>
<path d="M31.7899 18.546C32.85 19.6973 33.3806 21.2788 33.3806 23.2915V32.156H28.7579V23.9168C28.7579 22.9023 28.4949 22.1133 27.9689 21.5511C27.4429 20.9889 26.7358 20.7084 25.8475 20.7084C24.9592 20.7084 24.252 20.9901 23.726 21.5511C23.2001 22.1133 22.9371 22.9023 22.9371 23.9168V32.156H18.2874V16.9833H22.9371V18.996C23.4081 18.3251 24.0428 17.7956 24.8411 17.4052C25.6383 17.016 26.536 16.8208 27.533 16.8208C29.3096 16.8208 30.7285 17.397 31.7886 18.5472L31.7899 18.546Z" fill="#007EBB"/>
</svg>
