<svg width="43" height="42" viewBox="0 0 43 42" fill="none" xmlns="http://www.w3.org/2000/svg">
<path d="M21.4994 41.9988C20.3715 41.9988 19.24 41.9088 18.1355 41.7312C13.2649 40.9469 8.8011 38.4432 5.56808 34.6819C2.3 30.8796 0.5 26.0208 0.5 20.9994C0.5 9.41969 9.92088 0 21.4994 0C33.078 0 42.5 9.42086 42.5 20.9994C42.5 26.0979 40.6509 31.014 37.2917 34.842C33.9652 38.6349 29.3949 41.1047 24.4227 41.7978C23.4607 41.9322 22.4766 42 21.4994 42V41.9988ZM21.4994 1.40144C10.6935 1.40144 1.90261 10.1923 1.90261 20.9982C1.90261 30.6727 8.82333 38.8102 18.3587 40.3449C20.2827 40.6547 22.2942 40.6769 24.2286 40.4069C33.8447 39.0674 41.0962 30.723 41.0962 20.9982C41.0962 10.1923 32.3054 1.40144 21.4983 1.40144H21.4994Z" fill="#1877F7"/>
<path d="M19.9097 21.7721C19.5532 21.3244 19.1442 20.9819 18.686 20.7493C19.0916 20.5039 19.4388 20.2 19.7263 19.8411C20.2114 19.2345 20.458 18.4724 20.458 17.5759C20.458 16.829 20.2604 16.1429 19.87 15.5351C19.4808 14.9297 18.9022 14.4423 18.1506 14.0881C17.4131 13.7409 16.526 13.5645 15.5126 13.5645H9.7561V28.4298H15.7768C16.7633 28.4298 17.6434 28.2498 18.3938 27.8968C19.1582 27.5368 19.7544 27.033 20.1635 26.4007C20.5737 25.766 20.7818 25.0448 20.7818 24.257C20.7818 23.3348 20.4883 22.4979 19.9086 21.7697L19.9097 21.7721ZM16.8521 19.0639C16.4956 19.3526 15.9778 19.4987 15.3104 19.4987H12.8208V16.2049H15.3104C15.9743 16.2049 16.4909 16.3568 16.8462 16.6549C17.1863 16.9412 17.3523 17.3363 17.3523 17.8611C17.3523 18.3859 17.1887 18.7903 16.8509 19.0639H16.8521ZM12.8208 22.1356H15.4939C16.1941 22.1356 16.7317 22.305 17.1397 22.6545C17.5301 22.9888 17.7194 23.4342 17.7194 24.0162C17.7194 24.5983 17.5428 25.0086 17.1817 25.3148C16.8065 25.6339 16.2666 25.7952 15.5758 25.7952H12.8219V22.1356H12.8208Z" fill="#1877F7"/>
<path d="M32.545 19.2858C32.0809 18.4478 31.4252 17.7874 30.593 17.3245C29.7619 16.8616 28.8024 16.6267 27.7422 16.6267C26.6821 16.6267 25.6512 16.8687 24.8003 17.3444C23.9482 17.8213 23.2783 18.5097 22.8073 19.3875C22.3374 20.2653 22.1002 21.2962 22.1002 22.451C22.1002 23.6059 22.3457 24.6368 22.8284 25.5146C23.3123 26.3936 23.9891 27.0843 24.84 27.5671C25.6909 28.051 26.6669 28.2953 27.7422 28.2953C29.0618 28.2953 30.1838 27.9598 31.0768 27.2994C31.9687 26.6378 32.594 25.7787 32.9353 24.7431L32.9599 24.6695H30.3487L30.3335 24.7011C29.8309 25.718 28.9601 26.2334 27.7434 26.2334C26.8948 26.2334 26.1701 25.9646 25.5868 25.4351C25.0176 24.9185 24.6915 24.2277 24.6143 23.3791H33.1528L33.1598 23.3312C33.2147 22.9899 33.2416 22.6042 33.2416 22.1846C33.2416 21.0964 33.0067 20.1204 32.5438 19.2835L32.545 19.2858ZM25.6265 19.4366C26.1817 18.941 26.8597 18.6897 27.6405 18.6897C28.502 18.6897 29.2348 18.9445 29.8181 19.4483C30.3849 19.938 30.6853 20.5949 30.711 21.4014H24.6377C24.7523 20.5821 25.0842 19.9217 25.6265 19.4378V19.4366Z" fill="#1877F7"/>
<path d="M30.5147 13.9092H24.8271V15.2569H30.5147V13.9092Z" fill="#1877F7"/>
</svg>
