<svg width="43" height="42" viewBox="0 0 43 42" fill="none" xmlns="http://www.w3.org/2000/svg">
<path d="M21.4994 42C20.3715 42 19.2389 41.91 18.1355 41.7312C13.2649 40.9469 8.8011 38.4432 5.56808 34.6819C2.3 30.8796 0.5 26.0208 0.5 20.9994C0.5 9.41969 9.92088 0 21.4994 0C33.078 0 42.5 9.42086 42.5 20.9994C42.5 26.0979 40.6509 31.014 37.2916 34.842C33.9651 38.6349 29.3949 41.1047 24.4227 41.7978C23.4607 41.9322 22.4766 42 21.4994 42ZM21.4994 1.40261C10.6935 1.40261 1.90261 10.1935 1.90261 20.9994C1.90261 30.6739 8.82333 38.8114 18.3587 40.3461C20.2815 40.6558 22.2943 40.678 24.2287 40.408C33.8447 39.0685 41.0962 30.7242 41.0962 20.9994C41.0962 10.1935 32.3053 1.40261 21.4982 1.40261H21.4994Z" fill="#1877F7"/>
<path d="M24.3257 16.9997V21.4214H29.7958L28.9297 27.379H24.3257V41.1035C23.4023 41.2321 22.4579 41.2987 21.4994 41.2987C20.3925 41.2987 19.3067 41.2099 18.2477 41.0392V27.379H13.203V21.4214H18.2477V16.012C18.2477 12.6551 20.9687 9.93286 24.3268 9.93286V9.93637C24.3362 9.93637 24.3456 9.93286 24.3549 9.93286H29.797V15.0839H26.2414C25.1836 15.0839 24.3268 15.9407 24.3268 16.9985L24.3257 16.9997Z" fill="#1877F7"/>
</svg>
