<svg width="36" height="36" viewBox="0 0 36 36" fill="none" xmlns="http://www.w3.org/2000/svg">
<path d="M35.998 18.0006C35.998 27.0915 29.2588 34.6071 20.5047 35.827C19.6859 35.941 18.8484 36.0001 17.9985 36.0001C17.0169 36.0001 16.054 35.9213 15.115 35.77C6.54537 34.3904 -0.0010376 26.9589 -0.0010376 17.9995C-0.0010376 8.05864 8.05759 0 17.9985 0C27.9394 0 35.998 8.05864 35.998 17.9995V18.0006Z" fill="#404143"/>
<path d="M8.75726 11.9214C8.27737 11.4757 8.03793 10.9243 8.03793 10.2682C8.03793 9.61213 8.27737 9.03585 8.75726 8.59016C9.23715 8.14448 9.85488 7.92163 10.6125 7.92163C11.3702 7.92163 11.9631 8.14448 12.4419 8.59016C12.9218 9.03585 13.1613 9.59555 13.1613 10.2682C13.1613 10.9409 12.9218 11.4757 12.4419 11.9214C11.962 12.3671 11.3526 12.5899 10.6125 12.5899C9.8725 12.5899 9.23715 12.3671 8.75726 11.9214ZM12.757 14.4774V28.1351H8.44216V14.4774H12.757Z" fill="#FEFFFC"/>
<path d="M27.1235 15.826C28.0636 16.8469 28.5341 18.2493 28.5341 20.0341V27.8948H24.4348V20.5886C24.4348 19.6889 24.2016 18.9893 23.7352 18.4908C23.2688 17.9922 22.6417 17.7435 21.854 17.7435C21.0663 17.7435 20.4392 17.9933 19.9728 18.4908C19.5064 18.9893 19.2732 19.6889 19.2732 20.5886V27.8948H15.1501V14.4402H19.2732V16.225C19.6909 15.6301 20.2537 15.1606 20.9616 14.8144C21.6685 14.4692 22.4645 14.2961 23.3486 14.2961C24.9241 14.2961 26.1824 14.8071 27.1224 15.827L27.1235 15.826Z" fill="#FEFFFC"/>
</svg>
