<svg width="43" height="42" viewBox="0 0 43 42" fill="none" xmlns="http://www.w3.org/2000/svg">
<path d="M21.4994 42C20.3715 42 19.2389 41.91 18.1355 41.7312C13.2649 40.9469 8.8011 38.4432 5.56808 34.6819C2.3 30.8796 0.5 26.0208 0.5 20.9994C0.5 9.41969 9.92088 0 21.4994 0C33.078 0 42.5 9.42086 42.5 20.9994C42.5 26.0979 40.6509 31.014 37.2916 34.842C33.9651 38.6349 29.3949 41.1047 24.4227 41.7978C23.4607 41.9322 22.4766 42 21.4994 42ZM21.4994 1.40261C10.6935 1.40261 1.90261 10.1935 1.90261 20.9994C1.90261 30.6739 8.82333 38.8114 18.3587 40.3461C20.2815 40.6558 22.2943 40.678 24.2287 40.408C33.8447 39.0685 41.0962 30.7242 41.0962 20.9994C41.0962 10.1935 32.3053 1.40261 21.4982 1.40261H21.4994Z" fill="#1877F7"/>
<path d="M23.7137 15.182V18.4243H27.9991L27.3206 22.7929H23.7137V32.8569C22.9903 32.9511 22.2504 33 21.4996 33C20.6324 33 19.7817 32.9349 18.9521 32.8097V22.7929H15V18.4243H18.9521V14.4577C18.9521 11.9962 21.0838 10 23.7146 10V10.0026C23.7219 10.0026 23.7293 10 23.7366 10H28V13.7772H25.2145C24.3858 13.7772 23.7146 14.4054 23.7146 15.1811L23.7137 15.182Z" fill="#1877F7"/>
</svg>
