<svg width="98" height="98" viewBox="0 0 98 98" fill="none" xmlns="http://www.w3.org/2000/svg">
<path d="M82.4216 0H15.4945C6.93713 0 0 6.93806 0 15.4966V82.4323C0 90.9908 6.93713 97.9289 15.4945 97.9289H82.4216C90.9791 97.9289 97.9162 90.9908 97.9162 82.4323V15.4966C97.9162 6.93806 90.9791 0 82.4216 0Z" fill="#231F20"/>
<path d="M60.8917 56.5073L62.4348 46.4259H52.7656V39.8875C52.7656 37.1297 54.1169 34.445 58.4448 34.445H62.8365V25.8612C62.8365 25.8612 58.8465 25.1763 55.03 25.1763C47.0681 25.1763 41.8637 30.007 41.8637 38.7461V46.4259H33.0161V56.5073H41.8637V80.8708C43.635 81.1539 45.4611 81.2909 47.3146 81.2909C49.1681 81.2909 50.9851 81.1448 52.7656 80.8708V56.5073H60.8917Z" fill="white"/>
</svg>
