<svg width="25" height="20" viewBox="0 0 25 20" fill="none" xmlns="http://www.w3.org/2000/svg">
<path fill-rule="evenodd" clip-rule="evenodd" d="M23.2499 16.035C23.2499 16.1881 23.22 16.333 23.177 16.471L16.3392 9.24551L23.2499 3.96481V16.035ZM2.94473 17.503L9.87387 10.2488L12.4999 12.1989L15.0124 10.2368L22.0552 17.503C21.9454 17.5279 3.05454 17.5279 2.94473 17.503ZM1.74995 16.035V3.96481L8.66066 9.24551L1.8229 16.471C1.7799 16.333 1.74995 16.1881 1.74995 16.035ZM22.4821 2.45604L12.4999 9.9999L2.5178 2.45604H22.4821ZM21.7142 0.947266H3.28566C1.58947 0.947266 0.214233 2.29837 0.214233 3.96481V16.035C0.214233 17.7014 1.58947 19.0525 3.28566 19.0525H21.7142C23.4104 19.0525 24.7857 17.7014 24.7857 16.035V3.96481C24.7857 2.29837 23.4104 0.947266 21.7142 0.947266Z" fill="white"/>
</svg>
