<svg width="42" height="42" viewBox="0 0 42 42" fill="none" xmlns="http://www.w3.org/2000/svg">
<path d="M42 21C42 9.40202 32.598 0 21 0C9.40202 0 0 9.40202 0 21C0 32.598 9.40202 42 21 42C32.598 42 42 32.598 42 21Z" fill="white"/>
<path d="M18 22C18.3824 22.6857 18.9208 23.2717 19.5717 23.7105C20.2227 24.1494 20.9678 24.4289 21.7468 24.5262C22.5258 24.6236 23.3167 24.5362 24.0557 24.271C24.7946 24.0059 25.4607 23.5705 26 23L30 19C30.9283 18.0718 31.4498 16.8128 31.4498 15.5C31.4498 14.1873 30.9283 12.9283 30 12C29.0718 11.0718 27.8128 10.5503 26.5 10.5503C25.1873 10.5503 23.9283 11.0718 23 12L21 14M24 20C23.6177 19.3144 23.0793 18.7284 22.4283 18.2895C21.7774 17.8507 21.0323 17.5712 20.2533 17.4738C19.4743 17.3765 18.6834 17.4639 17.9444 17.729C17.2055 17.9942 16.5394 18.4296 16 19L12 23C11.0718 23.9283 10.5503 25.1873 10.5503 26.5C10.5503 27.8128 11.0718 29.0718 12 30C12.9283 30.9283 14.1873 31.4498 15.5 31.4498C16.8128 31.4498 18.0718 30.9283 19 30L21 28" stroke="#133E87" stroke-width="2" stroke-linecap="round" stroke-linejoin="round"/>
</svg>
