<svg width="44" height="44" viewBox="0 0 44 44" fill="none" xmlns="http://www.w3.org/2000/svg">
<path d="M22 0.75C33.7361 0.75 43.25 10.2639 43.25 22C43.25 33.7361 33.7361 43.25 22 43.25C10.2639 43.25 0.75 33.7361 0.75 22C0.75 10.2639 10.2639 0.75 22 0.75Z" fill="white" stroke="#0061A7" stroke-width="0.5"/>
<path d="M19 23C19.3824 23.6857 19.9208 24.2717 20.5717 24.7105C21.2227 25.1494 21.9678 25.4289 22.7468 25.5262C23.5258 25.6236 24.3167 25.5362 25.0557 25.271C25.7946 25.0059 26.4607 24.5705 27 24L31 20C31.9283 19.0718 32.4498 17.8128 32.4498 16.5C32.4498 15.1873 31.9283 13.9283 31 13C30.0718 12.0718 28.8128 11.5503 27.5 11.5503C26.1873 11.5503 24.9283 12.0718 24 13L22 15M25 21C24.6177 20.3144 24.0793 19.7284 23.4283 19.2895C22.7774 18.8507 22.0323 18.5712 21.2533 18.4738C20.4743 18.3765 19.6834 18.4639 18.9444 18.729C18.2055 18.9942 17.5394 19.4296 17 20L13 24C12.0718 24.9283 11.5503 26.1873 11.5503 27.5C11.5503 28.8128 12.0718 30.0718 13 31C13.9283 31.9283 15.1873 32.4498 16.5 32.4498C17.8128 32.4498 19.0718 31.9283 20 31L22 29" stroke="#0061A7" stroke-width="2" stroke-linecap="round" stroke-linejoin="round"/>
</svg>
