<svg width="50" height="50" viewBox="0 0 50 50" fill="none" xmlns="http://www.w3.org/2000/svg">
<path d="M49.5 25C49.5 11.469 38.531 0.5 25 0.5C11.469 0.5 0.5 11.469 0.5 25C0.5 38.531 11.469 49.5 25 49.5C38.531 49.5 49.5 38.531 49.5 25Z" fill="#1275B1"/>
<path d="M19.0825 13.9613C19.0825 15.5967 17.6649 16.9225 15.9163 16.9225C14.1676 16.9225 12.75 15.5967 12.75 13.9613C12.75 12.3258 14.1676 11 15.9163 11C17.6649 11 19.0825 12.3258 19.0825 13.9613Z" fill="white"/>
<path d="M13.183 19.0991H18.5953V35.4999H13.183V19.0991Z" fill="white"/>
<path d="M27.3093 19.0993H21.8969V35.5001H27.3093C27.3093 35.5001 27.3093 30.3369 27.3093 27.1087C27.3093 25.1709 27.971 23.2247 30.6109 23.2247C33.5943 23.2247 33.5764 25.7605 33.5624 27.725C33.5442 30.2928 33.5876 32.9134 33.5876 35.5001H39V26.8441C38.9542 21.317 37.5139 18.7703 32.7758 18.7703C29.962 18.7703 28.2177 20.0478 27.3093 21.2035V19.0993Z" fill="white"/>
</svg>
