<svg width="336" height="287" viewBox="0 0 336 287" fill="none" xmlns="http://www.w3.org/2000/svg">
<g clip-path="url(#clip0_755_68)">
<g filter="url(#filter0_d_755_68)">
<rect width="336" height="287" rx="9" fill="white" fill-opacity="0.2" shape-rendering="crispEdges"/>
<rect x="4" y="3" width="328" height="281" rx="12" fill="url(#paint0_linear_755_68)"/>
<path d="M36.8 54V41.4H38.492V52.524H44.9V54H36.8ZM46.8856 54V44.46H48.4696V54H46.8856ZM47.6776 43.2C47.3656 43.2 47.1076 43.098 46.9036 42.894C46.6996 42.69 46.5976 42.432 46.5976 42.12C46.5976 41.808 46.6996 41.55 46.9036 41.346C47.1076 41.142 47.3656 41.04 47.6776 41.04C47.9896 41.04 48.2476 41.142 48.4516 41.346C48.6556 41.55 48.7576 41.808 48.7576 42.12C48.7576 42.432 48.6556 42.69 48.4516 42.894C48.2476 43.098 47.9896 43.2 47.6776 43.2ZM54.402 54L50.442 44.46H52.206L55.302 52.38L58.11 44.46H59.802L56.202 54H54.402ZM65.2027 54.18C64.3987 54.18 63.6427 54.006 62.9347 53.658C62.2387 53.31 61.6747 52.776 61.2427 52.056C60.8227 51.336 60.6127 50.424 60.6127 49.32V48.96C60.6127 47.904 60.8167 47.034 61.2247 46.35C61.6327 45.654 62.1727 45.138 62.8447 44.802C63.5167 44.454 64.2427 44.28 65.0227 44.28C66.4267 44.28 67.5127 44.664 68.2807 45.432C69.0487 46.2 69.4327 47.286 69.4327 48.69V49.698H62.1967C62.1967 50.442 62.3467 51.036 62.6467 51.48C62.9587 51.924 63.3427 52.248 63.7987 52.452C64.2667 52.644 64.7347 52.74 65.2027 52.74C65.9227 52.74 66.4747 52.62 66.8587 52.38C67.2547 52.14 67.5367 51.81 67.7047 51.39H69.2527C69.0607 52.302 68.5867 52.998 67.8307 53.478C67.0867 53.946 66.2107 54.18 65.2027 54.18ZM65.1127 45.72C64.6207 45.72 64.1527 45.816 63.7087 46.008C63.2647 46.188 62.8987 46.476 62.6107 46.872C62.3347 47.268 62.1967 47.778 62.1967 48.402H67.9387C67.9267 47.742 67.7887 47.22 67.5247 46.836C67.2727 46.44 66.9367 46.158 66.5167 45.99C66.0967 45.81 65.6287 45.72 65.1127 45.72ZM75.4641 49.698V48.222H80.8641V49.698H75.4641ZM90.006 54L86.622 41.4H88.422L91.014 51.3L93.966 41.4H95.478L98.484 51.3L101.094 41.4H102.822L99.438 54H97.746L94.686 44.1L91.698 54H90.006ZM108.041 54.18C107.237 54.18 106.481 54.006 105.773 53.658C105.077 53.298 104.513 52.758 104.081 52.038C103.661 51.318 103.451 50.412 103.451 49.32V48.96C103.451 47.928 103.661 47.064 104.081 46.368C104.513 45.672 105.077 45.15 105.773 44.802C106.481 44.454 107.237 44.28 108.041 44.28C108.857 44.28 109.613 44.454 110.309 44.802C111.005 45.15 111.563 45.672 111.983 46.368C112.415 47.064 112.631 47.928 112.631 48.96V49.32C112.631 50.412 112.415 51.318 111.983 52.038C111.563 52.758 111.005 53.298 110.309 53.658C109.613 54.006 108.857 54.18 108.041 54.18ZM108.041 52.74C108.533 52.74 109.001 52.632 109.445 52.416C109.901 52.188 110.273 51.822 110.561 51.318C110.861 50.814 111.011 50.148 111.011 49.32V48.96C111.011 48.192 110.861 47.574 110.561 47.106C110.273 46.626 109.901 46.278 109.445 46.062C109.001 45.834 108.533 45.72 108.041 45.72C107.561 45.72 107.093 45.834 106.637 46.062C106.181 46.278 105.803 46.626 105.503 47.106C105.215 47.574 105.071 48.192 105.071 48.96V49.32C105.071 50.148 105.215 50.814 105.503 51.318C105.803 51.822 106.181 52.188 106.637 52.416C107.093 52.632 107.561 52.74 108.041 52.74ZM114.874 54V44.46H116.35V46.26C116.494 45.876 116.692 45.54 116.944 45.252C117.196 44.952 117.502 44.718 117.862 44.55C118.234 44.37 118.648 44.28 119.104 44.28C119.344 44.28 119.536 44.292 119.68 44.316C119.836 44.34 119.974 44.37 120.094 44.406V45.882C119.938 45.822 119.782 45.78 119.626 45.756C119.482 45.732 119.278 45.72 119.014 45.72C118.534 45.72 118.102 45.834 117.718 46.062C117.334 46.29 117.028 46.608 116.8 47.016C116.572 47.412 116.458 47.88 116.458 48.42V54H114.874ZM125.041 54.18C124.261 54.18 123.571 54 122.971 53.64C122.371 53.28 121.903 52.74 121.567 52.02C121.243 51.3 121.081 50.4 121.081 49.32V48.96C121.081 47.952 121.249 47.1 121.585 46.404C121.933 45.708 122.401 45.18 122.989 44.82C123.589 44.46 124.273 44.28 125.041 44.28C125.809 44.28 126.475 44.448 127.039 44.784C127.615 45.12 128.041 45.582 128.317 46.17V41.4H129.901V54H128.425V52.2C128.185 52.788 127.765 53.268 127.165 53.64C126.565 54 125.857 54.18 125.041 54.18ZM125.401 52.776C125.977 52.776 126.481 52.656 126.913 52.416C127.357 52.164 127.699 51.822 127.939 51.39C128.191 50.946 128.317 50.436 128.317 49.86V48.42C128.317 47.904 128.191 47.442 127.939 47.034C127.699 46.614 127.357 46.284 126.913 46.044C126.481 45.804 125.977 45.684 125.401 45.684C124.633 45.684 123.985 45.972 123.457 46.548C122.929 47.112 122.665 47.916 122.665 48.96V49.32C122.665 50.448 122.929 51.306 123.457 51.894C123.985 52.482 124.633 52.776 125.401 52.776ZM132.786 57.6V44.46H134.262V46.26C134.586 45.624 135.036 45.138 135.612 44.802C136.2 44.454 136.878 44.28 137.646 44.28C138.846 44.28 139.806 44.676 140.526 45.468C141.246 46.248 141.606 47.412 141.606 48.96V49.32C141.606 50.4 141.438 51.3 141.102 52.02C140.778 52.74 140.316 53.28 139.716 53.64C139.128 54 138.438 54.18 137.646 54.18C136.83 54.18 136.146 54 135.594 53.64C135.054 53.28 134.646 52.83 134.37 52.29V57.6H132.786ZM137.286 52.776C138.066 52.776 138.714 52.482 139.23 51.894C139.758 51.306 140.022 50.448 140.022 49.32V48.96C140.022 47.916 139.758 47.112 139.23 46.548C138.714 45.972 138.066 45.684 137.286 45.684C136.71 45.684 136.2 45.804 135.756 46.044C135.324 46.284 134.982 46.614 134.73 47.034C134.49 47.442 134.37 47.904 134.37 48.42V49.86C134.37 50.436 134.49 50.946 134.73 51.39C134.982 51.822 135.324 52.164 135.756 52.416C136.2 52.656 136.71 52.776 137.286 52.776ZM143.86 54V44.46H145.336V46.26C145.48 45.876 145.678 45.54 145.93 45.252C146.182 44.952 146.488 44.718 146.848 44.55C147.22 44.37 147.634 44.28 148.09 44.28C148.33 44.28 148.522 44.292 148.666 44.316C148.822 44.34 148.96 44.37 149.08 44.406V45.882C148.924 45.822 148.768 45.78 148.612 45.756C148.468 45.732 148.264 45.72 148 45.72C147.52 45.72 147.088 45.834 146.704 46.062C146.32 46.29 146.014 46.608 145.786 47.016C145.558 47.412 145.444 47.88 145.444 48.42V54H143.86ZM154.658 54.18C153.854 54.18 153.098 54.006 152.39 53.658C151.694 53.31 151.13 52.776 150.698 52.056C150.278 51.336 150.068 50.424 150.068 49.32V48.96C150.068 47.904 150.272 47.034 150.68 46.35C151.088 45.654 151.628 45.138 152.3 44.802C152.972 44.454 153.698 44.28 154.478 44.28C155.882 44.28 156.968 44.664 157.736 45.432C158.504 46.2 158.888 47.286 158.888 48.69V49.698H151.652C151.652 50.442 151.802 51.036 152.102 51.48C152.414 51.924 152.798 52.248 153.254 52.452C153.722 52.644 154.19 52.74 154.658 52.74C155.378 52.74 155.93 52.62 156.314 52.38C156.71 52.14 156.992 51.81 157.16 51.39H158.708C158.516 52.302 158.042 52.998 157.286 53.478C156.542 53.946 155.666 54.18 154.658 54.18ZM154.568 45.72C154.076 45.72 153.608 45.816 153.164 46.008C152.72 46.188 152.354 46.476 152.066 46.872C151.79 47.268 151.652 47.778 151.652 48.402H157.394C157.382 47.742 157.244 47.22 156.98 46.836C156.728 46.44 156.392 46.158 155.972 45.99C155.552 45.81 155.084 45.72 154.568 45.72ZM164.469 54.18C163.833 54.18 163.281 54.108 162.813 53.964C162.345 53.808 161.955 53.604 161.643 53.352C161.331 53.1 161.079 52.806 160.887 52.47C160.707 52.122 160.581 51.762 160.509 51.39H162.093C162.177 51.774 162.399 52.11 162.759 52.398C163.131 52.674 163.701 52.812 164.469 52.812C165.357 52.812 165.975 52.674 166.323 52.398C166.671 52.11 166.845 51.774 166.845 51.39C166.845 51.126 166.767 50.898 166.611 50.706C166.467 50.502 166.203 50.328 165.819 50.184C165.447 50.04 164.913 49.92 164.217 49.824C163.689 49.752 163.215 49.65 162.795 49.518C162.375 49.374 162.015 49.188 161.715 48.96C161.415 48.732 161.181 48.456 161.013 48.132C160.857 47.808 160.779 47.424 160.779 46.98C160.779 46.5 160.917 46.056 161.193 45.648C161.469 45.24 161.883 44.91 162.435 44.658C162.987 44.406 163.665 44.28 164.469 44.28C165.225 44.28 165.849 44.412 166.341 44.676C166.845 44.928 167.235 45.264 167.511 45.684C167.787 46.104 167.973 46.566 168.069 47.07H166.485C166.389 46.65 166.185 46.308 165.873 46.044C165.561 45.78 165.093 45.648 164.469 45.648C163.689 45.648 163.143 45.78 162.831 46.044C162.519 46.296 162.363 46.608 162.363 46.98C162.363 47.412 162.531 47.736 162.867 47.952C163.215 48.168 163.845 48.336 164.757 48.456C165.345 48.528 165.867 48.636 166.323 48.78C166.779 48.912 167.163 49.098 167.475 49.338C167.787 49.566 168.021 49.848 168.177 50.184C168.345 50.52 168.429 50.922 168.429 51.39C168.429 51.894 168.285 52.356 167.997 52.776C167.709 53.196 167.271 53.538 166.683 53.802C166.107 54.054 165.369 54.18 164.469 54.18ZM174.014 54.18C173.378 54.18 172.826 54.108 172.358 53.964C171.89 53.808 171.5 53.604 171.188 53.352C170.876 53.1 170.624 52.806 170.432 52.47C170.252 52.122 170.126 51.762 170.054 51.39H171.638C171.722 51.774 171.944 52.11 172.304 52.398C172.676 52.674 173.246 52.812 174.014 52.812C174.902 52.812 175.52 52.674 175.868 52.398C176.216 52.11 176.39 51.774 176.39 51.39C176.39 51.126 176.312 50.898 176.156 50.706C176.012 50.502 175.748 50.328 175.364 50.184C174.992 50.04 174.458 49.92 173.762 49.824C173.234 49.752 172.76 49.65 172.34 49.518C171.92 49.374 171.56 49.188 171.26 48.96C170.96 48.732 170.726 48.456 170.558 48.132C170.402 47.808 170.324 47.424 170.324 46.98C170.324 46.5 170.462 46.056 170.738 45.648C171.014 45.24 171.428 44.91 171.98 44.658C172.532 44.406 173.21 44.28 174.014 44.28C174.77 44.28 175.394 44.412 175.886 44.676C176.39 44.928 176.78 45.264 177.056 45.684C177.332 46.104 177.518 46.566 177.614 47.07H176.03C175.934 46.65 175.73 46.308 175.418 46.044C175.106 45.78 174.638 45.648 174.014 45.648C173.234 45.648 172.688 45.78 172.376 46.044C172.064 46.296 171.908 46.608 171.908 46.98C171.908 47.412 172.076 47.736 172.412 47.952C172.76 48.168 173.39 48.336 174.302 48.456C174.89 48.528 175.412 48.636 175.868 48.78C176.324 48.912 176.708 49.098 177.02 49.338C177.332 49.566 177.566 49.848 177.722 50.184C177.89 50.52 177.974 50.922 177.974 51.39C177.974 51.894 177.83 52.356 177.542 52.776C177.254 53.196 176.816 53.538 176.228 53.802C175.652 54.054 174.914 54.18 174.014 54.18Z" fill="black"/>
<g filter="url(#filter1_d_755_68)">
<path d="M116.371 60H45.6288C39.7587 60 35 64.701 35 70.5C35 76.299 39.7587 81 45.6288 81H116.371C122.241 81 127 76.299 127 70.5C127 64.701 122.241 60 116.371 60Z" fill="url(#paint1_linear_755_68)"/>
</g>
<path d="M54.8 75.5L52.266 65.7H54.94L56.27 71.776L57.81 65.7H60.19L61.912 71.804L63.34 65.7H65.72L63.2 75.5H60.68L58.93 69.172L57.32 75.5H54.8ZM69.5591 75.682C68.8311 75.682 68.1777 75.5467 67.5991 75.276C67.0204 74.996 66.5584 74.5713 66.2131 74.002C65.8771 73.4327 65.7091 72.7187 65.7091 71.86V71.58C65.7091 70.7587 65.8724 70.0773 66.1991 69.536C66.5257 68.9947 66.9691 68.5887 67.5291 68.318C68.0984 68.038 68.7284 67.898 69.4191 67.898C70.6417 67.898 71.5657 68.2153 72.1911 68.85C72.8164 69.4753 73.1291 70.3853 73.1291 71.58V72.364H67.9211C67.9397 72.728 68.0237 73.0313 68.1731 73.274C68.3317 73.5167 68.5324 73.694 68.7751 73.806C69.0177 73.9087 69.2791 73.96 69.5591 73.96C69.9697 73.96 70.2917 73.8993 70.5251 73.778C70.7677 73.6473 70.9264 73.4747 71.0011 73.26H72.9891C72.8397 74.072 72.4711 74.6787 71.8831 75.08C71.2951 75.4813 70.5204 75.682 69.5591 75.682ZM69.4891 69.62C69.2277 69.62 68.9804 69.662 68.7471 69.746C68.5137 69.83 68.3224 69.97 68.1731 70.166C68.0331 70.3527 67.9537 70.6093 67.9351 70.936H71.0151C71.0151 70.5907 70.9451 70.3247 70.8051 70.138C70.6651 69.942 70.4784 69.8067 70.2451 69.732C70.0211 69.6573 69.7691 69.62 69.4891 69.62ZM78.5449 75.682C77.9755 75.682 77.4949 75.5607 77.1029 75.318C76.7109 75.066 76.4215 74.7907 76.2349 74.492V75.5H74.2469V65.7H76.4029V69.018C76.6549 68.654 76.9675 68.3787 77.3409 68.192C77.7235 67.996 78.1249 67.898 78.5449 67.898C79.5902 67.898 80.3835 68.206 80.9249 68.822C81.4662 69.438 81.7369 70.3573 81.7369 71.58V71.86C81.7369 72.7 81.6062 73.4047 81.3449 73.974C81.0835 74.534 80.7149 74.9587 80.2389 75.248C79.7629 75.5373 79.1982 75.682 78.5449 75.682ZM78.0269 73.904C78.4562 73.904 78.8109 73.7313 79.0909 73.386C79.3802 73.0313 79.5249 72.5227 79.5249 71.86V71.58C79.5249 70.936 79.3849 70.46 79.1049 70.152C78.8342 69.8347 78.4749 69.676 78.0269 69.676C77.7282 69.676 77.4529 69.7413 77.2009 69.872C76.9582 69.9933 76.7622 70.18 76.6129 70.432C76.4729 70.684 76.4029 70.9967 76.4029 71.37V72.07C76.4029 72.4527 76.4729 72.784 76.6129 73.064C76.7622 73.3347 76.9582 73.5447 77.2009 73.694C77.4529 73.834 77.7282 73.904 78.0269 73.904ZM86.0802 75.682C85.4735 75.682 84.9508 75.6213 84.5122 75.5C84.0828 75.3693 83.7282 75.1967 83.4482 74.982C83.1682 74.758 82.9582 74.5013 82.8182 74.212C82.6782 73.9133 82.5988 73.596 82.5802 73.26H84.7362C84.7922 73.4653 84.9135 73.6473 85.1002 73.806C85.2868 73.9553 85.6135 74.03 86.0802 74.03C86.5562 74.03 86.8968 73.9647 87.1022 73.834C87.3075 73.7033 87.4102 73.5307 87.4102 73.316C87.4102 73.204 87.3635 73.106 87.2702 73.022C87.1862 72.9287 87.0228 72.8447 86.7802 72.77C86.5468 72.6953 86.2062 72.6207 85.7582 72.546C85.3475 72.4807 84.9602 72.3967 84.5962 72.294C84.2415 72.1913 83.9288 72.056 83.6582 71.888C83.3875 71.7107 83.1728 71.4867 83.0142 71.216C82.8648 70.9453 82.7902 70.6047 82.7902 70.194C82.7902 69.7553 82.9208 69.3633 83.1822 69.018C83.4435 68.6727 83.8215 68.402 84.3162 68.206C84.8108 68.0007 85.3988 67.898 86.0802 67.898C86.8548 67.898 87.4662 68.0193 87.9142 68.262C88.3715 68.4953 88.7075 68.7987 88.9222 69.172C89.1368 69.536 89.2628 69.9187 89.3002 70.32H87.1302C87.0742 70.0867 86.9528 69.9 86.7662 69.76C86.5888 69.62 86.3602 69.55 86.0802 69.55C85.6508 69.55 85.3522 69.6153 85.1842 69.746C85.0255 69.8767 84.9462 70.0353 84.9462 70.222C84.9462 70.4087 85.0768 70.558 85.3382 70.67C85.5995 70.7727 86.0148 70.8613 86.5842 70.936C86.9948 70.992 87.3775 71.0713 87.7322 71.174C88.0962 71.2767 88.4135 71.4213 88.6842 71.608C88.9642 71.7853 89.1835 72.014 89.3422 72.294C89.5008 72.5647 89.5802 72.896 89.5802 73.288C89.5802 73.7547 89.4448 74.17 89.1742 74.534C88.9128 74.898 88.5208 75.1827 87.9982 75.388C87.4848 75.584 86.8455 75.682 86.0802 75.682ZM90.8341 75.5V68.08H92.9901V75.5H90.8341ZM91.9121 67.38C91.5108 67.38 91.1981 67.2773 90.9741 67.072C90.7595 66.8573 90.6521 66.5867 90.6521 66.26C90.6521 65.9333 90.7595 65.6673 90.9741 65.462C91.1981 65.2473 91.5108 65.14 91.9121 65.14C92.3135 65.14 92.6215 65.2473 92.8361 65.462C93.0601 65.6673 93.1721 65.9333 93.1721 66.26C93.1721 66.5867 93.0601 66.8573 92.8361 67.072C92.6215 67.2773 92.3135 67.38 91.9121 67.38ZM97.6859 75.584C97.0699 75.584 96.5659 75.5047 96.1739 75.346C95.7819 75.178 95.4926 74.9073 95.3059 74.534C95.1193 74.1513 95.0259 73.6333 95.0259 72.98V69.844H94.1159V68.08H95.0259V66.4H97.1819V68.08H98.8759V69.844H97.1819V72.63C97.1819 73.05 97.2473 73.3487 97.3779 73.526C97.5179 73.7033 97.7839 73.792 98.1759 73.792C98.4559 73.792 98.7359 73.778 99.0159 73.75V75.5C98.8386 75.528 98.6519 75.5467 98.4559 75.556C98.2599 75.5747 98.0033 75.584 97.6859 75.584ZM103.711 75.682C102.983 75.682 102.33 75.5467 101.751 75.276C101.173 74.996 100.711 74.5713 100.365 74.002C100.029 73.4327 99.8614 72.7187 99.8614 71.86V71.58C99.8614 70.7587 100.025 70.0773 100.351 69.536C100.678 68.9947 101.121 68.5887 101.681 68.318C102.251 68.038 102.881 67.898 103.571 67.898C104.794 67.898 105.718 68.2153 106.343 68.85C106.969 69.4753 107.281 70.3853 107.281 71.58V72.364H102.073C102.092 72.728 102.176 73.0313 102.325 73.274C102.484 73.5167 102.685 73.694 102.927 73.806C103.17 73.9087 103.431 73.96 103.711 73.96C104.122 73.96 104.444 73.8993 104.677 73.778C104.92 73.6473 105.079 73.4747 105.153 73.26H107.141C106.992 74.072 106.623 74.6787 106.035 75.08C105.447 75.4813 104.673 75.682 103.711 75.682ZM103.641 69.62C103.38 69.62 103.133 69.662 102.899 69.746C102.666 69.83 102.475 69.97 102.325 70.166C102.185 70.3527 102.106 70.6093 102.087 70.936H105.167C105.167 70.5907 105.097 70.3247 104.957 70.138C104.817 69.942 104.631 69.8067 104.397 69.732C104.173 69.6573 103.921 69.62 103.641 69.62Z" fill="white"/>
<path d="M49.8317 121.273V146H45.3161L34.5582 130.437H34.3771V146H29.1491V121.273H33.7372L44.4105 136.824H44.6278V121.273H49.8317ZM58.1529 146.35C56.9696 146.35 55.9152 146.145 54.9895 145.734C54.0638 145.316 53.3314 144.7 52.7921 143.887C52.2608 143.066 51.9952 142.044 51.9952 140.82C51.9952 139.79 52.1843 138.925 52.5627 138.224C52.941 137.524 53.4561 136.961 54.1081 136.534C54.7601 136.107 55.5006 135.786 56.3297 135.568C57.1668 135.351 58.0442 135.198 58.9618 135.109C60.0404 134.997 60.9097 134.892 61.5698 134.795C62.2298 134.691 62.7087 134.538 63.0066 134.337C63.3044 134.135 63.4533 133.838 63.4533 133.443V133.371C63.4533 132.606 63.2118 132.014 62.7289 131.596C62.254 131.177 61.5778 130.968 60.7004 130.968C59.7748 130.968 59.0383 131.173 58.4909 131.584C57.9436 131.986 57.5814 132.493 57.4043 133.105L52.6472 132.719C52.8887 131.592 53.3636 130.618 54.0719 129.797C54.7802 128.968 55.6938 128.332 56.8127 127.889C57.9396 127.438 59.2435 127.213 60.7246 127.213C61.7549 127.213 62.7409 127.334 63.6827 127.575C64.6325 127.817 65.4736 128.191 66.2061 128.698C66.9467 129.205 67.5302 129.857 67.9568 130.654C68.3834 131.443 68.5968 132.389 68.5968 133.491V146H63.7189V143.428H63.574C63.2762 144.008 62.8778 144.519 62.3787 144.962C61.8797 145.396 61.28 145.738 60.5797 145.988C59.8794 146.229 59.0705 146.35 58.1529 146.35ZM59.6259 142.8C60.3825 142.8 61.0506 142.652 61.6301 142.354C62.2097 142.048 62.6645 141.637 62.9945 141.122C63.3245 140.607 63.4895 140.023 63.4895 139.371V137.403C63.3285 137.508 63.1072 137.605 62.8254 137.693C62.5518 137.774 62.2419 137.85 61.8958 137.923C61.5496 137.987 61.2035 138.047 60.8574 138.104C60.5113 138.152 60.1974 138.196 59.9156 138.237C59.312 138.325 58.7847 138.466 58.334 138.659C57.8832 138.852 57.5331 139.114 57.2835 139.444C57.034 139.766 56.9093 140.168 56.9093 140.651C56.9093 141.352 57.1628 141.887 57.6699 142.257C58.1851 142.619 58.837 142.8 59.6259 142.8ZM81.2615 127.455V131.318H70.0932V127.455H81.2615ZM72.6287 123.011H77.7722V140.301C77.7722 140.776 77.8446 141.146 77.9895 141.412C78.1344 141.67 78.3356 141.851 78.5932 141.955C78.8588 142.06 79.1647 142.112 79.5108 142.112C79.7523 142.112 79.9938 142.092 80.2352 142.052C80.4767 142.004 80.6618 141.967 80.7906 141.943L81.5996 145.771C81.342 145.851 80.9798 145.944 80.5129 146.048C80.0461 146.161 79.4786 146.229 78.8105 146.254C77.5709 146.302 76.4843 146.137 75.5506 145.759C74.6249 145.38 73.9045 144.793 73.3894 143.996C72.8742 143.199 72.6207 142.193 72.6287 140.977V123.011ZM95.3148 138.104V127.455H100.458V146H95.52V142.631H95.3268C94.9083 143.718 94.212 144.591 93.2381 145.251C92.2722 145.911 91.0929 146.241 89.7004 146.241C88.4608 146.241 87.3702 145.96 86.4284 145.396C85.4866 144.833 84.7501 144.032 84.2189 142.994C83.6957 141.955 83.4301 140.712 83.422 139.263V127.455H88.5655V138.345C88.5735 139.44 88.8673 140.305 89.4469 140.941C90.0264 141.577 90.8032 141.895 91.7771 141.895C92.3969 141.895 92.9765 141.754 93.5158 141.472C94.0551 141.183 94.4897 140.756 94.8197 140.192C95.1578 139.629 95.3228 138.933 95.3148 138.104ZM103.382 146V127.455H108.369V130.69H108.562C108.9 129.539 109.468 128.67 110.265 128.082C111.061 127.487 111.979 127.189 113.017 127.189C113.275 127.189 113.553 127.205 113.85 127.237C114.148 127.269 114.41 127.314 114.635 127.37V131.934C114.394 131.862 114.06 131.797 113.633 131.741C113.206 131.684 112.816 131.656 112.462 131.656C111.705 131.656 111.029 131.821 110.434 132.151C109.846 132.473 109.379 132.924 109.033 133.504C108.695 134.083 108.526 134.751 108.526 135.508V146H103.382ZM120.862 146.35C119.678 146.35 118.624 146.145 117.698 145.734C116.773 145.316 116.04 144.7 115.501 143.887C114.97 143.066 114.704 142.044 114.704 140.82C114.704 139.79 114.893 138.925 115.271 138.224C115.65 137.524 116.165 136.961 116.817 136.534C117.469 136.107 118.209 135.786 119.038 135.568C119.876 135.351 120.753 135.198 121.671 135.109C122.749 134.997 123.618 134.892 124.279 134.795C124.939 134.691 125.417 134.538 125.715 134.337C126.013 134.135 126.162 133.838 126.162 133.443V133.371C126.162 132.606 125.921 132.014 125.438 131.596C124.963 131.177 124.287 130.968 123.409 130.968C122.484 130.968 121.747 131.173 121.2 131.584C120.652 131.986 120.29 132.493 120.113 133.105L115.356 132.719C115.597 131.592 116.072 130.618 116.781 129.797C117.489 128.968 118.403 128.332 119.521 127.889C120.648 127.438 121.952 127.213 123.433 127.213C124.464 127.213 125.45 127.334 126.391 127.575C127.341 127.817 128.182 128.191 128.915 128.698C129.655 129.205 130.239 129.857 130.666 130.654C131.092 131.443 131.306 132.389 131.306 133.491V146H126.428V143.428H126.283C125.985 144.008 125.587 144.519 125.087 144.962C124.588 145.396 123.989 145.738 123.288 145.988C122.588 146.229 121.779 146.35 120.862 146.35ZM122.335 142.8C123.091 142.8 123.759 142.652 124.339 142.354C124.918 142.048 125.373 141.637 125.703 141.122C126.033 140.607 126.198 140.023 126.198 139.371V137.403C126.037 137.508 125.816 137.605 125.534 137.693C125.261 137.774 124.951 137.85 124.605 137.923C124.258 137.987 123.912 138.047 123.566 138.104C123.22 138.152 122.906 138.196 122.624 138.237C122.021 138.325 121.493 138.466 121.043 138.659C120.592 138.852 120.242 139.114 119.992 139.444C119.743 139.766 119.618 140.168 119.618 140.651C119.618 141.352 119.872 141.887 120.379 142.257C120.894 142.619 121.546 142.8 122.335 142.8ZM139.249 121.273V146H134.106V121.273H139.249ZM145.186 146.314C144.389 146.314 143.705 146.032 143.133 145.469C142.57 144.897 142.288 144.213 142.288 143.416C142.288 142.627 142.57 141.951 143.133 141.388C143.705 140.824 144.389 140.543 145.186 140.543C145.959 140.543 146.635 140.824 147.214 141.388C147.794 141.951 148.084 142.627 148.084 143.416C148.084 143.947 147.947 144.434 147.673 144.877C147.408 145.312 147.057 145.662 146.623 145.928C146.188 146.185 145.709 146.314 145.186 146.314Z" fill="#0E0E0E"/>
<path opacity="0.45" d="M39.8168 175.493C39.7372 174.691 39.3958 174.068 38.7926 173.624C38.1894 173.179 37.3707 172.957 36.3366 172.957C35.634 172.957 35.0407 173.057 34.5568 173.256C34.0729 173.448 33.7017 173.716 33.4432 174.061C33.1913 174.406 33.0653 174.797 33.0653 175.234C33.0521 175.599 33.1283 175.917 33.294 176.189C33.4664 176.461 33.7017 176.696 34 176.895C34.2983 177.087 34.643 177.256 35.0341 177.402C35.4252 177.541 35.8428 177.661 36.2869 177.76L38.1165 178.197C39.0047 178.396 39.8201 178.661 40.5625 178.993C41.3049 179.324 41.9479 179.732 42.4915 180.216C43.035 180.7 43.456 181.27 43.7543 181.926C44.0592 182.582 44.215 183.335 44.2216 184.183C44.215 185.429 43.8968 186.51 43.267 187.425C42.6439 188.333 41.7424 189.039 40.5625 189.543C39.3892 190.04 37.974 190.288 36.3168 190.288C34.6728 190.288 33.241 190.036 32.0213 189.533C30.8082 189.029 29.8603 188.283 29.1776 187.295C28.5014 186.301 28.1468 185.071 28.1136 183.607H32.2798C32.3262 184.289 32.5218 184.859 32.8665 185.317C33.2178 185.768 33.6851 186.109 34.2685 186.341C34.8584 186.566 35.5246 186.679 36.267 186.679C36.9962 186.679 37.6293 186.573 38.1662 186.361C38.7098 186.149 39.1307 185.854 39.429 185.476C39.7273 185.098 39.8764 184.664 39.8764 184.173C39.8764 183.716 39.7405 183.331 39.4688 183.02C39.2036 182.708 38.8125 182.443 38.2955 182.224C37.785 182.006 37.1586 181.807 36.4162 181.628L34.1989 181.071C32.482 180.653 31.1264 180 30.1321 179.112C29.1378 178.224 28.6439 177.027 28.6506 175.523C28.6439 174.29 28.9721 173.213 29.6349 172.291C30.3045 171.37 31.2225 170.651 32.3892 170.134C33.5559 169.616 34.8816 169.358 36.3665 169.358C37.8778 169.358 39.197 169.616 40.3239 170.134C41.4574 170.651 42.339 171.37 42.9688 172.291C43.5985 173.213 43.9233 174.28 43.9432 175.493H39.8168ZM52.9586 190.298C51.4141 190.298 50.0784 189.97 48.9515 189.314C47.8312 188.651 46.9661 187.73 46.3563 186.55C45.7464 185.363 45.4415 183.988 45.4415 182.423C45.4415 180.846 45.7464 179.467 46.3563 178.287C46.9661 177.1 47.8312 176.179 48.9515 175.523C50.0784 174.86 51.4141 174.528 52.9586 174.528C54.5031 174.528 55.8355 174.86 56.9557 175.523C58.0826 176.179 58.951 177.1 59.5608 178.287C60.1707 179.467 60.4756 180.846 60.4756 182.423C60.4756 183.988 60.1707 185.363 59.5608 186.55C58.951 187.73 58.0826 188.651 56.9557 189.314C55.8355 189.97 54.5031 190.298 52.9586 190.298ZM52.9785 187.017C53.6811 187.017 54.2678 186.818 54.7384 186.42C55.209 186.016 55.5637 185.466 55.8023 184.77C56.0476 184.074 56.1702 183.282 56.1702 182.393C56.1702 181.505 56.0476 180.713 55.8023 180.017C55.5637 179.321 55.209 178.771 54.7384 178.366C54.2678 177.962 53.6811 177.76 52.9785 177.76C52.2692 177.76 51.6726 177.962 51.1887 178.366C50.7114 178.771 50.3501 179.321 50.1049 180.017C49.8662 180.713 49.7469 181.505 49.7469 182.393C49.7469 183.282 49.8662 184.074 50.1049 184.77C50.3501 185.466 50.7114 186.016 51.1887 186.42C51.6726 186.818 52.2692 187.017 52.9785 187.017ZM66.605 190.288C65.6306 190.288 64.7622 190.119 63.9999 189.781C63.2376 189.437 62.6343 188.929 62.1902 188.26C61.7527 187.584 61.534 186.742 61.534 185.734C61.534 184.886 61.6897 184.173 62.0013 183.597C62.3128 183.02 62.7371 182.556 63.274 182.205C63.811 181.853 64.4208 181.588 65.1036 181.409C65.793 181.23 66.5155 181.104 67.2712 181.031C68.1594 180.938 68.8753 180.852 69.4189 180.773C69.9625 180.687 70.3569 180.561 70.6021 180.395C70.8474 180.229 70.97 179.984 70.97 179.659V179.599C70.97 178.97 70.7712 178.482 70.3735 178.138C69.9824 177.793 69.4255 177.621 68.703 177.621C67.9407 177.621 67.3342 177.79 66.8834 178.128C66.4326 178.459 66.1343 178.877 65.9885 179.381L62.0709 179.062C62.2698 178.134 62.6609 177.332 63.2442 176.656C63.8275 175.973 64.5799 175.45 65.5013 175.085C66.4293 174.714 67.5032 174.528 68.7229 174.528C69.5714 174.528 70.3834 174.628 71.159 174.827C71.9412 175.026 72.6339 175.334 73.2371 175.751C73.8469 176.169 74.3275 176.706 74.6789 177.362C75.0302 178.012 75.2058 178.791 75.2058 179.699V190H71.1888V187.882H71.0695C70.8242 188.359 70.4961 188.78 70.0851 189.145C69.6741 189.503 69.1803 189.785 68.6036 189.99C68.0269 190.189 67.3607 190.288 66.605 190.288ZM67.8181 187.365C68.4412 187.365 68.9914 187.242 69.4686 186.997C69.9459 186.745 70.3204 186.407 70.5922 185.983C70.864 185.559 70.9999 185.078 70.9999 184.541V182.92C70.8673 183.007 70.685 183.086 70.453 183.159C70.2276 183.225 69.9724 183.288 69.6874 183.348C69.4023 183.401 69.1173 183.451 68.8323 183.497C68.5472 183.537 68.2887 183.573 68.0567 183.607C67.5595 183.679 67.1253 183.795 66.7541 183.955C66.3829 184.114 66.0946 184.329 65.8891 184.601C65.6836 184.866 65.5808 185.197 65.5808 185.595C65.5808 186.172 65.7896 186.613 66.2073 186.918C66.6315 187.216 67.1684 187.365 67.8181 187.365ZM77.5121 195.727V174.727H81.6882V177.293H81.8771C82.0627 176.882 82.3312 176.464 82.6825 176.04C83.0405 175.609 83.5045 175.251 84.0746 174.966C84.6513 174.674 85.3672 174.528 86.2223 174.528C87.3359 174.528 88.3634 174.82 89.3047 175.403C90.246 175.98 90.9983 176.852 91.5618 178.018C92.1252 179.179 92.4069 180.634 92.4069 182.384C92.4069 184.087 92.1319 185.526 91.5817 186.699C91.0381 187.866 90.2957 188.75 89.3544 189.354C88.4197 189.95 87.3724 190.249 86.2123 190.249C85.3904 190.249 84.691 190.113 84.1143 189.841C83.5443 189.569 83.0769 189.228 82.7123 188.817C82.3478 188.399 82.0694 187.978 81.8771 187.554H81.7479V195.727H77.5121ZM81.6584 182.364C81.6584 183.272 81.7843 184.064 82.0362 184.74C82.2881 185.416 82.6527 185.943 83.13 186.321C83.6072 186.692 84.1873 186.878 84.87 186.878C85.5594 186.878 86.1427 186.689 86.62 186.311C87.0973 185.927 87.4586 185.396 87.7038 184.72C87.9557 184.037 88.0817 183.252 88.0817 182.364C88.0817 181.482 87.959 180.706 87.7138 180.037C87.4685 179.367 87.1072 178.844 86.63 178.466C86.1527 178.088 85.566 177.899 84.87 177.899C84.1806 177.899 83.5973 178.081 83.12 178.446C82.6494 178.811 82.2881 179.328 82.0362 179.997C81.7843 180.667 81.6584 181.455 81.6584 182.364ZM98.8545 187.216L98.7451 188.31C98.659 189.185 98.4932 190.056 98.248 190.925C98.0093 191.8 97.7574 192.592 97.4923 193.301C97.2338 194.01 97.025 194.567 96.8659 194.972H94.1216C94.221 194.58 94.3569 194.034 94.5292 193.331C94.7016 192.635 94.864 191.853 95.0164 190.984C95.1689 190.116 95.265 189.231 95.3048 188.33L95.3545 187.216H98.8545ZM125.083 179.818C125.083 182.039 124.662 183.928 123.821 185.486C122.985 187.044 121.845 188.233 120.4 189.055C118.962 189.871 117.344 190.278 115.548 190.278C113.738 190.278 112.114 189.867 110.676 189.045C109.237 188.223 108.1 187.034 107.265 185.476C106.43 183.918 106.012 182.032 106.012 179.818C106.012 177.598 106.43 175.708 107.265 174.151C108.1 172.593 109.237 171.406 110.676 170.591C112.114 169.769 113.738 169.358 115.548 169.358C117.344 169.358 118.962 169.769 120.4 170.591C121.845 171.406 122.985 172.593 123.821 174.151C124.662 175.708 125.083 177.598 125.083 179.818ZM120.718 179.818C120.718 178.38 120.503 177.167 120.072 176.179C119.648 175.191 119.048 174.442 118.272 173.932C117.497 173.421 116.589 173.166 115.548 173.166C114.507 173.166 113.599 173.421 112.823 173.932C112.048 174.442 111.445 175.191 111.014 176.179C110.59 177.167 110.377 178.38 110.377 179.818C110.377 181.257 110.59 182.47 111.014 183.457C111.445 184.445 112.048 185.194 112.823 185.705C113.599 186.215 114.507 186.47 115.548 186.47C116.589 186.47 117.497 186.215 118.272 185.705C119.048 185.194 119.648 184.445 120.072 183.457C120.503 182.47 120.718 181.257 120.718 179.818ZM127.213 190V174.727H131.449V190H127.213ZM129.341 172.759C128.711 172.759 128.171 172.55 127.72 172.132C127.276 171.708 127.054 171.201 127.054 170.611C127.054 170.027 127.276 169.527 127.72 169.109C128.171 168.685 128.711 168.473 129.341 168.473C129.971 168.473 130.508 168.685 130.952 169.109C131.403 169.527 131.628 170.027 131.628 170.611C131.628 171.201 131.403 171.708 130.952 172.132C130.508 172.55 129.971 172.759 129.341 172.759ZM138.098 169.636V190H133.862V169.636H138.098ZM145.115 187.216L145.005 188.31C144.919 189.185 144.753 190.056 144.508 190.925C144.269 191.8 144.018 192.592 143.752 193.301C143.494 194.01 143.285 194.567 143.126 194.972H140.382C140.481 194.58 140.617 194.034 140.789 193.331C140.962 192.635 141.124 191.853 141.277 190.984C141.429 190.116 141.525 189.231 141.565 188.33L141.615 187.216H145.115ZM152.631 190V169.636H156.936V178.038H165.676V169.636H169.971V190H165.676V181.588H156.936V190H152.631ZM176.817 190.288C175.842 190.288 174.974 190.119 174.212 189.781C173.449 189.437 172.846 188.929 172.402 188.26C171.964 187.584 171.746 186.742 171.746 185.734C171.746 184.886 171.901 184.173 172.213 183.597C172.525 183.02 172.949 182.556 173.486 182.205C174.023 181.853 174.633 181.588 175.315 181.409C176.005 181.23 176.727 181.104 177.483 181.031C178.371 180.938 179.087 180.852 179.631 180.773C180.174 180.687 180.569 180.561 180.814 180.395C181.059 180.229 181.182 179.984 181.182 179.659V179.599C181.182 178.97 180.983 178.482 180.585 178.138C180.194 177.793 179.637 177.621 178.915 177.621C178.152 177.621 177.546 177.79 177.095 178.128C176.644 178.459 176.346 178.877 176.2 179.381L172.283 179.062C172.481 178.134 172.873 177.332 173.456 176.656C174.039 175.973 174.792 175.45 175.713 175.085C176.641 174.714 177.715 174.528 178.935 174.528C179.783 174.528 180.595 174.628 181.371 174.827C182.153 175.026 182.846 175.334 183.449 175.751C184.059 176.169 184.539 176.706 184.891 177.362C185.242 178.012 185.418 178.791 185.418 179.699V190H181.401V187.882H181.281C181.036 188.359 180.708 188.78 180.297 189.145C179.886 189.503 179.392 189.785 178.815 189.99C178.239 190.189 177.572 190.288 176.817 190.288ZM178.03 187.365C178.653 187.365 179.203 187.242 179.68 186.997C180.158 186.745 180.532 186.407 180.804 185.983C181.076 185.559 181.212 185.078 181.212 184.541V182.92C181.079 183.007 180.897 183.086 180.665 183.159C180.439 183.225 180.184 183.288 179.899 183.348C179.614 183.401 179.329 183.451 179.044 183.497C178.759 183.537 178.5 183.573 178.268 183.607C177.771 183.679 177.337 183.795 176.966 183.955C176.595 184.114 176.306 184.329 176.101 184.601C175.895 184.866 175.793 185.197 175.793 185.595C175.793 186.172 176.001 186.613 176.419 186.918C176.843 187.216 177.38 187.365 178.03 187.365ZM191.96 181.17V190H187.724V174.727H191.761V177.422H191.94C192.278 176.534 192.845 175.831 193.64 175.314C194.435 174.79 195.4 174.528 196.533 174.528C197.594 174.528 198.519 174.76 199.308 175.224C200.096 175.688 200.71 176.351 201.147 177.213C201.585 178.068 201.803 179.089 201.803 180.276V190H197.568V181.031C197.574 180.097 197.336 179.367 196.852 178.844C196.368 178.313 195.702 178.048 194.853 178.048C194.283 178.048 193.779 178.171 193.342 178.416C192.911 178.661 192.573 179.019 192.327 179.49C192.089 179.954 191.966 180.514 191.96 181.17ZM209.79 190.249C208.63 190.249 207.579 189.95 206.638 189.354C205.703 188.75 204.961 187.866 204.41 186.699C203.867 185.526 203.595 184.087 203.595 182.384C203.595 180.634 203.877 179.179 204.44 178.018C205.004 176.852 205.753 175.98 206.687 175.403C207.629 174.82 208.659 174.528 209.78 174.528C210.635 174.528 211.347 174.674 211.917 174.966C212.494 175.251 212.958 175.609 213.309 176.04C213.667 176.464 213.939 176.882 214.125 177.293H214.254V169.636H218.48V190H214.304V187.554H214.125C213.926 187.978 213.644 188.399 213.28 188.817C212.922 189.228 212.454 189.569 211.878 189.841C211.308 190.113 210.612 190.249 209.79 190.249ZM211.132 186.878C211.815 186.878 212.391 186.692 212.862 186.321C213.339 185.943 213.704 185.416 213.956 184.74C214.214 184.064 214.344 183.272 214.344 182.364C214.344 181.455 214.218 180.667 213.966 179.997C213.714 179.328 213.349 178.811 212.872 178.446C212.395 178.081 211.815 177.899 211.132 177.899C210.436 177.899 209.849 178.088 209.372 178.466C208.895 178.844 208.533 179.367 208.288 180.037C208.043 180.706 207.92 181.482 207.92 182.364C207.92 183.252 208.043 184.037 208.288 184.72C208.54 185.396 208.901 185.927 209.372 186.311C209.849 186.689 210.436 186.878 211.132 186.878ZM220.983 190V174.727H225.019V177.422H225.198C225.517 176.527 226.047 175.821 226.789 175.304C227.532 174.787 228.42 174.528 229.454 174.528C230.501 174.528 231.393 174.79 232.129 175.314C232.865 175.831 233.355 176.534 233.6 177.422H233.76C234.071 176.547 234.635 175.848 235.45 175.324C236.272 174.794 237.243 174.528 238.363 174.528C239.788 174.528 240.945 174.982 241.833 175.891C242.728 176.792 243.176 178.071 243.176 179.729V190H238.95V180.564C238.95 179.715 238.724 179.079 238.274 178.655C237.823 178.231 237.26 178.018 236.583 178.018C235.814 178.018 235.215 178.264 234.784 178.754C234.353 179.238 234.137 179.878 234.137 180.673V190H230.031V180.474C230.031 179.725 229.815 179.129 229.385 178.685C228.96 178.241 228.4 178.018 227.704 178.018C227.233 178.018 226.809 178.138 226.431 178.376C226.06 178.608 225.765 178.937 225.546 179.361C225.328 179.778 225.218 180.269 225.218 180.832V190H220.983ZM249.897 190.288C248.922 190.288 248.054 190.119 247.292 189.781C246.529 189.437 245.926 188.929 245.482 188.26C245.044 187.584 244.826 186.742 244.826 185.734C244.826 184.886 244.981 184.173 245.293 183.597C245.605 183.02 246.029 182.556 246.566 182.205C247.103 181.853 247.713 181.588 248.395 181.409C249.085 181.23 249.807 181.104 250.563 181.031C251.451 180.938 252.167 180.852 252.711 180.773C253.254 180.687 253.649 180.561 253.894 180.395C254.139 180.229 254.262 179.984 254.262 179.659V179.599C254.262 178.97 254.063 178.482 253.665 178.138C253.274 177.793 252.717 177.621 251.995 177.621C251.232 177.621 250.626 177.79 250.175 178.128C249.724 178.459 249.426 178.877 249.28 179.381L245.363 179.062C245.561 178.134 245.953 177.332 246.536 176.656C247.119 175.973 247.872 175.45 248.793 175.085C249.721 174.714 250.795 174.528 252.015 174.528C252.863 174.528 253.675 174.628 254.451 174.827C255.233 175.026 255.926 175.334 256.529 175.751C257.139 176.169 257.619 176.706 257.971 177.362C258.322 178.012 258.498 178.791 258.498 179.699V190H254.481V187.882H254.361C254.116 188.359 253.788 188.78 253.377 189.145C252.966 189.503 252.472 189.785 251.895 189.99C251.319 190.189 250.652 190.288 249.897 190.288ZM251.11 187.365C251.733 187.365 252.283 187.242 252.76 186.997C253.238 186.745 253.612 186.407 253.884 185.983C254.156 185.559 254.292 185.078 254.292 184.541V182.92C254.159 183.007 253.977 183.086 253.745 183.159C253.519 183.225 253.264 183.288 252.979 183.348C252.694 183.401 252.409 183.451 252.124 183.497C251.839 183.537 251.58 183.573 251.348 183.607C250.851 183.679 250.417 183.795 250.046 183.955C249.675 184.114 249.386 184.329 249.181 184.601C248.975 184.866 248.873 185.197 248.873 185.595C248.873 186.172 249.081 186.613 249.499 186.918C249.923 187.216 250.46 187.365 251.11 187.365ZM266.432 190.249C265.272 190.249 264.221 189.95 263.28 189.354C262.345 188.75 261.603 187.866 261.052 186.699C260.509 185.526 260.237 184.087 260.237 182.384C260.237 180.634 260.519 179.179 261.082 178.018C261.646 176.852 262.395 175.98 263.329 175.403C264.271 174.82 265.301 174.528 266.422 174.528C267.277 174.528 267.989 174.674 268.559 174.966C269.136 175.251 269.6 175.609 269.952 176.04C270.309 176.464 270.581 176.882 270.767 177.293H270.896V169.636H275.122V190H270.946V187.554H270.767C270.568 187.978 270.286 188.399 269.922 188.817C269.564 189.228 269.096 189.569 268.52 189.841C267.95 190.113 267.254 190.249 266.432 190.249ZM267.774 186.878C268.457 186.878 269.033 186.692 269.504 186.321C269.981 185.943 270.346 185.416 270.598 184.74C270.856 184.064 270.986 183.272 270.986 182.364C270.986 181.455 270.86 180.667 270.608 179.997C270.356 179.328 269.991 178.811 269.514 178.446C269.037 178.081 268.457 177.899 267.774 177.899C267.078 177.899 266.491 178.088 266.014 178.466C265.537 178.844 265.175 179.367 264.93 180.037C264.685 180.706 264.562 181.482 264.562 182.364C264.562 183.252 264.685 184.037 264.93 184.72C265.182 185.396 265.543 185.927 266.014 186.311C266.491 186.689 267.078 186.878 267.774 186.878ZM284.585 190.298C283.014 190.298 281.661 189.98 280.528 189.344C279.401 188.701 278.533 187.793 277.923 186.619C277.313 185.439 277.008 184.044 277.008 182.433C277.008 180.862 277.313 179.483 277.923 178.297C278.533 177.11 279.391 176.186 280.498 175.523C281.612 174.86 282.918 174.528 284.416 174.528C285.423 174.528 286.361 174.691 287.23 175.016C288.105 175.334 288.867 175.814 289.517 176.457C290.173 177.1 290.683 177.909 291.048 178.884C291.412 179.851 291.595 180.985 291.595 182.284V183.447H278.698V180.822H287.608C287.608 180.213 287.475 179.672 287.21 179.202C286.945 178.731 286.577 178.363 286.106 178.098C285.642 177.826 285.102 177.69 284.485 177.69C283.842 177.69 283.272 177.839 282.775 178.138C282.285 178.429 281.9 178.824 281.622 179.321C281.343 179.812 281.201 180.358 281.194 180.962V183.457C281.194 184.213 281.333 184.866 281.612 185.416C281.897 185.966 282.298 186.391 282.815 186.689C283.332 186.987 283.945 187.136 284.654 187.136C285.125 187.136 285.556 187.07 285.947 186.938C286.338 186.805 286.673 186.606 286.951 186.341C287.23 186.076 287.442 185.751 287.588 185.366L291.505 185.625C291.306 186.566 290.899 187.388 290.282 188.091C289.672 188.787 288.884 189.33 287.916 189.722C286.955 190.106 285.844 190.298 284.585 190.298ZM36.8139 208.727V211.909H27.6165V208.727H36.8139ZM29.7045 205.068H33.9403V219.307C33.9403 219.698 34 220.003 34.1193 220.222C34.2386 220.434 34.4044 220.583 34.6165 220.669C34.8352 220.755 35.0871 220.798 35.3722 220.798C35.571 220.798 35.7699 220.782 35.9688 220.749C36.1676 220.709 36.3201 220.679 36.4261 220.659L37.0923 223.811C36.8802 223.877 36.5819 223.954 36.1974 224.04C35.813 224.133 35.3456 224.189 34.7955 224.209C33.7746 224.249 32.8797 224.113 32.1108 223.801C31.3485 223.49 30.7552 223.006 30.331 222.349C29.9067 221.693 29.6979 220.865 29.7045 219.864V205.068ZM43.1571 215.17V224H38.9213V203.636H43.0378V211.422H43.2167C43.5614 210.52 44.1182 209.814 44.8872 209.304C45.6561 208.787 46.6206 208.528 47.7807 208.528C48.8413 208.528 49.766 208.76 50.5548 209.224C51.3503 209.682 51.9667 210.341 52.4042 211.203C52.8484 212.058 53.0671 213.082 53.0605 214.276V224H48.8247V215.031C48.8313 214.09 48.5927 213.357 48.1088 212.834C47.6315 212.31 46.962 212.048 46.1003 212.048C45.5236 212.048 45.0131 212.171 44.569 212.416C44.1315 212.661 43.7868 213.019 43.5349 213.49C43.2897 213.954 43.1637 214.514 43.1571 215.17ZM55.4139 224V208.727H59.6497V224H55.4139ZM57.5418 206.759C56.912 206.759 56.3718 206.55 55.921 206.132C55.4769 205.708 55.2548 205.201 55.2548 204.611C55.2548 204.027 55.4769 203.527 55.921 203.109C56.3718 202.685 56.912 202.473 57.5418 202.473C58.1715 202.473 58.7084 202.685 59.1526 203.109C59.6033 203.527 59.8287 204.027 59.8287 204.611C59.8287 205.201 59.6033 205.708 59.1526 206.132C58.7084 206.55 58.1715 206.759 57.5418 206.759ZM66.2986 215.17V224H62.0628V208.727H66.0998V211.422H66.2788C66.6168 210.534 67.1836 209.831 67.979 209.314C68.7745 208.79 69.739 208.528 70.8725 208.528C71.9331 208.528 72.8578 208.76 73.6466 209.224C74.4355 209.688 75.0486 210.351 75.4861 211.213C75.9236 212.068 76.1424 213.089 76.1424 214.276V224H71.9066V215.031C71.9132 214.097 71.6746 213.367 71.1907 212.844C70.7068 212.313 70.0406 212.048 69.1921 212.048C68.622 212.048 68.1182 212.171 67.6807 212.416C67.2499 212.661 66.9118 213.019 66.6665 213.49C66.4279 213.954 66.3053 214.514 66.2986 215.17ZM85.3815 230.045C84.0093 230.045 82.8327 229.857 81.8517 229.479C80.8772 229.107 80.1017 228.6 79.525 227.957C78.9483 227.314 78.5737 226.592 78.4014 225.79L82.319 225.263C82.4383 225.568 82.6272 225.853 82.8858 226.118C83.1443 226.383 83.4857 226.595 83.9099 226.754C84.3408 226.92 84.8644 227.003 85.4809 227.003C86.4023 227.003 87.1613 226.777 87.7579 226.327C88.3611 225.883 88.6627 225.137 88.6627 224.089V221.295H88.4838C88.2982 221.72 88.0198 222.121 87.6485 222.499C87.2773 222.876 86.8001 223.185 86.2167 223.423C85.6334 223.662 84.9374 223.781 84.1287 223.781C82.9819 223.781 81.9378 223.516 80.9966 222.986C80.0619 222.449 79.3162 221.63 78.7593 220.53C78.2091 219.423 77.9341 218.024 77.9341 216.334C77.9341 214.604 78.2158 213.159 78.7792 211.999C79.3427 210.839 80.0917 209.97 81.0264 209.393C81.9677 208.817 82.9984 208.528 84.1187 208.528C84.9738 208.528 85.6897 208.674 86.2664 208.966C86.8431 209.251 87.3072 209.609 87.6585 210.04C88.0164 210.464 88.2915 210.882 88.4838 211.293H88.6429V208.727H92.8488V224.149C92.8488 225.448 92.5306 226.536 91.8943 227.411C91.2579 228.286 90.3763 228.942 89.2494 229.379C88.1291 229.823 86.8398 230.045 85.3815 230.045ZM85.471 220.599C86.1537 220.599 86.7305 220.43 87.2011 220.092C87.6784 219.748 88.043 219.257 88.2948 218.621C88.5534 217.978 88.6826 217.209 88.6826 216.314C88.6826 215.419 88.5567 214.643 88.3048 213.987C88.0529 213.324 87.6883 212.811 87.211 212.446C86.7338 212.081 86.1537 211.899 85.471 211.899C84.775 211.899 84.1883 212.088 83.711 212.466C83.2338 212.837 82.8725 213.354 82.6272 214.017C82.382 214.68 82.2593 215.446 82.2593 216.314C82.2593 217.196 82.382 217.958 82.6272 218.601C82.8791 219.237 83.2404 219.731 83.711 220.082C84.1883 220.427 84.775 220.599 85.471 220.599ZM107.947 213.082L104.069 213.321C104.003 212.99 103.86 212.691 103.642 212.426C103.423 212.154 103.134 211.939 102.776 211.78C102.425 211.614 102.004 211.531 101.514 211.531C100.857 211.531 100.304 211.67 99.8532 211.949C99.4024 212.221 99.1771 212.585 99.1771 213.043C99.1771 213.407 99.3229 213.715 99.6146 213.967C99.9062 214.219 100.407 214.421 101.116 214.574L103.88 215.131C105.365 215.436 106.472 215.926 107.201 216.602C107.93 217.278 108.295 218.167 108.295 219.267C108.295 220.268 108 221.146 107.41 221.902C106.827 222.658 106.025 223.248 105.004 223.672C103.99 224.089 102.82 224.298 101.494 224.298C99.472 224.298 97.8612 223.877 96.6614 223.036C95.4683 222.187 94.7689 221.034 94.5634 219.575L98.7296 219.357C98.8556 219.973 99.1605 220.444 99.6444 220.768C100.128 221.087 100.748 221.246 101.504 221.246C102.246 221.246 102.843 221.103 103.294 220.818C103.751 220.527 103.983 220.152 103.99 219.695C103.983 219.31 103.821 218.995 103.502 218.75C103.184 218.498 102.694 218.306 102.031 218.173L99.3859 217.646C97.8944 217.348 96.7841 216.831 96.0549 216.095C95.3324 215.359 94.9711 214.421 94.9711 213.281C94.9711 212.3 95.2362 211.455 95.7665 210.746C96.3035 210.036 97.0558 209.49 98.0236 209.105C98.9981 208.721 100.138 208.528 101.444 208.528C103.373 208.528 104.891 208.936 105.998 209.751C107.112 210.567 107.761 211.677 107.947 213.082ZM112.458 224.259C111.802 224.259 111.238 224.027 110.768 223.562C110.304 223.092 110.072 222.528 110.072 221.872C110.072 221.223 110.304 220.666 110.768 220.202C111.238 219.738 111.802 219.506 112.458 219.506C113.094 219.506 113.651 219.738 114.129 220.202C114.606 220.666 114.844 221.223 114.844 221.872C114.844 222.31 114.732 222.711 114.506 223.075C114.288 223.433 113.999 223.722 113.641 223.94C113.283 224.152 112.889 224.259 112.458 224.259Z" fill="#0E0E0E"/>
<path d="M265.5 95.625C284.105 95.625 299.188 80.3467 299.188 61.5C299.188 42.6533 284.105 27.375 265.5 27.375C246.895 27.375 231.812 42.6533 231.812 61.5C231.812 80.3467 246.895 95.625 265.5 95.625Z" fill="#028CB0"/>
<path d="M242.533 61.5C242.533 70.7194 247.827 78.66 255.483 82.4345L244.529 52.0332C243.213 55.0114 242.533 58.2374 242.533 61.5ZM265.5 84.765C268.167 84.765 270.733 84.2906 273.135 83.4451L272.972 83.1357L265.907 63.5419L259.025 83.8163C261.061 84.4349 263.24 84.765 265.5 84.765ZM268.656 50.5893L276.963 75.6075L279.264 67.8526C280.241 64.6351 280.994 62.3251 280.994 60.3244C280.994 57.4369 279.976 55.4569 279.121 53.9306C277.94 51.9918 276.861 50.3626 276.861 48.465C276.861 46.32 278.449 44.34 280.73 44.34H281.015C276.783 40.4046 271.245 38.2253 265.5 38.235C261.696 38.2343 257.952 39.1914 254.604 41.0203C251.256 42.8493 248.41 45.4926 246.32 48.7124L247.786 48.7538C250.189 48.7538 253.894 48.4443 253.894 48.4443C255.157 48.3826 255.299 50.218 254.057 50.3626C254.057 50.3626 252.815 50.5276 251.41 50.5893L259.799 75.793L264.828 60.5306L261.245 50.5893C260.442 50.5444 259.641 50.4757 258.842 50.3831C257.6 50.3007 257.743 48.3826 258.985 48.4443C258.985 48.4443 262.772 48.7538 265.032 48.7538C267.434 48.7538 271.14 48.4443 271.14 48.4443C272.382 48.3826 272.545 50.218 271.303 50.3626C271.303 50.3626 270.061 50.5069 268.656 50.5893ZM277.044 81.6094C280.519 79.5628 283.402 76.6286 285.407 73.0998C287.411 69.571 288.466 65.5714 288.467 61.5C288.467 57.4574 287.449 53.6625 285.657 50.3419C286.021 53.9952 285.475 57.6826 284.069 61.0669L277.044 81.6094ZM265.5 88.3125C258.48 88.3125 251.748 85.4877 246.784 80.4594C241.82 75.431 239.031 68.6112 239.031 61.5C239.031 54.3888 241.82 47.569 246.784 42.5407C251.748 37.5124 258.48 34.6875 265.5 34.6875C272.52 34.6875 279.252 37.5124 284.216 42.5407C289.18 47.569 291.969 54.3888 291.969 61.5C291.969 68.6112 289.18 75.431 284.216 80.4594C279.252 85.4877 272.52 88.3125 265.5 88.3125Z" fill="white"/>
</g>
</g>
<defs>
<filter id="filter0_d_755_68" x="-250" y="-250" width="836" height="787" filterUnits="userSpaceOnUse" color-interpolation-filters="sRGB">
<feFlood flood-opacity="0" result="BackgroundImageFix"/>
<feColorMatrix in="SourceAlpha" type="matrix" values="0 0 0 0 0 0 0 0 0 0 0 0 0 0 0 0 0 0 127 0" result="hardAlpha"/>
<feOffset/>
<feGaussianBlur stdDeviation="125"/>
<feComposite in2="hardAlpha" operator="out"/>
<feColorMatrix type="matrix" values="0 0 0 0 0 0 0 0 0 0 0 0 0 0 0 0 0 0 0.25 0"/>
<feBlend mode="normal" in2="BackgroundImageFix" result="effect1_dropShadow_755_68"/>
<feBlend mode="normal" in="SourceGraphic" in2="effect1_dropShadow_755_68" result="shape"/>
</filter>
<filter id="filter1_d_755_68" x="27" y="54" width="108" height="37" filterUnits="userSpaceOnUse" color-interpolation-filters="sRGB">
<feFlood flood-opacity="0" result="BackgroundImageFix"/>
<feColorMatrix in="SourceAlpha" type="matrix" values="0 0 0 0 0 0 0 0 0 0 0 0 0 0 0 0 0 0 127 0" result="hardAlpha"/>
<feOffset dy="2"/>
<feGaussianBlur stdDeviation="4"/>
<feComposite in2="hardAlpha" operator="out"/>
<feColorMatrix type="matrix" values="0 0 0 0 0.0313726 0 0 0 0 0.521569 0 0 0 0 0.980392 0 0 0 1 0"/>
<feBlend mode="normal" in2="BackgroundImageFix" result="effect1_dropShadow_755_68"/>
<feBlend mode="normal" in="SourceGraphic" in2="effect1_dropShadow_755_68" result="shape"/>
</filter>
<linearGradient id="paint0_linear_755_68" x1="168" y1="3" x2="168" y2="284" gradientUnits="userSpaceOnUse">
<stop stop-color="#AEBFED" stop-opacity="0.25"/>
<stop offset="1" stop-color="#31C5F0" stop-opacity="0.25"/>
</linearGradient>
<linearGradient id="paint1_linear_755_68" x1="35" y1="80.5242" x2="84.9646" y2="27.2754" gradientUnits="userSpaceOnUse">
<stop stop-color="#0B99FF"/>
<stop offset="1" stop-color="#0B99FF"/>
</linearGradient>
<clipPath id="clip0_755_68">
<rect width="336" height="287" fill="white"/>
</clipPath>
</defs>
</svg>
