<svg width="585" height="157" viewBox="0 0 585 157" fill="none" xmlns="http://www.w3.org/2000/svg">
<rect x="0.5" y="0.5" width="116" height="36" rx="18" fill="#0B99FF"/>
<g filter="url(#filter0_d_1455_87866)">
<rect x="14" y="9" width="18" height="18" rx="9" fill="white" shape-rendering="crispEdges"/>
<path d="M27 15.5L22.1875 20.5L20 18.2273" stroke="#0B99FF" stroke-width="2" stroke-linecap="round" stroke-linejoin="round"/>
</g>
<path d="M47.3235 24.3586L47.43 13.1591L55.0939 13.199L55.0751 15.1829L49.7951 15.1554L49.7684 17.9713L54.5683 17.9962L54.55 19.9162L49.7501 19.8912L49.7075 24.371L47.3235 24.3586ZM56.679 24.4073L56.7597 15.9276L58.8556 15.9385L58.775 24.4182L56.679 24.4073ZM57.8074 15.1171C57.4341 15.1151 57.1259 14.9962 56.8828 14.7603C56.6503 14.5244 56.5359 14.2198 56.5394 13.8465C56.543 13.4732 56.6632 13.1698 56.9001 12.9364C57.1477 12.703 57.4528 12.5872 57.8154 12.5891C58.1994 12.5911 58.5077 12.7101 58.7401 12.9459C58.9832 13.1819 59.103 13.4865 59.0994 13.8598C59.0959 14.2331 58.9703 14.5365 58.7227 14.7698C58.4858 15.0033 58.1807 15.119 57.8074 15.1171ZM64.4944 27.8399C63.5984 27.8353 62.8848 27.7196 62.3536 27.4928C61.8223 27.2767 61.4305 26.976 61.1782 26.5907C60.9365 26.2054 60.7968 25.7514 60.7591 25.2285L62.9031 25.2397C62.965 25.464 63.107 25.6727 63.3292 25.8659C63.5512 26.0697 63.9449 26.1731 64.5102 26.176C65.2249 26.1797 65.7599 26.0119 66.1151 25.6724C66.4703 25.3329 66.6512 24.8218 66.6577 24.1392L66.6674 23.1152C66.3968 23.5298 66.0363 23.864 65.5859 24.1176C65.1355 24.3606 64.6224 24.4806 64.0464 24.4776C63.3104 24.4738 62.6719 24.3104 62.131 23.9876C61.6007 23.6649 61.1892 23.1881 60.8965 22.5572C60.6146 21.9157 60.4781 21.1257 60.487 20.1871L60.4901 19.8671C60.4985 18.9818 60.6496 18.2359 60.9434 17.6294C61.2478 17.023 61.6736 16.5612 62.2206 16.2441C62.7676 15.9269 63.4038 15.7702 64.1291 15.774C64.8331 15.7777 65.4131 15.9247 65.869 16.215C66.3249 16.5054 66.6577 16.8432 66.8674 17.2282L66.8793 15.9803L68.8313 15.9905L68.7552 23.9901C68.7432 25.2487 68.3874 26.2069 67.6878 26.8646C66.9882 27.5223 65.9237 27.8474 64.4944 27.8399ZM64.5594 22.6883C64.9861 22.6905 65.3548 22.6177 65.6655 22.47C65.987 22.3117 66.2347 22.0676 66.4085 21.7379C66.593 21.4082 66.6875 21.0087 66.6919 20.5393L66.701 19.5794C66.7053 19.1314 66.6181 18.763 66.4395 18.474C66.261 18.1851 66.007 17.9651 65.6778 17.8141C65.3593 17.6524 65.0028 17.5705 64.6081 17.5685C64.0321 17.5655 63.5609 17.7604 63.1945 18.1531C62.8282 18.5352 62.6414 19.1103 62.6341 19.8782L62.631 20.1982C62.6232 21.0195 62.804 21.6391 63.1734 22.057C63.5427 22.475 64.0048 22.6854 64.5594 22.6883ZM70.7063 24.4803L70.787 16.0006L72.7069 16.0106L72.6949 17.2746C72.8905 16.9023 73.203 16.5679 73.6325 16.2715C74.0727 15.9751 74.5754 15.8284 75.1407 15.8313C75.8234 15.8349 76.3554 15.9763 76.7368 16.2556C77.1288 16.535 77.4026 16.9044 77.5583 17.3639C77.7972 16.9171 78.1366 16.5562 78.5766 16.2812C79.0273 15.9955 79.5567 15.8543 80.1647 15.8574C81.0607 15.8621 81.7408 16.127 82.2052 16.6521C82.6802 17.1772 82.9127 17.9678 82.9027 19.0237L82.8502 24.5435L80.7382 24.5325L80.7861 19.4927C80.7925 18.8207 80.685 18.3455 80.4637 18.067C80.253 17.7886 79.9076 17.6481 79.4276 17.6456C79.1503 17.6442 78.8936 17.7175 78.6575 17.8656C78.4215 18.0031 78.2276 18.21 78.0756 18.4866C77.9343 18.7632 77.8618 19.0935 77.8582 19.4775L77.8102 24.5172L75.7143 24.5063L75.7622 19.4666C75.7686 18.7946 75.6611 18.3194 75.4397 18.0409C75.229 17.7624 74.8837 17.622 74.4037 17.6195C74.1264 17.618 73.8643 17.6913 73.6176 17.8394C73.3816 17.9768 73.193 18.1838 73.0517 18.4604C72.921 18.7371 72.8539 19.0674 72.8502 19.4514L72.8023 24.4912L70.7063 24.4803ZM87.2323 24.7583C86.6243 24.7551 86.108 24.6404 85.6835 24.4142C85.2591 24.1773 84.9368 23.8557 84.7166 23.4492C84.4965 23.0427 84.3889 22.5835 84.3937 22.0715C84.4019 21.2182 84.6586 20.5795 85.164 20.1555C85.68 19.7315 86.4447 19.5221 87.458 19.5274L89.986 19.5406L89.9898 19.1406C89.9951 18.586 89.8708 18.196 89.6169 17.9707C89.3737 17.7454 88.9801 17.6313 88.4361 17.6285C87.9561 17.626 87.6087 17.7095 87.3937 17.8791C87.1789 18.038 87.0543 18.24 87.0199 18.4851L84.908 18.4741C84.9446 17.9837 85.1035 17.5472 85.3844 17.1646C85.6762 16.7715 86.0844 16.4643 86.6092 16.243C87.1448 16.0111 87.7859 15.8971 88.5326 15.901C89.2579 15.9048 89.8862 16.0147 90.4175 16.2308C90.9595 16.447 91.3775 16.7958 91.6716 17.2773C91.9658 17.7482 92.1091 18.3836 92.1015 19.1836L92.0706 22.4314C92.0663 22.8794 92.0679 23.2741 92.0753 23.6155C92.0935 23.9462 92.1224 24.2717 92.1621 24.5919L90.1941 24.5817C90.1536 24.3468 90.1287 24.1707 90.1191 24.0533C90.1203 23.9253 90.1221 23.7386 90.1244 23.4933C89.8972 23.8335 89.5423 24.1303 89.0599 24.3838C88.5775 24.6373 87.9683 24.7621 87.2323 24.7583ZM87.9038 23.1298C88.2451 23.1315 88.571 23.0746 88.8815 22.9588C89.2027 22.8325 89.4605 22.6419 89.6549 22.3869C89.8601 22.1213 89.9647 21.7858 89.9685 21.3805L89.9723 20.9805L87.8443 20.9694C87.439 20.9673 87.1181 21.0617 86.8816 21.2524C86.6559 21.4326 86.5415 21.6827 86.5385 22.0026C86.5352 22.344 86.65 22.6166 86.8827 22.8204C87.1154 23.0243 87.4558 23.1274 87.9038 23.1298Z" fill="white"/>
<rect x="140.5" y="0.5" width="146" height="36" rx="18" fill="#0B99FF"/>
<g filter="url(#filter1_d_1455_87866)">
<rect x="152" y="9" width="18" height="18" rx="9" fill="white" shape-rendering="crispEdges"/>
<path d="M165 15.5L160.188 20.5L158 18.2273" stroke="#0B99FF" stroke-width="2" stroke-linecap="round" stroke-linejoin="round"/>
</g>
<path d="M187.386 24.2809L187.493 13.0814L191.796 13.1038C192.81 13.1091 193.646 13.2681 194.304 13.5809C194.963 13.883 195.449 14.3122 195.764 14.8685C196.079 15.4141 196.233 16.0603 196.225 16.8069C196.218 17.5535 196.052 18.2033 195.727 18.7563C195.402 19.2986 194.907 19.7227 194.243 20.0286C193.579 20.3238 192.74 20.4688 191.726 20.4635L189.807 20.4535L189.77 24.2933L187.386 24.2809ZM189.825 18.4696L191.505 18.4783C192.359 18.4828 192.957 18.3419 193.301 18.0557C193.656 17.7695 193.836 17.3491 193.841 16.7945C193.847 16.2505 193.675 15.8336 193.325 15.5438C192.987 15.2434 192.391 15.0909 191.538 15.0865L189.858 15.0777L189.825 18.4696ZM197.707 24.3346L197.813 13.1351L199.909 13.1461L199.872 17.0339C200.002 16.8212 200.18 16.6141 200.406 16.4127C200.643 16.2006 200.932 16.0261 201.275 15.8892C201.628 15.7523 202.05 15.6852 202.541 15.6878C203.576 15.6931 204.341 15.9745 204.837 16.5317C205.344 17.089 205.592 17.8903 205.582 18.9356L205.53 24.3754L203.418 24.3644L203.465 19.4206C203.471 18.7913 203.343 18.3106 203.079 17.9786C202.826 17.6466 202.385 17.479 201.756 17.4757C201.308 17.4734 200.944 17.5621 200.665 17.742C200.386 17.9219 200.181 18.1608 200.05 18.4588C199.92 18.7461 199.853 19.0605 199.85 19.4018L199.802 24.3455L197.707 24.3346ZM211.216 24.597C210.448 24.593 209.74 24.4346 209.092 24.1219C208.456 23.7986 207.948 23.3106 207.57 22.658C207.193 22.0053 207.008 21.1937 207.017 20.2231L207.02 19.9031C207.029 18.9858 207.229 18.2188 207.618 17.6022C208.008 16.9749 208.525 16.5082 209.168 16.2023C209.821 15.8857 210.532 15.7294 211.3 15.7334C212.079 15.7374 212.787 15.9011 213.424 16.2244C214.061 16.5371 214.568 17.009 214.946 17.6403C215.324 18.261 215.509 19.0299 215.5 19.9472L215.497 20.2672C215.488 21.2165 215.289 22.0155 214.899 22.6641C214.508 23.3127 213.992 23.8007 213.349 24.128C212.706 24.4447 211.995 24.601 211.216 24.597ZM211.233 22.805C211.638 22.8071 211.997 22.7183 212.308 22.5386C212.629 22.3483 212.883 22.0616 213.068 21.6786C213.253 21.2955 213.348 20.8214 213.353 20.2561L213.356 19.9361C213.361 19.4134 213.275 18.9756 213.097 18.6227C212.919 18.2698 212.671 18.0018 212.353 17.8188C212.045 17.6252 211.689 17.5274 211.283 17.5253C210.878 17.5232 210.514 17.6173 210.193 17.8076C209.881 17.9873 209.634 18.2527 209.449 18.6037C209.264 18.9548 209.169 19.3916 209.164 19.9143L209.161 20.2342C209.156 20.8102 209.242 21.2907 209.42 21.6756C209.598 22.0498 209.84 22.3338 210.148 22.5274C210.466 22.7104 210.828 22.8029 211.233 22.805ZM220.411 24.5488C219.749 24.5454 219.206 24.4519 218.781 24.2683C218.356 24.0741 218.045 23.7685 217.846 23.3515C217.658 22.9345 217.567 22.3953 217.573 21.734L217.611 17.7182L216.475 17.7123L216.492 15.9524L217.628 15.9583L217.646 14.0384L219.742 14.0493L219.724 15.9692L221.772 15.9799L221.755 17.7398L219.707 17.7291L219.672 21.4089C219.668 21.8889 219.75 22.236 219.918 22.4502C220.098 22.6538 220.428 22.7569 220.908 22.7594C221.228 22.761 221.548 22.7467 221.868 22.7164L221.851 24.4763C221.648 24.4966 221.435 24.5115 221.211 24.521C220.997 24.5412 220.731 24.5505 220.411 24.5488ZM227.138 24.6798C226.37 24.6758 225.662 24.5175 225.014 24.2048C224.377 23.8814 223.87 23.3935 223.492 22.7408C223.114 22.0882 222.93 21.2766 222.939 20.3059L222.942 19.986C222.951 19.0687 223.15 18.3017 223.54 17.6851C223.93 17.0578 224.446 16.5911 225.089 16.2851C225.743 15.9685 226.454 15.8122 227.222 15.8162C228.001 15.8203 228.708 15.984 229.345 16.3073C229.982 16.6199 230.49 17.0919 230.868 17.7232C231.246 18.3438 231.431 19.1128 231.422 20.0301L231.419 20.3501C231.41 21.2994 231.21 22.0983 230.82 22.747C230.43 23.3956 229.913 23.8836 229.27 24.2109C228.627 24.5276 227.916 24.6839 227.138 24.6798ZM227.155 22.8879C227.56 22.89 227.918 22.8012 228.229 22.6215C228.551 22.4312 228.805 22.1445 228.989 21.7614C229.174 21.3784 229.27 20.9042 229.275 20.3389L229.278 20.0189C229.283 19.4963 229.197 19.0585 229.019 18.7056C228.841 18.3527 228.592 18.0847 228.274 17.9017C227.967 17.7081 227.61 17.6102 227.205 17.6081C226.8 17.606 226.436 17.7001 226.114 17.8905C225.803 18.0702 225.555 18.3356 225.371 18.6866C225.186 19.0376 225.091 19.4745 225.086 19.9971L225.083 20.3171C225.078 20.8931 225.164 21.3735 225.341 21.7585C225.519 22.1327 225.762 22.4166 226.069 22.6102C226.388 22.7932 226.749 22.8858 227.155 22.8879ZM237.211 24.7322C236.219 24.7271 235.394 24.5841 234.735 24.3034C234.077 24.0226 233.574 23.636 233.226 23.1435C232.89 22.6404 232.709 22.0581 232.683 21.3967L235.083 21.4092C235.164 21.8256 235.353 22.1466 235.65 22.3721C235.957 22.5977 236.484 22.7125 237.23 22.7163C237.998 22.7203 238.549 22.6219 238.881 22.4209C239.225 22.2094 239.398 21.9116 239.402 21.5276C239.405 21.2076 239.306 20.9458 239.105 20.7421C238.915 20.5384 238.618 20.3662 238.214 20.2254C237.81 20.074 237.284 19.9326 236.634 19.8012C235.878 19.648 235.23 19.4366 234.688 19.1671C234.147 18.8976 233.734 18.5328 233.45 18.0726C233.178 17.6126 233.044 17.0305 233.051 16.3266C233.057 15.6759 233.233 15.1168 233.579 14.6493C233.925 14.1711 234.419 13.8003 235.062 13.537C235.704 13.2737 236.457 13.1443 237.321 13.1488C238.26 13.1537 239.027 13.291 239.622 13.5607C240.227 13.8199 240.682 14.1849 240.987 14.6559C241.303 15.1268 241.484 15.6824 241.531 16.3227L239.147 16.3103C239.066 15.9259 238.892 15.6423 238.628 15.4596C238.363 15.2662 237.921 15.1679 237.302 15.1647C236.673 15.1614 236.208 15.2603 235.907 15.4614C235.607 15.6625 235.455 15.9337 235.452 16.2751C235.448 16.691 235.647 17.0174 236.05 17.2542C236.464 17.491 237.113 17.697 237.997 17.8723C238.603 17.9928 239.141 18.1396 239.608 18.3127C240.087 18.4859 240.49 18.712 240.818 18.991C241.146 19.2594 241.394 19.586 241.561 19.9709C241.728 20.3557 241.809 20.8202 241.803 21.3641C241.797 22.0468 241.61 22.6431 241.242 23.1532C240.886 23.6634 240.365 24.0553 239.679 24.3291C239.005 24.6029 238.182 24.7373 237.211 24.7322ZM243.456 24.5727L243.562 13.3733L245.658 13.3842L245.621 17.272C245.751 17.0593 245.929 16.8523 246.155 16.6508C246.392 16.4387 246.682 16.2642 247.024 16.1273C247.378 15.9905 247.8 15.9233 248.29 15.9259C249.325 15.9313 250.09 16.2126 250.586 16.7698C251.093 17.3271 251.341 18.1284 251.332 19.1737L251.28 24.6135L249.168 24.6025L249.215 19.6587C249.221 19.0294 249.092 18.5487 248.829 18.2167C248.576 17.8847 248.135 17.7171 247.505 17.7138C247.057 17.7115 246.694 17.8002 246.415 17.9801C246.136 18.16 245.931 18.3989 245.8 18.6969C245.669 18.9842 245.602 19.2986 245.599 19.6399L245.552 24.5837L243.456 24.5727ZM256.965 24.8351C256.197 24.8311 255.49 24.6727 254.842 24.36C254.205 24.0367 253.698 23.5487 253.32 22.8961C252.942 22.2434 252.758 21.4318 252.767 20.4612L252.77 20.1412C252.779 19.2239 252.978 18.4569 253.368 17.8403C253.758 17.213 254.274 16.7464 254.917 16.4404C255.571 16.1238 256.282 15.9675 257.05 15.9715C257.828 15.9755 258.536 16.1392 259.173 16.4625C259.81 16.7752 260.318 17.2471 260.696 17.8784C261.074 18.4991 261.258 19.268 261.25 20.1853L261.247 20.5053C261.238 21.4546 261.038 22.2536 260.648 22.9022C260.258 23.5509 259.741 24.0388 259.098 24.3662C258.455 24.6828 257.744 24.8391 256.965 24.8351ZM256.982 23.0431C257.388 23.0452 257.746 22.9564 258.057 22.7767C258.379 22.5864 258.632 22.2997 258.817 21.9167C259.002 21.5336 259.097 21.0595 259.103 20.4942L259.106 20.1742C259.111 19.6515 259.024 19.2137 258.846 18.8608C258.668 18.5079 258.42 18.2399 258.102 18.0569C257.794 17.8633 257.438 17.7655 257.033 17.7634C256.627 17.7613 256.264 17.8554 255.942 18.0457C255.631 18.2254 255.383 18.4908 255.198 18.8418C255.014 19.1929 254.919 19.6297 254.914 20.1524L254.911 20.4723C254.905 21.0483 254.991 21.5288 255.169 21.9137C255.347 22.288 255.59 22.5719 255.897 22.7655C256.215 22.9485 256.577 23.041 256.982 23.0431ZM262.706 27.873L262.818 16.1935L264.769 16.2036L264.758 17.4516C264.975 17.0687 265.314 16.7345 265.775 16.4489C266.237 16.1633 266.819 16.0223 267.523 16.026C268.654 16.0319 269.531 16.3884 270.153 17.0957C270.787 17.7923 271.097 18.8392 271.083 20.2365L271.08 20.5565C271.071 21.5271 270.914 22.337 270.609 22.9861C270.315 23.6245 269.9 24.1024 269.364 24.4196C268.827 24.7368 268.186 24.8935 267.439 24.8896C266.863 24.8866 266.352 24.7612 265.907 24.5136C265.472 24.2553 265.117 23.9228 264.844 23.5161L264.802 27.8839L262.706 27.873ZM266.96 23.0951C267.515 23.098 267.981 22.8924 268.358 22.4783C268.735 22.0536 268.928 21.4093 268.936 20.5453L268.939 20.2254C268.947 19.4254 268.771 18.8271 268.412 18.4306C268.064 18.0235 267.597 17.8184 267.01 17.8153C266.616 17.8133 266.252 17.8914 265.92 18.0496C265.599 18.1973 265.346 18.4253 265.161 18.7337C264.977 19.0314 264.883 19.4149 264.879 19.8842L264.869 20.8442C264.865 21.3455 264.946 21.7672 265.113 22.1095C265.292 22.441 265.54 22.6877 265.858 22.8493C266.177 23.011 266.544 23.0929 266.96 23.0951Z" fill="white"/>
<rect x="310.5" y="0.5" width="146" height="36" rx="18" fill="#F7A008"/>
<g filter="url(#filter2_d_1455_87866)">
<rect x="322" y="9" width="18" height="18" rx="9" fill="white" shape-rendering="crispEdges"/>
<path d="M335 15.5L330.188 20.5L328 18.2273" stroke="#F7A008" stroke-width="2" stroke-linecap="round" stroke-linejoin="round"/>
</g>
<path d="M356.25 24.275L360.516 13.0972L362.9 13.1096L366.97 24.3308L364.442 24.3176L363.6 22.0253L359.456 22.0037L358.586 24.2872L356.25 24.275ZM360.211 20.0236L362.899 20.0376L361.592 16.1428L360.211 20.0236ZM371.123 24.5444C370.387 24.5406 369.749 24.3773 369.208 24.0544C368.677 23.7317 368.266 23.2495 367.973 22.608C367.692 21.9559 367.555 21.1445 367.564 20.1739L367.567 19.8539C367.576 18.9366 367.728 18.1694 368.021 17.5522C368.326 16.9352 368.752 16.468 369.299 16.1509C369.846 15.8337 370.482 15.677 371.207 15.6808C371.794 15.6839 372.305 15.8145 372.74 16.0728C373.185 16.3205 373.539 16.653 373.802 17.0703L373.839 13.1665L375.935 13.1774L375.829 24.3769L373.877 24.3668L373.889 23.1188C373.672 23.5017 373.333 23.8359 372.871 24.1215C372.41 24.4071 371.827 24.5481 371.123 24.5444ZM371.636 22.7551C372.063 22.7573 372.431 22.6792 372.742 22.5208C373.064 22.3625 373.312 22.1185 373.485 21.7887C373.67 21.4483 373.765 21.0275 373.769 20.5262L373.778 19.5662C373.783 19.0969 373.696 18.7125 373.517 18.4129C373.339 18.1026 373.085 17.8719 372.756 17.7209C372.437 17.5592 372.081 17.4774 371.686 17.4753C371.11 17.4723 370.639 17.6725 370.272 18.076C369.906 18.4687 369.719 19.0651 369.711 19.8651L369.708 20.185C369.7 21.0597 369.881 21.7059 370.25 22.1239C370.619 22.5418 371.081 22.7522 371.636 22.7551ZM381.607 24.599C380.839 24.595 380.131 24.4366 379.483 24.1239C378.846 23.8006 378.339 23.3126 377.961 22.66C377.583 22.0074 377.399 21.1957 377.408 20.2251L377.411 19.9051C377.42 18.9878 377.619 18.2209 378.009 17.6042C378.399 16.9769 378.915 16.5103 379.558 16.2043C380.212 15.8877 380.923 15.7314 381.691 15.7354C382.47 15.7394 383.177 15.9031 383.814 16.2264C384.451 16.5391 384.959 17.0111 385.337 17.6424C385.715 18.263 385.9 19.032 385.891 19.9493L385.888 20.2692C385.879 21.2185 385.679 22.0175 385.289 22.6661C384.899 23.3148 384.382 23.8028 383.739 24.1301C383.096 24.4467 382.385 24.603 381.607 24.599ZM381.624 22.8071C382.029 22.8092 382.387 22.7204 382.698 22.5407C383.02 22.3503 383.273 22.0636 383.458 21.6806C383.643 21.2976 383.739 20.8234 383.744 20.2581L383.747 19.9381C383.752 19.4155 383.665 18.9777 383.488 18.6247C383.31 18.2718 383.061 18.0039 382.743 17.8209C382.436 17.6273 382.079 17.5294 381.674 17.5273C381.269 17.5252 380.905 17.6193 380.583 17.8096C380.272 17.9893 380.024 18.2547 379.84 18.6058C379.655 18.9568 379.56 19.3936 379.555 19.9163L379.552 20.2363C379.547 20.8122 379.633 21.2927 379.81 21.6776C379.988 22.0519 380.231 22.3358 380.538 22.5294C380.857 22.7124 381.218 22.805 381.624 22.8071ZM392.08 24.6535C391.376 24.6498 390.796 24.5028 390.34 24.2124C389.884 23.9221 389.552 23.5843 389.342 23.1992L389.33 24.4472L387.378 24.437L387.485 13.2375L389.581 13.2484L389.544 17.1363C389.814 16.7323 390.169 16.4088 390.609 16.1658C391.059 15.9121 391.578 15.7868 392.165 15.7899C393.295 15.7958 394.172 16.1523 394.794 16.8596C395.428 17.5562 395.738 18.6032 395.725 20.0004L395.722 20.3204C395.712 21.2911 395.555 22.1009 395.25 22.75C394.956 23.3885 394.541 23.8663 394.005 24.1835C393.468 24.5007 392.827 24.6574 392.08 24.6535ZM391.601 22.859C392.156 22.8619 392.622 22.6563 392.999 22.2423C393.377 21.8176 393.569 21.1732 393.578 20.3093L393.581 19.9893C393.588 19.1893 393.413 18.5911 393.054 18.1945C392.706 17.7874 392.238 17.5823 391.651 17.5792C391.257 17.5772 390.893 17.6553 390.561 17.8136C390.24 17.9612 389.987 18.1892 389.803 18.4976C389.619 18.7953 389.524 19.1788 389.52 19.6481L389.511 20.6081C389.506 21.1094 389.587 21.5312 389.755 21.8734C389.933 22.205 390.181 22.4516 390.5 22.6133C390.829 22.775 391.196 22.8569 391.601 22.859ZM401.044 24.7001C400.276 24.6961 399.568 24.5378 398.92 24.2251C398.283 23.9018 397.776 23.4191 397.398 22.7772C397.02 22.1245 396.836 21.3076 396.845 20.3263L396.848 20.0063C396.857 19.0677 397.046 18.29 397.415 17.6732C397.794 17.0565 398.294 16.5951 398.916 16.289C399.537 15.9829 400.221 15.8318 400.968 15.8357C402.301 15.8427 403.311 16.1999 403.998 16.9075C404.685 17.6151 405.022 18.6355 405.009 19.9688L405 20.8647L399.001 20.8335C399.017 21.3349 399.12 21.7461 399.309 22.0671C399.509 22.3775 399.762 22.6081 400.07 22.7591C400.378 22.8993 400.708 22.9704 401.06 22.9722C401.604 22.9751 402.016 22.8972 402.295 22.7386C402.573 22.5801 402.773 22.3465 402.893 22.0378L404.829 22.0478C404.65 22.9322 404.222 23.5967 403.546 24.0412C402.87 24.4857 402.036 24.7053 401.044 24.7001ZM401.032 17.5641C400.701 17.5623 400.381 17.614 400.07 17.719C399.76 17.8241 399.513 18.0148 399.329 18.2912C399.145 18.5569 399.04 18.9137 399.015 19.3616L402.967 19.3821C402.96 18.9021 402.868 18.5336 402.689 18.2767C402.521 18.0091 402.293 17.8266 402.006 17.7291C401.719 17.621 401.394 17.5659 401.032 17.5641ZM409.847 24.554L413.662 18.7338L410.113 13.3553L412.801 13.3693L415.23 17.0459L417.745 13.395L420.353 13.4086L416.735 18.7018L420.407 24.6089L417.703 24.5948L415.135 20.3895L412.503 24.5678L409.847 24.554ZM422.026 24.6173L422.132 13.4179L426.02 13.4381C427.151 13.444 428.114 13.6517 428.91 14.0611C429.707 14.4706 430.309 15.0764 430.717 15.8785C431.136 16.6701 431.34 17.6525 431.329 18.8257L431.326 19.1457C431.315 20.3403 431.087 21.3472 430.641 22.1662C430.196 22.9852 429.556 23.6059 428.72 24.0282C427.894 24.4399 426.906 24.6427 425.754 24.6368L422.026 24.6173ZM424.429 22.6458L425.613 22.652C426.199 22.6551 426.734 22.5458 427.216 22.3244C427.698 22.1029 428.085 21.7369 428.378 21.2264C428.682 20.7053 428.838 20.0074 428.846 19.1328L428.849 18.8128C428.857 17.9809 428.73 17.3189 428.468 16.8268C428.206 16.3241 427.842 15.9649 427.374 15.7491C426.918 15.5334 426.407 15.4241 425.841 15.4212L424.497 15.4142L424.429 22.6458Z" fill="white"/>
<rect x="480.5" y="0.5" width="103" height="36" rx="18" fill="#F7A008"/>
<g filter="url(#filter3_d_1455_87866)">
<rect x="489" y="9" width="18" height="18" rx="9" fill="white" shape-rendering="crispEdges"/>
<path d="M502 15.5L497.188 20.5L495 18.2273" stroke="#F7A008" stroke-width="2" stroke-linecap="round" stroke-linejoin="round"/>
</g>
<path d="M526.217 24.5786C525.247 24.5735 524.379 24.377 523.615 23.989C522.861 23.5905 522.27 22.974 521.84 22.1398C521.422 21.295 521.219 20.1952 521.232 18.8406L521.235 18.5206C521.244 17.5393 521.38 16.7027 521.643 16.0107C521.905 15.3081 522.268 14.734 522.731 14.2884C523.205 13.8429 523.746 13.515 524.356 13.3049C524.966 13.0947 525.623 12.9915 526.327 12.9951C526.957 12.9984 527.543 13.0814 528.085 13.2443C528.638 13.3965 529.127 13.6284 529.55 13.9399C529.974 14.2514 530.312 14.6532 530.563 15.1452C530.825 15.6372 530.974 16.214 531.011 16.8755L528.515 16.8625C528.403 16.2326 528.152 15.7673 527.76 15.4666C527.368 15.1659 526.884 15.014 526.308 15.011C525.86 15.0087 525.443 15.1185 525.057 15.3405C524.671 15.5518 524.353 15.9129 524.103 16.4236C523.863 16.9343 523.739 17.6377 523.731 18.5336L523.728 18.8536C523.721 19.5576 523.79 20.1499 523.935 20.6307C524.08 21.1008 524.273 21.4805 524.516 21.7697C524.759 22.0483 525.029 22.2524 525.326 22.3819C525.624 22.5008 525.927 22.5611 526.236 22.5627C526.844 22.5659 527.347 22.4138 527.745 22.1065C528.142 21.7886 528.387 21.3312 528.478 20.7343L530.974 20.7473C530.914 21.4404 530.754 22.0369 530.493 22.5368C530.232 23.0262 529.892 23.4244 529.473 23.7315C529.055 24.028 528.567 24.2442 528.011 24.3799C527.455 24.5157 526.857 24.5819 526.217 24.5786ZM535.069 24.6247C534.461 24.6215 533.944 24.5068 533.52 24.2806C533.095 24.0437 532.773 23.722 532.553 23.3156C532.333 22.9091 532.225 22.4499 532.23 21.9379C532.238 21.0846 532.495 20.4459 533 20.0219C533.516 19.5979 534.281 19.3885 535.294 19.3938L537.822 19.407L537.826 19.007C537.831 18.4524 537.707 18.0624 537.453 17.837C537.21 17.6118 536.816 17.4977 536.272 17.4949C535.792 17.4924 535.445 17.5759 535.23 17.7455C535.015 17.9044 534.891 18.1064 534.856 18.3515L532.744 18.3405C532.781 17.8501 532.94 17.4136 533.221 17.031C533.512 16.6379 533.921 16.3307 534.446 16.1094C534.981 15.8775 535.622 15.7635 536.369 15.7674C537.094 15.7712 537.722 15.8811 538.254 16.0972C538.796 16.3134 539.214 16.6622 539.508 17.1437C539.802 17.6146 539.945 18.25 539.938 19.05L539.907 22.2978C539.903 22.7458 539.904 23.1405 539.912 23.4819C539.93 23.8126 539.959 24.1381 539.998 24.4583L538.03 24.4481C537.99 24.2132 537.965 24.0371 537.955 23.9197C537.957 23.7917 537.958 23.605 537.961 23.3597C537.733 23.6999 537.379 23.9967 536.896 24.2502C536.414 24.5037 535.805 24.6285 535.069 24.6247ZM535.74 22.9962C536.081 22.9979 536.407 22.941 536.718 22.8252C537.039 22.6989 537.297 22.5083 537.491 22.2533C537.696 21.9877 537.801 21.6522 537.805 21.2469L537.809 20.8469L535.681 20.8358C535.275 20.8337 534.954 20.9281 534.718 21.1188C534.492 21.299 534.378 21.5491 534.375 21.869C534.372 22.2104 534.486 22.483 534.719 22.6868C534.952 22.8907 535.292 22.9938 535.74 22.9962ZM541.745 24.4674L541.826 15.9878L543.746 15.9978L543.734 17.2457C543.951 16.8629 544.285 16.5286 544.736 16.2429C545.186 15.9573 545.801 15.8165 546.58 15.8205C547.614 15.8259 548.38 16.1072 548.876 16.6645C549.383 17.2218 549.631 18.0231 549.621 19.0684L549.569 24.5081L547.457 24.4971L547.505 19.5374C547.511 18.9081 547.382 18.4327 547.118 18.1113C546.865 17.7794 546.424 17.6117 545.795 17.6085C545.347 17.6061 544.983 17.6949 544.704 17.8748C544.425 18.0547 544.22 18.2883 544.09 18.5756C543.959 18.8629 543.892 19.1772 543.889 19.5185L543.841 24.4783L541.745 24.4674ZM554.045 24.5314L550.541 16.0332L552.909 16.0455L555.157 21.9132L557.325 16.0685L559.501 16.0798L556.157 24.5424L554.045 24.5314ZM562.678 24.7684C562.07 24.7652 561.553 24.6505 561.129 24.4243C560.704 24.1874 560.382 23.8657 560.162 23.4593C559.942 23.0528 559.834 22.5936 559.839 22.0816C559.847 21.2283 560.104 20.5896 560.609 20.1656C561.125 19.7416 561.89 19.5322 562.903 19.5375L565.431 19.5507L565.435 19.1507C565.44 18.596 565.316 18.2061 565.062 17.9807C564.819 17.7555 564.425 17.6414 563.881 17.6386C563.401 17.6361 563.054 17.7196 562.839 17.8892C562.624 18.0481 562.5 18.2501 562.465 18.4952L560.353 18.4842C560.39 17.9938 560.549 17.5572 560.83 17.1747C561.121 16.7816 561.53 16.4743 562.055 16.2531C562.59 16.0212 563.231 15.9072 563.978 15.9111C564.703 15.9149 565.331 16.0248 565.863 16.2409C566.405 16.4571 566.823 16.8059 567.117 17.2874C567.411 17.7583 567.554 18.3937 567.547 19.1937L567.516 22.4415C567.512 22.8895 567.513 23.2842 567.521 23.6256C567.539 23.9563 567.568 24.2818 567.607 24.602L565.639 24.5918C565.599 24.3569 565.574 24.1808 565.564 24.0634C565.566 23.9354 565.567 23.7487 565.57 23.5034C565.342 23.8436 564.988 24.1404 564.505 24.3939C564.023 24.6474 563.414 24.7722 562.678 24.7684ZM563.349 23.1398C563.69 23.1416 564.016 23.0847 564.327 22.9689C564.648 22.8426 564.906 22.6519 565.1 22.397C565.305 22.1314 565.41 21.7959 565.414 21.3906L565.418 20.9906L563.29 20.9795C562.884 20.9774 562.563 21.0717 562.327 21.2625C562.101 21.4427 561.987 21.6927 561.984 22.0127C561.981 22.3541 562.095 22.6267 562.328 22.8305C562.561 23.0344 562.901 23.1375 563.349 23.1398Z" fill="white"/>
<rect x="99.5" y="60.5" width="103" height="36" rx="18" fill="#F7A008"/>
<g filter="url(#filter4_d_1455_87866)">
<rect x="108" y="69" width="18" height="18" rx="9" fill="white" shape-rendering="crispEdges"/>
<path d="M121 75.5L116.188 80.5L114 78.2273" stroke="#F7A008" stroke-width="2" stroke-linecap="round" stroke-linejoin="round"/>
</g>
<path d="M140.675 84.363L140.782 73.1635L143.166 73.1759L143.123 77.6237L147.923 77.6486L147.965 73.2009L150.349 73.2133L150.243 84.4128L147.859 84.4003L147.904 79.6326L143.104 79.6076L143.059 84.3754L140.675 84.363ZM155.455 84.4399L155.543 75.2243L151.943 75.2056L151.962 73.2216L161.546 73.2715L161.527 75.2554L157.927 75.2367L157.839 84.4523L155.455 84.4399ZM163.05 84.4794L163.156 73.2799L165.54 73.2923L168.888 79.6138L172.34 73.3277L174.66 73.3398L174.554 84.5393L172.154 84.5268L172.221 77.4071L169.519 82.2731L168.095 82.2657L165.501 77.3721L165.434 84.4918L163.05 84.4794ZM177.112 84.5526L177.219 73.3531L179.603 73.3655L179.515 82.5811L184.635 82.6077L184.616 84.5917L177.112 84.5526Z" fill="white"/>
<rect x="226.5" y="60.5" width="89" height="36" rx="18" fill="#0B99FF"/>
<g filter="url(#filter5_d_1455_87866)">
<rect x="236" y="69" width="18" height="18" rx="9" fill="white" shape-rendering="crispEdges"/>
<path d="M249 75.5L244.188 80.5L242 78.2273" stroke="#0B99FF" stroke-width="2" stroke-linecap="round" stroke-linejoin="round"/>
</g>
<path d="M272.873 84.6186C271.903 84.6136 271.035 84.4171 270.271 84.0291C269.517 83.6305 268.926 83.0141 268.496 82.1798C268.078 81.335 267.875 80.2353 267.888 78.8807L267.891 78.5607C267.9 77.5794 268.036 76.7428 268.299 76.0508C268.561 75.3482 268.924 74.774 269.387 74.3284C269.861 73.8829 270.403 73.5551 271.013 73.3449C271.623 73.1347 272.28 73.0315 272.984 73.0352C273.613 73.0384 274.199 73.1215 274.741 73.2843C275.295 73.4365 275.783 73.6684 276.207 73.9799C276.63 74.2915 276.968 74.6932 277.219 75.1852C277.481 75.6772 277.63 76.254 277.667 76.9155L275.171 76.9026C275.06 76.2726 274.808 75.8073 274.416 75.5066C274.024 75.2059 273.54 75.0541 272.964 75.0511C272.516 75.0487 272.099 75.1586 271.713 75.3806C271.327 75.5919 271.009 75.9529 270.759 76.4636C270.519 76.9744 270.395 77.6777 270.387 78.5737L270.384 78.8937C270.377 79.5976 270.446 80.19 270.591 80.6707C270.736 81.1408 270.93 81.5205 271.172 81.8098C271.415 82.0884 271.685 82.2924 271.982 82.422C272.28 82.5409 272.583 82.6011 272.893 82.6027C273.501 82.6059 274.003 82.4538 274.401 82.1466C274.799 81.8286 275.043 81.3712 275.134 80.7744L277.63 80.7874C277.57 81.4804 277.41 82.0769 277.149 82.5769C276.888 83.0662 276.549 83.4644 276.13 83.7716C275.711 84.0681 275.223 84.2842 274.667 84.42C274.111 84.5557 273.513 84.622 272.873 84.6186ZM283.501 84.6739C282.509 84.6688 281.683 84.5258 281.025 84.2451C280.366 83.9643 279.863 83.5777 279.516 83.0852C279.179 82.5821 278.998 81.9998 278.972 81.3384L281.372 81.3509C281.454 81.7673 281.643 82.0883 281.939 82.3138C282.246 82.5394 282.773 82.6542 283.52 82.658C284.288 82.662 284.838 82.5636 285.171 82.3626C285.514 82.1511 285.688 81.8533 285.691 81.4693C285.694 81.1493 285.596 80.8875 285.395 80.6838C285.205 80.4801 284.908 80.3079 284.504 80.1671C284.1 80.0157 283.573 79.8743 282.924 79.7429C282.168 79.5897 281.519 79.3783 280.978 79.1088C280.436 78.8393 280.024 78.4745 279.74 78.0143C279.467 77.5543 279.334 76.9722 279.341 76.2683C279.347 75.6176 279.523 75.0585 279.869 74.591C280.214 74.1128 280.709 73.742 281.351 73.4787C281.994 73.2154 282.747 73.086 283.611 73.0905C284.55 73.0954 285.316 73.2327 285.911 73.5024C286.517 73.7616 286.972 74.1266 287.277 74.5976C287.592 75.0685 287.774 75.6241 287.821 76.2644L285.437 76.252C285.355 75.8676 285.182 75.584 284.917 75.4013C284.652 75.2079 284.21 75.1096 283.592 75.1064C282.962 75.1031 282.498 75.202 282.197 75.4031C281.896 75.6042 281.744 75.8754 281.741 76.2168C281.737 76.6327 281.937 76.9591 282.34 77.1959C282.754 77.4327 283.402 77.6387 284.286 77.814C284.893 77.9345 285.43 78.0813 285.898 78.2544C286.376 78.4276 286.78 78.6537 287.108 78.9327C287.436 79.2011 287.683 79.5277 287.85 79.9126C288.017 80.2974 288.098 80.7619 288.093 81.3058C288.087 81.9885 287.9 82.5848 287.532 83.0949C287.175 83.6051 286.654 83.997 285.969 84.2708C285.294 84.5446 284.471 84.679 283.501 84.6739ZM294.048 84.7288C293.056 84.7237 292.23 84.5807 291.572 84.2999C290.913 84.0192 290.41 83.6326 290.063 83.1401C289.726 82.637 289.545 82.0547 289.519 81.3933L291.919 81.4057C292 81.8222 292.189 82.1432 292.486 82.3687C292.793 82.5943 293.32 82.709 294.067 82.7129C294.835 82.7169 295.385 82.6185 295.718 82.4175C296.061 82.206 296.234 81.9082 296.238 81.5242C296.241 81.2042 296.142 80.9424 295.942 80.7387C295.751 80.535 295.454 80.3628 295.05 80.222C294.647 80.0706 294.12 79.9292 293.47 79.7978C292.715 79.6445 292.066 79.4332 291.524 79.1637C290.983 78.8942 290.57 78.5294 290.287 78.0692C290.014 77.6091 289.881 77.0271 289.887 76.3231C289.894 75.6725 290.07 75.1134 290.415 74.6459C290.761 74.1677 291.255 73.7969 291.898 73.5336C292.54 73.2703 293.294 73.1409 294.158 73.1454C295.096 73.1502 295.863 73.2876 296.458 73.5573C297.063 73.8165 297.519 74.1815 297.823 74.6524C298.139 75.1234 298.32 75.679 298.368 76.3193L295.984 76.3069C295.902 75.9225 295.729 75.6389 295.464 75.4562C295.199 75.2628 294.757 75.1645 294.139 75.1613C293.509 75.158 293.044 75.2569 292.744 75.458C292.443 75.6591 292.291 75.9303 292.288 76.2716C292.284 76.6876 292.484 77.014 292.887 77.2508C293.3 77.4876 293.949 77.6936 294.833 77.8689C295.44 77.9894 295.977 78.1362 296.445 78.3093C296.923 78.4824 297.326 78.7085 297.654 78.9876C297.982 79.256 298.23 79.5826 298.397 79.9675C298.564 80.3523 298.645 80.8167 298.64 81.3607C298.633 82.0434 298.446 82.6397 298.079 83.1498C297.722 83.66 297.201 84.0519 296.515 84.3257C295.841 84.5995 295.018 84.7339 294.048 84.7288Z" fill="white"/>
<rect x="339.5" y="60.5" width="146" height="36" rx="18" fill="#0B99FF"/>
<g filter="url(#filter6_d_1455_87866)">
<rect x="351" y="69" width="18" height="18" rx="9" fill="white" shape-rendering="crispEdges"/>
<path d="M364 75.5L359.188 80.5L357 78.2273" stroke="#0B99FF" stroke-width="2" stroke-linecap="round" stroke-linejoin="round"/>
</g>
<path d="M388.29 84.2908L385.517 73.0764L388.013 73.0893L389.681 81.0021L391.916 73.1097L394.156 73.1213L396.289 81.0685L398.252 73.1426L400.556 73.1546L397.554 84.339L395.17 84.3266L392.926 76.3149L390.674 84.3032L388.29 84.2908ZM405.06 84.5701C404.292 84.5661 403.584 84.4078 402.936 84.0951C402.299 83.7717 401.792 83.2838 401.414 82.6311C401.036 81.9785 400.852 81.1669 400.861 80.1962L400.864 79.8763C400.873 78.959 401.072 78.192 401.462 77.5754C401.852 76.9481 402.369 76.4814 403.012 76.1754C403.665 75.8588 404.376 75.7025 405.144 75.7065C405.923 75.7106 406.631 75.8743 407.268 76.1976C407.905 76.5102 408.412 76.9822 408.79 77.6135C409.168 78.2341 409.353 79.0031 409.344 79.9204L409.341 80.2404C409.332 81.1897 409.133 81.9886 408.742 82.6373C408.352 83.2859 407.836 83.7739 407.192 84.1012C406.549 84.4179 405.838 84.5742 405.06 84.5701ZM405.077 82.7782C405.482 82.7803 405.84 82.6915 406.151 82.5118C406.473 82.3215 406.727 82.0348 406.912 81.6517C407.097 81.2687 407.192 80.7945 407.197 80.2292L407.2 79.9092C407.205 79.3866 407.119 78.9488 406.941 78.5959C406.763 78.243 406.515 77.975 406.196 77.792C405.889 77.5984 405.532 77.5005 405.127 77.4984C404.722 77.4963 404.358 77.5904 404.036 77.7808C403.725 77.9605 403.477 78.2259 403.293 78.5769C403.108 78.9279 403.013 79.3648 403.008 79.8874L403.005 80.2074C403 80.7834 403.086 81.2638 403.264 81.6488C403.441 82.023 403.684 82.3069 403.991 82.5005C404.31 82.6835 404.672 82.7761 405.077 82.7782ZM410.831 84.4082L410.912 75.9285L412.832 75.9385L412.82 77.2025C412.94 76.9578 413.102 76.7293 413.306 76.517C413.511 76.3047 413.764 76.1247 414.064 75.9769C414.364 75.8292 414.695 75.7562 415.058 75.7581C415.26 75.7592 415.431 75.7707 415.569 75.7928C415.719 75.8149 415.814 75.8367 415.857 75.8583L415.839 77.7302C415.733 77.687 415.594 77.6489 415.424 77.616C415.264 77.5725 415.046 77.5501 414.769 77.5486C414.342 77.5464 413.995 77.6353 413.726 77.8152C413.468 77.9952 413.279 78.2342 413.159 78.5322C413.039 78.8196 412.978 79.134 412.974 79.4753L412.927 84.4191L410.831 84.4082ZM420.092 84.6483C419.356 84.6445 418.717 84.4812 418.176 84.1584C417.646 83.8356 417.234 83.3535 416.942 82.7119C416.66 82.0598 416.524 81.2484 416.533 80.2778L416.536 79.9578C416.545 79.0405 416.696 78.2733 416.99 77.6562C417.294 77.0391 417.72 76.572 418.267 76.2548C418.814 75.9377 419.45 75.781 420.176 75.7847C420.762 75.7878 421.273 75.9185 421.708 76.1767C422.154 76.4244 422.508 76.7569 422.771 77.1743L422.808 73.2704L424.904 73.2813L424.797 84.4808L422.845 84.4707L422.857 83.2227C422.64 83.6056 422.301 83.9398 421.84 84.2254C421.378 84.511 420.795 84.652 420.092 84.6483ZM420.605 82.859C421.031 82.8612 421.4 82.7832 421.711 82.6248C422.032 82.4664 422.28 82.2224 422.454 81.8926C422.638 81.5523 422.733 81.1314 422.738 80.6301L422.747 79.6701C422.751 79.2008 422.664 78.8164 422.486 78.5168C422.308 78.2065 422.054 77.9759 421.724 77.8248C421.406 77.6632 421.049 77.5813 420.655 77.5792C420.079 77.5763 419.607 77.7765 419.241 78.1799C418.875 78.5727 418.688 79.169 418.68 79.969L418.677 80.289C418.669 81.1636 418.849 81.8099 419.218 82.2278C419.588 82.6457 420.05 82.8561 420.605 82.859ZM426.723 87.6909L426.834 76.0114L428.786 76.0216L428.774 77.2695C428.991 76.8866 429.33 76.5524 429.791 76.2668C430.253 75.9812 430.835 75.8402 431.539 75.8439C432.67 75.8498 433.547 76.2063 434.169 76.9136C434.803 77.6102 435.113 78.6572 435.099 80.0544L435.096 80.3744C435.087 81.345 434.93 82.1549 434.625 82.804C434.331 83.4425 433.916 83.9203 433.38 84.2375C432.843 84.5547 432.202 84.7114 431.455 84.7075C430.879 84.7045 430.368 84.5792 429.923 84.3315C429.488 84.0732 429.134 83.7407 428.86 83.334L428.819 87.7018L426.723 87.6909ZM430.976 82.913C431.531 82.9159 431.997 82.7103 432.374 82.2963C432.751 81.8716 432.944 81.2272 432.952 80.3633L432.956 80.0433C432.963 79.2433 432.787 78.6451 432.429 78.2485C432.08 77.8414 431.613 77.6363 431.026 77.6332C430.632 77.6312 430.268 77.7093 429.936 77.8676C429.615 78.0152 429.362 78.2432 429.178 78.5516C428.993 78.8493 428.899 79.2328 428.895 79.7021L428.885 80.6621C428.881 81.1634 428.962 81.5852 429.129 81.9274C429.308 82.259 429.556 82.5056 429.874 82.6673C430.193 82.8289 430.56 82.9108 430.976 82.913ZM436.597 84.5423L436.677 76.0626L438.597 76.0726L438.585 77.3366C438.705 77.0919 438.867 76.8634 439.072 76.6511C439.276 76.4388 439.529 76.2588 439.829 76.111C440.129 75.9633 440.46 75.8903 440.823 75.8922C441.026 75.8933 441.196 75.9048 441.335 75.9269C441.484 75.949 441.58 75.9708 441.622 75.9924L441.604 77.8643C441.498 77.8211 441.36 77.783 441.189 77.7501C441.03 77.7066 440.811 77.6842 440.534 77.6827C440.107 77.6805 439.76 77.7694 439.491 77.9493C439.234 78.1293 439.045 78.3683 438.925 78.6663C438.804 78.9537 438.743 79.2681 438.74 79.6094L438.693 84.5532L436.597 84.5423ZM446.497 84.7858C445.729 84.7818 445.021 84.6234 444.373 84.3107C443.736 83.9874 443.229 83.5048 442.851 82.8628C442.473 82.2102 442.289 81.3932 442.298 80.4119L442.301 80.0919C442.31 79.1533 442.499 78.3756 442.867 77.7589C443.247 77.1422 443.747 76.6808 444.369 76.3747C444.99 76.0686 445.674 75.9175 446.421 75.9213C447.754 75.9283 448.764 76.2855 449.451 76.9931C450.138 77.7007 450.475 78.7211 450.462 80.0544L450.453 80.9504L444.453 80.9191C444.47 81.4205 444.573 81.8318 444.762 82.1527C444.961 82.4631 445.215 82.6938 445.523 82.8447C445.831 82.985 446.161 83.056 446.513 83.0579C447.057 83.0607 447.469 82.9828 447.747 82.8243C448.026 82.6657 448.226 82.4321 448.346 82.1234L450.282 82.1335C450.103 83.0179 449.675 83.6823 448.999 84.1268C448.323 84.5713 447.489 84.7909 446.497 84.7858ZM446.485 77.6497C446.154 77.648 445.833 77.6996 445.523 77.8047C445.213 77.9097 444.966 78.1004 444.782 78.3768C444.598 78.6425 444.493 78.9993 444.467 79.4472L448.419 79.4678C448.413 78.9877 448.321 78.6192 448.142 78.3623C447.974 78.0948 447.746 77.9123 447.459 77.8148C447.172 77.7066 446.847 77.6516 446.485 77.6497ZM455.378 84.832C454.685 84.8284 454.104 84.756 453.636 84.6149C453.168 84.4632 452.781 84.2638 452.474 84.0169C452.177 83.7593 451.956 83.4702 451.81 83.1494C451.674 82.8287 451.592 82.4923 451.563 82.1401L453.675 82.1511C453.726 82.4287 453.889 82.6589 454.165 82.8417C454.44 83.0138 454.85 83.1012 455.394 83.1041C456.013 83.1073 456.456 83.0243 456.725 82.855C456.993 82.6857 457.128 82.4678 457.131 82.2011C457.133 82.0091 457.076 81.8542 456.959 81.7362C456.843 81.6076 456.636 81.4999 456.338 81.413C456.041 81.3154 455.62 81.2172 455.077 81.1184C454.608 81.052 454.177 80.9644 453.784 80.8557C453.39 80.7363 453.045 80.5745 452.748 80.3703C452.462 80.1661 452.235 79.9143 452.067 79.6147C451.91 79.3046 451.834 78.9309 451.838 78.4935C451.843 78.0242 451.985 77.5983 452.266 77.2158C452.558 76.8333 452.971 76.5314 453.507 76.3102C454.053 76.0784 454.705 75.9645 455.462 75.9684C456.284 75.9727 456.938 76.1041 457.427 76.3626C457.915 76.6212 458.28 76.9537 458.521 77.3603C458.763 77.7669 458.908 78.1997 458.957 78.6586L456.845 78.6476C456.762 78.3378 456.599 78.1023 456.355 77.9411C456.112 77.7798 455.808 77.6982 455.446 77.6963C454.912 77.6935 454.528 77.7769 454.291 77.9463C454.066 78.1051 453.952 78.3072 453.95 78.5525C453.947 78.8085 454.068 79.0065 454.312 79.1464C454.567 79.2864 455.083 79.4118 455.86 79.5225C456.34 79.589 456.782 79.6873 457.186 79.8174C457.601 79.9369 457.962 80.0988 458.269 80.303C458.576 80.5073 458.814 80.7645 458.982 81.0747C459.16 81.3743 459.247 81.7428 459.243 82.1801C459.238 82.7027 459.09 83.166 458.798 83.5698C458.517 83.963 458.087 84.2754 457.509 84.5071C456.942 84.7281 456.231 84.8364 455.378 84.832ZM464.159 84.8777C463.466 84.8741 462.885 84.8017 462.417 84.6606C461.949 84.5089 461.562 84.3095 461.255 84.0626C460.958 83.805 460.737 83.5159 460.591 83.1951C460.455 82.8744 460.373 82.538 460.344 82.1858L462.456 82.1968C462.507 82.4744 462.67 82.7046 462.946 82.8874C463.222 83.0595 463.631 83.1469 464.175 83.1498C464.794 83.153 465.238 83.07 465.506 82.9007C465.774 82.7314 465.91 82.5135 465.912 82.2468C465.914 82.0548 465.857 81.8999 465.741 81.7819C465.624 81.6533 465.417 81.5456 465.12 81.4587C464.822 81.3611 464.401 81.2629 463.858 81.1641C463.39 81.0977 462.958 81.0101 462.565 80.9014C462.171 80.782 461.826 80.6202 461.529 80.416C461.243 80.2118 461.016 79.96 460.849 79.6605C460.691 79.3503 460.615 78.9766 460.619 78.5393C460.624 78.0699 460.766 77.644 461.047 77.2615C461.339 76.879 461.753 76.5771 462.288 76.3559C462.834 76.1241 463.486 76.0102 464.243 76.0141C465.065 76.0184 465.719 76.1498 466.208 76.4083C466.696 76.6669 467.061 76.9994 467.302 77.406C467.544 77.8126 467.689 78.2454 467.738 78.7043L465.626 78.6933C465.543 78.3835 465.38 78.148 465.137 77.9868C464.893 77.8255 464.59 77.7439 464.227 77.742C463.694 77.7392 463.309 77.8226 463.072 77.992C462.847 78.1508 462.733 78.3529 462.731 78.5982C462.728 78.8542 462.849 79.0522 463.093 79.1921C463.348 79.3321 463.864 79.4575 464.642 79.5682C465.121 79.6347 465.563 79.733 465.967 79.8631C466.382 79.9826 466.743 80.1445 467.05 80.3487C467.358 80.553 467.595 80.8102 467.763 81.1204C467.941 81.42 468.029 81.7885 468.024 82.2258C468.019 82.7485 467.871 83.2117 467.579 83.6155C467.298 84.0087 466.868 84.3211 466.29 84.5528C465.723 84.7738 465.012 84.8821 464.159 84.8777Z" fill="white"/>
<rect x="216" y="120.5" width="153" height="36" rx="18" fill="#F7A008"/>
<g filter="url(#filter7_d_1455_87866)">
<rect x="231" y="129" width="18" height="18" rx="9" fill="white" shape-rendering="crispEdges"/>
<path d="M244 135.5L239.188 140.5L237 138.227" stroke="#F7A008" stroke-width="2" stroke-linecap="round" stroke-linejoin="round"/>
</g>
<path d="M260.982 144.253L256.849 133.031L259.441 133.045L262.306 141.38L265.169 133.074L267.569 133.087L263.366 144.265L260.982 144.253ZM268.749 144.293L268.83 135.813L270.926 135.824L270.845 144.304L268.749 144.293ZM269.878 135.003C269.504 135.001 269.196 134.882 268.953 134.646C268.721 134.41 268.606 134.106 268.61 133.732C268.613 133.359 268.734 133.056 268.97 132.822C269.218 132.589 269.523 132.473 269.886 132.475C270.27 132.477 270.578 132.596 270.81 132.832C271.053 133.068 271.173 133.372 271.17 133.746C271.166 134.119 271.041 134.422 270.793 134.656C270.556 134.889 270.251 135.005 269.878 135.003ZM276.115 144.523C275.379 144.52 274.741 144.356 274.2 144.033C273.669 143.711 273.258 143.229 272.965 142.587C272.684 141.935 272.547 141.123 272.557 140.153L272.56 139.833C272.568 138.916 272.72 138.148 273.014 137.531C273.318 136.914 273.744 136.447 274.291 136.13C274.838 135.813 275.474 135.656 276.199 135.66C276.786 135.663 277.297 135.794 277.732 136.052C278.177 136.299 278.532 136.632 278.794 137.049L278.831 133.145L280.927 133.156L280.821 144.356L278.869 144.346L278.881 143.098C278.664 143.481 278.325 143.815 277.863 144.101C277.402 144.386 276.819 144.527 276.115 144.523ZM276.628 142.734C277.055 142.736 277.424 142.658 277.734 142.5C278.056 142.341 278.304 142.097 278.477 141.768C278.662 141.427 278.757 141.006 278.761 140.505L278.771 139.545C278.775 139.076 278.688 138.691 278.51 138.392C278.331 138.082 278.077 137.851 277.748 137.7C277.43 137.538 277.073 137.456 276.678 137.454C276.102 137.451 275.631 137.652 275.265 138.055C274.898 138.448 274.711 139.044 274.704 139.844L274.701 140.164C274.692 141.039 274.873 141.685 275.242 142.103C275.612 142.521 276.074 142.731 276.628 142.734ZM286.599 144.578C285.831 144.574 285.123 144.416 284.475 144.103C283.838 143.78 283.331 143.297 282.953 142.655C282.575 142.002 282.391 141.185 282.4 140.204L282.403 139.884C282.412 138.945 282.601 138.168 282.969 137.551C283.349 136.934 283.849 136.473 284.471 136.167C285.092 135.861 285.776 135.71 286.523 135.714C287.856 135.72 288.866 136.078 289.553 136.785C290.24 137.493 290.577 138.513 290.564 139.847L290.555 140.743L284.555 140.711C284.572 141.213 284.675 141.624 284.864 141.945C285.063 142.255 285.317 142.486 285.625 142.637C285.933 142.777 286.263 142.848 286.615 142.85C287.159 142.853 287.571 142.775 287.849 142.616C288.128 142.458 288.328 142.224 288.448 141.916L290.384 141.926C290.205 142.81 289.777 143.475 289.101 143.919C288.425 144.363 287.591 144.583 286.599 144.578ZM286.587 137.442C286.256 137.44 285.935 137.492 285.625 137.597C285.315 137.702 285.068 137.893 284.884 138.169C284.7 138.435 284.595 138.792 284.569 139.239L288.521 139.26C288.515 138.78 288.423 138.411 288.244 138.155C288.076 137.887 287.848 137.704 287.561 137.607C287.274 137.499 286.949 137.444 286.587 137.442ZM295.88 144.626C295.112 144.622 294.404 144.464 293.756 144.151C293.119 143.828 292.612 143.34 292.234 142.687C291.856 142.035 291.672 141.223 291.681 140.252L291.684 139.932C291.693 139.015 291.892 138.248 292.282 137.632C292.672 137.004 293.189 136.538 293.832 136.232C294.485 135.915 295.196 135.759 295.964 135.763C296.743 135.767 297.451 135.93 298.088 136.254C298.725 136.566 299.232 137.038 299.61 137.67C299.988 138.29 300.173 139.059 300.164 139.977L300.161 140.297C300.152 141.246 299.953 142.045 299.562 142.693C299.172 143.342 298.656 143.83 298.012 144.157C297.369 144.474 296.659 144.63 295.88 144.626ZM295.897 142.834C296.302 142.836 296.66 142.748 296.971 142.568C297.293 142.378 297.547 142.091 297.732 141.708C297.917 141.325 298.012 140.851 298.017 140.285L298.02 139.965C298.025 139.443 297.939 139.005 297.761 138.652C297.583 138.299 297.335 138.031 297.016 137.848C296.709 137.655 296.352 137.557 295.947 137.555C295.542 137.552 295.178 137.647 294.856 137.837C294.545 138.017 294.297 138.282 294.113 138.633C293.928 138.984 293.833 139.421 293.828 139.944L293.825 140.264C293.82 140.84 293.906 141.32 294.084 141.705C294.261 142.079 294.504 142.363 294.812 142.557C295.13 142.74 295.492 142.832 295.897 142.834ZM305.971 144.487L306.078 133.287L313.886 133.328L313.867 135.312L308.459 135.284L308.435 137.78L313.363 137.805L313.345 139.725L308.417 139.7L308.39 142.515L313.798 142.544L313.779 144.527L305.971 144.487ZM318.677 144.745C317.941 144.741 317.303 144.578 316.762 144.255C316.231 143.932 315.82 143.45 315.527 142.809C315.246 142.156 315.109 141.345 315.119 140.374L315.122 140.054C315.13 139.137 315.282 138.37 315.575 137.753C315.88 137.136 316.306 136.669 316.853 136.351C317.4 136.034 318.036 135.878 318.761 135.881C319.348 135.884 319.859 136.015 320.294 136.273C320.739 136.521 321.094 136.853 321.356 137.271L321.393 133.367L323.489 133.378L323.383 144.577L321.431 144.567L321.443 143.319C321.226 143.702 320.887 144.036 320.425 144.322C319.964 144.608 319.381 144.749 318.677 144.745ZM319.19 142.956C319.617 142.958 319.986 142.88 320.296 142.721C320.618 142.563 320.866 142.319 321.039 141.989C321.224 141.649 321.319 141.228 321.323 140.727L321.333 139.767C321.337 139.297 321.25 138.913 321.071 138.613C320.893 138.303 320.639 138.072 320.31 137.921C319.992 137.76 319.635 137.678 319.24 137.676C318.664 137.673 318.193 137.873 317.827 138.276C317.46 138.669 317.273 139.266 317.266 140.066L317.262 140.386C317.254 141.26 317.435 141.906 317.804 142.324C318.173 142.742 318.635 142.953 319.19 142.956ZM325.499 144.588L325.579 136.109L327.675 136.12L327.595 144.599L325.499 144.588ZM326.627 135.298C326.254 135.296 325.945 135.177 325.702 134.941C325.47 134.706 325.355 134.401 325.359 134.028C325.363 133.654 325.483 133.351 325.72 133.118C325.967 132.884 326.272 132.768 326.635 132.77C327.019 132.772 327.327 132.891 327.56 133.127C327.803 133.363 327.922 133.668 327.919 134.041C327.915 134.414 327.79 134.718 327.542 134.951C327.305 135.184 327 135.3 326.627 135.298ZM333.105 144.724C332.444 144.721 331.901 144.627 331.476 144.444C331.051 144.249 330.739 143.944 330.541 143.527C330.353 143.11 330.262 142.571 330.268 141.909L330.306 137.893L329.17 137.888L329.187 136.128L330.323 136.133L330.341 134.214L332.437 134.224L332.419 136.144L334.467 136.155L334.45 137.915L332.402 137.904L332.367 141.584C332.363 142.064 332.445 142.411 332.613 142.625C332.793 142.829 333.122 142.932 333.602 142.935C333.922 142.936 334.242 142.922 334.563 142.892L334.546 144.652C334.343 144.672 334.13 144.687 333.906 144.696C333.692 144.716 333.425 144.726 333.105 144.724ZM336.248 144.644L336.329 136.165L338.425 136.176L338.344 144.655L336.248 144.644ZM337.377 135.354C337.003 135.352 336.695 135.233 336.452 134.997C336.22 134.762 336.105 134.457 336.109 134.084C336.112 133.71 336.233 133.407 336.469 133.173C336.717 132.94 337.022 132.824 337.385 132.826C337.769 132.828 338.077 132.947 338.309 133.183C338.553 133.419 338.672 133.724 338.669 134.097C338.665 134.47 338.54 134.774 338.292 135.007C338.055 135.24 337.75 135.356 337.377 135.354ZM340.432 144.666L340.513 136.187L342.433 136.197L342.421 137.444C342.638 137.062 342.972 136.727 343.422 136.442C343.873 136.156 344.488 136.015 345.266 136.019C346.301 136.025 347.067 136.306 347.563 136.863C348.069 137.421 348.318 138.222 348.308 139.267L348.256 144.707L346.144 144.696L346.191 139.736C346.197 139.107 346.068 138.631 345.805 138.31C345.552 137.978 345.111 137.81 344.481 137.807C344.033 137.805 343.67 137.894 343.391 138.074C343.112 138.253 342.907 138.487 342.776 138.774C342.645 139.062 342.578 139.376 342.575 139.717L342.528 144.677L340.432 144.666ZM353.751 148.127C352.855 148.123 352.142 148.007 351.61 147.78C351.079 147.564 350.687 147.264 350.435 146.878C350.193 146.493 350.054 146.039 350.016 145.516L352.16 145.527C352.222 145.752 352.364 145.96 352.586 146.153C352.808 146.357 353.202 146.461 353.767 146.464C354.482 146.467 355.017 146.299 355.372 145.96C355.727 145.62 355.908 145.109 355.914 144.427L355.924 143.403C355.654 143.817 355.293 144.151 354.843 144.405C354.392 144.648 353.879 144.768 353.303 144.765C352.567 144.761 351.929 144.598 351.388 144.275C350.857 143.952 350.446 143.476 350.153 142.845C349.871 142.203 349.735 141.413 349.744 140.475L349.747 140.155C349.755 139.269 349.906 138.523 350.2 137.917C350.505 137.311 350.93 136.849 351.477 136.532C352.024 136.214 352.661 136.058 353.386 136.062C354.09 136.065 354.67 136.212 355.126 136.503C355.582 136.793 355.914 137.131 356.124 137.516L356.136 136.268L358.088 136.278L358.012 144.278C358 145.536 357.644 146.494 356.945 147.152C356.245 147.81 355.18 148.135 353.751 148.127ZM353.816 142.976C354.243 142.978 354.612 142.905 354.922 142.758C355.244 142.599 355.491 142.355 355.665 142.025C355.85 141.696 355.944 141.296 355.949 140.827L355.958 139.867C355.962 139.419 355.875 139.051 355.696 138.762C355.518 138.473 355.264 138.253 354.935 138.102C354.616 137.94 354.26 137.858 353.865 137.856C353.289 137.853 352.818 138.048 352.451 138.441C352.085 138.823 351.898 139.398 351.891 140.166L351.888 140.486C351.88 141.307 352.061 141.927 352.43 142.345C352.799 142.763 353.261 142.973 353.816 142.976Z" fill="white"/>
<defs>
<filter id="filter0_d_1455_87866" x="6" y="3" width="34" height="34" filterUnits="userSpaceOnUse" color-interpolation-filters="sRGB">
<feFlood flood-opacity="0" result="BackgroundImageFix"/>
<feColorMatrix in="SourceAlpha" type="matrix" values="0 0 0 0 0 0 0 0 0 0 0 0 0 0 0 0 0 0 127 0" result="hardAlpha"/>
<feOffset dy="2"/>
<feGaussianBlur stdDeviation="4"/>
<feComposite in2="hardAlpha" operator="out"/>
<feColorMatrix type="matrix" values="0 0 0 0 0.227451 0 0 0 0 0.482353 0 0 0 0 1 0 0 0 0.5 0"/>
<feBlend mode="normal" in2="BackgroundImageFix" result="effect1_dropShadow_1455_87866"/>
<feBlend mode="normal" in="SourceGraphic" in2="effect1_dropShadow_1455_87866" result="shape"/>
</filter>
<filter id="filter1_d_1455_87866" x="144" y="3" width="34" height="34" filterUnits="userSpaceOnUse" color-interpolation-filters="sRGB">
<feFlood flood-opacity="0" result="BackgroundImageFix"/>
<feColorMatrix in="SourceAlpha" type="matrix" values="0 0 0 0 0 0 0 0 0 0 0 0 0 0 0 0 0 0 127 0" result="hardAlpha"/>
<feOffset dy="2"/>
<feGaussianBlur stdDeviation="4"/>
<feComposite in2="hardAlpha" operator="out"/>
<feColorMatrix type="matrix" values="0 0 0 0 0.227451 0 0 0 0 0.482353 0 0 0 0 1 0 0 0 0.5 0"/>
<feBlend mode="normal" in2="BackgroundImageFix" result="effect1_dropShadow_1455_87866"/>
<feBlend mode="normal" in="SourceGraphic" in2="effect1_dropShadow_1455_87866" result="shape"/>
</filter>
<filter id="filter2_d_1455_87866" x="314" y="3" width="34" height="34" filterUnits="userSpaceOnUse" color-interpolation-filters="sRGB">
<feFlood flood-opacity="0" result="BackgroundImageFix"/>
<feColorMatrix in="SourceAlpha" type="matrix" values="0 0 0 0 0 0 0 0 0 0 0 0 0 0 0 0 0 0 127 0" result="hardAlpha"/>
<feOffset dy="2"/>
<feGaussianBlur stdDeviation="4"/>
<feComposite in2="hardAlpha" operator="out"/>
<feColorMatrix type="matrix" values="0 0 0 0 0.227451 0 0 0 0 0.482353 0 0 0 0 1 0 0 0 0.5 0"/>
<feBlend mode="normal" in2="BackgroundImageFix" result="effect1_dropShadow_1455_87866"/>
<feBlend mode="normal" in="SourceGraphic" in2="effect1_dropShadow_1455_87866" result="shape"/>
</filter>
<filter id="filter3_d_1455_87866" x="481" y="3" width="34" height="34" filterUnits="userSpaceOnUse" color-interpolation-filters="sRGB">
<feFlood flood-opacity="0" result="BackgroundImageFix"/>
<feColorMatrix in="SourceAlpha" type="matrix" values="0 0 0 0 0 0 0 0 0 0 0 0 0 0 0 0 0 0 127 0" result="hardAlpha"/>
<feOffset dy="2"/>
<feGaussianBlur stdDeviation="4"/>
<feComposite in2="hardAlpha" operator="out"/>
<feColorMatrix type="matrix" values="0 0 0 0 0.227451 0 0 0 0 0.482353 0 0 0 0 1 0 0 0 0.5 0"/>
<feBlend mode="normal" in2="BackgroundImageFix" result="effect1_dropShadow_1455_87866"/>
<feBlend mode="normal" in="SourceGraphic" in2="effect1_dropShadow_1455_87866" result="shape"/>
</filter>
<filter id="filter4_d_1455_87866" x="100" y="63" width="34" height="34" filterUnits="userSpaceOnUse" color-interpolation-filters="sRGB">
<feFlood flood-opacity="0" result="BackgroundImageFix"/>
<feColorMatrix in="SourceAlpha" type="matrix" values="0 0 0 0 0 0 0 0 0 0 0 0 0 0 0 0 0 0 127 0" result="hardAlpha"/>
<feOffset dy="2"/>
<feGaussianBlur stdDeviation="4"/>
<feComposite in2="hardAlpha" operator="out"/>
<feColorMatrix type="matrix" values="0 0 0 0 0.227451 0 0 0 0 0.482353 0 0 0 0 1 0 0 0 0.5 0"/>
<feBlend mode="normal" in2="BackgroundImageFix" result="effect1_dropShadow_1455_87866"/>
<feBlend mode="normal" in="SourceGraphic" in2="effect1_dropShadow_1455_87866" result="shape"/>
</filter>
<filter id="filter5_d_1455_87866" x="228" y="63" width="34" height="34" filterUnits="userSpaceOnUse" color-interpolation-filters="sRGB">
<feFlood flood-opacity="0" result="BackgroundImageFix"/>
<feColorMatrix in="SourceAlpha" type="matrix" values="0 0 0 0 0 0 0 0 0 0 0 0 0 0 0 0 0 0 127 0" result="hardAlpha"/>
<feOffset dy="2"/>
<feGaussianBlur stdDeviation="4"/>
<feComposite in2="hardAlpha" operator="out"/>
<feColorMatrix type="matrix" values="0 0 0 0 0.227451 0 0 0 0 0.482353 0 0 0 0 1 0 0 0 0.5 0"/>
<feBlend mode="normal" in2="BackgroundImageFix" result="effect1_dropShadow_1455_87866"/>
<feBlend mode="normal" in="SourceGraphic" in2="effect1_dropShadow_1455_87866" result="shape"/>
</filter>
<filter id="filter6_d_1455_87866" x="343" y="63" width="34" height="34" filterUnits="userSpaceOnUse" color-interpolation-filters="sRGB">
<feFlood flood-opacity="0" result="BackgroundImageFix"/>
<feColorMatrix in="SourceAlpha" type="matrix" values="0 0 0 0 0 0 0 0 0 0 0 0 0 0 0 0 0 0 127 0" result="hardAlpha"/>
<feOffset dy="2"/>
<feGaussianBlur stdDeviation="4"/>
<feComposite in2="hardAlpha" operator="out"/>
<feColorMatrix type="matrix" values="0 0 0 0 0.227451 0 0 0 0 0.482353 0 0 0 0 1 0 0 0 0.5 0"/>
<feBlend mode="normal" in2="BackgroundImageFix" result="effect1_dropShadow_1455_87866"/>
<feBlend mode="normal" in="SourceGraphic" in2="effect1_dropShadow_1455_87866" result="shape"/>
</filter>
<filter id="filter7_d_1455_87866" x="223" y="123" width="34" height="34" filterUnits="userSpaceOnUse" color-interpolation-filters="sRGB">
<feFlood flood-opacity="0" result="BackgroundImageFix"/>
<feColorMatrix in="SourceAlpha" type="matrix" values="0 0 0 0 0 0 0 0 0 0 0 0 0 0 0 0 0 0 127 0" result="hardAlpha"/>
<feOffset dy="2"/>
<feGaussianBlur stdDeviation="4"/>
<feComposite in2="hardAlpha" operator="out"/>
<feColorMatrix type="matrix" values="0 0 0 0 0.227451 0 0 0 0 0.482353 0 0 0 0 1 0 0 0 0.5 0"/>
<feBlend mode="normal" in2="BackgroundImageFix" result="effect1_dropShadow_1455_87866"/>
<feBlend mode="normal" in="SourceGraphic" in2="effect1_dropShadow_1455_87866" result="shape"/>
</filter>
</defs>
</svg>
