<svg width="620" height="186" viewBox="0 0 620 186" fill="none" xmlns="http://www.w3.org/2000/svg">
<rect width="119" height="46" rx="8" fill="#FCFCFD"/>
<rect x="0.5" y="0.5" width="118" height="45" rx="7.5" stroke="#757575" stroke-opacity="0.5"/>
<g filter="url(#filter0_d_910_348)">
<rect x="15.0007" y="14" width="18" height="18" rx="9" fill="#133E87" shape-rendering="crispEdges"/>
<path d="M27 20L22.1875 25L20 22.7273" stroke="white" stroke-width="2" stroke-linecap="round" stroke-linejoin="round"/>
</g>
<path d="M48.3252 29.3586L48.4317 18.1591L56.0956 18.199L56.0768 20.1829L50.7968 20.1554L50.77 22.9713L55.57 22.9963L55.5517 24.9162L50.7518 24.8912L50.7092 29.371L48.3252 29.3586ZM57.6807 29.4073L57.7614 20.9277L59.8573 20.9386L59.7767 29.4182L57.6807 29.4073ZM58.8091 20.1171C58.4358 20.1152 58.1276 19.9963 57.8845 19.7603C57.652 19.5245 57.5376 19.2199 57.5411 18.8465C57.5447 18.4732 57.6649 18.1698 57.9018 17.9364C58.1494 17.703 58.4545 17.5873 58.8171 17.5892C59.2011 17.5912 59.5093 17.7101 59.7418 17.946C59.9849 18.1819 60.1047 18.4865 60.1011 18.8599C60.0976 19.2332 59.972 19.5365 59.7244 19.7699C59.4875 20.0033 59.1824 20.1191 58.8091 20.1171ZM65.4961 32.84C64.6001 32.8353 63.8865 32.7196 63.3553 32.4929C62.824 32.2768 62.4322 31.9761 62.1799 31.5907C61.9382 31.2055 61.7985 30.7514 61.7608 30.2286L63.9048 30.2397C63.9667 30.464 64.1087 30.6728 64.3308 30.8659C64.5529 31.0698 64.9466 31.1731 65.5119 31.1761C66.2266 31.1798 66.7615 31.0119 67.1168 30.6724C67.472 30.3329 67.6529 29.8219 67.6594 29.1392L67.6691 28.1153C67.3985 28.5299 67.038 28.864 66.5875 29.1177C66.1372 29.3607 65.6241 29.4807 65.0481 29.4777C64.3121 29.4738 63.6736 29.3105 63.1327 28.9877C62.6024 28.6649 62.1909 28.1881 61.8982 27.5573C61.6163 26.9158 61.4798 26.1257 61.4887 25.1871L61.4918 24.8671C61.5002 23.9818 61.6513 23.236 61.9451 22.6295C62.2495 22.0231 62.6753 21.5613 63.2223 21.2441C63.7693 20.927 64.4055 20.7703 65.1308 20.7741C65.8348 20.7777 66.4148 20.9247 66.8707 21.2151C67.3266 21.5055 67.6594 21.8432 67.8691 22.2283L67.881 20.9804L69.8329 20.9905L69.7569 28.9902C69.7449 30.2488 69.3891 31.2069 68.6895 31.8646C67.9899 32.5223 66.9254 32.8474 65.4961 32.84ZM65.5611 27.6883C65.9878 27.6905 66.3565 27.6178 66.6672 27.4701C66.9887 27.3117 67.2364 27.0677 67.4102 26.7379C67.5947 26.4082 67.6891 26.0087 67.6936 25.5394L67.7027 24.5795C67.707 24.1315 67.6198 23.763 67.4412 23.4741C67.2626 23.1852 67.0087 22.9652 66.6795 22.8141C66.361 22.6525 66.0044 22.5706 65.6098 22.5686C65.0338 22.5656 64.5626 22.7604 64.1962 23.1532C63.8299 23.5353 63.6431 24.1103 63.6358 24.8783L63.6327 25.1983C63.6249 26.0196 63.8057 26.6392 64.1751 27.0571C64.5444 27.475 65.0064 27.6854 65.5611 27.6883ZM71.708 29.4803L71.7887 21.0007L73.7086 21.0107L73.6966 22.2746C73.8922 21.9023 74.2047 21.5679 74.6342 21.2715C75.0744 20.9751 75.5771 20.8284 76.1424 20.8314C76.8251 20.8349 77.3571 20.9764 77.7385 21.2557C78.1305 21.535 78.4043 21.9045 78.5599 22.364C78.7989 21.9172 79.1383 21.5563 79.5783 21.2812C80.029 20.9956 80.5584 20.8543 81.1664 20.8575C82.0624 20.8622 82.7425 21.127 83.2069 21.6521C83.6819 22.1773 83.9144 22.9678 83.9044 24.0238L83.8519 29.5435L81.7399 29.5325L81.7878 24.4928C81.7942 23.8208 81.6867 23.3456 81.4654 23.0671C81.2547 22.7886 80.9093 22.6482 80.4293 22.6457C80.152 22.6442 79.8953 22.7176 79.6592 22.8657C79.4232 23.0031 79.2293 23.2101 79.0773 23.4866C78.936 23.7632 78.8635 24.0935 78.8599 24.4775L78.8119 29.5173L76.716 29.5064L76.7639 24.4666C76.7703 23.7946 76.6628 23.3194 76.4414 23.0409C76.2307 22.7625 75.8854 22.622 75.4054 22.6195C75.1281 22.6181 74.866 22.6914 74.6193 22.8394C74.3833 22.9769 74.1947 23.1839 74.0534 23.4605C73.9227 23.7372 73.8556 24.0675 73.8519 24.4515L73.804 29.4912L71.708 29.4803ZM88.234 29.7583C87.626 29.7552 87.1097 29.6405 86.6852 29.4143C86.2608 29.1774 85.9385 28.8557 85.7183 28.4492C85.4982 28.0428 85.3906 27.5835 85.3954 27.0715C85.4035 26.2183 85.6603 25.5796 86.1657 25.1555C86.6817 24.7316 87.4464 24.5222 88.4597 24.5275L90.9877 24.5406L90.9915 24.1407C90.9968 23.586 90.8725 23.196 90.6186 22.9707C90.3754 22.7454 89.9818 22.6314 89.4378 22.6286C88.9578 22.6261 88.6104 22.7096 88.3954 22.8791C88.1806 23.038 88.056 23.24 88.0216 23.4852L85.9097 23.4742C85.9463 22.9837 86.1051 22.5472 86.3861 22.1647C86.6779 21.7715 87.0861 21.4643 87.6109 21.2431C88.1465 21.0112 88.7876 20.8972 89.5343 20.9011C90.2596 20.9048 90.8879 21.0148 91.4192 21.2309C91.9611 21.447 92.3792 21.7959 92.6733 22.2774C92.9675 22.7483 93.1108 23.3837 93.1032 24.1836L93.0723 27.4315C93.068 27.8795 93.0696 28.2742 93.077 28.6155C93.0952 28.9463 93.1241 29.2718 93.1637 29.592L91.1958 29.5817C91.1553 29.3469 91.1303 29.1707 91.1208 29.0534C91.122 28.9254 91.1238 28.7387 91.1261 28.4934C90.8989 28.8335 90.544 29.1304 90.0616 29.3838C89.5792 29.6373 88.97 29.7622 88.234 29.7583ZM88.9055 28.1298C89.2468 28.1316 89.5727 28.0746 89.8832 27.9589C90.2044 27.8326 90.4622 27.6419 90.6566 27.3869C90.8618 27.1213 90.9663 26.7859 90.9702 26.3806L90.974 25.9806L88.846 25.9695C88.4407 25.9674 88.1198 26.0617 87.8833 26.2525C87.6576 26.4327 87.5432 26.6827 87.5402 27.0027C87.5369 27.344 87.6517 27.6166 87.8844 27.8205C88.1171 28.0244 88.4575 28.1275 88.9055 28.1298Z" fill="#474747"/>
<rect x="143" width="155" height="46" rx="8" fill="#FCFCFD"/>
<rect x="143.5" y="0.5" width="154" height="45" rx="7.5" stroke="#757575" stroke-opacity="0.5"/>
<g filter="url(#filter1_d_910_348)">
<rect x="155.85" y="14" width="18" height="18" rx="9" fill="#133E87" shape-rendering="crispEdges"/>
<path d="M168 20L163.188 25L161 22.7273" stroke="white" stroke-width="2" stroke-linecap="round" stroke-linejoin="round"/>
</g>
<path d="M189.175 29.2537L189.281 18.0542L193.585 18.0766C194.598 18.0819 195.434 18.2409 196.093 18.5537C196.751 18.8558 197.238 19.285 197.552 19.8413C197.867 20.3869 198.021 21.033 198.014 21.7797C198.007 22.5263 197.841 23.1761 197.515 23.7291C197.19 24.2714 196.696 24.6955 196.031 25.0014C195.367 25.2966 194.528 25.4416 193.515 25.4363L191.595 25.4263L191.559 29.2661L189.175 29.2537ZM191.614 23.4424L193.294 23.4511C194.147 23.4556 194.746 23.3147 195.09 23.0285C195.445 22.7423 195.625 22.3219 195.63 21.7673C195.635 21.2233 195.463 20.8064 195.114 20.5166C194.775 20.2161 194.179 20.0637 193.326 20.0593L191.646 20.0505L191.614 23.4424ZM199.495 29.3074L199.602 18.1079L201.698 18.1188L201.661 22.0067C201.791 21.794 201.969 21.5869 202.194 21.3854C202.431 21.1733 202.721 20.9988 203.063 20.862C203.417 20.7251 203.839 20.658 204.329 20.6605C205.364 20.6659 206.129 20.9472 206.625 21.5045C207.132 22.0618 207.381 22.8631 207.371 23.9084L207.319 29.3481L205.207 29.3371L205.254 24.3934C205.26 23.7641 205.131 23.2834 204.868 22.9514C204.615 22.6194 204.174 22.4517 203.544 22.4485C203.096 22.4461 202.733 22.5349 202.454 22.7148C202.175 22.8947 201.97 23.1336 201.839 23.4316C201.708 23.7189 201.641 24.0332 201.638 24.3745L201.591 29.3183L199.495 29.3074ZM213.005 29.5697C212.237 29.5657 211.529 29.4074 210.881 29.0947C210.244 28.7714 209.737 28.2834 209.359 27.6307C208.981 26.9781 208.797 26.1665 208.806 25.1959L208.809 24.8759C208.818 23.9586 209.017 23.1916 209.407 22.575C209.797 21.9477 210.313 21.481 210.956 21.175C211.61 20.8584 212.321 20.7021 213.089 20.7061C213.867 20.7102 214.575 20.8739 215.212 21.1972C215.849 21.5098 216.357 21.9818 216.735 22.6131C217.113 23.2338 217.298 24.0027 217.289 24.92L217.286 25.24C217.277 26.1893 217.077 26.9882 216.687 27.6369C216.297 28.2855 215.78 28.7735 215.137 29.1008C214.494 29.4175 213.783 29.5738 213.005 29.5697ZM213.022 27.7778C213.427 27.7799 213.785 27.6911 214.096 27.5114C214.418 27.3211 214.671 27.0344 214.856 26.6514C215.041 26.2683 215.137 25.7941 215.142 25.2288L215.145 24.9088C215.15 24.3862 215.063 23.9484 214.885 23.5955C214.707 23.2426 214.459 22.9746 214.141 22.7916C213.834 22.598 213.477 22.5002 213.072 22.498C212.666 22.4959 212.303 22.59 211.981 22.7804C211.67 22.9601 211.422 23.2255 211.237 23.5765C211.053 23.9275 210.958 24.3644 210.953 24.887L210.95 25.207C210.944 25.783 211.031 26.2634 211.208 26.6484C211.386 27.0226 211.629 27.3066 211.936 27.5002C212.254 27.6832 212.616 27.7757 213.022 27.7778ZM222.199 29.5216C221.538 29.5181 220.995 29.4246 220.57 29.2411C220.145 29.0469 219.833 28.7413 219.634 28.3242C219.446 27.9072 219.355 27.3681 219.362 26.7068L219.4 22.691L218.264 22.6851L218.281 20.9252L219.417 20.9311L219.435 19.0112L221.531 19.0221L221.513 20.942L223.561 20.9526L223.544 22.7126L221.496 22.7019L221.461 26.3817C221.456 26.8617 221.538 27.2088 221.707 27.423C221.886 27.6266 222.216 27.7297 222.696 27.7322C223.016 27.7338 223.336 27.7195 223.657 27.6892L223.64 29.4491C223.437 29.4694 223.223 29.4842 222.999 29.4937C222.786 29.514 222.519 29.5232 222.199 29.5216ZM228.926 29.6526C228.158 29.6486 227.45 29.4902 226.803 29.1775C226.166 28.8542 225.658 28.3662 225.281 27.7136C224.903 27.061 224.718 26.2493 224.728 25.2787L224.731 24.9587C224.739 24.0414 224.939 23.2745 225.329 22.6578C225.719 22.0305 226.235 21.5639 226.878 21.2579C227.532 20.9413 228.242 20.785 229.01 20.789C229.789 20.793 230.497 20.9567 231.134 21.28C231.771 21.5927 232.278 22.0647 232.656 22.696C233.035 23.3166 233.219 24.0856 233.211 25.0029L233.208 25.3229C233.198 26.2721 232.999 27.0711 232.609 27.7198C232.219 28.3684 231.702 28.8564 231.059 29.1837C230.416 29.5003 229.705 29.6566 228.926 29.6526ZM228.943 27.8607C229.349 27.8628 229.707 27.774 230.018 27.5943C230.34 27.4039 230.593 27.1173 230.778 26.7342C230.963 26.3512 231.058 25.877 231.064 25.3117L231.067 24.9917C231.072 24.4691 230.985 24.0313 230.807 23.6784C230.629 23.3254 230.381 23.0575 230.063 22.8745C229.755 22.6809 229.399 22.583 228.993 22.5809C228.588 22.5788 228.225 22.6729 227.903 22.8632C227.592 23.043 227.344 23.3083 227.159 23.6594C226.974 24.0104 226.88 24.4473 226.875 24.9699L226.872 25.2899C226.866 25.8659 226.952 26.3463 227.13 26.7312C227.308 27.1055 227.55 27.3894 227.858 27.583C228.176 27.766 228.538 27.8586 228.943 27.8607ZM239 29.705C238.008 29.6999 237.182 29.5569 236.524 29.2761C235.865 28.9954 235.362 28.6088 235.015 28.1163C234.678 27.6132 234.497 27.0309 234.471 26.3694L236.871 26.3819C236.953 26.7984 237.142 27.1193 237.438 27.3449C237.745 27.5705 238.272 27.6852 239.019 27.6891C239.787 27.6931 240.337 27.5946 240.67 27.3937C241.013 27.1822 241.187 26.8844 241.19 26.5004C241.193 26.1804 241.095 25.9186 240.894 25.7149C240.704 25.5112 240.407 25.339 240.003 25.1982C239.599 25.0468 239.072 24.9054 238.423 24.774C237.667 24.6207 237.018 24.4094 236.477 24.1399C235.935 23.8704 235.523 23.5056 235.239 23.0454C234.966 22.5853 234.833 22.0033 234.84 21.2993C234.846 20.6487 235.022 20.0896 235.368 19.6221C235.713 19.1439 236.208 18.7731 236.85 18.5098C237.493 18.2465 238.246 18.1171 239.11 18.1215C240.049 18.1264 240.815 18.2638 241.41 18.5335C242.016 18.7927 242.471 19.1577 242.776 19.6286C243.091 20.0996 243.273 20.6552 243.32 21.2955L240.936 21.2831C240.854 20.8986 240.681 20.6151 240.416 20.4324C240.151 20.239 239.709 20.1407 239.091 20.1375C238.461 20.1342 237.997 20.2331 237.696 20.4342C237.395 20.6353 237.243 20.9065 237.24 21.2478C237.236 21.6638 237.436 21.9902 237.839 22.2269C238.253 22.4638 238.901 22.6698 239.785 22.8451C240.392 22.9656 240.929 23.1124 241.397 23.2855C241.875 23.4586 242.279 23.6847 242.607 23.9638C242.935 24.2321 243.182 24.5588 243.349 24.9436C243.516 25.3285 243.597 25.7929 243.592 26.3369C243.586 27.0195 243.399 27.6159 243.031 28.126C242.674 28.6361 242.153 29.0281 241.468 29.3019C240.793 29.5757 239.97 29.7101 239 29.705ZM245.244 29.5455L245.351 18.346L247.447 18.3569L247.41 22.2448C247.54 22.0321 247.718 21.825 247.944 21.6235C248.181 21.4114 248.47 21.2369 248.813 21.1001C249.166 20.9632 249.588 20.8961 250.079 20.8986C251.113 20.904 251.879 21.1854 252.375 21.7426C252.882 22.2999 253.13 23.1012 253.12 24.1465L253.068 29.5862L250.956 29.5753L251.003 24.6315C251.009 24.0022 250.881 23.5215 250.617 23.1895C250.364 22.8575 249.923 22.6898 249.294 22.6866C248.846 22.6842 248.482 22.773 248.203 22.9529C247.924 23.1328 247.719 23.3717 247.588 23.6697C247.458 23.957 247.391 24.2713 247.387 24.6127L247.34 29.5564L245.244 29.5455ZM258.754 29.8078C257.986 29.8038 257.278 29.6455 256.63 29.3328C255.993 29.0095 255.486 28.5215 255.108 27.8689C254.73 27.2162 254.546 26.4046 254.555 25.434L254.558 25.114C254.567 24.1967 254.766 23.4297 255.156 22.8131C255.546 22.1858 256.063 21.7191 256.706 21.4131C257.359 21.0965 258.07 20.9402 258.838 20.9442C259.617 20.9483 260.325 21.112 260.962 21.4353C261.599 21.7479 262.106 22.2199 262.484 22.8512C262.862 23.4719 263.047 24.2408 263.038 25.1581L263.035 25.4781C263.026 26.4274 262.827 27.2264 262.436 27.875C262.046 28.5236 261.53 29.0116 260.886 29.3389C260.243 29.6556 259.533 29.8119 258.754 29.8078ZM258.771 28.0159C259.176 28.018 259.534 27.9292 259.846 27.7495C260.167 27.5592 260.421 27.2725 260.606 26.8895C260.791 26.5064 260.886 26.0322 260.891 25.4669L260.894 25.147C260.899 24.6243 260.813 24.1865 260.635 23.8336C260.457 23.4807 260.209 23.2127 259.89 23.0297C259.583 22.8361 259.226 22.7383 258.821 22.7362C258.416 22.734 258.052 22.8282 257.73 23.0185C257.419 23.1982 257.172 23.4636 256.987 23.8146C256.802 24.1657 256.707 24.6025 256.702 25.1251L256.699 25.4451C256.694 26.0211 256.78 26.5015 256.958 26.8865C257.135 27.2607 257.378 27.5447 257.686 27.7383C258.004 27.9213 258.366 28.0138 258.771 28.0159ZM264.495 32.8457L264.606 21.1663L266.558 21.1764L266.546 22.4244C266.763 22.0415 267.102 21.7073 267.564 21.4217C268.025 21.1361 268.608 20.9951 269.312 20.9987C270.442 21.0046 271.319 21.3612 271.942 22.0684C272.575 22.7651 272.885 23.812 272.872 25.2093L272.869 25.5293C272.86 26.4999 272.703 27.3098 272.398 27.9588C272.104 28.5973 271.688 29.0752 271.152 29.3924C270.616 29.7096 269.974 29.8662 269.228 29.8623C268.652 29.8593 268.141 29.734 267.695 29.4864C267.26 29.2281 266.906 28.8956 266.632 28.4888L266.591 32.8566L264.495 32.8457ZM268.749 28.0678C269.303 28.0707 269.769 27.8652 270.146 27.4511C270.524 27.0264 270.717 26.3821 270.725 25.5181L270.728 25.1981C270.736 24.3982 270.56 23.7999 270.201 23.4034C269.853 22.9962 269.385 22.7911 268.799 22.7881C268.404 22.786 268.041 22.8641 267.709 23.0224C267.387 23.1701 267.134 23.3981 266.95 23.7065C266.766 24.0042 266.671 24.3877 266.667 24.857L266.658 25.817C266.653 26.3183 266.734 26.74 266.902 27.0822C267.08 27.4138 267.328 27.6605 267.647 27.8221C267.965 27.9838 268.333 28.0657 268.749 28.0678Z" fill="#474747"/>
<rect x="322" width="155" height="46" rx="8" fill="#FCFCFD"/>
<rect x="322.5" y="0.5" width="154" height="45" rx="7.5" stroke="#757575" stroke-opacity="0.5"/>
<g filter="url(#filter2_d_910_348)">
<rect x="338.782" y="14" width="18" height="18" rx="9" fill="#133E87" shape-rendering="crispEdges"/>
<path d="M351 20L346.188 25L344 22.7273" stroke="white" stroke-width="2" stroke-linecap="round" stroke-linejoin="round"/>
</g>
<path d="M370.971 29.2683L375.237 18.0905L377.621 18.1029L381.691 29.3241L379.163 29.3109L378.321 27.0185L374.177 26.997L373.307 29.2805L370.971 29.2683ZM374.931 25.0169L377.619 25.0309L376.312 21.1361L374.931 25.0169ZM385.844 29.5377C385.108 29.5339 384.469 29.3706 383.928 29.0477C383.398 28.725 382.987 28.2428 382.694 27.6013C382.412 26.9492 382.276 26.1378 382.285 25.1672L382.288 24.8472C382.297 23.9299 382.448 23.1627 382.742 22.5455C383.047 21.9284 383.473 21.4613 384.02 21.1442C384.567 20.827 385.203 20.6703 385.928 20.6741C386.515 20.6772 387.026 20.8078 387.46 21.0661C387.906 21.3137 388.26 21.6462 388.523 22.0636L388.56 18.1598L390.656 18.1707L390.55 29.3702L388.598 29.36L388.61 28.1121C388.393 28.495 388.053 28.8292 387.592 29.1148C387.131 29.4004 386.548 29.5414 385.844 29.5377ZM386.357 27.7484C386.784 27.7506 387.152 27.6725 387.463 27.5141C387.785 27.3558 388.032 27.1118 388.206 26.782C388.391 26.4416 388.485 26.0208 388.49 25.5195L388.499 24.5595C388.504 24.0902 388.417 23.7057 388.238 23.4061C388.06 23.0959 387.806 22.8652 387.477 22.7142C387.158 22.5525 386.802 22.4707 386.407 22.4686C385.831 22.4656 385.36 22.6658 384.993 23.0693C384.627 23.462 384.44 24.0584 384.432 24.8583L384.429 25.1783C384.421 26.053 384.601 26.6992 384.971 27.1172C385.34 27.5351 385.802 27.7455 386.357 27.7484ZM396.327 29.5923C395.559 29.5883 394.852 29.4299 394.204 29.1172C393.567 28.7939 393.06 28.3059 392.682 27.6533C392.304 27.0007 392.12 26.189 392.129 25.2184L392.132 24.8984C392.141 23.9811 392.34 23.2142 392.73 22.5975C393.12 21.9702 393.636 21.5036 394.279 21.1976C394.933 20.881 395.644 20.7247 396.412 20.7287C397.19 20.7327 397.898 20.8964 398.535 21.2197C399.172 21.5324 399.68 22.0044 400.058 22.6357C400.436 23.2563 400.621 24.0253 400.612 24.9425L400.609 25.2625C400.6 26.2118 400.4 27.0108 400.01 27.6594C399.62 28.3081 399.103 28.796 398.46 29.1234C397.817 29.44 397.106 29.5963 396.327 29.5923ZM396.345 27.8004C396.75 27.8025 397.108 27.7137 397.419 27.5339C397.741 27.3436 397.994 27.0569 398.179 26.6739C398.364 26.2909 398.459 25.8167 398.465 25.2514L398.468 24.9314C398.473 24.4087 398.386 23.971 398.208 23.618C398.03 23.2651 397.782 22.9971 397.464 22.8142C397.156 22.6206 396.8 22.5227 396.395 22.5206C395.989 22.5185 395.626 22.6126 395.304 22.8029C394.993 22.9826 394.745 23.248 394.56 23.599C394.376 23.9501 394.281 24.3869 394.276 24.9096L394.273 25.2296C394.267 25.8055 394.354 26.286 394.531 26.6709C394.709 27.0452 394.952 27.3291 395.259 27.5227C395.577 27.7057 395.939 27.7982 396.345 27.8004ZM406.801 29.6468C406.097 29.6431 405.517 29.4961 405.061 29.2057C404.605 28.9153 404.273 28.5776 404.063 28.1925L404.051 29.4405L402.099 29.4303L402.205 18.2308L404.301 18.2417L404.264 22.1295C404.535 21.7256 404.89 21.4021 405.33 21.1591C405.78 20.9054 406.299 20.7801 406.885 20.7832C408.016 20.7891 408.893 21.1456 409.515 21.8529C410.149 22.5495 410.459 23.5965 410.445 24.9937L410.442 25.3137C410.433 26.2843 410.276 27.0942 409.971 27.7433C409.677 28.3817 409.262 28.8596 408.726 29.1768C408.189 29.494 407.548 29.6507 406.801 29.6468ZM406.322 27.8523C406.877 27.8552 407.343 27.6496 407.72 27.2356C408.097 26.8108 408.29 26.1665 408.298 25.3026L408.301 24.9826C408.309 24.1826 408.133 23.5844 407.775 23.1878C407.426 22.7807 406.959 22.5756 406.372 22.5725C405.978 22.5705 405.614 22.6486 405.282 22.8068C404.961 22.9545 404.708 23.1825 404.524 23.4909C404.339 23.7886 404.245 24.1721 404.241 24.6414L404.231 25.6014C404.227 26.1027 404.308 26.5245 404.475 26.8667C404.654 27.1983 404.902 27.4449 405.22 27.6065C405.55 27.7683 405.917 27.8502 406.322 27.8523ZM415.765 29.6934C414.997 29.6894 414.289 29.5311 413.641 29.2184C413.004 28.8951 412.497 28.4124 412.119 27.7704C411.741 27.1178 411.557 26.3009 411.566 25.3196L411.569 24.9996C411.578 24.061 411.767 23.2833 412.135 22.6665C412.515 22.0498 413.015 21.5884 413.637 21.2823C414.258 20.9762 414.942 20.8251 415.689 20.829C417.022 20.8359 418.032 21.1932 418.719 21.9008C419.406 22.6084 419.743 23.6288 419.73 24.962L419.721 25.858L413.721 25.8268C413.738 26.3282 413.841 26.7394 414.03 27.0604C414.229 27.3708 414.483 27.6014 414.791 27.7524C415.099 27.8926 415.429 27.9637 415.781 27.9655C416.325 27.9683 416.737 27.8905 417.015 27.7319C417.294 27.5734 417.494 27.3398 417.614 27.031L419.55 27.0411C419.371 27.9255 418.943 28.59 418.267 29.0345C417.591 29.4789 416.757 29.6986 415.765 29.6934ZM415.753 22.5573C415.422 22.5556 415.101 22.6073 414.791 22.7123C414.481 22.8174 414.234 23.0081 414.05 23.2845C413.866 23.5502 413.761 23.907 413.735 24.3548L417.687 24.3754C417.681 23.8954 417.589 23.5269 417.41 23.27C417.242 23.0024 417.014 22.8199 416.727 22.7224C416.44 22.6143 416.115 22.5592 415.753 22.5573ZM424.568 29.5472L428.383 23.7271L424.834 18.3486L427.522 18.3626L429.951 22.0392L432.466 18.3883L435.074 18.4019L431.456 23.6951L435.128 29.6022L432.424 29.5881L429.855 25.3828L427.224 29.5611L424.568 29.5472ZM436.747 29.6106L436.853 18.4111L440.741 18.4314C441.872 18.4373 442.835 18.6449 443.631 19.0544C444.427 19.4639 445.03 20.0697 445.438 20.8718C445.857 21.6634 446.061 22.6457 446.05 23.819L446.047 24.139C446.036 25.3336 445.807 26.3404 445.362 27.1595C444.917 27.9785 444.277 28.5992 443.44 29.0215C442.615 29.4332 441.627 29.636 440.475 29.63L436.747 29.6106ZM439.149 27.6391L440.333 27.6453C440.92 27.6483 441.455 27.5391 441.937 27.3176C442.419 27.0961 442.806 26.7302 443.099 26.2197C443.403 25.6986 443.559 25.0007 443.567 24.1261L443.57 23.8061C443.578 22.9742 443.451 22.3122 443.189 21.8201C442.927 21.3174 442.562 20.9582 442.095 20.7424C441.639 20.5267 441.128 20.4174 440.562 20.4145L439.218 20.4075L439.149 27.6391Z" fill="#474747"/>
<rect x="501" width="119" height="46" rx="8" fill="#FCFCFD"/>
<rect x="501.5" y="0.5" width="118" height="45" rx="7.5" stroke="#757575" stroke-opacity="0.5"/>
<g filter="url(#filter3_d_910_348)">
<rect x="515.001" y="13" width="20" height="20" rx="10" fill="#133E87" shape-rendering="crispEdges"/>
<path d="M528 20L523.188 25L521 22.7273" stroke="white" stroke-width="2" stroke-linecap="round" stroke-linejoin="round"/>
</g>
<path d="M554.867 29.5743C553.897 29.5692 553.029 29.3727 552.265 28.9847C551.511 28.5861 550.92 27.9697 550.49 27.1355C550.072 26.2906 549.869 25.1909 549.882 23.8363L549.885 23.5163C549.894 22.535 550.03 21.6984 550.293 21.0064C550.555 20.3038 550.918 19.7297 551.381 19.2841C551.855 18.8385 552.396 18.5107 553.006 18.3005C553.617 18.0904 554.274 17.9871 554.978 17.9908C555.607 17.9941 556.193 18.0771 556.735 18.2399C557.288 18.3921 557.777 18.624 558.201 18.9356C558.624 19.2471 558.962 19.6489 559.213 20.1408C559.475 20.6329 559.624 21.2097 559.661 21.8712L557.165 21.8582C557.053 21.2283 556.802 20.763 556.41 20.4623C556.018 20.1615 555.534 20.0097 554.958 20.0067C554.51 20.0044 554.093 20.1142 553.707 20.3362C553.321 20.5475 553.003 20.9085 552.753 21.4192C552.513 21.93 552.389 22.6333 552.381 23.5293L552.378 23.8493C552.371 24.5532 552.44 25.1456 552.585 25.6264C552.73 26.0965 552.923 26.4761 553.166 26.7654C553.409 27.044 553.679 27.2481 553.976 27.3776C554.274 27.4965 554.577 27.5567 554.887 27.5584C555.495 27.5615 555.997 27.4095 556.395 27.1022C556.793 26.7843 557.037 26.3269 557.128 25.73L559.624 25.743C559.564 26.436 559.404 27.0325 559.143 27.5325C558.882 28.0218 558.542 28.4201 558.124 28.7272C557.705 29.0237 557.217 29.2398 556.661 29.3756C556.105 29.5114 555.507 29.5776 554.867 29.5743ZM563.719 29.6203C563.111 29.6172 562.594 29.5025 562.17 29.2763C561.746 29.0394 561.423 28.7177 561.203 28.3112C560.983 27.9048 560.875 27.4455 560.88 26.9335C560.888 26.0803 561.145 25.4416 561.65 25.0175C562.166 24.5936 562.931 24.3842 563.944 24.3895L566.472 24.4026L566.476 24.0027C566.482 23.448 566.357 23.058 566.103 22.8327C565.86 22.6074 565.467 22.4934 564.923 22.4906C564.443 22.4881 564.095 22.5716 563.88 22.7411C563.665 22.9 563.541 23.102 563.506 23.3472L561.394 23.3362C561.431 22.8457 561.59 22.4092 561.871 22.0267C562.163 21.6335 562.571 21.3263 563.096 21.1051C563.631 20.8732 564.272 20.7592 565.019 20.7631C565.744 20.7668 566.373 20.8768 566.904 21.0929C567.446 21.309 567.864 21.6579 568.158 22.1394C568.452 22.6103 568.596 23.2457 568.588 24.0456L568.557 27.2935C568.553 27.7415 568.554 28.1362 568.562 28.4775C568.58 28.8083 568.609 29.1338 568.648 29.454L566.681 29.4437C566.64 29.2089 566.615 29.0327 566.606 28.9154C566.607 28.7874 566.609 28.6007 566.611 28.3554C566.384 28.6955 566.029 28.9924 565.546 29.2458C565.064 29.4993 564.455 29.6242 563.719 29.6203ZM564.39 27.9918C564.732 27.9936 565.057 27.9366 565.368 27.8209C565.689 27.6946 565.947 27.5039 566.141 27.2489C566.347 26.9833 566.451 26.6479 566.455 26.2426L566.459 25.8426L564.331 25.8315C563.925 25.8294 563.605 25.9237 563.368 26.1145C563.142 26.2946 563.028 26.5447 563.025 26.8647C563.022 27.206 563.136 27.4786 563.369 27.6825C563.602 27.8864 563.942 27.9895 564.39 27.9918ZM570.396 29.4631L570.476 20.9835L572.396 20.9935L572.384 22.2414C572.601 21.8585 572.935 21.5243 573.386 21.2386C573.837 20.953 574.451 20.8122 575.23 20.8162C576.265 20.8216 577.03 21.1029 577.526 21.6602C578.033 22.2175 578.281 23.0188 578.271 24.064L578.219 29.5038L576.108 29.4928L576.155 24.533C576.161 23.9037 576.032 23.4284 575.768 23.107C575.515 22.775 575.074 22.6074 574.445 22.6041C573.997 22.6018 573.633 22.6906 573.354 22.8705C573.075 23.0503 572.87 23.2839 572.74 23.5713C572.609 23.8586 572.542 24.1729 572.539 24.5142L572.492 29.474L570.396 29.4631ZM582.695 29.5271L579.191 21.0288L581.559 21.0411L583.808 26.9089L585.975 21.0641L588.151 21.0755L584.807 29.5381L582.695 29.5271ZM591.328 29.764C590.72 29.7609 590.203 29.6462 589.779 29.42C589.355 29.1831 589.032 28.8614 588.812 28.4549C588.592 28.0484 588.484 27.5892 588.489 27.0772C588.497 26.2239 588.754 25.5853 589.259 25.1612C589.775 24.7373 590.54 24.5279 591.553 24.5332L594.081 24.5463L594.085 24.1464C594.091 23.5917 593.966 23.2017 593.712 22.9764C593.469 22.7511 593.076 22.6371 592.532 22.6343C592.052 22.6318 591.704 22.7153 591.489 22.8848C591.274 23.0437 591.15 23.2457 591.115 23.4909L589.003 23.4799C589.04 22.9894 589.199 22.5529 589.48 22.1704C589.772 21.7772 590.18 21.47 590.705 21.2487C591.24 21.0169 591.881 20.9029 592.628 20.9068C593.353 20.9105 593.982 21.0205 594.513 21.2366C595.055 21.4527 595.473 21.8016 595.767 22.2831C596.061 22.754 596.205 23.3894 596.197 24.1893L596.166 27.4372C596.162 27.8852 596.163 28.2799 596.171 28.6212C596.189 28.952 596.218 29.2775 596.257 29.5977L594.29 29.5874C594.249 29.3526 594.224 29.1764 594.215 29.059C594.216 28.9311 594.218 28.7444 594.22 28.4991C593.993 28.8392 593.638 29.136 593.155 29.3895C592.673 29.643 592.064 29.7679 591.328 29.764ZM591.999 28.1355C592.341 28.1373 592.666 28.0803 592.977 27.9646C593.298 27.8383 593.556 27.6476 593.75 27.3926C593.956 27.127 594.06 26.7916 594.064 26.3863L594.068 25.9863L591.94 25.9752C591.534 25.9731 591.214 26.0674 590.977 26.2582C590.751 26.4383 590.637 26.6884 590.634 27.0084C590.631 27.3497 590.745 27.6223 590.978 27.8262C591.211 28.0301 591.551 28.1332 591.999 28.1355Z" fill="#474747"/>
<rect x="92.5" y="70" width="119" height="46" rx="8" fill="#FCFCFD"/>
<rect x="93" y="70.5" width="118" height="45" rx="7.5" stroke="#757575" stroke-opacity="0.5"/>
<g filter="url(#filter4_d_910_348)">
<rect x="109.199" y="84" width="18" height="18" rx="9" fill="#133E87" shape-rendering="crispEdges"/>
<path d="M121 90L116.188 95L114 92.7273" stroke="white" stroke-width="2" stroke-linecap="round" stroke-linejoin="round"/>
</g>
<path d="M142.523 99.3674L142.63 88.1679L145.014 88.1804L144.972 92.6282L149.772 92.6531L149.814 88.2053L152.198 88.2177L152.091 99.4172L149.707 99.4048L149.753 94.637L144.953 94.6121L144.907 99.3798L142.523 99.3674ZM157.304 99.4444L157.391 90.2288L153.791 90.21L153.81 88.2261L163.394 88.276L163.375 90.2599L159.775 90.2412L159.688 99.4568L157.304 99.4444ZM164.898 99.4839L165.005 88.2844L167.389 88.2968L170.737 94.6183L174.189 88.3322L176.509 88.3443L176.402 99.5438L174.002 99.5313L174.07 92.4116L171.367 97.2776L169.943 97.2701L167.35 92.3766L167.282 99.4963L164.898 99.4839ZM178.96 99.5571L179.067 88.3576L181.451 88.37L181.363 97.5856L186.483 97.6122L186.464 99.5961L178.96 99.5571Z" fill="#474747"/>
<rect x="235.5" y="70" width="113" height="46" rx="8" fill="#FCFCFD"/>
<rect x="236" y="70.5" width="112" height="45" rx="7.5" stroke="#757575" stroke-opacity="0.5"/>
<g filter="url(#filter5_d_910_348)">
<rect x="256.435" y="84" width="18" height="18" rx="9" fill="#133E87" shape-rendering="crispEdges"/>
<path d="M269 90L263.5 95L261 92.7273" stroke="white" stroke-width="2" stroke-linecap="round" stroke-linejoin="round"/>
</g>
<path d="M294.301 99.6207C293.331 99.6157 292.463 99.4192 291.699 99.0312C290.945 98.6326 290.354 98.0162 289.924 97.182C289.506 96.3371 289.303 95.2374 289.316 93.8828L289.319 93.5628C289.328 92.5815 289.464 91.7449 289.727 91.0529C289.989 90.3503 290.352 89.7761 290.815 89.3306C291.289 88.885 291.83 88.5572 292.44 88.347C293.05 88.1368 293.707 88.0336 294.411 88.0373C295.041 88.0405 295.627 88.1236 296.169 88.2864C296.722 88.4386 297.211 88.6705 297.635 88.982C298.058 89.2936 298.396 89.6953 298.647 90.1873C298.909 90.6794 299.058 91.2561 299.095 91.9177L296.599 91.9047C296.487 91.2747 296.236 90.8094 295.844 90.5087C295.452 90.208 294.968 90.0562 294.392 90.0532C293.944 90.0508 293.527 90.1607 293.141 90.3827C292.755 90.594 292.437 90.955 292.187 91.4657C291.947 91.9765 291.823 92.6798 291.815 93.5758L291.812 93.8958C291.805 94.5997 291.874 95.1921 292.019 95.6728C292.164 96.1429 292.357 96.5226 292.6 96.8119C292.843 97.0905 293.113 97.2945 293.41 97.4241C293.708 97.543 294.011 97.6032 294.32 97.6048C294.928 97.608 295.431 97.4559 295.829 97.1487C296.227 96.8307 296.471 96.3734 296.562 95.7765L299.058 95.7895C298.998 96.4825 298.838 97.079 298.577 97.579C298.316 98.0683 297.976 98.4665 297.557 98.7737C297.139 99.0702 296.651 99.2863 296.095 99.4221C295.539 99.5579 294.941 99.6241 294.301 99.6207ZM304.929 99.6761C303.937 99.6709 303.111 99.5279 302.453 99.2472C301.794 98.9664 301.291 98.5798 300.944 98.0873C300.607 97.5842 300.426 97.0019 300.4 96.3405L302.8 96.353C302.881 96.7694 303.07 97.0904 303.367 97.3159C303.674 97.5415 304.201 97.6563 304.948 97.6601C305.716 97.6641 306.266 97.5657 306.599 97.3647C306.942 97.1532 307.115 96.8554 307.119 96.4714C307.122 96.1515 307.023 95.8896 306.823 95.6859C306.633 95.4822 306.335 95.31 305.931 95.1693C305.528 95.0178 305.001 94.8764 304.351 94.745C303.596 94.5918 302.947 94.3804 302.405 94.1109C301.864 93.8414 301.451 93.4766 301.168 93.0164C300.895 92.5564 300.762 91.9743 300.768 91.2704C300.775 90.6197 300.951 90.0606 301.296 89.5931C301.642 89.1149 302.136 88.7441 302.779 88.4808C303.421 88.2175 304.175 88.0881 305.039 88.0926C305.977 88.0975 306.744 88.2348 307.339 88.5045C307.944 88.7637 308.4 89.1287 308.705 89.5997C309.02 90.0706 309.201 90.6263 309.249 91.2665L306.865 91.2541C306.783 90.8697 306.61 90.5861 306.345 90.4034C306.08 90.21 305.638 90.1117 305.02 90.1085C304.39 90.1052 303.925 90.2041 303.625 90.4052C303.324 90.6063 303.172 90.8775 303.169 91.2189C303.165 91.6348 303.365 91.9612 303.768 92.198C304.181 92.4348 304.83 92.6408 305.714 92.8161C306.321 92.9366 306.858 93.0834 307.326 93.2565C307.804 93.4297 308.207 93.6558 308.535 93.9348C308.863 94.2032 309.111 94.5298 309.278 94.9147C309.445 95.2995 309.526 95.764 309.521 96.3079C309.514 96.9906 309.327 97.5869 308.96 98.097C308.603 98.6072 308.082 98.9991 307.397 99.2729C306.722 99.5467 305.899 99.6811 304.929 99.6761ZM315.475 99.7309C314.483 99.7258 313.658 99.5828 312.999 99.3021C312.341 99.0213 311.838 98.6347 311.49 98.1422C311.154 97.6391 310.973 97.0568 310.947 96.3954L313.347 96.4079C313.428 96.8243 313.617 97.1453 313.914 97.3708C314.221 97.5964 314.748 97.7111 315.494 97.715C316.262 97.719 316.813 97.6206 317.145 97.4196C317.489 97.2081 317.662 96.9103 317.666 96.5263C317.669 96.2063 317.57 95.9445 317.369 95.7408C317.179 95.5371 316.882 95.3649 316.478 95.2241C316.074 95.0727 315.548 94.9313 314.898 94.7999C314.142 94.6467 313.494 94.4353 312.952 94.1658C312.411 93.8963 311.998 93.5315 311.715 93.0713C311.442 92.6113 311.308 92.0292 311.315 91.3253C311.321 90.6746 311.497 90.1155 311.843 89.648C312.189 89.1698 312.683 88.799 313.326 88.5357C313.968 88.2724 314.721 88.143 315.585 88.1475C316.524 88.1524 317.291 88.2897 317.886 88.5594C318.491 88.8186 318.946 89.1836 319.251 89.6546C319.567 90.1255 319.748 90.6811 319.795 91.3214L317.411 91.309C317.33 90.9246 317.156 90.641 316.892 90.4583C316.627 90.2649 316.185 90.1666 315.566 90.1634C314.937 90.1601 314.472 90.259 314.171 90.4601C313.871 90.6612 313.719 90.9324 313.716 91.2737C313.712 91.6897 313.911 92.0161 314.314 92.2529C314.728 92.4897 315.377 92.6957 316.261 92.871C316.867 92.9915 317.405 93.1383 317.872 93.3114C318.351 93.4845 318.754 93.7106 319.082 93.9897C319.41 94.2581 319.658 94.5847 319.825 94.9696C319.992 95.3544 320.073 95.8189 320.068 96.3628C320.061 97.0455 319.874 97.6418 319.506 98.1519C319.15 98.6621 318.629 99.054 317.943 99.3278C317.269 99.6016 316.446 99.736 315.475 99.7309Z" fill="#474747"/>
<rect x="372.5" y="70" width="155" height="46" rx="8" fill="#FCFCFD"/>
<rect x="373" y="70.5" width="154" height="45" rx="7.5" stroke="#757575" stroke-opacity="0.5"/>
<g filter="url(#filter6_d_910_348)">
<rect x="385.35" y="84" width="18" height="18" rx="9" fill="#133E87" shape-rendering="crispEdges"/>
<path d="M398 90L392.5 95L390 92.7273" stroke="white" stroke-width="2" stroke-linecap="round" stroke-linejoin="round"/>
</g>
<path d="M420.579 99.2636L417.805 88.0491L420.301 88.0621L421.97 95.9748L424.205 88.0824L426.445 88.0941L428.577 96.0412L430.541 88.1154L432.845 88.1274L429.842 99.3118L427.458 99.2994L425.215 91.2877L422.963 99.276L420.579 99.2636ZM437.348 99.5429C436.58 99.5389 435.873 99.3805 435.225 99.0678C434.588 98.7445 434.08 98.2565 433.703 97.6039C433.325 96.9513 433.141 96.1396 433.15 95.169L433.153 94.849C433.162 93.9317 433.361 93.1648 433.751 92.5481C434.141 91.9208 434.657 91.4542 435.3 91.1482C435.954 90.8316 436.665 90.6753 437.433 90.6793C438.211 90.6833 438.919 90.847 439.556 91.1703C440.193 91.483 440.701 91.955 441.079 92.5863C441.457 93.2069 441.641 93.9759 441.633 94.8932L441.63 95.2132C441.621 96.1624 441.421 96.9614 441.031 97.6101C440.641 98.2587 440.124 98.7467 439.481 99.074C438.838 99.3906 438.127 99.5469 437.348 99.5429ZM437.365 97.751C437.771 97.7531 438.129 97.6643 438.44 97.4846C438.762 97.2942 439.015 97.0076 439.2 96.6245C439.385 96.2415 439.48 95.7673 439.486 95.202L439.489 94.882C439.494 94.3594 439.407 93.9216 439.229 93.5687C439.051 93.2157 438.803 92.9478 438.485 92.7648C438.177 92.5712 437.821 92.4733 437.416 92.4712C437.01 92.4691 436.647 92.5632 436.325 92.7535C436.014 92.9333 435.766 93.1986 435.581 93.5497C435.397 93.9007 435.302 94.3376 435.297 94.8602L435.294 95.1802C435.288 95.7562 435.374 96.2366 435.552 96.6215C435.73 96.9958 435.973 97.2797 436.28 97.4733C436.598 97.6563 436.96 97.7489 437.365 97.751ZM443.12 99.3809L443.201 90.9013L445.12 90.9113L445.108 92.1752C445.228 91.9305 445.39 91.702 445.595 91.4898C445.8 91.2775 446.052 91.0975 446.352 90.9497C446.652 90.8019 446.984 90.729 447.346 90.7309C447.549 90.7319 447.72 90.7435 447.858 90.7656C448.007 90.7877 448.103 90.8095 448.145 90.831L448.128 92.703C448.021 92.6597 447.883 92.6217 447.713 92.5888C447.553 92.5453 447.335 92.5228 447.057 92.5214C446.631 92.5192 446.283 92.608 446.015 92.788C445.757 92.968 445.568 93.207 445.448 93.505C445.328 93.7924 445.266 94.1067 445.263 94.4481L445.216 99.3918L443.12 99.3809ZM452.38 99.6211C451.644 99.6173 451.006 99.454 450.465 99.1312C449.934 98.8084 449.523 98.3263 449.23 97.6847C448.949 97.0326 448.812 96.2212 448.821 95.2506L448.825 94.9306C448.833 94.0133 448.985 93.2461 449.278 92.629C449.583 92.0119 450.009 91.5448 450.556 91.2276C451.103 90.9104 451.739 90.7538 452.464 90.7575C453.051 90.7606 453.562 90.8912 453.997 91.1495C454.442 91.3972 454.797 91.7297 455.059 92.147L455.096 88.2432L457.192 88.2541L457.086 99.4536L455.134 99.4435L455.146 98.1955C454.929 98.5784 454.59 98.9126 454.128 99.1982C453.667 99.4838 453.084 99.6248 452.38 99.6211ZM452.893 97.8318C453.32 97.834 453.688 97.7559 453.999 97.5975C454.321 97.4392 454.569 97.1952 454.742 96.8654C454.927 96.525 455.022 96.1042 455.026 95.6029L455.035 94.6429C455.04 94.1736 454.953 93.7892 454.774 93.4896C454.596 93.1793 454.342 92.9486 454.013 92.7976C453.695 92.6359 453.338 92.5541 452.943 92.552C452.367 92.549 451.896 92.7492 451.53 93.1527C451.163 93.5454 450.976 94.1418 450.968 94.9418L450.965 95.2617C450.957 96.1364 451.138 96.7826 451.507 97.2006C451.876 97.6185 452.338 97.8289 452.893 97.8318ZM459.011 102.664L459.122 90.9842L461.074 90.9943L461.062 92.2423C461.279 91.8594 461.618 91.5252 462.08 91.2396C462.541 90.954 463.124 90.813 463.828 90.8167C464.959 90.8226 465.835 91.1791 466.458 91.8864C467.091 92.583 467.401 93.6299 467.388 95.0272L467.385 95.3472C467.376 96.3178 467.219 97.1277 466.914 97.7768C466.62 98.4152 466.205 98.8931 465.668 99.2103C465.132 99.5275 464.49 99.6842 463.744 99.6803C463.168 99.6773 462.657 99.5519 462.211 99.3043C461.776 99.046 461.422 98.7135 461.149 98.3068L461.107 102.675L459.011 102.664ZM463.265 97.8858C463.819 97.8887 464.285 97.6831 464.663 97.269C465.04 96.8443 465.233 96.2 465.241 95.336L465.244 95.0161C465.252 94.2161 465.076 93.6178 464.717 93.2213C464.369 92.8142 463.902 92.6091 463.315 92.606C462.92 92.604 462.557 92.6821 462.225 92.8403C461.903 92.988 461.65 93.216 461.466 93.5244C461.282 93.8221 461.188 94.2056 461.183 94.6749L461.174 95.6349C461.169 96.1362 461.251 96.5579 461.418 96.9002C461.596 97.2317 461.845 97.4784 462.163 97.64C462.481 97.8017 462.849 97.8836 463.265 97.8858ZM468.885 99.515L468.966 91.0354L470.886 91.0454L470.874 92.3093C470.993 92.0646 471.156 91.8361 471.36 91.6239C471.565 91.4116 471.817 91.2316 472.117 91.0838C472.418 90.936 472.749 90.8631 473.112 90.865C473.314 90.866 473.485 90.8776 473.623 90.8997C473.772 90.9218 473.868 90.9436 473.911 90.9651L473.893 92.8371C473.787 92.7938 473.648 92.7558 473.478 92.7229C473.318 92.6794 473.1 92.6569 472.823 92.6555C472.396 92.6533 472.048 92.7421 471.78 92.9221C471.522 93.1021 471.333 93.3411 471.213 93.6391C471.093 93.9265 471.031 94.2408 471.028 94.5822L470.981 99.5259L468.885 99.515ZM478.785 99.7586C478.017 99.7546 477.309 99.5962 476.662 99.2835C476.025 98.9602 475.517 98.4775 475.139 97.8356C474.762 97.1829 474.577 96.366 474.587 95.3847L474.59 95.0647C474.599 94.1261 474.787 93.3484 475.156 92.7316C475.535 92.1149 476.036 91.6535 476.657 91.3474C477.279 91.0413 477.963 90.8902 478.71 90.8941C480.043 90.9011 481.053 91.2583 481.74 91.9659C482.426 92.6735 482.763 93.6939 482.75 95.0272L482.742 95.9231L476.742 95.8919C476.759 96.3933 476.861 96.8045 477.05 97.1255C477.25 97.4359 477.504 97.6665 477.812 97.8175C478.12 97.9578 478.45 98.0288 478.802 98.0306C479.346 98.0335 479.757 97.9556 480.036 97.7971C480.315 97.6385 480.514 97.4049 480.635 97.0962L482.571 97.1062C482.392 97.9907 481.964 98.6551 481.288 99.0996C480.611 99.5441 479.777 99.7637 478.785 99.7586ZM478.773 92.6225C478.443 92.6207 478.122 92.6724 477.812 92.7775C477.501 92.8825 477.254 93.0732 477.07 93.3496C476.886 93.6153 476.782 93.9721 476.756 94.42L480.708 94.4405C480.702 93.9605 480.609 93.592 480.43 93.3351C480.262 93.0675 480.035 92.885 479.748 92.7875C479.461 92.6794 479.136 92.6243 478.773 92.6225ZM487.666 99.8048C486.973 99.8012 486.392 99.7288 485.924 99.5877C485.457 99.4359 485.069 99.2366 484.762 98.9897C484.466 98.7321 484.245 98.443 484.098 98.1222C483.963 97.8015 483.881 97.4651 483.852 97.1129L485.964 97.1239C486.015 97.4015 486.178 97.6317 486.453 97.8145C486.729 97.9866 487.139 98.074 487.683 98.0769C488.302 98.0801 488.745 97.9971 489.013 97.8278C489.282 97.6585 489.417 97.4405 489.42 97.1739C489.421 96.9819 489.364 96.8269 489.248 96.709C489.132 96.5804 488.925 96.4726 488.627 96.3858C488.329 96.2882 487.909 96.19 487.366 96.0912C486.897 96.0248 486.466 95.9372 486.072 95.8285C485.679 95.7091 485.334 95.5473 485.037 95.3431C484.751 95.1389 484.524 94.8871 484.356 94.5875C484.199 94.2774 484.122 93.9036 484.127 93.4663C484.131 92.997 484.274 92.5711 484.555 92.1886C484.846 91.8061 485.26 91.5042 485.795 91.283C486.342 91.0512 486.993 90.9372 487.751 90.9412C488.572 90.9455 489.227 91.0769 489.715 91.3354C490.203 91.5939 490.568 91.9265 490.81 92.3331C491.051 92.7397 491.196 93.1725 491.245 93.6314L489.133 93.6204C489.051 93.3106 488.888 93.0751 488.644 92.9138C488.4 92.7526 488.097 92.671 487.734 92.6691C487.201 92.6663 486.816 92.7497 486.58 92.9191C486.354 93.0779 486.24 93.28 486.238 93.5253C486.236 93.7813 486.356 93.9793 486.6 94.1192C486.855 94.2592 487.371 94.3846 488.149 94.4953C488.628 94.5618 489.07 94.6601 489.474 94.7902C489.889 94.9097 490.25 95.0715 490.558 95.2758C490.865 95.4801 491.103 95.7373 491.27 96.0475C491.449 96.3471 491.536 96.7156 491.532 97.1529C491.527 97.6755 491.378 98.1388 491.087 98.5426C490.805 98.9358 490.376 99.2482 489.798 99.4799C489.23 99.7009 488.52 99.8092 487.666 99.8048ZM496.448 99.8505C495.754 99.8469 495.174 99.7745 494.706 99.6334C494.238 99.4816 493.85 99.2823 493.543 99.0354C493.247 98.7778 493.026 98.4887 492.879 98.1679C492.744 97.8472 492.662 97.5108 492.633 97.1586L494.745 97.1696C494.796 97.4472 494.959 97.6774 495.234 97.8602C495.51 98.0323 495.92 98.1197 496.464 98.1226C497.083 98.1258 497.526 98.0428 497.794 97.8735C498.063 97.7042 498.198 97.4862 498.201 97.2196C498.202 97.0276 498.145 96.8726 498.029 96.7547C497.913 96.6261 497.706 96.5183 497.408 96.4315C497.11 96.3339 496.69 96.2357 496.147 96.1369C495.678 96.0705 495.247 95.9829 494.853 95.8742C494.46 95.7548 494.115 95.593 493.818 95.3888C493.532 95.1846 493.305 94.9328 493.137 94.6332C492.98 94.3231 492.904 93.9493 492.908 93.512C492.912 93.0427 493.055 92.6168 493.336 92.2343C493.628 91.8518 494.041 91.5499 494.577 91.3287C495.123 91.0969 495.775 90.9829 496.532 90.9869C497.353 90.9912 498.008 91.1226 498.496 91.3811C498.984 91.6396 499.349 91.9722 499.591 92.3788C499.832 92.7854 499.977 93.2182 500.026 93.6771L497.914 93.6661C497.832 93.3563 497.669 93.1208 497.425 92.9595C497.181 92.7983 496.878 92.7167 496.515 92.7148C495.982 92.712 495.597 92.7954 495.361 92.9648C495.135 93.1236 495.022 93.3257 495.019 93.571C495.017 93.827 495.138 94.025 495.382 94.1649C495.636 94.3049 496.152 94.4303 496.93 94.541C497.409 94.6075 497.851 94.7058 498.255 94.8359C498.67 94.9554 499.031 95.1172 499.339 95.3215C499.646 95.5258 499.884 95.783 500.051 96.0932C500.23 96.3928 500.317 96.7613 500.313 97.1986C500.308 97.7212 500.16 98.1845 499.868 98.5883C499.587 98.9815 499.157 99.2939 498.579 99.5256C498.011 99.7466 497.301 99.8549 496.448 99.8505Z" fill="#474747"/>
<rect x="132" y="140" width="177" height="46" rx="8" fill="#FCFCFD"/>
<rect x="132.5" y="140.5" width="176" height="45" rx="7.5" stroke="#757575" stroke-opacity="0.5"/>
<g filter="url(#filter7_d_910_348)">
<rect x="146.42" y="154" width="18" height="18" rx="9" fill="#133E87" shape-rendering="crispEdges"/>
<path d="M159 160L153.5 165L151 162.727" stroke="white" stroke-width="2" stroke-linecap="round" stroke-linejoin="round"/>
</g>
<path d="M182.848 169.221L178.715 157.999L181.307 158.013L184.172 166.348L187.035 158.043L189.435 158.055L185.232 169.233L182.848 169.221ZM190.615 169.261L190.696 160.782L192.792 160.793L192.711 169.272L190.615 169.261ZM191.744 159.971C191.37 159.969 191.062 159.85 190.819 159.614C190.587 159.378 190.472 159.074 190.476 158.7C190.479 158.327 190.6 158.024 190.836 157.79C191.084 157.557 191.389 157.441 191.752 157.443C192.136 157.445 192.444 157.564 192.676 157.8C192.919 158.036 193.039 158.34 193.036 158.714C193.032 159.087 192.907 159.39 192.659 159.624C192.422 159.857 192.117 159.973 191.744 159.971ZM197.981 169.492C197.245 169.488 196.607 169.324 196.066 169.002C195.535 168.679 195.124 168.197 194.831 167.555C194.55 166.903 194.413 166.092 194.423 165.121L194.426 164.801C194.434 163.884 194.586 163.117 194.88 162.499C195.184 161.882 195.61 161.415 196.157 161.098C196.704 160.781 197.34 160.624 198.065 160.628C198.652 160.631 199.163 160.762 199.598 161.02C200.043 161.268 200.398 161.6 200.66 162.017L200.697 158.114L202.793 158.125L202.687 169.324L200.735 169.314L200.747 168.066C200.53 168.449 200.191 168.783 199.729 169.069C199.268 169.354 198.685 169.495 197.981 169.492ZM198.494 167.702C198.921 167.704 199.29 167.626 199.6 167.468C199.922 167.31 200.17 167.066 200.343 166.736C200.528 166.395 200.623 165.975 200.627 165.473L200.637 164.513C200.641 164.044 200.554 163.66 200.376 163.36C200.197 163.05 199.943 162.819 199.614 162.668C199.296 162.506 198.939 162.425 198.544 162.422C197.968 162.419 197.497 162.62 197.131 163.023C196.764 163.416 196.577 164.012 196.57 164.812L196.567 165.132C196.558 166.007 196.739 166.653 197.108 167.071C197.478 167.489 197.94 167.699 198.494 167.702ZM208.465 169.546C207.697 169.542 206.989 169.384 206.341 169.071C205.704 168.748 205.197 168.265 204.819 167.623C204.441 166.97 204.257 166.154 204.266 165.172L204.269 164.852C204.278 163.914 204.467 163.136 204.835 162.519C205.215 161.902 205.715 161.441 206.337 161.135C206.958 160.829 207.642 160.678 208.389 160.682C209.722 160.689 210.732 161.046 211.419 161.753C212.106 162.461 212.443 163.481 212.43 164.815L212.421 165.711L206.421 165.679C206.438 166.181 206.541 166.592 206.73 166.913C206.929 167.223 207.183 167.454 207.491 167.605C207.799 167.745 208.129 167.816 208.481 167.818C209.025 167.821 209.437 167.743 209.715 167.585C209.994 167.426 210.194 167.192 210.314 166.884L212.25 166.894C212.071 167.778 211.643 168.443 210.967 168.887C210.291 169.332 209.457 169.551 208.465 169.546ZM208.453 162.41C208.122 162.408 207.801 162.46 207.491 162.565C207.181 162.67 206.934 162.861 206.75 163.137C206.566 163.403 206.461 163.76 206.435 164.208L210.387 164.228C210.381 163.748 210.289 163.38 210.11 163.123C209.942 162.855 209.714 162.673 209.427 162.575C209.14 162.467 208.815 162.412 208.453 162.41ZM217.746 169.594C216.978 169.59 216.27 169.432 215.622 169.119C214.985 168.796 214.478 168.308 214.1 167.655C213.722 167.003 213.538 166.191 213.547 165.221L213.55 164.901C213.559 163.983 213.758 163.216 214.148 162.6C214.538 161.972 215.055 161.506 215.698 161.2C216.351 160.883 217.062 160.727 217.83 160.731C218.609 160.735 219.317 160.899 219.954 161.222C220.591 161.535 221.098 162.006 221.476 162.638C221.854 163.258 222.039 164.027 222.03 164.945L222.027 165.265C222.018 166.214 221.819 167.013 221.428 167.662C221.038 168.31 220.522 168.798 219.878 169.126C219.235 169.442 218.525 169.598 217.746 169.594ZM217.763 167.802C218.168 167.805 218.526 167.716 218.838 167.536C219.159 167.346 219.413 167.059 219.598 166.676C219.783 166.293 219.878 165.819 219.883 165.254L219.886 164.934C219.891 164.411 219.805 163.973 219.627 163.62C219.449 163.267 219.201 162.999 218.882 162.816C218.575 162.623 218.218 162.525 217.813 162.523C217.408 162.521 217.044 162.615 216.722 162.805C216.411 162.985 216.163 163.25 215.979 163.601C215.794 163.952 215.699 164.389 215.694 164.912L215.691 165.232C215.686 165.808 215.772 166.288 215.95 166.673C216.127 167.047 216.37 167.331 216.678 167.525C216.996 167.708 217.358 167.8 217.763 167.802ZM227.837 169.455L227.944 158.255L235.752 158.296L235.733 160.28L230.325 160.252L230.301 162.748L235.229 162.773L235.211 164.693L230.283 164.668L230.256 167.484L235.664 167.512L235.645 169.496L227.837 169.455ZM240.543 169.713C239.807 169.709 239.169 169.546 238.628 169.223C238.097 168.9 237.686 168.418 237.393 167.777C237.112 167.125 236.975 166.313 236.985 165.343L236.988 165.023C236.996 164.105 237.148 163.338 237.441 162.721C237.746 162.104 238.172 161.637 238.719 161.32C239.266 161.002 239.902 160.846 240.627 160.849C241.214 160.853 241.725 160.983 242.16 161.241C242.605 161.489 242.96 161.822 243.222 162.239L243.259 158.335L245.355 158.346L245.249 169.546L243.297 169.535L243.309 168.287C243.092 168.67 242.753 169.005 242.291 169.29C241.83 169.576 241.247 169.717 240.543 169.713ZM241.056 167.924C241.483 167.926 241.852 167.848 242.162 167.689C242.484 167.531 242.732 167.287 242.905 166.957C243.09 166.617 243.185 166.196 243.189 165.695L243.199 164.735C243.203 164.266 243.116 163.881 242.937 163.582C242.759 163.271 242.505 163.041 242.176 162.89C241.858 162.728 241.501 162.646 241.106 162.644C240.53 162.641 240.059 162.841 239.693 163.245C239.326 163.637 239.139 164.234 239.132 165.034L239.128 165.354C239.12 166.228 239.301 166.875 239.67 167.293C240.039 167.71 240.501 167.921 241.056 167.924ZM247.365 169.557L247.445 161.077L249.541 161.088L249.461 169.567L247.365 169.557ZM248.493 160.266C248.12 160.264 247.811 160.146 247.568 159.91C247.336 159.674 247.221 159.369 247.225 158.996C247.229 158.622 247.349 158.319 247.586 158.086C247.833 157.852 248.138 157.737 248.501 157.738C248.885 157.74 249.193 157.859 249.426 158.095C249.669 158.331 249.788 158.636 249.785 159.009C249.781 159.382 249.656 159.686 249.408 159.919C249.171 160.153 248.866 160.268 248.493 160.266ZM254.971 169.692C254.31 169.689 253.767 169.595 253.342 169.412C252.917 169.217 252.605 168.912 252.407 168.495C252.219 168.078 252.128 167.539 252.134 166.877L252.172 162.862L251.036 162.856L251.053 161.096L252.189 161.102L252.207 159.182L254.303 159.193L254.285 161.113L256.333 161.123L256.316 162.883L254.268 162.872L254.233 166.552C254.229 167.032 254.311 167.379 254.479 167.594C254.659 167.797 254.988 167.9 255.468 167.903C255.788 167.904 256.108 167.89 256.429 167.86L256.412 169.62C256.209 169.64 255.996 169.655 255.772 169.664C255.558 169.685 255.291 169.694 254.971 169.692ZM258.114 169.613L258.195 161.133L260.291 161.144L260.21 169.623L258.114 169.613ZM259.243 160.322C258.869 160.32 258.561 160.201 258.318 159.966C258.086 159.73 257.971 159.425 257.975 159.052C257.978 158.678 258.099 158.375 258.336 158.142C258.583 157.908 258.888 157.792 259.251 157.794C259.635 157.796 259.943 157.915 260.175 158.151C260.419 158.387 260.538 158.692 260.535 159.065C260.531 159.438 260.406 159.742 260.158 159.975C259.921 160.209 259.616 160.324 259.243 160.322ZM262.298 169.634L262.379 161.155L264.299 161.165L264.287 162.413C264.504 162.03 264.838 161.695 265.288 161.41C265.739 161.124 266.354 160.983 267.133 160.987C268.167 160.993 268.933 161.274 269.429 161.831C269.935 162.389 270.184 163.19 270.174 164.235L270.122 169.675L268.01 169.664L268.057 164.704C268.063 164.075 267.934 163.6 267.671 163.278C267.418 162.946 266.977 162.779 266.347 162.775C265.899 162.773 265.536 162.862 265.257 163.042C264.978 163.222 264.773 163.455 264.642 163.742C264.511 164.03 264.444 164.344 264.441 164.685L264.394 169.645L262.298 169.634ZM275.617 173.096C274.721 173.091 274.008 172.975 273.476 172.748C272.945 172.532 272.553 172.232 272.301 171.846C272.059 171.461 271.92 171.007 271.882 170.484L274.026 170.495C274.088 170.72 274.23 170.928 274.452 171.122C274.674 171.325 275.068 171.429 275.633 171.432C276.348 171.435 276.883 171.268 277.238 170.928C277.593 170.589 277.774 170.078 277.78 169.395L277.79 168.371C277.52 168.786 277.159 169.12 276.709 169.373C276.258 169.616 275.745 169.736 275.169 169.733C274.433 169.729 273.795 169.566 273.254 169.243C272.723 168.921 272.312 168.444 272.019 167.813C271.737 167.171 271.601 166.381 271.61 165.443L271.613 165.123C271.621 164.237 271.772 163.492 272.066 162.885C272.371 162.279 272.796 161.817 273.343 161.5C273.89 161.183 274.527 161.026 275.252 161.03C275.956 161.033 276.536 161.18 276.992 161.471C277.448 161.761 277.78 162.099 277.99 162.484L278.002 161.236L279.954 161.246L279.878 169.246C279.866 170.504 279.51 171.463 278.811 172.12C278.111 172.778 277.046 173.103 275.617 173.096ZM275.682 167.944C276.109 167.946 276.478 167.873 276.788 167.726C277.11 167.567 277.357 167.323 277.531 166.994C277.716 166.664 277.81 166.264 277.815 165.795L277.824 164.835C277.828 164.387 277.741 164.019 277.562 163.73C277.384 163.441 277.13 163.221 276.801 163.07C276.482 162.908 276.126 162.826 275.731 162.824C275.155 162.821 274.684 163.016 274.317 163.409C273.951 163.791 273.764 164.366 273.757 165.134L273.754 165.454C273.746 166.275 273.927 166.895 274.296 167.313C274.665 167.731 275.128 167.941 275.682 167.944Z" fill="#474747"/>
<rect x="333" y="140" width="155" height="46" rx="8" fill="#FCFCFD"/>
<rect x="333.5" y="140.5" width="154" height="45" rx="7.5" stroke="#757575" stroke-opacity="0.5"/>
<g filter="url(#filter8_d_910_348)">
<rect x="349.782" y="154" width="18" height="18" rx="9" fill="#133E87" shape-rendering="crispEdges"/>
<path d="M362 160L357.188 165L355 162.727" stroke="white" stroke-width="2" stroke-linecap="round" stroke-linejoin="round"/>
</g>
<path d="M381.971 169.268L386.237 158.09L388.621 158.103L392.691 169.324L390.163 169.311L389.321 167.019L385.177 166.997L384.307 169.28L381.971 169.268ZM385.931 165.017L388.619 165.031L387.312 161.136L385.931 165.017ZM396.844 169.538C396.108 169.534 395.469 169.371 394.928 169.048C394.398 168.725 393.987 168.243 393.694 167.601C393.412 166.949 393.276 166.138 393.285 165.167L393.288 164.847C393.297 163.93 393.448 163.163 393.742 162.546C394.047 161.928 394.473 161.461 395.02 161.144C395.567 160.827 396.203 160.67 396.928 160.674C397.515 160.677 398.026 160.808 398.46 161.066C398.906 161.314 399.26 161.646 399.523 162.064L399.56 158.16L401.656 158.171L401.55 169.37L399.598 169.36L399.61 168.112C399.393 168.495 399.053 168.829 398.592 169.115C398.131 169.4 397.548 169.541 396.844 169.538ZM397.357 167.748C397.784 167.751 398.152 167.672 398.463 167.514C398.785 167.356 399.032 167.112 399.206 166.782C399.391 166.442 399.485 166.021 399.49 165.519L399.499 164.559C399.504 164.09 399.417 163.706 399.238 163.406C399.06 163.096 398.806 162.865 398.477 162.714C398.158 162.552 397.802 162.471 397.407 162.469C396.831 162.466 396.36 162.666 395.993 163.069C395.627 163.462 395.44 164.058 395.432 164.858L395.429 165.178C395.421 166.053 395.601 166.699 395.971 167.117C396.34 167.535 396.802 167.745 397.357 167.748ZM407.327 169.592C406.559 169.588 405.852 169.43 405.204 169.117C404.567 168.794 404.06 168.306 403.682 167.653C403.304 167.001 403.12 166.189 403.129 165.218L403.132 164.898C403.141 163.981 403.34 163.214 403.73 162.597C404.12 161.97 404.636 161.504 405.279 161.198C405.933 160.881 406.644 160.725 407.412 160.729C408.19 160.733 408.898 160.896 409.535 161.22C410.172 161.532 410.68 162.004 411.058 162.636C411.436 163.256 411.621 164.025 411.612 164.943L411.609 165.263C411.6 166.212 411.4 167.011 411.01 167.659C410.62 168.308 410.103 168.796 409.46 169.123C408.817 169.44 408.106 169.596 407.327 169.592ZM407.345 167.8C407.75 167.802 408.108 167.714 408.419 167.534C408.741 167.344 408.994 167.057 409.179 166.674C409.364 166.291 409.459 165.817 409.465 165.251L409.468 164.931C409.473 164.409 409.386 163.971 409.208 163.618C409.03 163.265 408.782 162.997 408.464 162.814C408.156 162.621 407.8 162.523 407.395 162.521C406.989 162.518 406.626 162.613 406.304 162.803C405.993 162.983 405.745 163.248 405.56 163.599C405.376 163.95 405.281 164.387 405.276 164.91L405.273 165.23C405.267 165.806 405.354 166.286 405.531 166.671C405.709 167.045 405.952 167.329 406.259 167.523C406.577 167.706 406.939 167.798 407.345 167.8ZM417.801 169.647C417.097 169.643 416.517 169.496 416.061 169.206C415.605 168.915 415.273 168.578 415.063 168.192L415.051 169.44L413.099 169.43L413.205 158.231L415.301 158.242L415.264 162.13C415.535 161.726 415.89 161.402 416.33 161.159C416.78 160.905 417.299 160.78 417.885 160.783C419.016 160.789 419.893 161.146 420.515 161.853C421.149 162.549 421.459 163.596 421.445 164.994L421.442 165.314C421.433 166.284 421.276 167.094 420.971 167.743C420.677 168.382 420.262 168.86 419.726 169.177C419.189 169.494 418.548 169.651 417.801 169.647ZM417.322 167.852C417.877 167.855 418.343 167.65 418.72 167.236C419.097 166.811 419.29 166.166 419.298 165.303L419.301 164.983C419.309 164.183 419.133 163.584 418.775 163.188C418.426 162.781 417.959 162.576 417.372 162.572C416.978 162.57 416.614 162.649 416.282 162.807C415.961 162.954 415.708 163.182 415.524 163.491C415.339 163.789 415.245 164.172 415.241 164.641L415.231 165.601C415.227 166.103 415.308 166.524 415.475 166.867C415.654 167.198 415.902 167.445 416.22 167.607C416.55 167.768 416.917 167.85 417.322 167.852ZM426.765 169.693C425.997 169.689 425.289 169.531 424.641 169.218C424.004 168.895 423.497 168.412 423.119 167.77C422.741 167.118 422.557 166.301 422.566 165.32L422.569 165C422.578 164.061 422.767 163.283 423.135 162.666C423.515 162.05 424.015 161.588 424.637 161.282C425.258 160.976 425.942 160.825 426.689 160.829C428.022 160.836 429.032 161.193 429.719 161.901C430.406 162.608 430.743 163.629 430.73 164.962L430.721 165.858L424.721 165.827C424.738 166.328 424.841 166.739 425.03 167.06C425.229 167.371 425.483 167.601 425.791 167.752C426.099 167.893 426.429 167.964 426.781 167.965C427.325 167.968 427.737 167.89 428.015 167.732C428.294 167.573 428.494 167.34 428.614 167.031L430.55 167.041C430.371 167.925 429.943 168.59 429.267 169.034C428.591 169.479 427.757 169.699 426.765 169.693ZM426.753 162.557C426.422 162.556 426.101 162.607 425.791 162.712C425.481 162.817 425.234 163.008 425.05 163.284C424.866 163.55 424.761 163.907 424.735 164.355L428.687 164.375C428.681 163.895 428.589 163.527 428.41 163.27C428.242 163.002 428.014 162.82 427.727 162.722C427.44 162.614 427.115 162.559 426.753 162.557ZM435.568 169.547L439.383 163.727L435.834 158.349L438.522 158.363L440.951 162.039L443.466 158.388L446.074 158.402L442.456 163.695L446.128 169.602L443.424 169.588L440.855 165.383L438.224 169.561L435.568 169.547ZM447.747 169.611L447.853 158.411L451.741 158.431C452.872 158.437 453.835 158.645 454.631 159.054C455.427 159.464 456.03 160.07 456.438 160.872C456.857 161.663 457.061 162.646 457.05 163.819L457.047 164.139C457.036 165.334 456.807 166.34 456.362 167.159C455.917 167.978 455.277 168.599 454.44 169.021C453.615 169.433 452.627 169.636 451.475 169.63L447.747 169.611ZM450.149 167.639L451.333 167.645C451.92 167.648 452.455 167.539 452.937 167.318C453.419 167.096 453.806 166.73 454.099 166.22C454.403 165.699 454.559 165.001 454.567 164.126L454.57 163.806C454.578 162.974 454.451 162.312 454.189 161.82C453.927 161.317 453.562 160.958 453.095 160.742C452.639 160.527 452.128 160.417 451.562 160.414L450.218 160.407L450.149 167.639Z" fill="#474747"/>
<defs>
<filter id="filter0_d_910_348" x="7.00072" y="8" width="34" height="34" filterUnits="userSpaceOnUse" color-interpolation-filters="sRGB">
<feFlood flood-opacity="0" result="BackgroundImageFix"/>
<feColorMatrix in="SourceAlpha" type="matrix" values="0 0 0 0 0 0 0 0 0 0 0 0 0 0 0 0 0 0 127 0" result="hardAlpha"/>
<feOffset dy="2"/>
<feGaussianBlur stdDeviation="4"/>
<feComposite in2="hardAlpha" operator="out"/>
<feColorMatrix type="matrix" values="0 0 0 0 0.227451 0 0 0 0 0.482353 0 0 0 0 1 0 0 0 0.5 0"/>
<feBlend mode="normal" in2="BackgroundImageFix" result="effect1_dropShadow_910_348"/>
<feBlend mode="normal" in="SourceGraphic" in2="effect1_dropShadow_910_348" result="shape"/>
</filter>
<filter id="filter1_d_910_348" x="147.85" y="8" width="34" height="34" filterUnits="userSpaceOnUse" color-interpolation-filters="sRGB">
<feFlood flood-opacity="0" result="BackgroundImageFix"/>
<feColorMatrix in="SourceAlpha" type="matrix" values="0 0 0 0 0 0 0 0 0 0 0 0 0 0 0 0 0 0 127 0" result="hardAlpha"/>
<feOffset dy="2"/>
<feGaussianBlur stdDeviation="4"/>
<feComposite in2="hardAlpha" operator="out"/>
<feColorMatrix type="matrix" values="0 0 0 0 0.227451 0 0 0 0 0.482353 0 0 0 0 1 0 0 0 0.5 0"/>
<feBlend mode="normal" in2="BackgroundImageFix" result="effect1_dropShadow_910_348"/>
<feBlend mode="normal" in="SourceGraphic" in2="effect1_dropShadow_910_348" result="shape"/>
</filter>
<filter id="filter2_d_910_348" x="330.782" y="8" width="34" height="34" filterUnits="userSpaceOnUse" color-interpolation-filters="sRGB">
<feFlood flood-opacity="0" result="BackgroundImageFix"/>
<feColorMatrix in="SourceAlpha" type="matrix" values="0 0 0 0 0 0 0 0 0 0 0 0 0 0 0 0 0 0 127 0" result="hardAlpha"/>
<feOffset dy="2"/>
<feGaussianBlur stdDeviation="4"/>
<feComposite in2="hardAlpha" operator="out"/>
<feColorMatrix type="matrix" values="0 0 0 0 0.227451 0 0 0 0 0.482353 0 0 0 0 1 0 0 0 0.5 0"/>
<feBlend mode="normal" in2="BackgroundImageFix" result="effect1_dropShadow_910_348"/>
<feBlend mode="normal" in="SourceGraphic" in2="effect1_dropShadow_910_348" result="shape"/>
</filter>
<filter id="filter3_d_910_348" x="507.001" y="7" width="36" height="36" filterUnits="userSpaceOnUse" color-interpolation-filters="sRGB">
<feFlood flood-opacity="0" result="BackgroundImageFix"/>
<feColorMatrix in="SourceAlpha" type="matrix" values="0 0 0 0 0 0 0 0 0 0 0 0 0 0 0 0 0 0 127 0" result="hardAlpha"/>
<feOffset dy="2"/>
<feGaussianBlur stdDeviation="4"/>
<feComposite in2="hardAlpha" operator="out"/>
<feColorMatrix type="matrix" values="0 0 0 0 0.227451 0 0 0 0 0.482353 0 0 0 0 1 0 0 0 0.5 0"/>
<feBlend mode="normal" in2="BackgroundImageFix" result="effect1_dropShadow_910_348"/>
<feBlend mode="normal" in="SourceGraphic" in2="effect1_dropShadow_910_348" result="shape"/>
</filter>
<filter id="filter4_d_910_348" x="101.199" y="78" width="34" height="34" filterUnits="userSpaceOnUse" color-interpolation-filters="sRGB">
<feFlood flood-opacity="0" result="BackgroundImageFix"/>
<feColorMatrix in="SourceAlpha" type="matrix" values="0 0 0 0 0 0 0 0 0 0 0 0 0 0 0 0 0 0 127 0" result="hardAlpha"/>
<feOffset dy="2"/>
<feGaussianBlur stdDeviation="4"/>
<feComposite in2="hardAlpha" operator="out"/>
<feColorMatrix type="matrix" values="0 0 0 0 0.227451 0 0 0 0 0.482353 0 0 0 0 1 0 0 0 0.5 0"/>
<feBlend mode="normal" in2="BackgroundImageFix" result="effect1_dropShadow_910_348"/>
<feBlend mode="normal" in="SourceGraphic" in2="effect1_dropShadow_910_348" result="shape"/>
</filter>
<filter id="filter5_d_910_348" x="248.435" y="78" width="34" height="34" filterUnits="userSpaceOnUse" color-interpolation-filters="sRGB">
<feFlood flood-opacity="0" result="BackgroundImageFix"/>
<feColorMatrix in="SourceAlpha" type="matrix" values="0 0 0 0 0 0 0 0 0 0 0 0 0 0 0 0 0 0 127 0" result="hardAlpha"/>
<feOffset dy="2"/>
<feGaussianBlur stdDeviation="4"/>
<feComposite in2="hardAlpha" operator="out"/>
<feColorMatrix type="matrix" values="0 0 0 0 0.227451 0 0 0 0 0.482353 0 0 0 0 1 0 0 0 0.5 0"/>
<feBlend mode="normal" in2="BackgroundImageFix" result="effect1_dropShadow_910_348"/>
<feBlend mode="normal" in="SourceGraphic" in2="effect1_dropShadow_910_348" result="shape"/>
</filter>
<filter id="filter6_d_910_348" x="377.35" y="78" width="34" height="34" filterUnits="userSpaceOnUse" color-interpolation-filters="sRGB">
<feFlood flood-opacity="0" result="BackgroundImageFix"/>
<feColorMatrix in="SourceAlpha" type="matrix" values="0 0 0 0 0 0 0 0 0 0 0 0 0 0 0 0 0 0 127 0" result="hardAlpha"/>
<feOffset dy="2"/>
<feGaussianBlur stdDeviation="4"/>
<feComposite in2="hardAlpha" operator="out"/>
<feColorMatrix type="matrix" values="0 0 0 0 0.227451 0 0 0 0 0.482353 0 0 0 0 1 0 0 0 0.5 0"/>
<feBlend mode="normal" in2="BackgroundImageFix" result="effect1_dropShadow_910_348"/>
<feBlend mode="normal" in="SourceGraphic" in2="effect1_dropShadow_910_348" result="shape"/>
</filter>
<filter id="filter7_d_910_348" x="138.42" y="148" width="34" height="34" filterUnits="userSpaceOnUse" color-interpolation-filters="sRGB">
<feFlood flood-opacity="0" result="BackgroundImageFix"/>
<feColorMatrix in="SourceAlpha" type="matrix" values="0 0 0 0 0 0 0 0 0 0 0 0 0 0 0 0 0 0 127 0" result="hardAlpha"/>
<feOffset dy="2"/>
<feGaussianBlur stdDeviation="4"/>
<feComposite in2="hardAlpha" operator="out"/>
<feColorMatrix type="matrix" values="0 0 0 0 0.227451 0 0 0 0 0.482353 0 0 0 0 1 0 0 0 0.5 0"/>
<feBlend mode="normal" in2="BackgroundImageFix" result="effect1_dropShadow_910_348"/>
<feBlend mode="normal" in="SourceGraphic" in2="effect1_dropShadow_910_348" result="shape"/>
</filter>
<filter id="filter8_d_910_348" x="341.782" y="148" width="34" height="34" filterUnits="userSpaceOnUse" color-interpolation-filters="sRGB">
<feFlood flood-opacity="0" result="BackgroundImageFix"/>
<feColorMatrix in="SourceAlpha" type="matrix" values="0 0 0 0 0 0 0 0 0 0 0 0 0 0 0 0 0 0 127 0" result="hardAlpha"/>
<feOffset dy="2"/>
<feGaussianBlur stdDeviation="4"/>
<feComposite in2="hardAlpha" operator="out"/>
<feColorMatrix type="matrix" values="0 0 0 0 0.227451 0 0 0 0 0.482353 0 0 0 0 1 0 0 0 0.5 0"/>
<feBlend mode="normal" in2="BackgroundImageFix" result="effect1_dropShadow_910_348"/>
<feBlend mode="normal" in="SourceGraphic" in2="effect1_dropShadow_910_348" result="shape"/>
</filter>
</defs>
</svg>
