<svg width="585" height="157" viewBox="0 0 585 157" fill="none" xmlns="http://www.w3.org/2000/svg">
<rect x="0.5" y="0.5" width="116" height="36" rx="18" fill="#0B99FF"/>
<g filter="url(#filter0_d_910_348)">
<rect x="14.0007" y="9" width="18" height="18" rx="9" fill="white" shape-rendering="crispEdges"/>
<path d="M27 15.5L22.1875 20.5L20 18.2273" stroke="#0B99FF" stroke-width="2" stroke-linecap="round" stroke-linejoin="round"/>
</g>
<path d="M47.3252 24.3586L47.4317 13.1591L55.0956 13.199L55.0768 15.1829L49.7968 15.1554L49.77 17.9713L54.57 17.9963L54.5517 19.9162L49.7518 19.8912L49.7092 24.371L47.3252 24.3586ZM56.6807 24.4073L56.7614 15.9277L58.8573 15.9386L58.7767 24.4182L56.6807 24.4073ZM57.8091 15.1171C57.4358 15.1152 57.1276 14.9962 56.8845 14.7603C56.652 14.5244 56.5376 14.2198 56.5411 13.8465C56.5447 13.4732 56.6649 13.1698 56.9018 12.9364C57.1494 12.703 57.4545 12.5873 57.8171 12.5891C58.2011 12.5911 58.5093 12.7101 58.7418 12.946C58.9849 13.1819 59.1047 13.4865 59.1011 13.8598C59.0976 14.2332 58.972 14.5365 58.7244 14.7699C58.4875 15.0033 58.1824 15.1191 57.8091 15.1171ZM64.4961 27.84C63.6001 27.8353 62.8865 27.7196 62.3553 27.4928C61.824 27.2767 61.4322 26.976 61.1799 26.5907C60.9382 26.2054 60.7985 25.7514 60.7608 25.2285L62.9048 25.2397C62.9667 25.464 63.1087 25.6727 63.3308 25.8659C63.5529 26.0697 63.9466 26.1731 64.5119 26.176C65.2266 26.1798 65.7615 26.0119 66.1168 25.6724C66.472 25.3329 66.6529 24.8219 66.6594 24.1392L66.6691 23.1153C66.3985 23.5299 66.038 23.864 65.5875 24.1176C65.1372 24.3606 64.6241 24.4806 64.0481 24.4776C63.3121 24.4738 62.6736 24.3105 62.1327 23.9877C61.6024 23.6649 61.1909 23.1881 60.8982 22.5572C60.6163 21.9158 60.4798 21.1257 60.4887 20.1871L60.4918 19.8671C60.5002 18.9818 60.6513 18.2359 60.9451 17.6294C61.2495 17.023 61.6753 16.5612 62.2223 16.2441C62.7693 15.9269 63.4055 15.7702 64.1308 15.774C64.8348 15.7777 65.4148 15.9247 65.8707 16.2151C66.3266 16.5055 66.6594 16.8432 66.8691 17.2283L66.881 15.9803L68.8329 15.9905L68.7569 23.9901C68.7449 25.2487 68.3891 26.2069 67.6895 26.8646C66.9899 27.5223 65.9254 27.8474 64.4961 27.84ZM64.5611 22.6883C64.9878 22.6905 65.3565 22.6178 65.6672 22.47C65.9887 22.3117 66.2364 22.0677 66.4102 21.7379C66.5947 21.4082 66.6892 21.0087 66.6936 20.5394L66.7027 19.5794C66.707 19.1314 66.6198 18.763 66.4412 18.4741C66.2627 18.1851 66.0087 17.9651 65.6795 17.8141C65.361 17.6524 65.0044 17.5706 64.6098 17.5685C64.0338 17.5655 63.5626 17.7604 63.1962 18.1532C62.8299 18.5353 62.6431 19.1103 62.6358 19.8783L62.6327 20.1982C62.6249 21.0195 62.8057 21.6391 63.1751 22.0571C63.5444 22.475 64.0064 22.6854 64.5611 22.6883ZM70.708 24.4803L70.7887 16.0007L72.7086 16.0107L72.6966 17.2746C72.8922 16.9023 73.2047 16.5679 73.6342 16.2715C74.0744 15.9751 74.5771 15.8284 75.1424 15.8313C75.8251 15.8349 76.3571 15.9763 76.7385 16.2556C77.1305 16.535 77.4043 16.9044 77.5599 17.3639C77.7989 16.9172 78.1383 16.5563 78.5783 16.2812C79.029 15.9956 79.5584 15.8543 80.1664 15.8575C81.0624 15.8621 81.7425 16.127 82.2069 16.6521C82.6819 17.1772 82.9144 17.9678 82.9044 19.0237L82.8519 24.5435L80.7399 24.5325L80.7878 19.4927C80.7942 18.8208 80.6867 18.3455 80.4654 18.067C80.2547 17.7886 79.9093 17.6481 79.4293 17.6457C79.152 17.6442 78.8953 17.7175 78.6592 17.8656C78.4232 18.0031 78.2293 18.2101 78.0773 18.4866C77.936 18.7632 77.8635 19.0935 77.8599 19.4775L77.8119 24.5173L75.716 24.5064L75.7639 19.4666C75.7703 18.7946 75.6628 18.3194 75.4414 18.0409C75.2307 17.7625 74.8854 17.622 74.4054 17.6195C74.1281 17.6181 73.866 17.6914 73.6193 17.8394C73.3833 17.9769 73.1947 18.1839 73.0534 18.4605C72.9227 18.7371 72.8556 19.0674 72.8519 19.4514L72.804 24.4912L70.708 24.4803ZM87.234 24.7583C86.626 24.7551 86.1097 24.6405 85.6852 24.4142C85.2608 24.1774 84.9385 23.8557 84.7183 23.4492C84.4982 23.0427 84.3906 22.5835 84.3954 22.0715C84.4035 21.2182 84.6603 20.5796 85.1657 20.1555C85.6817 19.7315 86.4464 19.5222 87.4597 19.5275L89.9877 19.5406L89.9915 19.1406C89.9968 18.586 89.8725 18.196 89.6186 17.9707C89.3754 17.7454 88.9818 17.6314 88.4378 17.6285C87.9578 17.626 87.6104 17.7096 87.3954 17.8791C87.1806 18.038 87.056 18.24 87.0216 18.4852L84.9097 18.4742C84.9463 17.9837 85.1051 17.5472 85.3861 17.1647C85.6779 16.7715 86.0861 16.4643 86.6109 16.243C87.1465 16.0111 87.7876 15.8971 88.5343 15.901C89.2596 15.9048 89.8879 16.0147 90.4192 16.2308C90.9611 16.447 91.3792 16.7958 91.6733 17.2774C91.9675 17.7482 92.1108 18.3837 92.1032 19.1836L92.0723 22.4315C92.068 22.8795 92.0696 23.2741 92.077 23.6155C92.0952 23.9463 92.1241 24.2718 92.1637 24.592L90.1958 24.5817C90.1553 24.3468 90.1303 24.1707 90.1208 24.0533C90.122 23.9253 90.1238 23.7387 90.1261 23.4933C89.8989 23.8335 89.544 24.1303 89.0616 24.3838C88.5792 24.6373 87.97 24.7621 87.234 24.7583ZM87.9055 23.1298C88.2468 23.1316 88.5727 23.0746 88.8832 22.9589C89.2044 22.8325 89.4622 22.6419 89.6566 22.3869C89.8618 22.1213 89.9663 21.7858 89.9702 21.3805L89.974 20.9805L87.846 20.9695C87.4407 20.9674 87.1198 21.0617 86.8833 21.2525C86.6576 21.4326 86.5432 21.6827 86.5402 22.0027C86.5369 22.344 86.6517 22.6166 86.8844 22.8205C87.1171 23.0244 87.4575 23.1275 87.9055 23.1298Z" fill="white"/>
<rect x="140.5" y="0.5" width="146" height="36" rx="18" fill="#0B99FF"/>
<g filter="url(#filter1_d_910_348)">
<rect x="152" y="9" width="18" height="18" rx="9" fill="white" shape-rendering="crispEdges"/>
<path d="M164.999 15.5L160.187 20.5L157.999 18.2273" stroke="#0B99FF" stroke-width="2" stroke-linecap="round" stroke-linejoin="round"/>
</g>
<path d="M187.387 24.2809L187.494 13.0814L191.798 13.1038C192.811 13.109 193.647 13.2681 194.305 13.5808C194.964 13.8829 195.451 14.3121 195.765 14.8684C196.08 15.4141 196.234 16.0602 196.227 16.8068C196.22 17.5535 196.054 18.2033 195.728 18.7562C195.403 19.2986 194.908 19.7227 194.244 20.0285C193.58 20.3237 192.741 20.4687 191.728 20.4634L189.808 20.4534L189.771 24.2933L187.387 24.2809ZM189.827 18.4695L191.507 18.4783C192.36 18.4827 192.959 18.3418 193.303 18.0556C193.658 17.7695 193.838 17.3491 193.843 16.7944C193.848 16.2505 193.676 15.8336 193.327 15.5437C192.988 15.2433 192.392 15.0909 191.539 15.0864L189.859 15.0777L189.827 18.4695ZM197.708 24.3346L197.814 13.1351L199.91 13.146L199.873 17.0338C200.003 16.8212 200.181 16.6141 200.407 16.4126C200.644 16.2005 200.934 16.026 201.276 15.8891C201.63 15.7523 202.052 15.6851 202.542 15.6877C203.577 15.6931 204.342 15.9744 204.838 16.5317C205.345 17.089 205.593 17.8903 205.584 18.9355L205.532 24.3753L203.42 24.3643L203.467 19.4205C203.473 18.7912 203.344 18.3106 203.081 17.9785C202.828 17.6465 202.387 17.4789 201.757 17.4756C201.309 17.4733 200.946 17.5621 200.667 17.7419C200.388 17.9218 200.183 18.1608 200.052 18.4588C199.921 18.7461 199.854 19.0604 199.851 19.4017L199.804 24.3455L197.708 24.3346ZM211.217 24.5969C210.449 24.5929 209.742 24.4345 209.094 24.1218C208.457 23.7985 207.95 23.3105 207.572 22.6579C207.194 22.0053 207.01 21.1936 207.019 20.223L207.022 19.903C207.031 18.9857 207.23 18.2188 207.62 17.6021C208.01 16.9748 208.526 16.5082 209.169 16.2022C209.823 15.8856 210.534 15.7293 211.302 15.7333C212.08 15.7373 212.788 15.901 213.425 16.2243C214.062 16.537 214.57 17.009 214.948 17.6403C215.326 18.2609 215.511 19.0299 215.502 19.9472L215.499 20.2672C215.49 21.2164 215.29 22.0154 214.9 22.664C214.51 23.3127 213.993 23.8007 213.35 24.128C212.707 24.4446 211.996 24.6009 211.217 24.5969ZM211.234 22.805C211.64 22.8071 211.998 22.7183 212.309 22.5386C212.631 22.3482 212.884 22.0616 213.069 21.6785C213.254 21.2955 213.349 20.8213 213.355 20.256L213.358 19.936C213.363 19.4134 213.276 18.9756 213.098 18.6227C212.92 18.2697 212.672 18.0018 212.354 17.8188C212.046 17.6252 211.69 17.5273 211.285 17.5252C210.879 17.5231 210.516 17.6172 210.194 17.8075C209.883 17.9872 209.635 18.2526 209.45 18.6037C209.266 18.9547 209.171 19.3915 209.166 19.9142L209.163 20.2342C209.157 20.8102 209.243 21.2906 209.421 21.6755C209.599 22.0498 209.842 22.3337 210.149 22.5273C210.467 22.7103 210.829 22.8029 211.234 22.805ZM220.412 24.5487C219.751 24.5453 219.208 24.4518 218.783 24.2683C218.358 24.074 218.046 23.7684 217.847 23.3514C217.659 22.9344 217.568 22.3953 217.575 21.734L217.613 17.7181L216.477 17.7122L216.494 15.9523L217.63 15.9582L217.648 14.0383L219.744 14.0492L219.726 15.9691L221.773 15.9798L221.757 17.7397L219.709 17.7291L219.674 21.4089C219.669 21.8889 219.751 22.236 219.92 22.4502C220.099 22.6538 220.429 22.7568 220.909 22.7593C221.229 22.761 221.549 22.7467 221.869 22.7163L221.853 24.4762C221.65 24.4965 221.436 24.5114 221.212 24.5209C220.999 24.5411 220.732 24.5504 220.412 24.5487ZM227.139 24.6798C226.371 24.6758 225.663 24.5174 225.016 24.2047C224.379 23.8814 223.871 23.3934 223.493 22.7408C223.116 22.0881 222.931 21.2765 222.941 20.3059L222.944 19.9859C222.952 19.0686 223.152 18.3016 223.541 17.685C223.931 17.0577 224.448 16.591 225.091 16.2851C225.745 15.9685 226.455 15.8122 227.223 15.8162C228.002 15.8202 228.71 15.9839 229.347 16.3072C229.984 16.6199 230.491 17.0918 230.869 17.7231C231.247 18.3438 231.432 19.1127 231.423 20.03L231.42 20.35C231.411 21.2993 231.212 22.0983 230.822 22.7469C230.431 23.3956 229.915 23.8835 229.272 24.2109C228.629 24.5275 227.918 24.6838 227.139 24.6798ZM227.156 22.8878C227.561 22.8899 227.92 22.8011 228.231 22.6214C228.553 22.4311 228.806 22.1444 228.991 21.7614C229.176 21.3783 229.271 20.9042 229.276 20.3389L229.279 20.0189C229.284 19.4962 229.198 19.0584 229.02 18.7055C228.842 18.3526 228.594 18.0846 228.276 17.9016C227.968 17.708 227.612 17.6102 227.206 17.6081C226.801 17.606 226.437 17.7001 226.116 17.8904C225.805 18.0701 225.557 18.3355 225.372 18.6865C225.187 19.0376 225.093 19.4744 225.088 19.9971L225.084 20.317C225.079 20.893 225.165 21.3735 225.343 21.7584C225.521 22.1327 225.763 22.4166 226.071 22.6102C226.389 22.7932 226.751 22.8857 227.156 22.8878ZM237.213 24.7322C236.221 24.727 235.395 24.5841 234.737 24.3033C234.078 24.0225 233.575 23.6359 233.228 23.1434C232.891 22.6404 232.71 22.0581 232.684 21.3966L235.084 21.4091C235.166 21.8255 235.355 22.1465 235.651 22.372C235.958 22.5976 236.485 22.7124 237.232 22.7163C238 22.7203 238.55 22.6218 238.883 22.4209C239.226 22.2093 239.4 21.9116 239.403 21.5276C239.406 21.2076 239.307 20.9457 239.107 20.742C238.917 20.5384 238.62 20.3662 238.216 20.2254C237.812 20.0739 237.285 19.9325 236.636 19.8012C235.88 19.6479 235.231 19.4365 234.69 19.167C234.148 18.8975 233.736 18.5327 233.452 18.0726C233.179 17.6125 233.046 17.0305 233.052 16.3265C233.059 15.6759 233.235 15.1168 233.58 14.6492C233.926 14.171 234.421 13.8003 235.063 13.5369C235.706 13.2736 236.459 13.1442 237.323 13.1487C238.262 13.1536 239.028 13.2909 239.623 13.5607C240.229 13.8198 240.684 14.1849 240.989 14.6558C241.304 15.1268 241.486 15.6824 241.533 16.3226L239.149 16.3102C239.067 15.9258 238.894 15.6422 238.629 15.4595C238.364 15.2661 237.922 15.1678 237.304 15.1646C236.674 15.1613 236.209 15.2603 235.909 15.4614C235.608 15.6625 235.456 15.9337 235.453 16.275C235.449 16.691 235.649 17.0173 236.052 17.2541C236.466 17.4909 237.114 17.697 237.998 17.8722C238.605 17.9927 239.142 18.1395 239.61 18.3126C240.088 18.4858 240.491 18.7119 240.819 18.9909C241.148 19.2593 241.395 19.5859 241.562 19.9708C241.729 20.3557 241.81 20.8201 241.805 21.3641C241.798 22.0467 241.611 22.6431 241.244 23.1532C240.887 23.6633 240.366 24.0553 239.681 24.329C239.006 24.6029 238.183 24.7372 237.213 24.7322ZM243.457 24.5727L243.564 13.3732L245.66 13.3841L245.623 17.2719C245.753 17.0593 245.931 16.8522 246.157 16.6507C246.393 16.4386 246.683 16.2641 247.026 16.1272C247.379 15.9904 247.801 15.9233 248.292 15.9258C249.326 15.9312 250.092 16.2125 250.588 16.7698C251.094 17.3271 251.343 18.1284 251.333 19.1737L251.281 24.6134L249.169 24.6024L249.216 19.6586C249.222 19.0293 249.093 18.5487 248.83 18.2166C248.577 17.8846 248.136 17.717 247.507 17.7137C247.059 17.7114 246.695 17.8002 246.416 17.9801C246.137 18.1599 245.932 18.3989 245.801 18.6969C245.671 18.9842 245.604 19.2985 245.6 19.6398L245.553 24.5836L243.457 24.5727ZM256.967 24.835C256.199 24.831 255.491 24.6726 254.843 24.3599C254.206 24.0366 253.699 23.5487 253.321 22.896C252.943 22.2434 252.759 21.4317 252.768 20.4611L252.771 20.1411C252.78 19.2238 252.979 18.4569 253.369 17.8402C253.759 17.2129 254.276 16.7463 254.919 16.4403C255.572 16.1237 256.283 15.9674 257.051 15.9714C257.83 15.9754 258.538 16.1391 259.175 16.4625C259.812 16.7751 260.319 17.2471 260.697 17.8784C261.075 18.499 261.26 19.268 261.251 20.1853L261.248 20.5053C261.239 21.4546 261.04 22.2535 260.649 22.9022C260.259 23.5508 259.742 24.0388 259.099 24.3661C258.456 24.6827 257.745 24.839 256.967 24.835ZM256.984 23.0431C257.389 23.0452 257.747 22.9564 258.058 22.7767C258.38 22.5863 258.634 22.2997 258.819 21.9166C259.004 21.5336 259.099 21.0594 259.104 20.4941L259.107 20.1741C259.112 19.6515 259.026 19.2137 258.848 18.8608C258.67 18.5078 258.422 18.2399 258.103 18.0569C257.796 17.8633 257.439 17.7654 257.034 17.7633C256.629 17.7612 256.265 17.8553 255.943 18.0456C255.632 18.2254 255.384 18.4907 255.2 18.8418C255.015 19.1928 254.92 19.6297 254.915 20.1523L254.912 20.4723C254.907 21.0483 254.993 21.5287 255.171 21.9136C255.348 22.2879 255.591 22.5718 255.898 22.7654C256.217 22.9484 256.579 23.041 256.984 23.0431ZM262.708 27.8729L262.819 16.1934L264.771 16.2036L264.759 17.4515C264.976 17.0686 265.315 16.7344 265.777 16.4488C266.238 16.1632 266.821 16.0222 267.525 16.0259C268.655 16.0318 269.532 16.3884 270.155 17.0956C270.788 17.7922 271.098 18.8392 271.085 20.2365L271.082 20.5564C271.073 21.5271 270.915 22.3369 270.611 22.986C270.317 23.6245 269.901 24.1023 269.365 24.4195C268.829 24.7367 268.187 24.8934 267.44 24.8895C266.864 24.8865 266.354 24.7612 265.908 24.5135C265.473 24.2553 265.119 23.9228 264.845 23.516L264.804 27.8838L262.708 27.8729ZM266.961 23.095C267.516 23.0979 267.982 22.8923 268.359 22.4783C268.737 22.0536 268.93 21.4092 268.938 20.5453L268.941 20.2253C268.948 19.4253 268.773 18.8271 268.414 18.4305C268.066 18.0234 267.598 17.8183 267.012 17.8152C266.617 17.8132 266.254 17.8913 265.921 18.0496C265.6 18.1972 265.347 18.4253 265.163 18.7336C264.979 19.0313 264.884 19.4148 264.88 19.8842L264.871 20.8441C264.866 21.3454 264.947 21.7672 265.115 22.1094C265.293 22.441 265.541 22.6876 265.86 22.8493C266.178 23.0109 266.545 23.0928 266.961 23.095Z" fill="white"/>
<rect x="310.5" y="0.5" width="146" height="36" rx="18" fill="#FFB546"/>
<g filter="url(#filter2_d_910_348)">
<rect x="322" y="9" width="18" height="18" rx="9" fill="white" shape-rendering="crispEdges"/>
<path d="M334.999 15.5L330.187 20.5L327.999 18.2273" stroke="#FFB546" stroke-width="2" stroke-linecap="round" stroke-linejoin="round"/>
</g>
<path d="M356.251 24.275L360.518 13.0971L362.902 13.1095L366.971 24.3307L364.443 24.3176L363.601 22.0252L359.457 22.0036L358.587 24.2871L356.251 24.275ZM360.212 20.0235L362.9 20.0375L361.593 16.1427L360.212 20.0235ZM371.124 24.5444C370.388 24.5405 369.75 24.3772 369.209 24.0544C368.679 23.7316 368.267 23.2495 367.975 22.608C367.693 21.9558 367.557 21.1444 367.566 20.1738L367.569 19.8538C367.578 18.9365 367.729 18.1693 368.023 17.5522C368.327 16.9351 368.753 16.468 369.3 16.1508C369.847 15.8337 370.483 15.677 371.209 15.6808C371.795 15.6838 372.306 15.8145 372.741 16.0727C373.187 16.3204 373.541 16.6529 373.804 17.0703L373.841 13.1664L375.937 13.1774L375.83 24.3769L373.878 24.3667L373.89 23.1187C373.673 23.5016 373.334 23.8359 372.873 24.1215C372.411 24.4071 371.828 24.548 371.124 24.5444ZM371.637 22.755C372.064 22.7572 372.433 22.6792 372.744 22.5208C373.065 22.3625 373.313 22.1184 373.487 21.7886C373.671 21.4483 373.766 21.0274 373.771 20.5261L373.78 19.5662C373.784 19.0968 373.697 18.7124 373.519 18.4128C373.34 18.1025 373.087 17.8719 372.757 17.7208C372.439 17.5592 372.082 17.4773 371.688 17.4753C371.112 17.4723 370.64 17.6725 370.274 18.0759C369.907 18.4687 369.72 19.065 369.713 19.865L369.71 20.185C369.702 21.0596 369.882 21.7059 370.251 22.1238C370.621 22.5417 371.083 22.7521 371.637 22.755ZM381.608 24.5989C380.84 24.5949 380.132 24.4366 379.484 24.1239C378.848 23.8006 378.34 23.3126 377.962 22.6599C377.585 22.0073 377.4 21.1957 377.409 20.2251L377.413 19.9051C377.421 18.9878 377.621 18.2208 378.01 17.6042C378.4 16.9769 378.917 16.5102 379.56 16.2042C380.213 15.8876 380.924 15.7313 381.692 15.7353C382.471 15.7394 383.179 15.9031 383.816 16.2264C384.453 16.539 384.96 17.011 385.338 17.6423C385.716 18.2629 385.901 19.0319 385.892 19.9492L385.889 20.2692C385.88 21.2185 385.681 22.0174 385.291 22.6661C384.9 23.3147 384.384 23.8027 383.741 24.13C383.098 24.4467 382.387 24.603 381.608 24.5989ZM381.625 22.807C382.03 22.8091 382.389 22.7203 382.7 22.5406C383.021 22.3503 383.275 22.0636 383.46 21.6805C383.645 21.2975 383.74 20.8233 383.745 20.258L383.748 19.938C383.753 19.4154 383.667 18.9776 383.489 18.6247C383.311 18.2718 383.063 18.0038 382.745 17.8208C382.437 17.6272 382.081 17.5294 381.675 17.5272C381.27 17.5251 380.906 17.6192 380.585 17.8096C380.274 17.9893 380.026 18.2547 379.841 18.6057C379.656 18.9567 379.561 19.3936 379.556 19.9162L379.553 20.2362C379.548 20.8122 379.634 21.2926 379.812 21.6776C379.99 22.0518 380.232 22.3358 380.54 22.5294C380.858 22.7123 381.22 22.8049 381.625 22.807ZM392.082 24.6534C391.378 24.6498 390.798 24.5028 390.342 24.2124C389.886 23.922 389.553 23.5843 389.343 23.1992L389.332 24.4471L387.38 24.437L387.486 13.2375L389.582 13.2484L389.545 17.1362C389.816 16.7323 390.171 16.4088 390.61 16.1657C391.061 15.9121 391.579 15.7868 392.166 15.7898C393.297 15.7957 394.173 16.1523 394.796 16.8595C395.429 17.5562 395.739 18.6031 395.726 20.0004L395.723 20.3204C395.714 21.291 395.557 22.1008 395.252 22.7499C394.958 23.3884 394.543 23.8662 394.006 24.1834C393.47 24.5007 392.828 24.6573 392.082 24.6534ZM391.603 22.8589C392.157 22.8618 392.623 22.6562 393.001 22.2422C393.378 21.8175 393.571 21.1732 393.579 20.3092L393.582 19.9892C393.59 19.1893 393.414 18.591 393.055 18.1945C392.707 17.7873 392.24 17.5822 391.653 17.5792C391.258 17.5771 390.895 17.6552 390.563 17.8135C390.241 17.9612 389.988 18.1892 389.804 18.4976C389.62 18.7953 389.526 19.1788 389.521 19.6481L389.512 20.608C389.507 21.1094 389.589 21.5311 389.756 21.8733C389.934 22.2049 390.183 22.4515 390.501 22.6132C390.83 22.7749 391.197 22.8568 391.603 22.8589ZM401.045 24.7001C400.277 24.6961 399.569 24.5377 398.922 24.225C398.285 23.9017 397.777 23.4191 397.399 22.7771C397.022 22.1245 396.837 21.3075 396.847 20.3262L396.85 20.0062C396.859 19.0676 397.047 18.2899 397.416 17.6732C397.795 17.0565 398.296 16.5951 398.917 16.289C399.539 15.9829 400.223 15.8318 400.97 15.8357C402.303 15.8426 403.313 16.1999 403.999 16.9074C404.686 17.615 405.023 18.6354 405.01 19.9687L405.002 20.8647L399.002 20.8334C399.019 21.3349 399.121 21.7461 399.31 22.067C399.51 22.3774 399.764 22.6081 400.072 22.759C400.38 22.8993 400.71 22.9703 401.062 22.9722C401.606 22.975 402.017 22.8971 402.296 22.7386C402.575 22.58 402.774 22.3464 402.895 22.0377L404.831 22.0478C404.652 22.9322 404.224 23.5966 403.548 24.0411C402.871 24.4856 402.037 24.7052 401.045 24.7001ZM401.033 17.564C400.702 17.5623 400.382 17.6139 400.072 17.719C399.761 17.824 399.514 18.0148 399.33 18.2911C399.146 18.5568 399.042 18.9136 399.016 19.3615L402.968 19.3821C402.962 18.902 402.869 18.5336 402.69 18.2766C402.522 18.0091 402.295 17.8266 402.008 17.7291C401.721 17.6209 401.396 17.5659 401.033 17.564ZM409.848 24.5539L413.664 18.7337L410.115 13.3552L412.803 13.3692L415.232 17.0459L417.747 13.395L420.355 13.4085L416.736 18.7017L420.408 24.6089L417.704 24.5948L415.136 20.3894L412.504 24.5677L409.848 24.5539ZM422.027 24.6173L422.134 13.4178L426.022 13.438C427.152 13.4439 428.116 13.6516 428.912 14.0611C429.708 14.4706 430.31 15.0764 430.719 15.8785C431.138 16.67 431.342 17.6524 431.331 18.8257L431.328 19.1457C431.316 20.3403 431.088 21.3471 430.643 22.1661C430.198 22.9851 429.557 23.6058 428.721 24.0281C427.896 24.4398 426.907 24.6427 425.755 24.6367L422.027 24.6173ZM424.43 22.6458L425.614 22.6519C426.201 22.655 426.735 22.5458 427.217 22.3243C427.699 22.1028 428.087 21.7368 428.38 21.2263C428.683 20.7052 428.839 20.0074 428.848 19.1328L428.851 18.8128C428.859 17.9808 428.731 17.3188 428.469 16.8268C428.208 16.3241 427.843 15.9649 427.376 15.7491C426.919 15.5334 426.408 15.424 425.843 15.4211L424.499 15.4141L424.43 22.6458Z" fill="white"/>
<rect x="480.5" y="0.5" width="103" height="36" rx="18" fill="#FFB546"/>
<g filter="url(#filter3_d_910_348)">
<rect x="489" y="9" width="18" height="18" rx="9" fill="white" shape-rendering="crispEdges"/>
<path d="M501.999 15.5L497.187 20.5L494.999 18.2273" stroke="#FFB546" stroke-width="2" stroke-linecap="round" stroke-linejoin="round"/>
</g>
<path d="M526.216 24.5787C525.245 24.5736 524.378 24.3771 523.614 23.9891C522.86 23.5905 522.269 22.9741 521.839 22.1399C521.421 21.295 521.218 20.1953 521.231 18.8407L521.234 18.5207C521.243 17.5394 521.379 16.7028 521.641 16.0108C521.904 15.3082 522.267 14.7341 522.73 14.2885C523.203 13.8429 523.745 13.5151 524.355 13.3049C524.965 13.0948 525.622 12.9915 526.326 12.9952C526.956 12.9985 527.542 13.0815 528.084 13.2443C528.637 13.3965 529.126 13.6284 529.549 13.94C529.973 14.2515 530.311 14.6533 530.562 15.1452C530.824 15.6373 530.973 16.214 531.01 16.8756L528.514 16.8626C528.402 16.2327 528.151 15.7674 527.759 15.4666C527.367 15.1659 526.883 15.0141 526.307 15.0111C525.859 15.0088 525.442 15.1186 525.056 15.3406C524.67 15.5519 524.352 15.9129 524.102 16.4236C523.862 16.9344 523.738 17.6377 523.73 18.5337L523.726 18.8537C523.72 19.5576 523.789 20.15 523.934 20.6308C524.078 21.1008 524.272 21.4805 524.515 21.7698C524.757 22.0484 525.028 22.2525 525.325 22.382C525.623 22.5009 525.926 22.5611 526.235 22.5627C526.843 22.5659 527.346 22.4139 527.744 22.1066C528.141 21.7887 528.386 21.3313 528.477 20.7344L530.973 20.7474C530.913 21.4404 530.752 22.0369 530.492 22.5369C530.231 23.0262 529.891 23.4244 529.472 23.7316C529.053 24.0281 528.566 24.2442 528.01 24.38C527.454 24.5158 526.856 24.582 526.216 24.5787ZM535.068 24.6247C534.46 24.6216 533.943 24.5069 533.519 24.2807C533.094 24.0438 532.772 23.7221 532.552 23.3156C532.332 22.9091 532.224 22.4499 532.229 21.9379C532.237 21.0846 532.494 20.446 532.999 20.0219C533.515 19.598 534.28 19.3886 535.293 19.3939L537.821 19.407L537.825 19.0071C537.83 18.4524 537.706 18.0624 537.452 17.8371C537.209 17.6118 536.815 17.4978 536.271 17.495C535.791 17.4925 535.444 17.576 535.229 17.7455C535.014 17.9044 534.889 18.1064 534.855 18.3516L532.743 18.3406C532.78 17.8501 532.939 17.4136 533.22 17.0311C533.511 16.6379 533.92 16.3307 534.444 16.1094C534.98 15.8776 535.621 15.7636 536.368 15.7675C537.093 15.7712 537.721 15.8812 538.253 16.0973C538.795 16.3134 539.213 16.6623 539.507 17.1438C539.801 17.6147 539.944 18.2501 539.937 19.05L539.906 22.2979C539.902 22.7459 539.903 23.1406 539.911 23.4819C539.929 23.8127 539.958 24.1382 539.997 24.4584L538.029 24.4481C537.989 24.2133 537.964 24.0371 537.954 23.9197C537.956 23.7918 537.957 23.6051 537.96 23.3598C537.732 23.6999 537.378 23.9967 536.895 24.2502C536.413 24.5037 535.804 24.6286 535.068 24.6247ZM535.739 22.9962C536.08 22.998 536.406 22.941 536.717 22.8253C537.038 22.699 537.296 22.5083 537.49 22.2533C537.695 21.9877 537.8 21.6523 537.804 21.247L537.808 20.847L535.68 20.8359C535.274 20.8338 534.953 20.9281 534.717 21.1189C534.491 21.299 534.377 21.5491 534.374 21.8691C534.37 22.2104 534.485 22.483 534.718 22.6869C534.951 22.8908 535.291 22.9939 535.739 22.9962ZM541.744 24.4675L541.825 15.9879L543.745 15.9979L543.733 17.2458C543.95 16.8629 544.284 16.5287 544.735 16.243C545.185 15.9573 545.8 15.8165 546.579 15.8206C547.613 15.826 548.379 16.1073 548.875 16.6646C549.382 17.2219 549.63 18.0232 549.62 19.0684L549.568 24.5082L547.456 24.4972L547.503 19.5374C547.509 18.9081 547.381 18.4328 547.117 18.1114C546.864 17.7794 546.423 17.6118 545.794 17.6085C545.346 17.6062 544.982 17.695 544.703 17.8748C544.424 18.0547 544.219 18.2883 544.088 18.5756C543.958 18.863 543.891 19.1773 543.888 19.5186L543.84 24.4784L541.744 24.4675ZM554.043 24.5315L550.54 16.0332L552.908 16.0455L555.156 21.9133L557.324 16.0685L559.5 16.0798L556.155 24.5425L554.043 24.5315ZM562.677 24.7684C562.069 24.7653 561.552 24.6506 561.128 24.4244C560.703 24.1875 560.381 23.8658 560.161 23.4593C559.941 23.0528 559.833 22.5936 559.838 22.0816C559.846 21.2283 560.103 20.5897 560.608 20.1656C561.124 19.7417 561.889 19.5323 562.902 19.5376L565.43 19.5507L565.434 19.1507C565.439 18.5961 565.315 18.2061 565.061 17.9808C564.818 17.7555 564.424 17.6415 563.88 17.6387C563.4 17.6362 563.053 17.7197 562.838 17.8892C562.623 18.0481 562.498 18.2501 562.464 18.4953L560.352 18.4843C560.389 17.9938 560.548 17.5573 560.829 17.1748C561.12 16.7816 561.529 16.4744 562.053 16.2531C562.589 16.0213 563.23 15.9073 563.977 15.9111C564.702 15.9149 565.33 16.0249 565.862 16.241C566.404 16.4571 566.822 16.806 567.116 17.2875C567.41 17.7584 567.553 18.3938 567.546 19.1937L567.515 22.4416C567.511 22.8896 567.512 23.2842 567.52 23.6256C567.538 23.9564 567.567 24.2819 567.606 24.6021L565.638 24.5918C565.598 24.357 565.573 24.1808 565.563 24.0634C565.565 23.9354 565.566 23.7488 565.569 23.5035C565.341 23.8436 564.987 24.1404 564.504 24.3939C564.022 24.6474 563.413 24.7722 562.677 24.7684ZM563.348 23.1399C563.689 23.1417 564.015 23.0847 564.326 22.969C564.647 22.8427 564.905 22.652 565.099 22.397C565.304 22.1314 565.409 21.796 565.413 21.3906L565.417 20.9907L563.289 20.9796C562.883 20.9775 562.562 21.0718 562.326 21.2626C562.1 21.4427 561.986 21.6928 561.983 22.0128C561.979 22.3541 562.094 22.6267 562.327 22.8306C562.56 23.0345 562.9 23.1376 563.348 23.1399Z" fill="white"/>
<rect x="99.5" y="60.5" width="103" height="36" rx="18" fill="#FFB546"/>
<g filter="url(#filter4_d_910_348)">
<rect x="108" y="69" width="18" height="18" rx="9" fill="white" shape-rendering="crispEdges"/>
<path d="M120.999 75.5L116.187 80.5L113.999 78.2273" stroke="#FFB546" stroke-width="2" stroke-linecap="round" stroke-linejoin="round"/>
</g>
<path d="M140.674 84.363L140.781 73.1635L143.164 73.1759L143.122 77.6237L147.922 77.6487L147.964 73.2009L150.348 73.2133L150.242 84.4128L147.858 84.4004L147.903 79.6326L143.103 79.6076L143.058 84.3754L140.674 84.363ZM155.454 84.4399L155.542 75.2244L151.942 75.2056L151.961 73.2217L161.544 73.2716L161.526 75.2555L157.926 75.2368L157.838 84.4523L155.454 84.4399ZM163.049 84.4795L163.155 73.28L165.539 73.2924L168.887 79.6138L172.339 73.3278L174.659 73.3398L174.553 84.5393L172.153 84.5269L172.22 77.4072L169.518 82.2731L168.094 82.2657L165.5 77.3722L165.433 84.4919L163.049 84.4795ZM177.111 84.5527L177.218 73.3532L179.601 73.3656L179.514 82.5812L184.634 82.6078L184.615 84.5917L177.111 84.5527Z" fill="white"/>
<rect x="226.5" y="60.5" width="89" height="36" rx="18" fill="#0B99FF"/>
<g filter="url(#filter5_d_910_348)">
<rect x="236" y="69" width="18" height="18" rx="9" fill="white" shape-rendering="crispEdges"/>
<path d="M248.999 75.5L244.187 80.5L241.999 78.2273" stroke="#0B99FF" stroke-width="2" stroke-linecap="round" stroke-linejoin="round"/>
</g>
<path d="M272.875 84.6185C271.904 84.6135 271.037 84.4169 270.272 84.029C269.519 83.6304 268.927 83.014 268.498 82.1797C268.079 81.3349 267.876 80.2351 267.889 78.8805L267.892 78.5606C267.902 77.5793 268.038 76.7426 268.3 76.0507C268.563 75.348 268.926 74.7739 269.389 74.3283C269.862 73.8828 270.404 73.5549 271.014 73.3448C271.624 73.1346 272.281 73.0314 272.985 73.035C273.614 73.0383 274.2 73.1214 274.743 73.2842C275.296 73.4364 275.784 73.6683 276.208 73.9798C276.632 74.2914 276.969 74.6931 277.221 75.1851C277.483 75.6771 277.632 76.2539 277.668 76.9154L275.172 76.9024C275.061 76.2725 274.809 75.8072 274.418 75.5065C274.026 75.2058 273.542 75.0539 272.966 75.0509C272.518 75.0486 272.101 75.1584 271.715 75.3804C271.329 75.5918 271.011 75.9528 270.76 76.4635C270.521 76.9742 270.397 77.6776 270.388 78.5735L270.385 78.8935C270.379 79.5975 270.448 80.1899 270.592 80.6706C270.737 81.1407 270.931 81.5204 271.174 81.8096C271.416 82.0882 271.686 82.2923 271.984 82.4219C272.281 82.5407 272.585 82.601 272.894 82.6026C273.502 82.6058 274.005 82.4537 274.402 82.1465C274.8 81.8285 275.045 81.3711 275.136 80.7743L277.632 80.7873C277.572 81.4803 277.411 82.0768 277.15 82.5768C276.89 83.0661 276.55 83.4643 276.131 83.7715C275.712 84.0679 275.225 84.2841 274.669 84.4198C274.113 84.5556 273.515 84.6218 272.875 84.6185ZM283.502 84.6738C282.51 84.6687 281.685 84.5257 281.026 84.2449C280.368 83.9642 279.865 83.5776 279.517 83.0851C279.181 82.582 279 81.9997 278.974 81.3382L281.374 81.3507C281.455 81.7672 281.644 82.0881 281.941 82.3137C282.248 82.5393 282.775 82.654 283.521 82.6579C284.289 82.6619 284.84 82.5634 285.172 82.3625C285.516 82.151 285.689 81.8532 285.693 81.4692C285.696 81.1492 285.597 80.8874 285.396 80.6837C285.206 80.48 284.909 80.3078 284.505 80.167C284.101 80.0156 283.575 79.8742 282.925 79.7428C282.169 79.5895 281.521 79.3782 280.979 79.1087C280.438 78.8392 280.025 78.4744 279.741 78.0142C279.468 77.5541 279.335 76.9721 279.342 76.2681C279.348 75.6175 279.524 75.0584 279.87 74.5909C280.216 74.1127 280.71 73.7419 281.353 73.4786C281.995 73.2153 282.748 73.0859 283.612 73.0903C284.551 73.0952 285.318 73.2326 285.913 73.5023C286.518 73.7615 286.973 74.1265 287.278 74.5974C287.594 75.0684 287.775 75.624 287.822 76.2643L285.438 76.2519C285.357 75.8674 285.183 75.5839 284.919 75.4012C284.654 75.2078 284.212 75.1095 283.593 75.1063C282.964 75.103 282.499 75.2019 282.198 75.403C281.898 75.6041 281.746 75.8753 281.743 76.2166C281.739 76.6326 281.938 76.959 282.341 77.1958C282.755 77.4326 283.404 77.6386 284.288 77.8139C284.894 77.9344 285.432 78.0812 285.899 78.2543C286.378 78.4274 286.781 78.6535 287.109 78.9326C287.437 79.2009 287.685 79.5276 287.852 79.9124C288.019 80.2973 288.1 80.7617 288.094 81.3057C288.088 81.9883 287.901 82.5847 287.533 83.0948C287.177 83.6049 286.655 83.9969 285.97 84.2707C285.296 84.5445 284.473 84.6789 283.502 84.6738ZM294.049 84.7287C293.057 84.7236 292.232 84.5806 291.573 84.2998C290.914 84.0191 290.411 83.6324 290.064 83.14C289.727 82.6369 289.546 82.0546 289.521 81.3931L291.921 81.4056C292.002 81.822 292.191 82.143 292.487 82.3686C292.795 82.5942 293.322 82.7089 294.068 82.7128C294.836 82.7168 295.386 82.6183 295.719 82.4174C296.062 82.2059 296.236 81.9081 296.24 81.5241C296.243 81.2041 296.144 80.9423 295.943 80.7386C295.753 80.5349 295.456 80.3627 295.052 80.2219C294.648 80.0705 294.121 79.9291 293.472 79.7977C292.716 79.6444 292.067 79.433 291.526 79.1636C290.984 78.8941 290.572 78.5293 290.288 78.0691C290.015 77.609 289.882 77.027 289.889 76.323C289.895 75.6724 290.071 75.1133 290.417 74.6458C290.763 74.1676 291.257 73.7968 291.899 73.5335C292.542 73.2702 293.295 73.1407 294.159 73.1452C295.098 73.1501 295.865 73.2874 296.459 73.5572C297.065 73.8164 297.52 74.1814 297.825 74.6523C298.14 75.1233 298.322 75.6789 298.369 76.3192L295.985 76.3068C295.903 75.9223 295.73 75.6388 295.465 75.456C295.2 75.2627 294.759 75.1644 294.14 75.1611C293.511 75.1579 293.046 75.2568 292.745 75.4579C292.445 75.659 292.293 75.9302 292.289 76.2715C292.285 76.6875 292.485 77.0139 292.888 77.2506C293.302 77.4875 293.951 77.6935 294.834 77.8688C295.441 77.9893 295.978 78.1361 296.446 78.3092C296.925 78.4823 297.328 78.7084 297.656 78.9875C297.984 79.2558 298.231 79.5825 298.398 79.9673C298.565 80.3522 298.646 80.8166 298.641 81.3606C298.635 82.0432 298.448 82.6396 298.08 83.1497C297.723 83.6598 297.202 84.0518 296.517 84.3256C295.842 84.5994 295.02 84.7338 294.049 84.7287Z" fill="white"/>
<rect x="339.5" y="60.5" width="146" height="36" rx="18" fill="#0B99FF"/>
<g filter="url(#filter6_d_910_348)">
<rect x="351" y="69" width="18" height="18" rx="9" fill="white" shape-rendering="crispEdges"/>
<path d="M363.999 75.5L359.187 80.5L356.999 78.2273" stroke="#0B99FF" stroke-width="2" stroke-linecap="round" stroke-linejoin="round"/>
</g>
<path d="M388.291 84.2908L385.518 73.0763L388.014 73.0893L389.683 81.002L391.918 73.1096L394.158 73.1213L396.29 81.0684L398.254 73.1426L400.558 73.1546L397.555 84.339L395.171 84.3266L392.927 76.3149L390.675 84.3032L388.291 84.2908ZM405.061 84.5701C404.293 84.5661 403.585 84.4077 402.938 84.095C402.301 83.7717 401.793 83.2837 401.416 82.6311C401.038 81.9784 400.853 81.1668 400.863 80.1962L400.866 79.8762C400.874 78.9589 401.074 78.1919 401.464 77.5753C401.854 76.948 402.37 76.4813 403.013 76.1754C403.667 75.8588 404.378 75.7025 405.146 75.7065C405.924 75.7105 406.632 75.8742 407.269 76.1975C407.906 76.5102 408.414 76.9821 408.792 77.6134C409.17 78.2341 409.354 79.003 409.346 79.9203L409.343 80.2403C409.334 81.1896 409.134 81.9886 408.744 82.6372C408.354 83.2859 407.837 83.7738 407.194 84.1012C406.551 84.4178 405.84 84.5741 405.061 84.5701ZM405.078 82.7781C405.484 82.7802 405.842 82.6914 406.153 82.5117C406.475 82.3214 406.728 82.0347 406.913 81.6517C407.098 81.2686 407.193 80.7945 407.199 80.2292L407.202 79.9092C407.207 79.3865 407.12 78.9487 406.942 78.5958C406.764 78.2429 406.516 77.9749 406.198 77.7919C405.89 77.5983 405.534 77.5005 405.128 77.4984C404.723 77.4963 404.36 77.5904 404.038 77.7807C403.727 77.9604 403.479 78.2258 403.294 78.5768C403.109 78.9279 403.015 79.3647 403.01 79.8874L403.007 80.2073C403.001 80.7833 403.087 81.2638 403.265 81.6487C403.443 82.023 403.685 82.3069 403.993 82.5005C404.311 82.6835 404.673 82.776 405.078 82.7781ZM410.833 84.4081L410.913 75.9285L412.833 75.9385L412.821 77.2024C412.941 76.9577 413.103 76.7292 413.308 76.5169C413.513 76.3047 413.765 76.1247 414.065 75.9769C414.365 75.8291 414.696 75.7562 415.059 75.7581C415.262 75.7591 415.432 75.7707 415.571 75.7927C415.72 75.8148 415.816 75.8367 415.858 75.8582L415.84 77.7301C415.734 77.6869 415.596 77.6489 415.425 77.616C415.266 77.5725 415.047 77.55 414.77 77.5486C414.343 77.5463 413.996 77.6352 413.728 77.8151C413.47 77.9951 413.281 78.2341 413.161 78.5322C413.041 78.8196 412.979 79.1339 412.976 79.4752L412.929 84.419L410.833 84.4081ZM420.093 84.6483C419.357 84.6445 418.718 84.4811 418.177 84.1583C417.647 83.8356 417.236 83.3534 416.943 82.7119C416.661 82.0598 416.525 81.2484 416.534 80.2777L416.537 79.9578C416.546 79.0405 416.697 78.2733 416.991 77.6561C417.296 77.039 417.722 76.5719 418.269 76.2548C418.816 75.9376 419.452 75.7809 420.177 75.7847C420.764 75.7877 421.275 75.9184 421.71 76.1767C422.155 76.4243 422.509 76.7568 422.772 77.1742L422.809 73.2704L424.905 73.2813L424.799 84.4808L422.847 84.4706L422.859 83.2227C422.642 83.6055 422.302 83.9398 421.841 84.2254C421.38 84.511 420.797 84.652 420.093 84.6483ZM420.606 82.859C421.033 82.8612 421.401 82.7831 421.712 82.6247C422.034 82.4664 422.281 82.2223 422.455 81.8926C422.64 81.5522 422.734 81.1314 422.739 80.63L422.748 79.6701C422.753 79.2008 422.666 78.8163 422.487 78.5167C422.309 78.2065 422.055 77.9758 421.726 77.8248C421.407 77.6631 421.051 77.5812 420.656 77.5792C420.08 77.5762 419.609 77.7764 419.242 78.1798C418.876 78.5726 418.689 79.169 418.681 79.9689L418.678 80.2889C418.67 81.1635 418.851 81.8098 419.22 82.2277C419.589 82.6457 420.051 82.8561 420.606 82.859ZM426.724 87.6908L426.835 76.0113L428.787 76.0215L428.775 77.2694C428.992 76.8866 429.331 76.5523 429.793 76.2667C430.254 75.9811 430.837 75.8402 431.541 75.8438C432.671 75.8497 433.548 76.2063 434.171 76.9135C434.804 77.6102 435.114 78.6571 435.101 80.0544L435.098 80.3744C435.089 81.345 434.932 82.1548 434.627 82.8039C434.333 83.4424 433.917 83.9202 433.381 84.2374C432.845 84.5547 432.203 84.7113 431.457 84.7074C430.881 84.7044 430.37 84.5791 429.924 84.3315C429.489 84.0732 429.135 83.7407 428.861 83.3339L428.82 87.7017L426.724 87.6908ZM430.978 82.9129C431.532 82.9158 431.998 82.7102 432.375 82.2962C432.753 81.8715 432.946 81.2272 432.954 80.3632L432.957 80.0432C432.965 79.2433 432.789 78.645 432.43 78.2485C432.082 77.8413 431.614 77.6362 431.028 77.6332C430.633 77.6311 430.27 77.7092 429.937 77.8675C429.616 78.0152 429.363 78.2432 429.179 78.5516C428.995 78.8493 428.9 79.2328 428.896 79.7021L428.887 80.662C428.882 81.1634 428.963 81.5851 429.131 81.9273C429.309 82.2589 429.557 82.5055 429.876 82.6672C430.194 82.8289 430.562 82.9108 430.978 82.9129ZM436.598 84.5422L436.679 76.0626L438.599 76.0726L438.587 77.3365C438.706 77.0918 438.868 76.8633 439.073 76.651C439.278 76.4388 439.53 76.2587 439.83 76.111C440.13 75.9632 440.462 75.8903 440.824 75.8921C441.027 75.8932 441.198 75.9048 441.336 75.9268C441.485 75.9489 441.581 75.9708 441.623 75.9923L441.606 77.8642C441.499 77.821 441.361 77.783 441.191 77.7501C441.031 77.7066 440.813 77.6841 440.535 77.6827C440.109 77.6804 439.761 77.7693 439.493 77.9492C439.235 78.1292 439.046 78.3682 438.926 78.6663C438.806 78.9537 438.744 79.268 438.741 79.6093L438.694 84.5531L436.598 84.5422ZM446.498 84.7857C445.73 84.7817 445.022 84.6234 444.375 84.3107C443.738 83.9873 443.23 83.5047 442.852 82.8627C442.475 82.2101 442.29 81.3931 442.3 80.4118L442.303 80.0919C442.312 79.1532 442.5 78.3755 442.869 77.7588C443.248 77.1421 443.748 76.6807 444.37 76.3746C444.992 76.0685 445.676 75.9174 446.422 75.9213C447.756 75.9282 448.766 76.2855 449.452 76.9931C450.139 77.7006 450.476 78.7211 450.463 80.0543L450.455 80.9503L444.455 80.9191C444.471 81.4205 444.574 81.8317 444.763 82.1527C444.963 82.463 445.217 82.6937 445.525 82.8446C445.833 82.9849 446.163 83.056 446.515 83.0578C447.059 83.0606 447.47 82.9828 447.749 82.8242C448.028 82.6657 448.227 82.432 448.348 82.1233L450.284 82.1334C450.104 83.0178 449.677 83.6823 449.001 84.1267C448.324 84.5712 447.49 84.7909 446.498 84.7857ZM446.486 77.6496C446.155 77.6479 445.835 77.6996 445.525 77.8046C445.214 77.9097 444.967 78.1004 444.783 78.3768C444.599 78.6425 444.494 78.9993 444.469 79.4471L448.421 79.4677C448.415 78.9877 448.322 78.6192 448.143 78.3623C447.975 78.0947 447.748 77.9122 447.46 77.8147C447.174 77.7065 446.849 77.6515 446.486 77.6496ZM455.379 84.8319C454.686 84.8283 454.105 84.756 453.637 84.6149C453.169 84.4631 452.782 84.2638 452.475 84.0168C452.179 83.7593 451.957 83.4701 451.811 83.1494C451.676 82.8287 451.593 82.4922 451.565 82.1401L453.677 82.1511C453.727 82.4287 453.891 82.6588 454.166 82.8416C454.442 83.0137 454.852 83.1012 455.396 83.104C456.014 83.1072 456.458 83.0242 456.726 82.8549C456.994 82.6857 457.13 82.4677 457.132 82.2011C457.134 82.0091 457.077 81.8541 456.961 81.7362C456.845 81.6076 456.638 81.4998 456.34 81.4129C456.042 81.3154 455.622 81.2172 455.079 81.1184C454.61 81.0519 454.179 80.9643 453.785 80.8556C453.392 80.7362 453.046 80.5744 452.75 80.3702C452.464 80.1661 452.237 79.9142 452.069 79.6147C451.912 79.3045 451.835 78.9308 451.839 78.4935C451.844 78.0242 451.987 77.5983 452.268 77.2157C452.559 76.8332 452.973 76.5314 453.508 76.3102C454.054 76.0783 454.706 75.9644 455.464 75.9683C456.285 75.9726 456.94 76.104 457.428 76.3626C457.916 76.6211 458.281 76.9537 458.522 77.3603C458.764 77.7669 458.909 78.1996 458.958 78.6585L456.846 78.6475C456.764 78.3378 456.601 78.1023 456.357 77.941C456.113 77.7797 455.81 77.6981 455.447 77.6963C454.914 77.6935 454.529 77.7768 454.293 77.9463C454.067 78.1051 453.953 78.3072 453.951 78.5525C453.949 78.8085 454.069 79.0064 454.313 79.1464C454.568 79.2864 455.084 79.4117 455.862 79.5224C456.341 79.5889 456.783 79.6872 457.187 79.8173C457.602 79.9368 457.963 80.0987 458.27 80.303C458.578 80.5072 458.815 80.7645 458.983 81.0747C459.162 81.3743 459.249 81.7427 459.245 82.18C459.24 82.7027 459.091 83.1659 458.799 83.5697C458.518 83.9629 458.089 84.2754 457.51 84.507C456.943 84.7281 456.233 84.8364 455.379 84.8319ZM464.16 84.8776C463.467 84.874 462.886 84.8017 462.418 84.6606C461.951 84.5088 461.563 84.3095 461.256 84.0625C460.96 83.805 460.739 83.5158 460.592 83.1951C460.457 82.8744 460.375 82.5379 460.346 82.1858L462.458 82.1968C462.509 82.4744 462.672 82.7046 462.947 82.8873C463.223 83.0594 463.633 83.1469 464.177 83.1497C464.796 83.1529 465.239 83.0699 465.507 82.9006C465.776 82.7314 465.911 82.5134 465.914 82.2468C465.915 82.0548 465.858 81.8998 465.742 81.7819C465.626 81.6533 465.419 81.5455 465.121 81.4586C464.823 81.3611 464.403 81.2629 463.86 81.1641C463.391 81.0976 462.96 81.01 462.566 80.9013C462.173 80.7819 461.827 80.6201 461.531 80.4159C461.245 80.2118 461.018 79.9599 460.85 79.6604C460.693 79.3502 460.616 78.9765 460.621 78.5392C460.625 78.0699 460.768 77.644 461.049 77.2614C461.34 76.8789 461.754 76.5771 462.289 76.3559C462.836 76.124 463.487 76.0101 464.245 76.014C465.066 76.0183 465.721 76.1497 466.209 76.4083C466.697 76.6668 467.062 76.9994 467.304 77.406C467.545 77.8126 467.69 78.2453 467.739 78.7042L465.627 78.6932C465.545 78.3835 465.382 78.148 465.138 77.9867C464.894 77.8254 464.591 77.7439 464.228 77.742C463.695 77.7392 463.31 77.8225 463.074 77.992C462.848 78.1508 462.734 78.3529 462.732 78.5982C462.73 78.8542 462.85 79.0521 463.094 79.1921C463.349 79.3321 463.865 79.4574 464.643 79.5681C465.122 79.6346 465.564 79.7329 465.968 79.863C466.383 79.9825 466.744 80.1444 467.052 80.3487C467.359 80.5529 467.597 80.8102 467.764 81.1204C467.943 81.42 468.03 81.7884 468.026 82.2257C468.021 82.7484 467.872 83.2116 467.581 83.6154C467.299 84.0086 466.87 84.3211 466.292 84.5527C465.724 84.7738 465.014 84.8821 464.16 84.8776Z" fill="white"/>
<rect x="152.5" y="120.5" width="153" height="36" rx="18" fill="#0B99FF"/>
<g filter="url(#filter7_d_910_348)">
<rect x="167.5" y="129" width="18" height="18" rx="9" fill="white" shape-rendering="crispEdges"/>
<path d="M180.499 135.5L175.687 140.5L173.499 138.227" stroke="#0B99FF" stroke-width="2" stroke-linecap="round" stroke-linejoin="round"/>
</g>
<path d="M197.484 144.253L193.35 133.031L195.942 133.045L198.807 141.38L201.67 133.074L204.07 133.087L199.868 144.265L197.484 144.253ZM205.251 144.293L205.332 135.814L207.428 135.824L207.347 144.304L205.251 144.293ZM206.379 135.003C206.006 135.001 205.698 134.882 205.455 134.646C205.222 134.41 205.108 134.106 205.111 133.732C205.115 133.359 205.235 133.056 205.472 132.822C205.72 132.589 206.025 132.473 206.387 132.475C206.771 132.477 207.08 132.596 207.312 132.832C207.555 133.068 207.675 133.372 207.671 133.746C207.668 134.119 207.542 134.422 207.295 134.656C207.058 134.889 206.753 135.005 206.379 135.003ZM212.617 144.523C211.881 144.52 211.242 144.356 210.701 144.034C210.171 143.711 209.76 143.229 209.467 142.587C209.185 141.935 209.049 141.124 209.058 140.153L209.061 139.833C209.07 138.916 209.221 138.148 209.515 137.531C209.82 136.914 210.245 136.447 210.793 136.13C211.34 135.813 211.976 135.656 212.701 135.66C213.288 135.663 213.798 135.794 214.233 136.052C214.679 136.3 215.033 136.632 215.296 137.049L215.333 133.146L217.429 133.156L217.323 144.356L215.371 144.346L215.382 143.098C215.165 143.481 214.826 143.815 214.365 144.101C213.903 144.386 213.321 144.527 212.617 144.523ZM213.13 142.734C213.556 142.736 213.925 142.658 214.236 142.5C214.558 142.342 214.805 142.098 214.979 141.768C215.164 141.427 215.258 141.007 215.263 140.505L215.272 139.545C215.277 139.076 215.19 138.692 215.011 138.392C214.833 138.082 214.579 137.851 214.25 137.7C213.931 137.538 213.575 137.456 213.18 137.454C212.604 137.451 212.133 137.652 211.766 138.055C211.4 138.448 211.213 139.044 211.205 139.844L211.202 140.164C211.194 141.039 211.374 141.685 211.744 142.103C212.113 142.521 212.575 142.731 213.13 142.734ZM223.1 144.578C222.332 144.574 221.625 144.416 220.977 144.103C220.34 143.78 219.832 143.297 219.455 142.655C219.077 142.002 218.892 141.185 218.902 140.204L218.905 139.884C218.914 138.946 219.103 138.168 219.471 137.551C219.85 136.934 220.351 136.473 220.972 136.167C221.594 135.861 222.278 135.71 223.025 135.714C224.358 135.721 225.368 136.078 226.055 136.785C226.741 137.493 227.078 138.513 227.066 139.847L227.057 140.743L221.057 140.711C221.074 141.213 221.176 141.624 221.365 141.945C221.565 142.255 221.819 142.486 222.127 142.637C222.435 142.777 222.765 142.848 223.117 142.85C223.661 142.853 224.072 142.775 224.351 142.617C224.63 142.458 224.829 142.224 224.95 141.916L226.886 141.926C226.707 142.81 226.279 143.475 225.603 143.919C224.926 144.364 224.092 144.583 223.1 144.578ZM223.088 137.442C222.758 137.44 222.437 137.492 222.127 137.597C221.816 137.702 221.569 137.893 221.385 138.169C221.201 138.435 221.097 138.792 221.071 139.239L225.023 139.26C225.017 138.78 224.924 138.412 224.746 138.155C224.577 137.887 224.35 137.705 224.063 137.607C223.776 137.499 223.451 137.444 223.088 137.442ZM232.382 144.626C231.614 144.622 230.906 144.464 230.258 144.151C229.621 143.828 229.114 143.34 228.736 142.687C228.358 142.035 228.174 141.223 228.183 140.252L228.186 139.933C228.195 139.015 228.394 138.248 228.784 137.632C229.174 137.004 229.69 136.538 230.333 136.232C230.987 135.915 231.698 135.759 232.466 135.763C233.244 135.767 233.952 135.931 234.589 136.254C235.226 136.566 235.734 137.038 236.112 137.67C236.49 138.29 236.675 139.059 236.666 139.977L236.663 140.297C236.654 141.246 236.454 142.045 236.064 142.694C235.674 143.342 235.157 143.83 234.514 144.157C233.871 144.474 233.16 144.63 232.382 144.626ZM232.399 142.834C232.804 142.837 233.162 142.748 233.473 142.568C233.795 142.378 234.048 142.091 234.233 141.708C234.418 141.325 234.513 140.851 234.519 140.285L234.522 139.965C234.527 139.443 234.44 139.005 234.262 138.652C234.084 138.299 233.836 138.031 233.518 137.848C233.211 137.655 232.854 137.557 232.449 137.555C232.043 137.553 231.68 137.647 231.358 137.837C231.047 138.017 230.799 138.282 230.614 138.633C230.43 138.984 230.335 139.421 230.33 139.944L230.327 140.264C230.321 140.84 230.408 141.32 230.585 141.705C230.763 142.079 231.006 142.363 231.313 142.557C231.631 142.74 231.993 142.832 232.399 142.834ZM242.473 144.487L242.579 133.287L250.387 133.328L250.368 135.312L244.961 135.284L244.937 137.78L249.865 137.805L249.846 139.725L244.919 139.7L244.892 142.515L250.3 142.544L250.281 144.528L242.473 144.487ZM255.179 144.745C254.443 144.741 253.804 144.578 253.263 144.255C252.733 143.932 252.322 143.45 252.029 142.809C251.747 142.156 251.611 141.345 251.62 140.374L251.623 140.054C251.632 139.137 251.783 138.37 252.077 137.753C252.382 137.136 252.807 136.669 253.354 136.351C253.901 136.034 254.538 135.878 255.263 135.881C255.85 135.884 256.36 136.015 256.795 136.273C257.241 136.521 257.595 136.854 257.858 137.271L257.895 133.367L259.991 133.378L259.884 144.578L257.932 144.567L257.944 143.319C257.727 143.702 257.388 144.037 256.927 144.322C256.465 144.608 255.883 144.749 255.179 144.745ZM255.692 142.956C256.118 142.958 256.487 142.88 256.798 142.721C257.12 142.563 257.367 142.319 257.541 141.989C257.726 141.649 257.82 141.228 257.825 140.727L257.834 139.767C257.839 139.298 257.752 138.913 257.573 138.613C257.395 138.303 257.141 138.073 256.812 137.921C256.493 137.76 256.137 137.678 255.742 137.676C255.166 137.673 254.695 137.873 254.328 138.277C253.962 138.669 253.775 139.266 253.767 140.066L253.764 140.386C253.756 141.26 253.936 141.907 254.306 142.324C254.675 142.742 255.137 142.953 255.692 142.956ZM262 144.589L262.081 136.109L264.177 136.12L264.096 144.599L262 144.589ZM263.129 135.298C262.755 135.296 262.447 135.177 262.204 134.942C261.971 134.706 261.857 134.401 261.861 134.028C261.864 133.654 261.984 133.351 262.221 133.118C262.469 132.884 262.774 132.768 263.137 132.77C263.521 132.772 263.829 132.891 264.061 133.127C264.304 133.363 264.424 133.668 264.421 134.041C264.417 134.414 264.291 134.718 264.044 134.951C263.807 135.185 263.502 135.3 263.129 135.298ZM269.607 144.724C268.946 144.721 268.402 144.627 267.978 144.444C267.553 144.249 267.241 143.944 267.042 143.527C266.854 143.11 266.763 142.571 266.77 141.909L266.808 137.894L265.672 137.888L265.689 136.128L266.825 136.134L266.843 134.214L268.939 134.225L268.92 136.144L270.968 136.155L270.952 137.915L268.904 137.904L268.869 141.584C268.864 142.064 268.946 142.411 269.115 142.626C269.294 142.829 269.624 142.932 270.104 142.935C270.424 142.936 270.744 142.922 271.064 142.892L271.048 144.652C270.845 144.672 270.631 144.687 270.407 144.696C270.194 144.716 269.927 144.726 269.607 144.724ZM272.75 144.644L272.831 136.165L274.927 136.176L274.846 144.655L272.75 144.644ZM273.878 135.354C273.505 135.352 273.197 135.233 272.954 134.997C272.721 134.762 272.607 134.457 272.61 134.084C272.614 133.71 272.734 133.407 272.971 133.174C273.219 132.94 273.524 132.824 273.886 132.826C274.27 132.828 274.579 132.947 274.811 133.183C275.054 133.419 275.174 133.724 275.17 134.097C275.167 134.47 275.041 134.774 274.794 135.007C274.557 135.24 274.252 135.356 273.878 135.354ZM276.934 144.666L277.014 136.187L278.934 136.197L278.922 137.445C279.139 137.062 279.473 136.727 279.924 136.442C280.375 136.156 280.989 136.015 281.768 136.019C282.803 136.025 283.568 136.306 284.064 136.863C284.571 137.421 284.819 138.222 284.809 139.267L284.758 144.707L282.646 144.696L282.693 139.736C282.699 139.107 282.57 138.632 282.306 138.31C282.054 137.978 281.612 137.811 280.983 137.807C280.535 137.805 280.172 137.894 279.893 138.074C279.613 138.253 279.409 138.487 279.278 138.774C279.147 139.062 279.08 139.376 279.077 139.717L279.03 144.677L276.934 144.666ZM290.253 148.128C289.357 148.123 288.643 148.007 288.112 147.78C287.581 147.564 287.189 147.264 286.937 146.878C286.695 146.493 286.555 146.039 286.517 145.516L288.661 145.527C288.723 145.752 288.865 145.96 289.088 146.154C289.31 146.357 289.703 146.461 290.269 146.464C290.983 146.467 291.518 146.299 291.873 145.96C292.229 145.621 292.41 145.109 292.416 144.427L292.426 143.403C292.155 143.817 291.795 144.152 291.344 144.405C290.894 144.648 290.381 144.768 289.805 144.765C289.069 144.761 288.43 144.598 287.889 144.275C287.359 143.952 286.948 143.476 286.655 142.845C286.373 142.203 286.237 141.413 286.245 140.475L286.248 140.155C286.257 139.269 286.408 138.524 286.702 137.917C287.006 137.311 287.432 136.849 287.979 136.532C288.526 136.215 289.162 136.058 289.888 136.062C290.592 136.065 291.171 136.212 291.627 136.503C292.083 136.793 292.416 137.131 292.626 137.516L292.638 136.268L294.59 136.278L294.514 144.278C294.502 145.536 294.146 146.494 293.446 147.152C292.747 147.81 291.682 148.135 290.253 148.128ZM290.318 142.976C290.744 142.978 291.113 142.905 291.424 142.758C291.745 142.599 291.993 142.355 292.167 142.026C292.351 141.696 292.446 141.296 292.45 140.827L292.459 139.867C292.464 139.419 292.377 139.051 292.198 138.762C292.019 138.473 291.765 138.253 291.436 138.102C291.118 137.94 290.761 137.858 290.366 137.856C289.79 137.853 289.319 138.048 288.953 138.441C288.587 138.823 288.4 139.398 288.392 140.166L288.389 140.486C288.382 141.307 288.562 141.927 288.932 142.345C289.301 142.763 289.763 142.973 290.318 142.976Z" fill="white"/>
<rect x="329.5" y="120.5" width="103" height="36" rx="18" fill="#FFB546"/>
<g filter="url(#filter8_d_910_348)">
<rect x="338" y="129" width="18" height="18" rx="9" fill="white" shape-rendering="crispEdges"/>
<path d="M350.999 135.5L346.187 140.5L343.999 138.227" stroke="#FFB546" stroke-width="2" stroke-linecap="round" stroke-linejoin="round"/>
</g>
<path d="M370.674 144.363L370.781 133.164L373.164 133.176L373.122 137.624L377.922 137.649L377.964 133.201L380.348 133.213L380.242 144.413L377.858 144.4L377.903 139.633L373.103 139.608L373.058 144.375L370.674 144.363ZM385.454 144.44L385.542 135.224L381.942 135.206L381.961 133.222L391.544 133.272L391.526 135.256L387.926 135.237L387.838 144.452L385.454 144.44ZM393.049 144.479L393.155 133.28L395.539 133.292L398.887 139.614L402.339 133.328L404.659 133.34L404.553 144.539L402.153 144.527L402.22 137.407L399.518 142.273L398.094 142.266L395.5 137.372L395.433 144.492L393.049 144.479ZM407.111 144.553L407.218 133.353L409.601 133.366L409.514 142.581L414.634 142.608L414.615 144.592L407.111 144.553Z" fill="white"/>
<defs>
<filter id="filter0_d_910_348" x="6.00072" y="3" width="34" height="34" filterUnits="userSpaceOnUse" color-interpolation-filters="sRGB">
<feFlood flood-opacity="0" result="BackgroundImageFix"/>
<feColorMatrix in="SourceAlpha" type="matrix" values="0 0 0 0 0 0 0 0 0 0 0 0 0 0 0 0 0 0 127 0" result="hardAlpha"/>
<feOffset dy="2"/>
<feGaussianBlur stdDeviation="4"/>
<feComposite in2="hardAlpha" operator="out"/>
<feColorMatrix type="matrix" values="0 0 0 0 0.227451 0 0 0 0 0.482353 0 0 0 0 1 0 0 0 0.5 0"/>
<feBlend mode="normal" in2="BackgroundImageFix" result="effect1_dropShadow_910_348"/>
<feBlend mode="normal" in="SourceGraphic" in2="effect1_dropShadow_910_348" result="shape"/>
</filter>
<filter id="filter1_d_910_348" x="144" y="3" width="34" height="34" filterUnits="userSpaceOnUse" color-interpolation-filters="sRGB">
<feFlood flood-opacity="0" result="BackgroundImageFix"/>
<feColorMatrix in="SourceAlpha" type="matrix" values="0 0 0 0 0 0 0 0 0 0 0 0 0 0 0 0 0 0 127 0" result="hardAlpha"/>
<feOffset dy="2"/>
<feGaussianBlur stdDeviation="4"/>
<feComposite in2="hardAlpha" operator="out"/>
<feColorMatrix type="matrix" values="0 0 0 0 0.227451 0 0 0 0 0.482353 0 0 0 0 1 0 0 0 0.5 0"/>
<feBlend mode="normal" in2="BackgroundImageFix" result="effect1_dropShadow_910_348"/>
<feBlend mode="normal" in="SourceGraphic" in2="effect1_dropShadow_910_348" result="shape"/>
</filter>
<filter id="filter2_d_910_348" x="314" y="3" width="34" height="34" filterUnits="userSpaceOnUse" color-interpolation-filters="sRGB">
<feFlood flood-opacity="0" result="BackgroundImageFix"/>
<feColorMatrix in="SourceAlpha" type="matrix" values="0 0 0 0 0 0 0 0 0 0 0 0 0 0 0 0 0 0 127 0" result="hardAlpha"/>
<feOffset dy="2"/>
<feGaussianBlur stdDeviation="4"/>
<feComposite in2="hardAlpha" operator="out"/>
<feColorMatrix type="matrix" values="0 0 0 0 0.227451 0 0 0 0 0.482353 0 0 0 0 1 0 0 0 0.5 0"/>
<feBlend mode="normal" in2="BackgroundImageFix" result="effect1_dropShadow_910_348"/>
<feBlend mode="normal" in="SourceGraphic" in2="effect1_dropShadow_910_348" result="shape"/>
</filter>
<filter id="filter3_d_910_348" x="481" y="3" width="34" height="34" filterUnits="userSpaceOnUse" color-interpolation-filters="sRGB">
<feFlood flood-opacity="0" result="BackgroundImageFix"/>
<feColorMatrix in="SourceAlpha" type="matrix" values="0 0 0 0 0 0 0 0 0 0 0 0 0 0 0 0 0 0 127 0" result="hardAlpha"/>
<feOffset dy="2"/>
<feGaussianBlur stdDeviation="4"/>
<feComposite in2="hardAlpha" operator="out"/>
<feColorMatrix type="matrix" values="0 0 0 0 0.227451 0 0 0 0 0.482353 0 0 0 0 1 0 0 0 0.5 0"/>
<feBlend mode="normal" in2="BackgroundImageFix" result="effect1_dropShadow_910_348"/>
<feBlend mode="normal" in="SourceGraphic" in2="effect1_dropShadow_910_348" result="shape"/>
</filter>
<filter id="filter4_d_910_348" x="100" y="63" width="34" height="34" filterUnits="userSpaceOnUse" color-interpolation-filters="sRGB">
<feFlood flood-opacity="0" result="BackgroundImageFix"/>
<feColorMatrix in="SourceAlpha" type="matrix" values="0 0 0 0 0 0 0 0 0 0 0 0 0 0 0 0 0 0 127 0" result="hardAlpha"/>
<feOffset dy="2"/>
<feGaussianBlur stdDeviation="4"/>
<feComposite in2="hardAlpha" operator="out"/>
<feColorMatrix type="matrix" values="0 0 0 0 0.227451 0 0 0 0 0.482353 0 0 0 0 1 0 0 0 0.5 0"/>
<feBlend mode="normal" in2="BackgroundImageFix" result="effect1_dropShadow_910_348"/>
<feBlend mode="normal" in="SourceGraphic" in2="effect1_dropShadow_910_348" result="shape"/>
</filter>
<filter id="filter5_d_910_348" x="228" y="63" width="34" height="34" filterUnits="userSpaceOnUse" color-interpolation-filters="sRGB">
<feFlood flood-opacity="0" result="BackgroundImageFix"/>
<feColorMatrix in="SourceAlpha" type="matrix" values="0 0 0 0 0 0 0 0 0 0 0 0 0 0 0 0 0 0 127 0" result="hardAlpha"/>
<feOffset dy="2"/>
<feGaussianBlur stdDeviation="4"/>
<feComposite in2="hardAlpha" operator="out"/>
<feColorMatrix type="matrix" values="0 0 0 0 0.227451 0 0 0 0 0.482353 0 0 0 0 1 0 0 0 0.5 0"/>
<feBlend mode="normal" in2="BackgroundImageFix" result="effect1_dropShadow_910_348"/>
<feBlend mode="normal" in="SourceGraphic" in2="effect1_dropShadow_910_348" result="shape"/>
</filter>
<filter id="filter6_d_910_348" x="343" y="63" width="34" height="34" filterUnits="userSpaceOnUse" color-interpolation-filters="sRGB">
<feFlood flood-opacity="0" result="BackgroundImageFix"/>
<feColorMatrix in="SourceAlpha" type="matrix" values="0 0 0 0 0 0 0 0 0 0 0 0 0 0 0 0 0 0 127 0" result="hardAlpha"/>
<feOffset dy="2"/>
<feGaussianBlur stdDeviation="4"/>
<feComposite in2="hardAlpha" operator="out"/>
<feColorMatrix type="matrix" values="0 0 0 0 0.227451 0 0 0 0 0.482353 0 0 0 0 1 0 0 0 0.5 0"/>
<feBlend mode="normal" in2="BackgroundImageFix" result="effect1_dropShadow_910_348"/>
<feBlend mode="normal" in="SourceGraphic" in2="effect1_dropShadow_910_348" result="shape"/>
</filter>
<filter id="filter7_d_910_348" x="159.5" y="123" width="34" height="34" filterUnits="userSpaceOnUse" color-interpolation-filters="sRGB">
<feFlood flood-opacity="0" result="BackgroundImageFix"/>
<feColorMatrix in="SourceAlpha" type="matrix" values="0 0 0 0 0 0 0 0 0 0 0 0 0 0 0 0 0 0 127 0" result="hardAlpha"/>
<feOffset dy="2"/>
<feGaussianBlur stdDeviation="4"/>
<feComposite in2="hardAlpha" operator="out"/>
<feColorMatrix type="matrix" values="0 0 0 0 0.227451 0 0 0 0 0.482353 0 0 0 0 1 0 0 0 0.5 0"/>
<feBlend mode="normal" in2="BackgroundImageFix" result="effect1_dropShadow_910_348"/>
<feBlend mode="normal" in="SourceGraphic" in2="effect1_dropShadow_910_348" result="shape"/>
</filter>
<filter id="filter8_d_910_348" x="330" y="123" width="34" height="34" filterUnits="userSpaceOnUse" color-interpolation-filters="sRGB">
<feFlood flood-opacity="0" result="BackgroundImageFix"/>
<feColorMatrix in="SourceAlpha" type="matrix" values="0 0 0 0 0 0 0 0 0 0 0 0 0 0 0 0 0 0 127 0" result="hardAlpha"/>
<feOffset dy="2"/>
<feGaussianBlur stdDeviation="4"/>
<feComposite in2="hardAlpha" operator="out"/>
<feColorMatrix type="matrix" values="0 0 0 0 0.227451 0 0 0 0 0.482353 0 0 0 0 1 0 0 0 0.5 0"/>
<feBlend mode="normal" in2="BackgroundImageFix" result="effect1_dropShadow_910_348"/>
<feBlend mode="normal" in="SourceGraphic" in2="effect1_dropShadow_910_348" result="shape"/>
</filter>
</defs>
</svg>
