<svg width="328" height="281" viewBox="0 0 328 281" fill="none" xmlns="http://www.w3.org/2000/svg">
<rect width="328" height="281" rx="12" fill="url(#paint0_linear_755_55)"/>
<path d="M27.8 69V56.4H29.492V67.524H35.9V69H27.8ZM37.8856 69V59.46H39.4696V69H37.8856ZM38.6776 58.2C38.3656 58.2 38.1076 58.098 37.9036 57.894C37.6996 57.69 37.5976 57.432 37.5976 57.12C37.5976 56.808 37.6996 56.55 37.9036 56.346C38.1076 56.142 38.3656 56.04 38.6776 56.04C38.9896 56.04 39.2476 56.142 39.4516 56.346C39.6556 56.55 39.7576 56.808 39.7576 57.12C39.7576 57.432 39.6556 57.69 39.4516 57.894C39.2476 58.098 38.9896 58.2 38.6776 58.2ZM45.402 69L41.442 59.46H43.206L46.302 67.38L49.11 59.46H50.802L47.202 69H45.402ZM56.2027 69.18C55.3987 69.18 54.6427 69.006 53.9347 68.658C53.2387 68.31 52.6747 67.776 52.2427 67.056C51.8227 66.336 51.6127 65.424 51.6127 64.32V63.96C51.6127 62.904 51.8167 62.034 52.2247 61.35C52.6327 60.654 53.1727 60.138 53.8447 59.802C54.5167 59.454 55.2427 59.28 56.0227 59.28C57.4267 59.28 58.5127 59.664 59.2807 60.432C60.0487 61.2 60.4327 62.286 60.4327 63.69V64.698H53.1967C53.1967 65.442 53.3467 66.036 53.6467 66.48C53.9587 66.924 54.3427 67.248 54.7987 67.452C55.2667 67.644 55.7347 67.74 56.2027 67.74C56.9227 67.74 57.4747 67.62 57.8587 67.38C58.2547 67.14 58.5367 66.81 58.7047 66.39H60.2527C60.0607 67.302 59.5867 67.998 58.8307 68.478C58.0867 68.946 57.2107 69.18 56.2027 69.18ZM56.1127 60.72C55.6207 60.72 55.1527 60.816 54.7087 61.008C54.2647 61.188 53.8987 61.476 53.6107 61.872C53.3347 62.268 53.1967 62.778 53.1967 63.402H58.9387C58.9267 62.742 58.7887 62.22 58.5247 61.836C58.2727 61.44 57.9367 61.158 57.5167 60.99C57.0967 60.81 56.6287 60.72 56.1127 60.72ZM66.4641 64.698V63.222H71.8641V64.698H66.4641ZM81.006 69L77.622 56.4H79.422L82.014 66.3L84.966 56.4H86.478L89.484 66.3L92.094 56.4H93.822L90.438 69H88.746L85.686 59.1L82.698 69H81.006ZM99.0406 69.18C98.2366 69.18 97.4806 69.006 96.7726 68.658C96.0766 68.298 95.5126 67.758 95.0806 67.038C94.6606 66.318 94.4506 65.412 94.4506 64.32V63.96C94.4506 62.928 94.6606 62.064 95.0806 61.368C95.5126 60.672 96.0766 60.15 96.7726 59.802C97.4806 59.454 98.2366 59.28 99.0406 59.28C99.8566 59.28 100.613 59.454 101.309 59.802C102.005 60.15 102.563 60.672 102.983 61.368C103.415 62.064 103.631 62.928 103.631 63.96V64.32C103.631 65.412 103.415 66.318 102.983 67.038C102.563 67.758 102.005 68.298 101.309 68.658C100.613 69.006 99.8566 69.18 99.0406 69.18ZM99.0406 67.74C99.5326 67.74 100.001 67.632 100.445 67.416C100.901 67.188 101.273 66.822 101.561 66.318C101.861 65.814 102.011 65.148 102.011 64.32V63.96C102.011 63.192 101.861 62.574 101.561 62.106C101.273 61.626 100.901 61.278 100.445 61.062C100.001 60.834 99.5326 60.72 99.0406 60.72C98.5606 60.72 98.0926 60.834 97.6366 61.062C97.1806 61.278 96.8026 61.626 96.5026 62.106C96.2146 62.574 96.0706 63.192 96.0706 63.96V64.32C96.0706 65.148 96.2146 65.814 96.5026 66.318C96.8026 66.822 97.1806 67.188 97.6366 67.416C98.0926 67.632 98.5606 67.74 99.0406 67.74ZM105.874 69V59.46H107.35V61.26C107.494 60.876 107.692 60.54 107.944 60.252C108.196 59.952 108.502 59.718 108.862 59.55C109.234 59.37 109.648 59.28 110.104 59.28C110.344 59.28 110.536 59.292 110.68 59.316C110.836 59.34 110.974 59.37 111.094 59.406V60.882C110.938 60.822 110.782 60.78 110.626 60.756C110.482 60.732 110.278 60.72 110.014 60.72C109.534 60.72 109.102 60.834 108.718 61.062C108.334 61.29 108.028 61.608 107.8 62.016C107.572 62.412 107.458 62.88 107.458 63.42V69H105.874ZM116.041 69.18C115.261 69.18 114.571 69 113.971 68.64C113.371 68.28 112.903 67.74 112.567 67.02C112.243 66.3 112.081 65.4 112.081 64.32V63.96C112.081 62.952 112.249 62.1 112.585 61.404C112.933 60.708 113.401 60.18 113.989 59.82C114.589 59.46 115.273 59.28 116.041 59.28C116.809 59.28 117.475 59.448 118.039 59.784C118.615 60.12 119.041 60.582 119.317 61.17V56.4H120.901V69H119.425V67.2C119.185 67.788 118.765 68.268 118.165 68.64C117.565 69 116.857 69.18 116.041 69.18ZM116.401 67.776C116.977 67.776 117.481 67.656 117.913 67.416C118.357 67.164 118.699 66.822 118.939 66.39C119.191 65.946 119.317 65.436 119.317 64.86V63.42C119.317 62.904 119.191 62.442 118.939 62.034C118.699 61.614 118.357 61.284 117.913 61.044C117.481 60.804 116.977 60.684 116.401 60.684C115.633 60.684 114.985 60.972 114.457 61.548C113.929 62.112 113.665 62.916 113.665 63.96V64.32C113.665 65.448 113.929 66.306 114.457 66.894C114.985 67.482 115.633 67.776 116.401 67.776ZM123.786 72.6V59.46H125.262V61.26C125.586 60.624 126.036 60.138 126.612 59.802C127.2 59.454 127.878 59.28 128.646 59.28C129.846 59.28 130.806 59.676 131.526 60.468C132.246 61.248 132.606 62.412 132.606 63.96V64.32C132.606 65.4 132.438 66.3 132.102 67.02C131.778 67.74 131.316 68.28 130.716 68.64C130.128 69 129.438 69.18 128.646 69.18C127.83 69.18 127.146 69 126.594 68.64C126.054 68.28 125.646 67.83 125.37 67.29V72.6H123.786ZM128.286 67.776C129.066 67.776 129.714 67.482 130.23 66.894C130.758 66.306 131.022 65.448 131.022 64.32V63.96C131.022 62.916 130.758 62.112 130.23 61.548C129.714 60.972 129.066 60.684 128.286 60.684C127.71 60.684 127.2 60.804 126.756 61.044C126.324 61.284 125.982 61.614 125.73 62.034C125.49 62.442 125.37 62.904 125.37 63.42V64.86C125.37 65.436 125.49 65.946 125.73 66.39C125.982 66.822 126.324 67.164 126.756 67.416C127.2 67.656 127.71 67.776 128.286 67.776ZM134.86 69V59.46H136.336V61.26C136.48 60.876 136.678 60.54 136.93 60.252C137.182 59.952 137.488 59.718 137.848 59.55C138.22 59.37 138.634 59.28 139.09 59.28C139.33 59.28 139.522 59.292 139.666 59.316C139.822 59.34 139.96 59.37 140.08 59.406V60.882C139.924 60.822 139.768 60.78 139.612 60.756C139.468 60.732 139.264 60.72 139 60.72C138.52 60.72 138.088 60.834 137.704 61.062C137.32 61.29 137.014 61.608 136.786 62.016C136.558 62.412 136.444 62.88 136.444 63.42V69H134.86ZM145.658 69.18C144.854 69.18 144.098 69.006 143.39 68.658C142.694 68.31 142.13 67.776 141.698 67.056C141.278 66.336 141.068 65.424 141.068 64.32V63.96C141.068 62.904 141.272 62.034 141.68 61.35C142.088 60.654 142.628 60.138 143.3 59.802C143.972 59.454 144.698 59.28 145.478 59.28C146.882 59.28 147.968 59.664 148.736 60.432C149.504 61.2 149.888 62.286 149.888 63.69V64.698H142.652C142.652 65.442 142.802 66.036 143.102 66.48C143.414 66.924 143.798 67.248 144.254 67.452C144.722 67.644 145.19 67.74 145.658 67.74C146.378 67.74 146.93 67.62 147.314 67.38C147.71 67.14 147.992 66.81 148.16 66.39H149.708C149.516 67.302 149.042 67.998 148.286 68.478C147.542 68.946 146.666 69.18 145.658 69.18ZM145.568 60.72C145.076 60.72 144.608 60.816 144.164 61.008C143.72 61.188 143.354 61.476 143.066 61.872C142.79 62.268 142.652 62.778 142.652 63.402H148.394C148.382 62.742 148.244 62.22 147.98 61.836C147.728 61.44 147.392 61.158 146.972 60.99C146.552 60.81 146.084 60.72 145.568 60.72ZM155.469 69.18C154.833 69.18 154.281 69.108 153.813 68.964C153.345 68.808 152.955 68.604 152.643 68.352C152.331 68.1 152.079 67.806 151.887 67.47C151.707 67.122 151.581 66.762 151.509 66.39H153.093C153.177 66.774 153.399 67.11 153.759 67.398C154.131 67.674 154.701 67.812 155.469 67.812C156.357 67.812 156.975 67.674 157.323 67.398C157.671 67.11 157.845 66.774 157.845 66.39C157.845 66.126 157.767 65.898 157.611 65.706C157.467 65.502 157.203 65.328 156.819 65.184C156.447 65.04 155.913 64.92 155.217 64.824C154.689 64.752 154.215 64.65 153.795 64.518C153.375 64.374 153.015 64.188 152.715 63.96C152.415 63.732 152.181 63.456 152.013 63.132C151.857 62.808 151.779 62.424 151.779 61.98C151.779 61.5 151.917 61.056 152.193 60.648C152.469 60.24 152.883 59.91 153.435 59.658C153.987 59.406 154.665 59.28 155.469 59.28C156.225 59.28 156.849 59.412 157.341 59.676C157.845 59.928 158.235 60.264 158.511 60.684C158.787 61.104 158.973 61.566 159.069 62.07H157.485C157.389 61.65 157.185 61.308 156.873 61.044C156.561 60.78 156.093 60.648 155.469 60.648C154.689 60.648 154.143 60.78 153.831 61.044C153.519 61.296 153.363 61.608 153.363 61.98C153.363 62.412 153.531 62.736 153.867 62.952C154.215 63.168 154.845 63.336 155.757 63.456C156.345 63.528 156.867 63.636 157.323 63.78C157.779 63.912 158.163 64.098 158.475 64.338C158.787 64.566 159.021 64.848 159.177 65.184C159.345 65.52 159.429 65.922 159.429 66.39C159.429 66.894 159.285 67.356 158.997 67.776C158.709 68.196 158.271 68.538 157.683 68.802C157.107 69.054 156.369 69.18 155.469 69.18ZM165.014 69.18C164.378 69.18 163.826 69.108 163.358 68.964C162.89 68.808 162.5 68.604 162.188 68.352C161.876 68.1 161.624 67.806 161.432 67.47C161.252 67.122 161.126 66.762 161.054 66.39H162.638C162.722 66.774 162.944 67.11 163.304 67.398C163.676 67.674 164.246 67.812 165.014 67.812C165.902 67.812 166.52 67.674 166.868 67.398C167.216 67.11 167.39 66.774 167.39 66.39C167.39 66.126 167.312 65.898 167.156 65.706C167.012 65.502 166.748 65.328 166.364 65.184C165.992 65.04 165.458 64.92 164.762 64.824C164.234 64.752 163.76 64.65 163.34 64.518C162.92 64.374 162.56 64.188 162.26 63.96C161.96 63.732 161.726 63.456 161.558 63.132C161.402 62.808 161.324 62.424 161.324 61.98C161.324 61.5 161.462 61.056 161.738 60.648C162.014 60.24 162.428 59.91 162.98 59.658C163.532 59.406 164.21 59.28 165.014 59.28C165.77 59.28 166.394 59.412 166.886 59.676C167.39 59.928 167.78 60.264 168.056 60.684C168.332 61.104 168.518 61.566 168.614 62.07H167.03C166.934 61.65 166.73 61.308 166.418 61.044C166.106 60.78 165.638 60.648 165.014 60.648C164.234 60.648 163.688 60.78 163.376 61.044C163.064 61.296 162.908 61.608 162.908 61.98C162.908 62.412 163.076 62.736 163.412 62.952C163.76 63.168 164.39 63.336 165.302 63.456C165.89 63.528 166.412 63.636 166.868 63.78C167.324 63.912 167.708 64.098 168.02 64.338C168.332 64.566 168.566 64.848 168.722 65.184C168.89 65.52 168.974 65.922 168.974 66.39C168.974 66.894 168.83 67.356 168.542 67.776C168.254 68.196 167.816 68.538 167.228 68.802C166.652 69.054 165.914 69.18 165.014 69.18Z" fill="black"/>
<g filter="url(#filter0_d_755_55)">
<path d="M107.371 75H36.6288C30.7587 75 26 79.701 26 85.5C26 91.299 30.7587 96 36.6288 96H107.371C113.241 96 118 91.299 118 85.5C118 79.701 113.241 75 107.371 75Z" fill="url(#paint1_linear_755_55)"/>
</g>
<path d="M45.8 90.5L43.266 80.7H45.94L47.27 86.776L48.81 80.7H51.19L52.912 86.804L54.34 80.7H56.72L54.2 90.5H51.68L49.93 84.172L48.32 90.5H45.8ZM60.5591 90.682C59.8311 90.682 59.1777 90.5467 58.5991 90.276C58.0204 89.996 57.5584 89.5713 57.2131 89.002C56.8771 88.4327 56.7091 87.7187 56.7091 86.86V86.58C56.7091 85.7587 56.8724 85.0773 57.1991 84.536C57.5257 83.9947 57.9691 83.5887 58.5291 83.318C59.0984 83.038 59.7284 82.898 60.4191 82.898C61.6417 82.898 62.5657 83.2153 63.1911 83.85C63.8164 84.4753 64.1291 85.3853 64.1291 86.58V87.364H58.9211C58.9397 87.728 59.0237 88.0313 59.1731 88.274C59.3317 88.5167 59.5324 88.694 59.7751 88.806C60.0177 88.9087 60.2791 88.96 60.5591 88.96C60.9697 88.96 61.2917 88.8993 61.5251 88.778C61.7677 88.6473 61.9264 88.4747 62.0011 88.26H63.9891C63.8397 89.072 63.4711 89.6787 62.8831 90.08C62.2951 90.4813 61.5204 90.682 60.5591 90.682ZM60.4891 84.62C60.2277 84.62 59.9804 84.662 59.7471 84.746C59.5137 84.83 59.3224 84.97 59.1731 85.166C59.0331 85.3527 58.9537 85.6093 58.9351 85.936H62.0151C62.0151 85.5907 61.9451 85.3247 61.8051 85.138C61.6651 84.942 61.4784 84.8067 61.2451 84.732C61.0211 84.6573 60.7691 84.62 60.4891 84.62ZM69.5449 90.682C68.9755 90.682 68.4949 90.5607 68.1029 90.318C67.7109 90.066 67.4215 89.7907 67.2349 89.492V90.5H65.2469V80.7H67.4029V84.018C67.6549 83.654 67.9675 83.3787 68.3409 83.192C68.7235 82.996 69.1249 82.898 69.5449 82.898C70.5902 82.898 71.3835 83.206 71.9249 83.822C72.4662 84.438 72.7369 85.3573 72.7369 86.58V86.86C72.7369 87.7 72.6062 88.4047 72.3449 88.974C72.0835 89.534 71.7149 89.9587 71.2389 90.248C70.7629 90.5373 70.1982 90.682 69.5449 90.682ZM69.0269 88.904C69.4562 88.904 69.8109 88.7313 70.0909 88.386C70.3802 88.0313 70.5249 87.5227 70.5249 86.86V86.58C70.5249 85.936 70.3849 85.46 70.1049 85.152C69.8342 84.8347 69.4749 84.676 69.0269 84.676C68.7282 84.676 68.4529 84.7413 68.2009 84.872C67.9582 84.9933 67.7622 85.18 67.6129 85.432C67.4729 85.684 67.4029 85.9967 67.4029 86.37V87.07C67.4029 87.4527 67.4729 87.784 67.6129 88.064C67.7622 88.3347 67.9582 88.5447 68.2009 88.694C68.4529 88.834 68.7282 88.904 69.0269 88.904ZM77.0802 90.682C76.4735 90.682 75.9508 90.6213 75.5122 90.5C75.0828 90.3693 74.7282 90.1967 74.4482 89.982C74.1682 89.758 73.9582 89.5013 73.8182 89.212C73.6782 88.9133 73.5988 88.596 73.5802 88.26H75.7362C75.7922 88.4653 75.9135 88.6473 76.1002 88.806C76.2868 88.9553 76.6135 89.03 77.0802 89.03C77.5562 89.03 77.8968 88.9647 78.1022 88.834C78.3075 88.7033 78.4102 88.5307 78.4102 88.316C78.4102 88.204 78.3635 88.106 78.2702 88.022C78.1862 87.9287 78.0228 87.8447 77.7802 87.77C77.5468 87.6953 77.2062 87.6207 76.7582 87.546C76.3475 87.4807 75.9602 87.3967 75.5962 87.294C75.2415 87.1913 74.9288 87.056 74.6582 86.888C74.3875 86.7107 74.1728 86.4867 74.0142 86.216C73.8648 85.9453 73.7902 85.6047 73.7902 85.194C73.7902 84.7553 73.9208 84.3633 74.1822 84.018C74.4435 83.6727 74.8215 83.402 75.3162 83.206C75.8108 83.0007 76.3988 82.898 77.0802 82.898C77.8548 82.898 78.4662 83.0193 78.9142 83.262C79.3715 83.4953 79.7075 83.7987 79.9222 84.172C80.1368 84.536 80.2628 84.9187 80.3002 85.32H78.1302C78.0742 85.0867 77.9528 84.9 77.7662 84.76C77.5888 84.62 77.3602 84.55 77.0802 84.55C76.6508 84.55 76.3522 84.6153 76.1842 84.746C76.0255 84.8767 75.9462 85.0353 75.9462 85.222C75.9462 85.4087 76.0768 85.558 76.3382 85.67C76.5995 85.7727 77.0148 85.8613 77.5842 85.936C77.9948 85.992 78.3775 86.0713 78.7322 86.174C79.0962 86.2767 79.4135 86.4213 79.6842 86.608C79.9642 86.7853 80.1835 87.014 80.3422 87.294C80.5008 87.5647 80.5802 87.896 80.5802 88.288C80.5802 88.7547 80.4448 89.17 80.1742 89.534C79.9128 89.898 79.5208 90.1827 78.9982 90.388C78.4848 90.584 77.8455 90.682 77.0802 90.682ZM81.8341 90.5V83.08H83.9901V90.5H81.8341ZM82.9121 82.38C82.5108 82.38 82.1981 82.2773 81.9741 82.072C81.7595 81.8573 81.6521 81.5867 81.6521 81.26C81.6521 80.9333 81.7595 80.6673 81.9741 80.462C82.1981 80.2473 82.5108 80.14 82.9121 80.14C83.3135 80.14 83.6215 80.2473 83.8361 80.462C84.0601 80.6673 84.1721 80.9333 84.1721 81.26C84.1721 81.5867 84.0601 81.8573 83.8361 82.072C83.6215 82.2773 83.3135 82.38 82.9121 82.38ZM88.6859 90.584C88.0699 90.584 87.5659 90.5047 87.1739 90.346C86.7819 90.178 86.4926 89.9073 86.3059 89.534C86.1193 89.1513 86.0259 88.6333 86.0259 87.98V84.844H85.1159V83.08H86.0259V81.4H88.1819V83.08H89.8759V84.844H88.1819V87.63C88.1819 88.05 88.2473 88.3487 88.3779 88.526C88.5179 88.7033 88.7839 88.792 89.1759 88.792C89.4559 88.792 89.7359 88.778 90.0159 88.75V90.5C89.8386 90.528 89.6519 90.5467 89.4559 90.556C89.2599 90.5747 89.0033 90.584 88.6859 90.584ZM94.7114 90.682C93.9834 90.682 93.3301 90.5467 92.7514 90.276C92.1727 89.996 91.7107 89.5713 91.3654 89.002C91.0294 88.4327 90.8614 87.7187 90.8614 86.86V86.58C90.8614 85.7587 91.0247 85.0773 91.3514 84.536C91.6781 83.9947 92.1214 83.5887 92.6814 83.318C93.2507 83.038 93.8807 82.898 94.5714 82.898C95.7941 82.898 96.7181 83.2153 97.3434 83.85C97.9687 84.4753 98.2814 85.3853 98.2814 86.58V87.364H93.0734C93.0921 87.728 93.1761 88.0313 93.3254 88.274C93.4841 88.5167 93.6847 88.694 93.9274 88.806C94.1701 88.9087 94.4314 88.96 94.7114 88.96C95.1221 88.96 95.4441 88.8993 95.6774 88.778C95.9201 88.6473 96.0787 88.4747 96.1534 88.26H98.1414C97.9921 89.072 97.6234 89.6787 97.0354 90.08C96.4474 90.4813 95.6727 90.682 94.7114 90.682ZM94.6414 84.62C94.3801 84.62 94.1327 84.662 93.8994 84.746C93.6661 84.83 93.4747 84.97 93.3254 85.166C93.1854 85.3527 93.1061 85.6093 93.0874 85.936H96.1674C96.1674 85.5907 96.0974 85.3247 95.9574 85.138C95.8174 84.942 95.6307 84.8067 95.3974 84.732C95.1734 84.6573 94.9214 84.62 94.6414 84.62Z" fill="white"/>
<path d="M39.1165 123.545V141H35.929L28.3352 130.014H28.2074V141H24.517V123.545H27.7557L35.2898 134.523H35.4432V123.545H39.1165ZM44.9903 141.247C44.155 141.247 43.4107 141.102 42.7573 140.812C42.1039 140.517 41.5868 140.082 41.2062 139.509C40.8312 138.929 40.6437 138.207 40.6437 137.344C40.6437 136.616 40.7772 136.006 41.0442 135.511C41.3113 135.017 41.6749 134.619 42.1351 134.318C42.5954 134.017 43.1181 133.79 43.7033 133.636C44.2942 133.483 44.9136 133.375 45.5613 133.312C46.3226 133.233 46.9363 133.159 47.4022 133.091C47.8681 133.017 48.2062 132.909 48.4164 132.767C48.6266 132.625 48.7317 132.415 48.7317 132.136V132.085C48.7317 131.545 48.5613 131.128 48.2204 130.832C47.8851 130.537 47.4079 130.389 46.7886 130.389C46.1351 130.389 45.6153 130.534 45.2289 130.824C44.8425 131.108 44.5868 131.466 44.4618 131.898L41.1039 131.625C41.2743 130.83 41.6096 130.142 42.1096 129.562C42.6096 128.977 43.2545 128.528 44.0442 128.216C44.8397 127.898 45.7601 127.739 46.8056 127.739C47.5329 127.739 48.2289 127.824 48.8937 127.994C49.5641 128.165 50.1579 128.429 50.6749 128.787C51.1976 129.145 51.6096 129.605 51.9107 130.168C52.2118 130.724 52.3624 131.392 52.3624 132.17V141H48.9192V139.185H48.817C48.6067 139.594 48.3255 139.955 47.9732 140.267C47.6209 140.574 47.1976 140.815 46.7033 140.991C46.209 141.162 45.638 141.247 44.9903 141.247ZM46.03 138.741C46.5641 138.741 47.0357 138.636 47.4448 138.426C47.8539 138.21 48.1749 137.92 48.4079 137.557C48.6408 137.193 48.7573 136.781 48.7573 136.321V134.932C48.6437 135.006 48.4874 135.074 48.2886 135.136C48.0954 135.193 47.8766 135.247 47.6323 135.298C47.388 135.344 47.1437 135.386 46.8993 135.426C46.655 135.46 46.4334 135.491 46.2346 135.52C45.8084 135.582 45.4363 135.682 45.1181 135.818C44.7999 135.955 44.5528 136.139 44.3766 136.372C44.2005 136.599 44.1124 136.884 44.1124 137.224C44.1124 137.719 44.2914 138.097 44.6493 138.358C45.013 138.614 45.4732 138.741 46.03 138.741ZM61.3022 127.909V130.636H53.4187V127.909H61.3022ZM55.2085 124.773H58.8392V136.977C58.8392 137.312 58.8903 137.574 58.9926 137.761C59.0949 137.943 59.2369 138.071 59.4187 138.145C59.6062 138.219 59.8221 138.256 60.0664 138.256C60.2369 138.256 60.4074 138.241 60.5778 138.213C60.7483 138.179 60.8789 138.153 60.9699 138.136L61.5409 140.838C61.3591 140.895 61.1034 140.96 60.7738 141.034C60.4443 141.114 60.0437 141.162 59.5721 141.179C58.6971 141.213 57.9301 141.097 57.271 140.83C56.6176 140.562 56.1091 140.148 55.7454 139.585C55.3818 139.023 55.2028 138.312 55.2085 137.455V124.773ZM71.2222 135.426V127.909H74.8529V141H71.3671V138.622H71.2307C70.9353 139.389 70.4438 140.006 69.7563 140.472C69.0745 140.937 68.2421 141.17 67.2591 141.17C66.3841 141.17 65.6142 140.972 64.9495 140.574C64.2847 140.176 63.7648 139.611 63.3898 138.878C63.0205 138.145 62.833 137.267 62.8273 136.244V127.909H66.458V135.597C66.4637 136.369 66.6711 136.98 67.0801 137.429C67.4892 137.878 68.0375 138.102 68.725 138.102C69.1625 138.102 69.5716 138.003 69.9523 137.804C70.333 137.599 70.6398 137.298 70.8728 136.901C71.1114 136.503 71.2279 136.011 71.2222 135.426ZM76.917 141V127.909H80.4369V130.193H80.5732C80.8119 129.381 81.2124 128.767 81.7749 128.352C82.3374 127.932 82.9852 127.722 83.7181 127.722C83.8999 127.722 84.096 127.733 84.3062 127.756C84.5164 127.778 84.7011 127.81 84.8602 127.849V131.071C84.6897 131.02 84.4539 130.974 84.1528 130.935C83.8516 130.895 83.5761 130.875 83.3261 130.875C82.792 130.875 82.3147 130.991 81.8943 131.224C81.4795 131.452 81.1499 131.77 80.9056 132.179C80.667 132.588 80.5477 133.06 80.5477 133.594V141H76.917ZM89.2553 141.247C88.42 141.247 87.6757 141.102 87.0223 140.812C86.3689 140.517 85.8518 140.082 85.4712 139.509C85.0962 138.929 84.9087 138.207 84.9087 137.344C84.9087 136.616 85.0422 136.006 85.3092 135.511C85.5763 135.017 85.9399 134.619 86.4001 134.318C86.8604 134.017 87.3831 133.79 87.9683 133.636C88.5592 133.483 89.1786 133.375 89.8263 133.312C90.5876 133.233 91.2013 133.159 91.6672 133.091C92.1331 133.017 92.4712 132.909 92.6814 132.767C92.8916 132.625 92.9967 132.415 92.9967 132.136V132.085C92.9967 131.545 92.8263 131.128 92.4854 130.832C92.1501 130.537 91.6729 130.389 91.0536 130.389C90.4001 130.389 89.8803 130.534 89.4939 130.824C89.1075 131.108 88.8518 131.466 88.7268 131.898L85.3689 131.625C85.5393 130.83 85.8746 130.142 86.3746 129.562C86.8746 128.977 87.5195 128.528 88.3092 128.216C89.1047 127.898 90.0251 127.739 91.0706 127.739C91.7979 127.739 92.4939 127.824 93.1587 127.994C93.8291 128.165 94.4229 128.429 94.9399 128.787C95.4626 129.145 95.8746 129.605 96.1757 130.168C96.4768 130.724 96.6274 131.392 96.6274 132.17V141H93.1842V139.185H93.082C92.8717 139.594 92.5905 139.955 92.2382 140.267C91.8859 140.574 91.4626 140.815 90.9683 140.991C90.474 141.162 89.903 141.247 89.2553 141.247ZM90.295 138.741C90.8291 138.741 91.3007 138.636 91.7098 138.426C92.1189 138.21 92.4399 137.92 92.6729 137.557C92.9058 137.193 93.0223 136.781 93.0223 136.321V134.932C92.9087 135.006 92.7524 135.074 92.5536 135.136C92.3604 135.193 92.1416 135.247 91.8973 135.298C91.653 135.344 91.4087 135.386 91.1643 135.426C90.92 135.46 90.6984 135.491 90.4996 135.52C90.0734 135.582 89.7013 135.682 89.3831 135.818C89.0649 135.955 88.8178 136.139 88.6416 136.372C88.4655 136.599 88.3774 136.884 88.3774 137.224C88.3774 137.719 88.5564 138.097 88.9143 138.358C89.278 138.614 89.7382 138.741 90.295 138.741ZM102.235 123.545V141H98.6042V123.545H102.235ZM106.425 141.222C105.863 141.222 105.38 141.023 104.977 140.625C104.579 140.222 104.38 139.739 104.38 139.176C104.38 138.619 104.579 138.142 104.977 137.744C105.38 137.347 105.863 137.148 106.425 137.148C106.971 137.148 107.448 137.347 107.857 137.744C108.266 138.142 108.471 138.619 108.471 139.176C108.471 139.551 108.374 139.895 108.181 140.207C107.994 140.514 107.746 140.761 107.44 140.949C107.133 141.131 106.795 141.222 106.425 141.222Z" fill="#0E0E0E"/>
<path opacity="0.45" d="M33.9858 165.565C33.9176 164.878 33.625 164.344 33.108 163.963C32.5909 163.582 31.8892 163.392 31.0028 163.392C30.4006 163.392 29.892 163.477 29.4773 163.648C29.0625 163.812 28.7443 164.043 28.5227 164.338C28.3068 164.634 28.1989 164.969 28.1989 165.344C28.1875 165.656 28.2528 165.929 28.3949 166.162C28.5426 166.395 28.7443 166.597 29 166.767C29.2557 166.932 29.5511 167.077 29.8864 167.202C30.2216 167.321 30.5795 167.423 30.9602 167.509L32.5284 167.884C33.2898 168.054 33.9886 168.281 34.625 168.565C35.2614 168.849 35.8125 169.199 36.2784 169.614C36.7443 170.028 37.1051 170.517 37.3608 171.08C37.6222 171.642 37.7557 172.287 37.7614 173.014C37.7557 174.082 37.483 175.009 36.9432 175.793C36.4091 176.571 35.6364 177.176 34.625 177.608C33.6193 178.034 32.4063 178.247 30.9858 178.247C29.5767 178.247 28.3494 178.031 27.304 177.599C26.2642 177.168 25.4517 176.528 24.8665 175.682C24.2869 174.83 23.983 173.776 23.9545 172.52H27.5256C27.5653 173.105 27.733 173.594 28.0284 173.986C28.3295 174.372 28.7301 174.665 29.2301 174.864C29.7358 175.057 30.3068 175.153 30.9432 175.153C31.5682 175.153 32.1108 175.062 32.571 174.881C33.0369 174.699 33.3977 174.446 33.6534 174.122C33.9091 173.798 34.0369 173.426 34.0369 173.006C34.0369 172.614 33.9205 172.284 33.6875 172.017C33.4602 171.75 33.125 171.523 32.6818 171.335C32.2443 171.148 31.7074 170.977 31.071 170.824L29.1705 170.347C27.6989 169.989 26.5369 169.429 25.6847 168.668C24.8324 167.906 24.4091 166.881 24.4148 165.591C24.4091 164.534 24.6903 163.611 25.2585 162.821C25.8324 162.031 26.6193 161.415 27.6193 160.972C28.6193 160.528 29.7557 160.307 31.0284 160.307C32.3239 160.307 33.4545 160.528 34.4205 160.972C35.392 161.415 36.1477 162.031 36.6875 162.821C37.2273 163.611 37.5057 164.526 37.5227 165.565H33.9858ZM45.2502 178.256C43.9263 178.256 42.7814 177.974 41.8155 177.412C40.8553 176.844 40.1138 176.054 39.5911 175.043C39.0684 174.026 38.807 172.847 38.807 171.506C38.807 170.153 39.0684 168.972 39.5911 167.96C40.1138 166.943 40.8553 166.153 41.8155 165.591C42.7814 165.023 43.9263 164.739 45.2502 164.739C46.5741 164.739 47.7161 165.023 48.6763 165.591C49.6422 166.153 50.3866 166.943 50.9093 167.96C51.432 168.972 51.6934 170.153 51.6934 171.506C51.6934 172.847 51.432 174.026 50.9093 175.043C50.3866 176.054 49.6422 176.844 48.6763 177.412C47.7161 177.974 46.5741 178.256 45.2502 178.256ZM45.2672 175.443C45.8695 175.443 46.3724 175.273 46.7758 174.932C47.1792 174.585 47.4832 174.114 47.6877 173.517C47.8979 172.92 48.003 172.241 48.003 171.48C48.003 170.719 47.8979 170.04 47.6877 169.443C47.4832 168.847 47.1792 168.375 46.7758 168.028C46.3724 167.682 45.8695 167.509 45.2672 167.509C44.6593 167.509 44.1479 167.682 43.7332 168.028C43.3241 168.375 43.0144 168.847 42.8042 169.443C42.5996 170.04 42.4974 170.719 42.4974 171.48C42.4974 172.241 42.5996 172.92 42.8042 173.517C43.0144 174.114 43.3241 174.585 43.7332 174.932C44.1479 175.273 44.6593 175.443 45.2672 175.443ZM56.9471 178.247C56.1119 178.247 55.3676 178.102 54.7142 177.812C54.0608 177.517 53.5437 177.082 53.163 176.509C52.788 175.929 52.6005 175.207 52.6005 174.344C52.6005 173.616 52.7341 173.006 53.0011 172.511C53.2682 172.017 53.6318 171.619 54.092 171.318C54.5522 171.017 55.075 170.79 55.6602 170.636C56.2511 170.483 56.8704 170.375 57.5182 170.312C58.2795 170.233 58.8932 170.159 59.3591 170.091C59.825 170.017 60.163 169.909 60.3733 169.767C60.5835 169.625 60.6886 169.415 60.6886 169.136V169.085C60.6886 168.545 60.5182 168.128 60.1772 167.832C59.842 167.537 59.3647 167.389 58.7454 167.389C58.092 167.389 57.5721 167.534 57.1858 167.824C56.7994 168.108 56.5437 168.466 56.4187 168.898L53.0608 168.625C53.2312 167.83 53.5664 167.142 54.0664 166.562C54.5664 165.977 55.2113 165.528 56.0011 165.216C56.7966 164.898 57.717 164.739 58.7625 164.739C59.4897 164.739 60.1858 164.824 60.8505 164.994C61.521 165.165 62.1147 165.429 62.6318 165.787C63.1545 166.145 63.5664 166.605 63.8676 167.168C64.1687 167.724 64.3193 168.392 64.3193 169.17V178H60.8761V176.185H60.7738C60.5636 176.594 60.2824 176.955 59.9301 177.267C59.5778 177.574 59.1545 177.815 58.6602 177.991C58.1659 178.162 57.5949 178.247 56.9471 178.247ZM57.9869 175.741C58.521 175.741 58.9926 175.636 59.4017 175.426C59.8108 175.21 60.1318 174.92 60.3647 174.557C60.5977 174.193 60.7142 173.781 60.7142 173.321V171.932C60.6005 172.006 60.4443 172.074 60.2454 172.136C60.0522 172.193 59.8335 172.247 59.5892 172.298C59.3449 172.344 59.1005 172.386 58.8562 172.426C58.6119 172.46 58.3903 172.491 58.1914 172.52C57.7653 172.582 57.3932 172.682 57.075 172.818C56.7568 172.955 56.5096 173.139 56.3335 173.372C56.1574 173.599 56.0693 173.884 56.0693 174.224C56.0693 174.719 56.2483 175.097 56.6062 175.358C56.9699 175.614 57.4301 175.741 57.9869 175.741ZM66.2961 182.909V164.909H69.8756V167.108H70.0375C70.1966 166.756 70.4267 166.398 70.7279 166.034C71.0347 165.665 71.4324 165.358 71.9211 165.114C72.4154 164.864 73.029 164.739 73.762 164.739C74.7165 164.739 75.5972 164.989 76.404 165.489C77.2108 165.983 77.8557 166.73 78.3387 167.73C78.8216 168.724 79.0631 169.972 79.0631 171.472C79.0631 172.932 78.8273 174.165 78.3557 175.17C77.8898 176.17 77.2534 176.929 76.4466 177.446C75.6455 177.957 74.7478 178.213 73.7534 178.213C73.0489 178.213 72.4495 178.097 71.9551 177.864C71.4665 177.631 71.0659 177.338 70.7534 176.986C70.4409 176.628 70.2023 176.267 70.0375 175.903H69.9267V182.909H66.2961ZM69.85 171.455C69.85 172.233 69.958 172.912 70.1739 173.491C70.3898 174.071 70.7023 174.523 71.1114 174.847C71.5205 175.165 72.0176 175.324 72.6029 175.324C73.1938 175.324 73.6938 175.162 74.1029 174.838C74.512 174.509 74.8216 174.054 75.0318 173.474C75.2478 172.889 75.3557 172.216 75.3557 171.455C75.3557 170.699 75.2506 170.034 75.0404 169.46C74.8301 168.886 74.5205 168.437 74.1114 168.114C73.7023 167.79 73.1995 167.628 72.6029 167.628C72.012 167.628 71.512 167.784 71.1029 168.097C70.6995 168.409 70.3898 168.852 70.1739 169.426C69.958 170 69.85 170.676 69.85 171.455ZM84.5896 175.614L84.4958 176.551C84.422 177.301 84.2799 178.048 84.0697 178.793C83.8651 179.543 83.6492 180.222 83.422 180.83C83.2004 181.438 83.0214 181.915 82.885 182.261H80.5328C80.618 181.926 80.7345 181.457 80.8822 180.855C81.0299 180.259 81.1691 179.588 81.2998 178.844C81.4305 178.099 81.5129 177.341 81.547 176.568L81.5896 175.614H84.5896ZM107.072 169.273C107.072 171.176 106.711 172.795 105.989 174.131C105.273 175.466 104.296 176.486 103.057 177.19C101.824 177.889 100.438 178.239 98.8982 178.239C97.3471 178.239 95.955 177.886 94.7221 177.182C93.4891 176.477 92.5147 175.457 91.7988 174.122C91.0829 172.787 90.7249 171.17 90.7249 169.273C90.7249 167.369 91.0829 165.75 91.7988 164.415C92.5147 163.08 93.4891 162.062 94.7221 161.364C95.955 160.659 97.3471 160.307 98.8982 160.307C100.438 160.307 101.824 160.659 103.057 161.364C104.296 162.062 105.273 163.08 105.989 164.415C106.711 165.75 107.072 167.369 107.072 169.273ZM103.33 169.273C103.33 168.04 103.145 167 102.776 166.153C102.412 165.307 101.898 164.665 101.233 164.227C100.569 163.79 99.7903 163.571 98.8982 163.571C98.0062 163.571 97.2278 163.79 96.563 164.227C95.8982 164.665 95.3812 165.307 95.0118 166.153C94.6482 167 94.4664 168.04 94.4664 169.273C94.4664 170.506 94.6482 171.545 95.0118 172.392C95.3812 173.239 95.8982 173.881 96.563 174.318C97.2278 174.756 98.0062 174.974 98.8982 174.974C99.7903 174.974 100.569 174.756 101.233 174.318C101.898 173.881 102.412 173.239 102.776 172.392C103.145 171.545 103.33 170.506 103.33 169.273ZM108.897 178V164.909H112.528V178H108.897ZM110.721 163.222C110.181 163.222 109.718 163.043 109.332 162.685C108.951 162.321 108.761 161.886 108.761 161.381C108.761 160.881 108.951 160.452 109.332 160.094C109.718 159.73 110.181 159.548 110.721 159.548C111.261 159.548 111.721 159.73 112.102 160.094C112.488 160.452 112.681 160.881 112.681 161.381C112.681 161.886 112.488 162.321 112.102 162.685C111.721 163.043 111.261 163.222 110.721 163.222ZM118.227 160.545V178H114.596V160.545H118.227ZM124.241 175.614L124.147 176.551C124.074 177.301 123.931 178.048 123.721 178.793C123.517 179.543 123.301 180.222 123.074 180.83C122.852 181.438 122.673 181.915 122.537 182.261H120.184C120.27 181.926 120.386 181.457 120.534 180.855C120.681 180.259 120.821 179.588 120.951 178.844C121.082 178.099 121.164 177.341 121.199 176.568L121.241 175.614H124.241ZM130.683 178V160.545H134.374V167.747H141.865V160.545H145.547V178H141.865V170.79H134.374V178H130.683ZM151.414 178.247C150.579 178.247 149.835 178.102 149.181 177.812C148.528 177.517 148.011 177.082 147.63 176.509C147.255 175.929 147.068 175.207 147.068 174.344C147.068 173.616 147.201 173.006 147.468 172.511C147.735 172.017 148.099 171.619 148.559 171.318C149.019 171.017 149.542 170.79 150.127 170.636C150.718 170.483 151.338 170.375 151.985 170.312C152.747 170.233 153.36 170.159 153.826 170.091C154.292 170.017 154.63 169.909 154.84 169.767C155.051 169.625 155.156 169.415 155.156 169.136V169.085C155.156 168.545 154.985 168.128 154.644 167.832C154.309 167.537 153.832 167.389 153.213 167.389C152.559 167.389 152.039 167.534 151.653 167.824C151.267 168.108 151.011 168.466 150.886 168.898L147.528 168.625C147.698 167.83 148.034 167.142 148.534 166.562C149.034 165.977 149.679 165.528 150.468 165.216C151.264 164.898 152.184 164.739 153.23 164.739C153.957 164.739 154.653 164.824 155.318 164.994C155.988 165.165 156.582 165.429 157.099 165.787C157.622 166.145 158.034 166.605 158.335 167.168C158.636 167.724 158.786 168.392 158.786 169.17V178H155.343V176.185H155.241C155.031 176.594 154.75 176.955 154.397 177.267C154.045 177.574 153.622 177.815 153.127 177.991C152.633 178.162 152.062 178.247 151.414 178.247ZM152.454 175.741C152.988 175.741 153.46 175.636 153.869 175.426C154.278 175.21 154.599 174.92 154.832 174.557C155.065 174.193 155.181 173.781 155.181 173.321V171.932C155.068 172.006 154.911 172.074 154.713 172.136C154.519 172.193 154.301 172.247 154.056 172.298C153.812 172.344 153.568 172.386 153.323 172.426C153.079 172.46 152.857 172.491 152.659 172.52C152.232 172.582 151.86 172.682 151.542 172.818C151.224 172.955 150.977 173.139 150.801 173.372C150.625 173.599 150.536 173.884 150.536 174.224C150.536 174.719 150.715 175.097 151.073 175.358C151.437 175.614 151.897 175.741 152.454 175.741ZM164.394 170.432V178H160.763V164.909H164.223V167.219H164.377C164.667 166.457 165.152 165.855 165.834 165.412C166.516 164.963 167.343 164.739 168.314 164.739C169.223 164.739 170.016 164.938 170.692 165.335C171.368 165.733 171.894 166.301 172.269 167.04C172.644 167.773 172.831 168.648 172.831 169.665V178H169.201V170.312C169.206 169.511 169.002 168.886 168.587 168.438C168.172 167.983 167.601 167.756 166.874 167.756C166.385 167.756 165.954 167.861 165.579 168.071C165.209 168.281 164.919 168.588 164.709 168.991C164.505 169.389 164.4 169.869 164.394 170.432ZM179.677 178.213C178.682 178.213 177.782 177.957 176.975 177.446C176.174 176.929 175.538 176.17 175.066 175.17C174.6 174.165 174.367 172.932 174.367 171.472C174.367 169.972 174.609 168.724 175.092 167.73C175.575 166.73 176.217 165.983 177.018 165.489C177.825 164.989 178.708 164.739 179.668 164.739C180.401 164.739 181.012 164.864 181.501 165.114C181.995 165.358 182.393 165.665 182.694 166.034C183.001 166.398 183.234 166.756 183.393 167.108H183.504V160.545H187.126V178H183.546V175.903H183.393C183.222 176.267 182.981 176.628 182.668 176.986C182.361 177.338 181.961 177.631 181.467 177.864C180.978 178.097 180.381 178.213 179.677 178.213ZM180.827 175.324C181.413 175.324 181.907 175.165 182.31 174.847C182.719 174.523 183.032 174.071 183.248 173.491C183.469 172.912 183.58 172.233 183.58 171.455C183.58 170.676 183.472 170 183.256 169.426C183.04 168.852 182.728 168.409 182.319 168.097C181.91 167.784 181.413 167.628 180.827 167.628C180.231 167.628 179.728 167.79 179.319 168.114C178.91 168.437 178.6 168.886 178.39 169.46C178.18 170.034 178.075 170.699 178.075 171.455C178.075 172.216 178.18 172.889 178.39 173.474C178.606 174.054 178.915 174.509 179.319 174.838C179.728 175.162 180.231 175.324 180.827 175.324ZM189.271 178V164.909H192.731V167.219H192.884C193.157 166.452 193.612 165.847 194.248 165.403C194.884 164.96 195.646 164.739 196.532 164.739C197.43 164.739 198.194 164.963 198.825 165.412C199.455 165.855 199.876 166.457 200.086 167.219H200.222C200.489 166.469 200.972 165.869 201.671 165.42C202.376 164.966 203.208 164.739 204.168 164.739C205.39 164.739 206.382 165.128 207.143 165.906C207.91 166.679 208.293 167.776 208.293 169.196V178H204.671V169.912C204.671 169.185 204.478 168.639 204.092 168.276C203.705 167.912 203.222 167.73 202.643 167.73C201.984 167.73 201.47 167.94 201.1 168.361C200.731 168.776 200.546 169.324 200.546 170.006V178H197.026V169.835C197.026 169.193 196.842 168.682 196.472 168.301C196.109 167.92 195.629 167.73 195.032 167.73C194.629 167.73 194.265 167.832 193.941 168.037C193.623 168.236 193.37 168.517 193.183 168.881C192.995 169.239 192.901 169.659 192.901 170.142V178H189.271ZM214.054 178.247C213.219 178.247 212.475 178.102 211.821 177.812C211.168 177.517 210.651 177.082 210.27 176.509C209.895 175.929 209.708 175.207 209.708 174.344C209.708 173.616 209.841 173.006 210.108 172.511C210.375 172.017 210.739 171.619 211.199 171.318C211.659 171.017 212.182 170.79 212.767 170.636C213.358 170.483 213.978 170.375 214.625 170.312C215.387 170.233 216 170.159 216.466 170.091C216.932 170.017 217.27 169.909 217.48 169.767C217.691 169.625 217.796 169.415 217.796 169.136V169.085C217.796 168.545 217.625 168.128 217.284 167.832C216.949 167.537 216.472 167.389 215.853 167.389C215.199 167.389 214.679 167.534 214.293 167.824C213.907 168.108 213.651 168.466 213.526 168.898L210.168 168.625C210.338 167.83 210.674 167.142 211.174 166.562C211.674 165.977 212.319 165.528 213.108 165.216C213.904 164.898 214.824 164.739 215.87 164.739C216.597 164.739 217.293 164.824 217.958 164.994C218.628 165.165 219.222 165.429 219.739 165.787C220.262 166.145 220.674 166.605 220.975 167.168C221.276 167.724 221.426 168.392 221.426 169.17V178H217.983V176.185H217.881C217.671 176.594 217.39 176.955 217.037 177.267C216.685 177.574 216.262 177.815 215.767 177.991C215.273 178.162 214.702 178.247 214.054 178.247ZM215.094 175.741C215.628 175.741 216.1 175.636 216.509 175.426C216.918 175.21 217.239 174.92 217.472 174.557C217.705 174.193 217.821 173.781 217.821 173.321V171.932C217.708 172.006 217.551 172.074 217.353 172.136C217.159 172.193 216.941 172.247 216.696 172.298C216.452 172.344 216.208 172.386 215.963 172.426C215.719 172.46 215.497 172.491 215.299 172.52C214.872 172.582 214.5 172.682 214.182 172.818C213.864 172.955 213.617 173.139 213.441 173.372C213.265 173.599 213.176 173.884 213.176 174.224C213.176 174.719 213.355 175.097 213.713 175.358C214.077 175.614 214.537 175.741 215.094 175.741ZM228.227 178.213C227.233 178.213 226.332 177.957 225.525 177.446C224.724 176.929 224.088 176.17 223.616 175.17C223.15 174.165 222.917 172.932 222.917 171.472C222.917 169.972 223.159 168.724 223.642 167.73C224.125 166.73 224.767 165.983 225.568 165.489C226.375 164.989 227.258 164.739 228.219 164.739C228.952 164.739 229.562 164.864 230.051 165.114C230.545 165.358 230.943 165.665 231.244 166.034C231.551 166.398 231.784 166.756 231.943 167.108H232.054V160.545H235.676V178H232.096V175.903H231.943C231.773 176.267 231.531 176.628 231.219 176.986C230.912 177.338 230.511 177.631 230.017 177.864C229.528 178.097 228.932 178.213 228.227 178.213ZM229.378 175.324C229.963 175.324 230.457 175.165 230.861 174.847C231.27 174.523 231.582 174.071 231.798 173.491C232.02 172.912 232.131 172.233 232.131 171.455C232.131 170.676 232.023 170 231.807 169.426C231.591 168.852 231.278 168.409 230.869 168.097C230.46 167.784 229.963 167.628 229.378 167.628C228.781 167.628 228.278 167.79 227.869 168.114C227.46 168.437 227.15 168.886 226.94 169.46C226.73 170.034 226.625 170.699 226.625 171.455C226.625 172.216 226.73 172.889 226.94 173.474C227.156 174.054 227.466 174.509 227.869 174.838C228.278 175.162 228.781 175.324 229.378 175.324ZM243.787 178.256C242.44 178.256 241.281 177.983 240.31 177.438C239.344 176.886 238.599 176.108 238.077 175.102C237.554 174.091 237.293 172.895 237.293 171.514C237.293 170.168 237.554 168.986 238.077 167.969C238.599 166.952 239.335 166.159 240.284 165.591C241.239 165.023 242.358 164.739 243.642 164.739C244.506 164.739 245.31 164.878 246.054 165.156C246.804 165.429 247.457 165.841 248.014 166.392C248.577 166.943 249.014 167.636 249.327 168.472C249.639 169.301 249.795 170.273 249.795 171.386V172.384H238.742V170.134H246.378C246.378 169.611 246.264 169.148 246.037 168.744C245.81 168.341 245.494 168.026 245.091 167.798C244.693 167.565 244.23 167.449 243.702 167.449C243.151 167.449 242.662 167.577 242.236 167.832C241.815 168.082 241.486 168.42 241.247 168.847C241.009 169.267 240.886 169.736 240.881 170.253V172.392C240.881 173.04 241 173.599 241.239 174.071C241.483 174.543 241.827 174.906 242.27 175.162C242.713 175.418 243.239 175.545 243.847 175.545C244.25 175.545 244.619 175.489 244.955 175.375C245.29 175.261 245.577 175.091 245.815 174.864C246.054 174.636 246.236 174.358 246.361 174.028L249.719 174.25C249.548 175.057 249.199 175.761 248.67 176.364C248.148 176.96 247.472 177.426 246.642 177.761C245.818 178.091 244.867 178.256 243.787 178.256ZM31.4119 193.909V196.636H23.5284V193.909H31.4119ZM25.3182 190.773H28.9489V202.977C28.9489 203.312 29 203.574 29.1023 203.761C29.2045 203.943 29.3466 204.071 29.5284 204.145C29.7159 204.219 29.9318 204.256 30.1761 204.256C30.3466 204.256 30.517 204.241 30.6875 204.213C30.858 204.179 30.9886 204.153 31.0795 204.136L31.6506 206.838C31.4688 206.895 31.2131 206.96 30.8835 207.034C30.554 207.114 30.1534 207.162 29.6818 207.179C28.8068 207.213 28.0398 207.097 27.3807 206.83C26.7273 206.562 26.2188 206.148 25.8551 205.585C25.4915 205.023 25.3125 204.312 25.3182 203.455V190.773ZM36.8489 199.432V207H33.2182V189.545H36.7466V196.219H36.9001C37.1955 195.446 37.6728 194.841 38.3319 194.403C38.991 193.96 39.8177 193.739 40.812 193.739C41.7211 193.739 42.5137 193.938 43.1898 194.335C43.8716 194.727 44.4001 195.293 44.7751 196.031C45.1557 196.764 45.3432 197.642 45.3376 198.665V207H41.7069V199.312C41.7126 198.506 41.508 197.878 41.0932 197.429C40.6841 196.98 40.1103 196.756 39.3716 196.756C38.8773 196.756 38.4398 196.861 38.0591 197.071C37.6841 197.281 37.3887 197.588 37.1728 197.991C36.9626 198.389 36.8546 198.869 36.8489 199.432ZM47.3548 207V193.909H50.9855V207H47.3548ZM49.1787 192.222C48.6389 192.222 48.1758 192.043 47.7895 191.685C47.4088 191.321 47.2184 190.886 47.2184 190.381C47.2184 189.881 47.4088 189.452 47.7895 189.094C48.1758 188.73 48.6389 188.548 49.1787 188.548C49.7184 188.548 50.1787 188.73 50.5593 189.094C50.9457 189.452 51.1389 189.881 51.1389 190.381C51.1389 190.886 50.9457 191.321 50.5593 191.685C50.1787 192.043 49.7184 192.222 49.1787 192.222ZM56.6845 199.432V207H53.0539V193.909H56.5141V196.219H56.6675C56.9573 195.457 57.4431 194.855 58.1249 194.412C58.8067 193.963 59.6334 193.739 60.605 193.739C61.5141 193.739 62.3067 193.938 62.9828 194.335C63.659 194.733 64.1845 195.301 64.5595 196.04C64.9345 196.773 65.122 197.648 65.122 198.665V207H61.4914V199.312C61.497 198.511 61.2925 197.886 60.8777 197.438C60.463 196.983 59.8919 196.756 59.1647 196.756C58.676 196.756 58.2442 196.861 57.8692 197.071C57.4999 197.281 57.2101 197.588 56.9999 197.991C56.7953 198.389 56.6902 198.869 56.6845 199.432ZM73.0413 212.182C71.8651 212.182 70.8566 212.02 70.0157 211.696C69.1805 211.378 68.5157 210.943 68.0214 210.392C67.5271 209.841 67.2061 209.222 67.0583 208.534L70.4163 208.082C70.5186 208.344 70.6805 208.588 70.9021 208.815C71.1237 209.043 71.4163 209.224 71.7799 209.361C72.1492 209.503 72.5981 209.574 73.1265 209.574C73.9163 209.574 74.5668 209.381 75.0782 208.994C75.5953 208.614 75.8538 207.974 75.8538 207.077V204.682H75.7004C75.5413 205.045 75.3026 205.389 74.9845 205.713C74.6663 206.037 74.2572 206.301 73.7572 206.506C73.2572 206.71 72.6606 206.812 71.9674 206.812C70.9845 206.812 70.0896 206.585 69.2828 206.131C68.4816 205.67 67.8424 204.969 67.3651 204.026C66.8936 203.077 66.6578 201.878 66.6578 200.429C66.6578 198.946 66.8992 197.707 67.3822 196.713C67.8651 195.719 68.5072 194.974 69.3083 194.48C70.1151 193.986 70.9987 193.739 71.9589 193.739C72.6918 193.739 73.3055 193.864 73.7998 194.114C74.2941 194.358 74.6918 194.665 74.993 195.034C75.2998 195.398 75.5356 195.756 75.7004 196.108H75.8367V193.909H79.4418V207.128C79.4418 208.241 79.1691 209.173 78.6237 209.923C78.0782 210.673 77.3225 211.236 76.3566 211.611C75.3964 211.991 74.2913 212.182 73.0413 212.182ZM73.118 204.085C73.7032 204.085 74.1975 203.94 74.6009 203.651C75.01 203.355 75.3225 202.935 75.5384 202.389C75.76 201.838 75.8708 201.179 75.8708 200.412C75.8708 199.645 75.7629 198.98 75.547 198.418C75.3311 197.849 75.0186 197.409 74.6095 197.097C74.2004 196.784 73.7032 196.628 73.118 196.628C72.5214 196.628 72.0186 196.79 71.6095 197.114C71.2004 197.432 70.8907 197.875 70.6805 198.443C70.4703 199.011 70.3651 199.668 70.3651 200.412C70.3651 201.168 70.4703 201.821 70.6805 202.372C70.8964 202.918 71.2061 203.341 71.6095 203.642C72.0186 203.937 72.5214 204.085 73.118 204.085ZM92.3831 197.642L89.0592 197.847C89.0024 197.562 88.8803 197.307 88.6928 197.08C88.5053 196.847 88.2581 196.662 87.9513 196.526C87.6501 196.384 87.2893 196.312 86.8689 196.312C86.3064 196.312 85.832 196.432 85.4456 196.67C85.0592 196.903 84.8661 197.216 84.8661 197.608C84.8661 197.92 84.9911 198.185 85.2411 198.401C85.4911 198.616 85.92 198.79 86.528 198.92L88.8973 199.398C90.17 199.659 91.1189 200.08 91.7439 200.659C92.3689 201.239 92.6814 202 92.6814 202.943C92.6814 203.801 92.4286 204.554 91.9229 205.202C91.4229 205.849 90.7354 206.355 89.8604 206.719C88.9911 207.077 87.9882 207.256 86.8518 207.256C85.1189 207.256 83.7382 206.895 82.7098 206.173C81.6871 205.446 81.0876 204.457 80.9115 203.207L84.4825 203.02C84.5905 203.548 84.8518 203.952 85.2666 204.23C85.6814 204.503 86.2126 204.639 86.8604 204.639C87.4967 204.639 88.0081 204.517 88.3945 204.273C88.7865 204.023 88.9854 203.702 88.9911 203.31C88.9854 202.98 88.8462 202.71 88.5734 202.5C88.3007 202.284 87.8803 202.119 87.3121 202.006L85.045 201.554C83.7666 201.298 82.8149 200.855 82.1899 200.224C81.5706 199.594 81.2609 198.79 81.2609 197.812C81.2609 196.972 81.4882 196.247 81.9428 195.639C82.403 195.031 83.0479 194.562 83.8774 194.233C84.7126 193.903 85.6899 193.739 86.8092 193.739C88.4626 193.739 89.7638 194.088 90.7126 194.787C91.6672 195.486 92.224 196.437 92.3831 197.642ZM96.2498 207.222C95.6873 207.222 95.2043 207.023 94.8009 206.625C94.4032 206.222 94.2043 205.739 94.2043 205.176C94.2043 204.619 94.4032 204.142 94.8009 203.744C95.2043 203.347 95.6873 203.148 96.2498 203.148C96.7952 203.148 97.2725 203.347 97.6816 203.744C98.0907 204.142 98.2952 204.619 98.2952 205.176C98.2952 205.551 98.1986 205.895 98.0055 206.207C97.818 206.514 97.5708 206.761 97.264 206.949C96.9572 207.131 96.6191 207.222 96.2498 207.222Z" fill="#0E0E0E"/>
<path d="M258 101.438C275.397 101.438 289.5 87.1386 289.5 69.5C289.5 51.8614 275.397 37.5625 258 37.5625C240.603 37.5625 226.5 51.8614 226.5 69.5C226.5 87.1386 240.603 101.438 258 101.438Z" fill="#028CB0"/>
<path d="M236.525 69.5C236.525 78.1284 241.475 85.56 248.633 89.0925L238.39 60.6401C237.16 63.4273 236.525 66.4465 236.525 69.5ZM258 91.2736C260.494 91.2736 262.893 90.8297 265.139 90.0383L264.987 89.7488L258.381 71.411L251.946 90.3858C253.85 90.9647 255.887 91.2736 258 91.2736ZM260.951 59.2887L268.719 82.7032L270.87 75.4454C271.784 72.4341 272.488 70.2722 272.488 68.3998C272.488 65.6974 271.536 63.8443 270.737 62.4158C269.633 60.6013 268.623 59.0765 268.623 57.3006C268.623 55.2931 270.108 53.44 272.241 53.44H272.507C268.55 49.7568 263.372 47.7173 258 47.7263C254.443 47.7257 250.942 48.6215 247.812 50.3331C244.681 52.0448 242.019 54.5187 240.066 57.5321L241.437 57.5709C243.683 57.5709 247.148 57.2812 247.148 57.2812C248.328 57.2235 248.462 58.9412 247.3 59.0765C247.3 59.0765 246.139 59.231 244.825 59.2887L252.669 82.8768L257.372 68.5927L254.021 59.2887C253.27 59.2467 252.521 59.1824 251.774 59.0957C250.613 59.0186 250.746 57.2235 251.908 57.2812C251.908 57.2812 255.449 57.5709 257.562 57.5709C259.809 57.5709 263.274 57.2812 263.274 57.2812C264.435 57.2235 264.587 58.9412 263.426 59.0765C263.426 59.0765 262.265 59.2116 260.951 59.2887ZM268.795 88.3203C272.044 86.405 274.74 83.6588 276.614 80.3562C278.488 77.0537 279.475 73.3104 279.475 69.5C279.475 65.7165 278.523 62.1649 276.848 59.0571C277.188 62.4763 276.678 65.9273 275.363 69.0946L268.795 88.3203ZM258 94.5938C251.436 94.5938 245.141 91.95 240.499 87.244C235.858 82.538 233.25 76.1553 233.25 69.5C233.25 62.8447 235.858 56.462 240.499 51.7561C245.141 47.0501 251.436 44.4062 258 44.4062C264.564 44.4062 270.859 47.0501 275.501 51.7561C280.142 56.462 282.75 62.8447 282.75 69.5C282.75 76.1553 280.142 82.538 275.501 87.244C270.859 91.95 264.564 94.5938 258 94.5938Z" fill="white"/>
<defs>
<filter id="filter0_d_755_55" x="18" y="69" width="108" height="37" filterUnits="userSpaceOnUse" color-interpolation-filters="sRGB">
<feFlood flood-opacity="0" result="BackgroundImageFix"/>
<feColorMatrix in="SourceAlpha" type="matrix" values="0 0 0 0 0 0 0 0 0 0 0 0 0 0 0 0 0 0 127 0" result="hardAlpha"/>
<feOffset dy="2"/>
<feGaussianBlur stdDeviation="4"/>
<feComposite in2="hardAlpha" operator="out"/>
<feColorMatrix type="matrix" values="0 0 0 0 0.0313726 0 0 0 0 0.521569 0 0 0 0 0.980392 0 0 0 1 0"/>
<feBlend mode="normal" in2="BackgroundImageFix" result="effect1_dropShadow_755_55"/>
<feBlend mode="normal" in="SourceGraphic" in2="effect1_dropShadow_755_55" result="shape"/>
</filter>
<linearGradient id="paint0_linear_755_55" x1="164" y1="0" x2="164" y2="281" gradientUnits="userSpaceOnUse">
<stop stop-color="#AEBFED" stop-opacity="0.25"/>
<stop offset="1" stop-color="#31C5F0" stop-opacity="0.25"/>
</linearGradient>
<linearGradient id="paint1_linear_755_55" x1="26" y1="95.5242" x2="75.9646" y2="42.2754" gradientUnits="userSpaceOnUse">
<stop stop-color="#0B99FF"/>
<stop offset="1" stop-color="#0B99FF"/>
</linearGradient>
</defs>
</svg>
