<svg width="328" height="281" viewBox="0 0 328 281" fill="none" xmlns="http://www.w3.org/2000/svg">
<rect width="328" height="281" rx="12" fill="url(#paint0_linear_755_55)"/>
<path d="M27.8 69V56.4H29.492V67.524H35.9V69H27.8ZM37.8856 69V59.46H39.4696V69H37.8856ZM38.6776 58.2C38.3656 58.2 38.1076 58.098 37.9036 57.894C37.6996 57.69 37.5976 57.432 37.5976 57.12C37.5976 56.808 37.6996 56.55 37.9036 56.346C38.1076 56.142 38.3656 56.04 38.6776 56.04C38.9896 56.04 39.2476 56.142 39.4516 56.346C39.6556 56.55 39.7576 56.808 39.7576 57.12C39.7576 57.432 39.6556 57.69 39.4516 57.894C39.2476 58.098 38.9896 58.2 38.6776 58.2ZM45.402 69L41.442 59.46H43.206L46.302 67.38L49.11 59.46H50.802L47.202 69H45.402ZM56.2027 69.18C55.3987 69.18 54.6427 69.006 53.9347 68.658C53.2387 68.31 52.6747 67.776 52.2427 67.056C51.8227 66.336 51.6127 65.424 51.6127 64.32V63.96C51.6127 62.904 51.8167 62.034 52.2247 61.35C52.6327 60.654 53.1727 60.138 53.8447 59.802C54.5167 59.454 55.2427 59.28 56.0227 59.28C57.4267 59.28 58.5127 59.664 59.2807 60.432C60.0487 61.2 60.4327 62.286 60.4327 63.69V64.698H53.1967C53.1967 65.442 53.3467 66.036 53.6467 66.48C53.9587 66.924 54.3427 67.248 54.7987 67.452C55.2667 67.644 55.7347 67.74 56.2027 67.74C56.9227 67.74 57.4747 67.62 57.8587 67.38C58.2547 67.14 58.5367 66.81 58.7047 66.39H60.2527C60.0607 67.302 59.5867 67.998 58.8307 68.478C58.0867 68.946 57.2107 69.18 56.2027 69.18ZM56.1127 60.72C55.6207 60.72 55.1527 60.816 54.7087 61.008C54.2647 61.188 53.8987 61.476 53.6107 61.872C53.3347 62.268 53.1967 62.778 53.1967 63.402H58.9387C58.9267 62.742 58.7887 62.22 58.5247 61.836C58.2727 61.44 57.9367 61.158 57.5167 60.99C57.0967 60.81 56.6287 60.72 56.1127 60.72ZM66.4641 64.698V63.222H71.8641V64.698H66.4641ZM81.006 69L77.622 56.4H79.422L82.014 66.3L84.966 56.4H86.478L89.484 66.3L92.094 56.4H93.822L90.438 69H88.746L85.686 59.1L82.698 69H81.006ZM99.0406 69.18C98.2366 69.18 97.4806 69.006 96.7726 68.658C96.0766 68.298 95.5126 67.758 95.0806 67.038C94.6606 66.318 94.4506 65.412 94.4506 64.32V63.96C94.4506 62.928 94.6606 62.064 95.0806 61.368C95.5126 60.672 96.0766 60.15 96.7726 59.802C97.4806 59.454 98.2366 59.28 99.0406 59.28C99.8566 59.28 100.613 59.454 101.309 59.802C102.005 60.15 102.563 60.672 102.983 61.368C103.415 62.064 103.631 62.928 103.631 63.96V64.32C103.631 65.412 103.415 66.318 102.983 67.038C102.563 67.758 102.005 68.298 101.309 68.658C100.613 69.006 99.8566 69.18 99.0406 69.18ZM99.0406 67.74C99.5326 67.74 100.001 67.632 100.445 67.416C100.901 67.188 101.273 66.822 101.561 66.318C101.861 65.814 102.011 65.148 102.011 64.32V63.96C102.011 63.192 101.861 62.574 101.561 62.106C101.273 61.626 100.901 61.278 100.445 61.062C100.001 60.834 99.5326 60.72 99.0406 60.72C98.5606 60.72 98.0926 60.834 97.6366 61.062C97.1806 61.278 96.8026 61.626 96.5026 62.106C96.2146 62.574 96.0706 63.192 96.0706 63.96V64.32C96.0706 65.148 96.2146 65.814 96.5026 66.318C96.8026 66.822 97.1806 67.188 97.6366 67.416C98.0926 67.632 98.5606 67.74 99.0406 67.74ZM105.874 69V59.46H107.35V61.26C107.494 60.876 107.692 60.54 107.944 60.252C108.196 59.952 108.502 59.718 108.862 59.55C109.234 59.37 109.648 59.28 110.104 59.28C110.344 59.28 110.536 59.292 110.68 59.316C110.836 59.34 110.974 59.37 111.094 59.406V60.882C110.938 60.822 110.782 60.78 110.626 60.756C110.482 60.732 110.278 60.72 110.014 60.72C109.534 60.72 109.102 60.834 108.718 61.062C108.334 61.29 108.028 61.608 107.8 62.016C107.572 62.412 107.458 62.88 107.458 63.42V69H105.874ZM116.041 69.18C115.261 69.18 114.571 69 113.971 68.64C113.371 68.28 112.903 67.74 112.567 67.02C112.243 66.3 112.081 65.4 112.081 64.32V63.96C112.081 62.952 112.249 62.1 112.585 61.404C112.933 60.708 113.401 60.18 113.989 59.82C114.589 59.46 115.273 59.28 116.041 59.28C116.809 59.28 117.475 59.448 118.039 59.784C118.615 60.12 119.041 60.582 119.317 61.17V56.4H120.901V69H119.425V67.2C119.185 67.788 118.765 68.268 118.165 68.64C117.565 69 116.857 69.18 116.041 69.18ZM116.401 67.776C116.977 67.776 117.481 67.656 117.913 67.416C118.357 67.164 118.699 66.822 118.939 66.39C119.191 65.946 119.317 65.436 119.317 64.86V63.42C119.317 62.904 119.191 62.442 118.939 62.034C118.699 61.614 118.357 61.284 117.913 61.044C117.481 60.804 116.977 60.684 116.401 60.684C115.633 60.684 114.985 60.972 114.457 61.548C113.929 62.112 113.665 62.916 113.665 63.96V64.32C113.665 65.448 113.929 66.306 114.457 66.894C114.985 67.482 115.633 67.776 116.401 67.776ZM123.786 72.6V59.46H125.262V61.26C125.586 60.624 126.036 60.138 126.612 59.802C127.2 59.454 127.878 59.28 128.646 59.28C129.846 59.28 130.806 59.676 131.526 60.468C132.246 61.248 132.606 62.412 132.606 63.96V64.32C132.606 65.4 132.438 66.3 132.102 67.02C131.778 67.74 131.316 68.28 130.716 68.64C130.128 69 129.438 69.18 128.646 69.18C127.83 69.18 127.146 69 126.594 68.64C126.054 68.28 125.646 67.83 125.37 67.29V72.6H123.786ZM128.286 67.776C129.066 67.776 129.714 67.482 130.23 66.894C130.758 66.306 131.022 65.448 131.022 64.32V63.96C131.022 62.916 130.758 62.112 130.23 61.548C129.714 60.972 129.066 60.684 128.286 60.684C127.71 60.684 127.2 60.804 126.756 61.044C126.324 61.284 125.982 61.614 125.73 62.034C125.49 62.442 125.37 62.904 125.37 63.42V64.86C125.37 65.436 125.49 65.946 125.73 66.39C125.982 66.822 126.324 67.164 126.756 67.416C127.2 67.656 127.71 67.776 128.286 67.776ZM134.86 69V59.46H136.336V61.26C136.48 60.876 136.678 60.54 136.93 60.252C137.182 59.952 137.488 59.718 137.848 59.55C138.22 59.37 138.634 59.28 139.09 59.28C139.33 59.28 139.522 59.292 139.666 59.316C139.822 59.34 139.96 59.37 140.08 59.406V60.882C139.924 60.822 139.768 60.78 139.612 60.756C139.468 60.732 139.264 60.72 139 60.72C138.52 60.72 138.088 60.834 137.704 61.062C137.32 61.29 137.014 61.608 136.786 62.016C136.558 62.412 136.444 62.88 136.444 63.42V69H134.86ZM145.658 69.18C144.854 69.18 144.098 69.006 143.39 68.658C142.694 68.31 142.13 67.776 141.698 67.056C141.278 66.336 141.068 65.424 141.068 64.32V63.96C141.068 62.904 141.272 62.034 141.68 61.35C142.088 60.654 142.628 60.138 143.3 59.802C143.972 59.454 144.698 59.28 145.478 59.28C146.882 59.28 147.968 59.664 148.736 60.432C149.504 61.2 149.888 62.286 149.888 63.69V64.698H142.652C142.652 65.442 142.802 66.036 143.102 66.48C143.414 66.924 143.798 67.248 144.254 67.452C144.722 67.644 145.19 67.74 145.658 67.74C146.378 67.74 146.93 67.62 147.314 67.38C147.71 67.14 147.992 66.81 148.16 66.39H149.708C149.516 67.302 149.042 67.998 148.286 68.478C147.542 68.946 146.666 69.18 145.658 69.18ZM145.568 60.72C145.076 60.72 144.608 60.816 144.164 61.008C143.72 61.188 143.354 61.476 143.066 61.872C142.79 62.268 142.652 62.778 142.652 63.402H148.394C148.382 62.742 148.244 62.22 147.98 61.836C147.728 61.44 147.392 61.158 146.972 60.99C146.552 60.81 146.084 60.72 145.568 60.72ZM155.469 69.18C154.833 69.18 154.281 69.108 153.813 68.964C153.345 68.808 152.955 68.604 152.643 68.352C152.331 68.1 152.079 67.806 151.887 67.47C151.707 67.122 151.581 66.762 151.509 66.39H153.093C153.177 66.774 153.399 67.11 153.759 67.398C154.131 67.674 154.701 67.812 155.469 67.812C156.357 67.812 156.975 67.674 157.323 67.398C157.671 67.11 157.845 66.774 157.845 66.39C157.845 66.126 157.767 65.898 157.611 65.706C157.467 65.502 157.203 65.328 156.819 65.184C156.447 65.04 155.913 64.92 155.217 64.824C154.689 64.752 154.215 64.65 153.795 64.518C153.375 64.374 153.015 64.188 152.715 63.96C152.415 63.732 152.181 63.456 152.013 63.132C151.857 62.808 151.779 62.424 151.779 61.98C151.779 61.5 151.917 61.056 152.193 60.648C152.469 60.24 152.883 59.91 153.435 59.658C153.987 59.406 154.665 59.28 155.469 59.28C156.225 59.28 156.849 59.412 157.341 59.676C157.845 59.928 158.235 60.264 158.511 60.684C158.787 61.104 158.973 61.566 159.069 62.07H157.485C157.389 61.65 157.185 61.308 156.873 61.044C156.561 60.78 156.093 60.648 155.469 60.648C154.689 60.648 154.143 60.78 153.831 61.044C153.519 61.296 153.363 61.608 153.363 61.98C153.363 62.412 153.531 62.736 153.867 62.952C154.215 63.168 154.845 63.336 155.757 63.456C156.345 63.528 156.867 63.636 157.323 63.78C157.779 63.912 158.163 64.098 158.475 64.338C158.787 64.566 159.021 64.848 159.177 65.184C159.345 65.52 159.429 65.922 159.429 66.39C159.429 66.894 159.285 67.356 158.997 67.776C158.709 68.196 158.271 68.538 157.683 68.802C157.107 69.054 156.369 69.18 155.469 69.18ZM165.014 69.18C164.378 69.18 163.826 69.108 163.358 68.964C162.89 68.808 162.5 68.604 162.188 68.352C161.876 68.1 161.624 67.806 161.432 67.47C161.252 67.122 161.126 66.762 161.054 66.39H162.638C162.722 66.774 162.944 67.11 163.304 67.398C163.676 67.674 164.246 67.812 165.014 67.812C165.902 67.812 166.52 67.674 166.868 67.398C167.216 67.11 167.39 66.774 167.39 66.39C167.39 66.126 167.312 65.898 167.156 65.706C167.012 65.502 166.748 65.328 166.364 65.184C165.992 65.04 165.458 64.92 164.762 64.824C164.234 64.752 163.76 64.65 163.34 64.518C162.92 64.374 162.56 64.188 162.26 63.96C161.96 63.732 161.726 63.456 161.558 63.132C161.402 62.808 161.324 62.424 161.324 61.98C161.324 61.5 161.462 61.056 161.738 60.648C162.014 60.24 162.428 59.91 162.98 59.658C163.532 59.406 164.21 59.28 165.014 59.28C165.77 59.28 166.394 59.412 166.886 59.676C167.39 59.928 167.78 60.264 168.056 60.684C168.332 61.104 168.518 61.566 168.614 62.07H167.03C166.934 61.65 166.73 61.308 166.418 61.044C166.106 60.78 165.638 60.648 165.014 60.648C164.234 60.648 163.688 60.78 163.376 61.044C163.064 61.296 162.908 61.608 162.908 61.98C162.908 62.412 163.076 62.736 163.412 62.952C163.76 63.168 164.39 63.336 165.302 63.456C165.89 63.528 166.412 63.636 166.868 63.78C167.324 63.912 167.708 64.098 168.02 64.338C168.332 64.566 168.566 64.848 168.722 65.184C168.89 65.52 168.974 65.922 168.974 66.39C168.974 66.894 168.83 67.356 168.542 67.776C168.254 68.196 167.816 68.538 167.228 68.802C166.652 69.054 165.914 69.18 165.014 69.18Z" fill="black"/>
<g filter="url(#filter0_d_755_55)">
<path d="M107.371 75H36.6288C30.7587 75 26 79.701 26 85.5C26 91.299 30.7587 96 36.6288 96H107.371C113.241 96 118 91.299 118 85.5C118 79.701 113.241 75 107.371 75Z" fill="url(#paint1_linear_755_55)"/>
</g>
<path d="M45.8 90.5L43.266 80.7H45.94L47.27 86.776L48.81 80.7H51.19L52.912 86.804L54.34 80.7H56.72L54.2 90.5H51.68L49.93 84.172L48.32 90.5H45.8ZM60.5591 90.682C59.8311 90.682 59.1777 90.5467 58.5991 90.276C58.0204 89.996 57.5584 89.5713 57.2131 89.002C56.8771 88.4327 56.7091 87.7187 56.7091 86.86V86.58C56.7091 85.7587 56.8724 85.0773 57.1991 84.536C57.5257 83.9947 57.9691 83.5887 58.5291 83.318C59.0984 83.038 59.7284 82.898 60.4191 82.898C61.6417 82.898 62.5657 83.2153 63.1911 83.85C63.8164 84.4753 64.1291 85.3853 64.1291 86.58V87.364H58.9211C58.9397 87.728 59.0237 88.0313 59.1731 88.274C59.3317 88.5167 59.5324 88.694 59.7751 88.806C60.0177 88.9087 60.2791 88.96 60.5591 88.96C60.9697 88.96 61.2917 88.8993 61.5251 88.778C61.7677 88.6473 61.9264 88.4747 62.0011 88.26H63.9891C63.8397 89.072 63.4711 89.6787 62.8831 90.08C62.2951 90.4813 61.5204 90.682 60.5591 90.682ZM60.4891 84.62C60.2277 84.62 59.9804 84.662 59.7471 84.746C59.5137 84.83 59.3224 84.97 59.1731 85.166C59.0331 85.3527 58.9537 85.6093 58.9351 85.936H62.0151C62.0151 85.5907 61.9451 85.3247 61.8051 85.138C61.6651 84.942 61.4784 84.8067 61.2451 84.732C61.0211 84.6573 60.7691 84.62 60.4891 84.62ZM69.5449 90.682C68.9755 90.682 68.4949 90.5607 68.1029 90.318C67.7109 90.066 67.4215 89.7907 67.2349 89.492V90.5H65.2469V80.7H67.4029V84.018C67.6549 83.654 67.9675 83.3787 68.3409 83.192C68.7235 82.996 69.1249 82.898 69.5449 82.898C70.5902 82.898 71.3835 83.206 71.9249 83.822C72.4662 84.438 72.7369 85.3573 72.7369 86.58V86.86C72.7369 87.7 72.6062 88.4047 72.3449 88.974C72.0835 89.534 71.7149 89.9587 71.2389 90.248C70.7629 90.5373 70.1982 90.682 69.5449 90.682ZM69.0269 88.904C69.4562 88.904 69.8109 88.7313 70.0909 88.386C70.3802 88.0313 70.5249 87.5227 70.5249 86.86V86.58C70.5249 85.936 70.3849 85.46 70.1049 85.152C69.8342 84.8347 69.4749 84.676 69.0269 84.676C68.7282 84.676 68.4529 84.7413 68.2009 84.872C67.9582 84.9933 67.7622 85.18 67.6129 85.432C67.4729 85.684 67.4029 85.9967 67.4029 86.37V87.07C67.4029 87.4527 67.4729 87.784 67.6129 88.064C67.7622 88.3347 67.9582 88.5447 68.2009 88.694C68.4529 88.834 68.7282 88.904 69.0269 88.904ZM77.0802 90.682C76.4735 90.682 75.9508 90.6213 75.5122 90.5C75.0828 90.3693 74.7282 90.1967 74.4482 89.982C74.1682 89.758 73.9582 89.5013 73.8182 89.212C73.6782 88.9133 73.5988 88.596 73.5802 88.26H75.7362C75.7922 88.4653 75.9135 88.6473 76.1002 88.806C76.2868 88.9553 76.6135 89.03 77.0802 89.03C77.5562 89.03 77.8968 88.9647 78.1022 88.834C78.3075 88.7033 78.4102 88.5307 78.4102 88.316C78.4102 88.204 78.3635 88.106 78.2702 88.022C78.1862 87.9287 78.0228 87.8447 77.7802 87.77C77.5468 87.6953 77.2062 87.6207 76.7582 87.546C76.3475 87.4807 75.9602 87.3967 75.5962 87.294C75.2415 87.1913 74.9288 87.056 74.6582 86.888C74.3875 86.7107 74.1728 86.4867 74.0142 86.216C73.8648 85.9453 73.7902 85.6047 73.7902 85.194C73.7902 84.7553 73.9208 84.3633 74.1822 84.018C74.4435 83.6727 74.8215 83.402 75.3162 83.206C75.8108 83.0007 76.3988 82.898 77.0802 82.898C77.8548 82.898 78.4662 83.0193 78.9142 83.262C79.3715 83.4953 79.7075 83.7987 79.9222 84.172C80.1368 84.536 80.2628 84.9187 80.3002 85.32H78.1302C78.0742 85.0867 77.9528 84.9 77.7662 84.76C77.5888 84.62 77.3602 84.55 77.0802 84.55C76.6508 84.55 76.3522 84.6153 76.1842 84.746C76.0255 84.8767 75.9462 85.0353 75.9462 85.222C75.9462 85.4087 76.0768 85.558 76.3382 85.67C76.5995 85.7727 77.0148 85.8613 77.5842 85.936C77.9948 85.992 78.3775 86.0713 78.7322 86.174C79.0962 86.2767 79.4135 86.4213 79.6842 86.608C79.9642 86.7853 80.1835 87.014 80.3422 87.294C80.5008 87.5647 80.5802 87.896 80.5802 88.288C80.5802 88.7547 80.4448 89.17 80.1742 89.534C79.9128 89.898 79.5208 90.1827 78.9982 90.388C78.4848 90.584 77.8455 90.682 77.0802 90.682ZM81.8341 90.5V83.08H83.9901V90.5H81.8341ZM82.9121 82.38C82.5108 82.38 82.1981 82.2773 81.9741 82.072C81.7595 81.8573 81.6521 81.5867 81.6521 81.26C81.6521 80.9333 81.7595 80.6673 81.9741 80.462C82.1981 80.2473 82.5108 80.14 82.9121 80.14C83.3135 80.14 83.6215 80.2473 83.8361 80.462C84.0601 80.6673 84.1721 80.9333 84.1721 81.26C84.1721 81.5867 84.0601 81.8573 83.8361 82.072C83.6215 82.2773 83.3135 82.38 82.9121 82.38ZM88.6859 90.584C88.0699 90.584 87.5659 90.5047 87.1739 90.346C86.7819 90.178 86.4926 89.9073 86.3059 89.534C86.1193 89.1513 86.0259 88.6333 86.0259 87.98V84.844H85.1159V83.08H86.0259V81.4H88.1819V83.08H89.8759V84.844H88.1819V87.63C88.1819 88.05 88.2473 88.3487 88.3779 88.526C88.5179 88.7033 88.7839 88.792 89.1759 88.792C89.4559 88.792 89.7359 88.778 90.0159 88.75V90.5C89.8386 90.528 89.6519 90.5467 89.4559 90.556C89.2599 90.5747 89.0033 90.584 88.6859 90.584ZM94.7114 90.682C93.9834 90.682 93.3301 90.5467 92.7514 90.276C92.1727 89.996 91.7107 89.5713 91.3654 89.002C91.0294 88.4327 90.8614 87.7187 90.8614 86.86V86.58C90.8614 85.7587 91.0247 85.0773 91.3514 84.536C91.6781 83.9947 92.1214 83.5887 92.6814 83.318C93.2507 83.038 93.8807 82.898 94.5714 82.898C95.7941 82.898 96.7181 83.2153 97.3434 83.85C97.9687 84.4753 98.2814 85.3853 98.2814 86.58V87.364H93.0734C93.0921 87.728 93.1761 88.0313 93.3254 88.274C93.4841 88.5167 93.6847 88.694 93.9274 88.806C94.1701 88.9087 94.4314 88.96 94.7114 88.96C95.1221 88.96 95.4441 88.8993 95.6774 88.778C95.9201 88.6473 96.0787 88.4747 96.1534 88.26H98.1414C97.9921 89.072 97.6234 89.6787 97.0354 90.08C96.4474 90.4813 95.6727 90.682 94.7114 90.682ZM94.6414 84.62C94.3801 84.62 94.1327 84.662 93.8994 84.746C93.6661 84.83 93.4747 84.97 93.3254 85.166C93.1854 85.3527 93.1061 85.6093 93.0874 85.936H96.1674C96.1674 85.5907 96.0974 85.3247 95.9574 85.138C95.8174 84.942 95.6307 84.8067 95.3974 84.732C95.1734 84.6573 94.9214 84.62 94.6414 84.62Z" fill="white"/>
<path d="M45.8317 118.273V143H41.3161L30.5582 127.437H30.3771V143H25.1491V118.273H29.7372L40.4105 133.824H40.6278V118.273H45.8317ZM54.1529 143.35C52.9696 143.35 51.9152 143.145 50.9895 142.734C50.0638 142.316 49.3314 141.7 48.7921 140.887C48.2608 140.066 47.9952 139.044 47.9952 137.82C47.9952 136.79 48.1843 135.925 48.5627 135.224C48.941 134.524 49.4561 133.961 50.1081 133.534C50.7601 133.107 51.5006 132.786 52.3297 132.568C53.1668 132.351 54.0442 132.198 54.9618 132.109C56.0404 131.997 56.9097 131.892 57.5698 131.795C58.2298 131.691 58.7087 131.538 59.0066 131.337C59.3044 131.135 59.4533 130.838 59.4533 130.443V130.371C59.4533 129.606 59.2118 129.014 58.7289 128.596C58.254 128.177 57.5778 127.968 56.7004 127.968C55.7748 127.968 55.0383 128.173 54.4909 128.584C53.9436 128.986 53.5814 129.493 53.4043 130.105L48.6472 129.719C48.8887 128.592 49.3636 127.618 50.0719 126.797C50.7802 125.968 51.6938 125.332 52.8127 124.889C53.9396 124.438 55.2435 124.213 56.7246 124.213C57.7549 124.213 58.7409 124.334 59.6827 124.575C60.6325 124.817 61.4736 125.191 62.2061 125.698C62.9467 126.205 63.5302 126.857 63.9568 127.654C64.3834 128.443 64.5968 129.389 64.5968 130.491V143H59.7189V140.428H59.574C59.2762 141.008 58.8778 141.519 58.3787 141.962C57.8797 142.396 57.28 142.738 56.5797 142.988C55.8794 143.229 55.0705 143.35 54.1529 143.35ZM55.6259 139.8C56.3825 139.8 57.0506 139.652 57.6301 139.354C58.2097 139.048 58.6645 138.637 58.9945 138.122C59.3245 137.607 59.4895 137.023 59.4895 136.371V134.403C59.3285 134.508 59.1072 134.605 58.8254 134.693C58.5518 134.774 58.2419 134.85 57.8958 134.923C57.5496 134.987 57.2035 135.047 56.8574 135.104C56.5113 135.152 56.1974 135.196 55.9156 135.237C55.312 135.325 54.7847 135.466 54.334 135.659C53.8832 135.852 53.5331 136.114 53.2835 136.444C53.034 136.766 52.9093 137.168 52.9093 137.651C52.9093 138.352 53.1628 138.887 53.6699 139.257C54.1851 139.619 54.837 139.8 55.6259 139.8ZM77.2615 124.455V128.318H66.0932V124.455H77.2615ZM68.6287 120.011H73.7722V137.301C73.7722 137.776 73.8446 138.146 73.9895 138.412C74.1344 138.67 74.3356 138.851 74.5932 138.955C74.8588 139.06 75.1647 139.112 75.5108 139.112C75.7523 139.112 75.9938 139.092 76.2352 139.052C76.4767 139.004 76.6618 138.967 76.7906 138.943L77.5996 142.771C77.342 142.851 76.9798 142.944 76.5129 143.048C76.0461 143.161 75.4786 143.229 74.8105 143.254C73.5709 143.302 72.4843 143.137 71.5506 142.759C70.6249 142.38 69.9045 141.793 69.3894 140.996C68.8742 140.199 68.6207 139.193 68.6287 137.977V120.011ZM91.3148 135.104V124.455H96.4582V143H91.52V139.631H91.3268C90.9083 140.718 90.212 141.591 89.2381 142.251C88.2722 142.911 87.0929 143.241 85.7004 143.241C84.4608 143.241 83.3702 142.96 82.4284 142.396C81.4866 141.833 80.7501 141.032 80.2189 139.994C79.6957 138.955 79.4301 137.712 79.422 136.263V124.455H84.5655V135.345C84.5735 136.44 84.8673 137.305 85.4469 137.941C86.0264 138.577 86.8032 138.895 87.7771 138.895C88.3969 138.895 88.9765 138.754 89.5158 138.472C90.0551 138.183 90.4897 137.756 90.8197 137.192C91.1578 136.629 91.3228 135.933 91.3148 135.104ZM99.3824 143V124.455H104.369V127.69H104.562C104.9 126.539 105.468 125.67 106.265 125.082C107.061 124.487 107.979 124.189 109.017 124.189C109.275 124.189 109.553 124.205 109.85 124.237C110.148 124.269 110.41 124.314 110.635 124.37V128.934C110.394 128.862 110.06 128.797 109.633 128.741C109.206 128.684 108.816 128.656 108.462 128.656C107.705 128.656 107.029 128.821 106.434 129.151C105.846 129.473 105.379 129.924 105.033 130.504C104.695 131.083 104.526 131.751 104.526 132.508V143H99.3824ZM116.862 143.35C115.678 143.35 114.624 143.145 113.698 142.734C112.773 142.316 112.04 141.7 111.501 140.887C110.97 140.066 110.704 139.044 110.704 137.82C110.704 136.79 110.893 135.925 111.271 135.224C111.65 134.524 112.165 133.961 112.817 133.534C113.469 133.107 114.209 132.786 115.038 132.568C115.876 132.351 116.753 132.198 117.671 132.109C118.749 131.997 119.618 131.892 120.279 131.795C120.939 131.691 121.417 131.538 121.715 131.337C122.013 131.135 122.162 130.838 122.162 130.443V130.371C122.162 129.606 121.921 129.014 121.438 128.596C120.963 128.177 120.287 127.968 119.409 127.968C118.484 127.968 117.747 128.173 117.2 128.584C116.652 128.986 116.29 129.493 116.113 130.105L111.356 129.719C111.597 128.592 112.072 127.618 112.781 126.797C113.489 125.968 114.403 125.332 115.521 124.889C116.648 124.438 117.952 124.213 119.433 124.213C120.464 124.213 121.45 124.334 122.391 124.575C123.341 124.817 124.182 125.191 124.915 125.698C125.655 126.205 126.239 126.857 126.666 127.654C127.092 128.443 127.306 129.389 127.306 130.491V143H122.428V140.428H122.283C121.985 141.008 121.587 141.519 121.087 141.962C120.588 142.396 119.989 142.738 119.288 142.988C118.588 143.229 117.779 143.35 116.862 143.35ZM118.335 139.8C119.091 139.8 119.759 139.652 120.339 139.354C120.918 139.048 121.373 138.637 121.703 138.122C122.033 137.607 122.198 137.023 122.198 136.371V134.403C122.037 134.508 121.816 134.605 121.534 134.693C121.261 134.774 120.951 134.85 120.605 134.923C120.258 134.987 119.912 135.047 119.566 135.104C119.22 135.152 118.906 135.196 118.624 135.237C118.021 135.325 117.493 135.466 117.043 135.659C116.592 135.852 116.242 136.114 115.992 136.444C115.743 136.766 115.618 137.168 115.618 137.651C115.618 138.352 115.872 138.887 116.379 139.257C116.894 139.619 117.546 139.8 118.335 139.8ZM135.249 118.273V143H130.106V118.273H135.249ZM141.186 143.314C140.389 143.314 139.705 143.032 139.133 142.469C138.57 141.897 138.288 141.213 138.288 140.416C138.288 139.627 138.57 138.951 139.133 138.388C139.705 137.824 140.389 137.543 141.186 137.543C141.959 137.543 142.635 137.824 143.214 138.388C143.794 138.951 144.084 139.627 144.084 140.416C144.084 140.947 143.947 141.434 143.673 141.877C143.408 142.312 143.057 142.662 142.623 142.928C142.188 143.185 141.709 143.314 141.186 143.314Z" fill="#0E0E0E"/>
<path opacity="0.45" d="M35.8168 172.493C35.7372 171.691 35.3958 171.068 34.7926 170.624C34.1894 170.179 33.3707 169.957 32.3366 169.957C31.634 169.957 31.0407 170.057 30.5568 170.256C30.0729 170.448 29.7017 170.716 29.4432 171.061C29.1913 171.406 29.0653 171.797 29.0653 172.234C29.0521 172.599 29.1283 172.917 29.294 173.189C29.4664 173.461 29.7017 173.696 30 173.895C30.2983 174.087 30.643 174.256 31.0341 174.402C31.4252 174.541 31.8428 174.661 32.2869 174.76L34.1165 175.197C35.0047 175.396 35.8201 175.661 36.5625 175.993C37.3049 176.324 37.9479 176.732 38.4915 177.216C39.035 177.7 39.456 178.27 39.7543 178.926C40.0592 179.582 40.215 180.335 40.2216 181.183C40.215 182.429 39.8968 183.51 39.267 184.425C38.6439 185.333 37.7424 186.039 36.5625 186.543C35.3892 187.04 33.974 187.288 32.3168 187.288C30.6728 187.288 29.241 187.036 28.0213 186.533C26.8082 186.029 25.8603 185.283 25.1776 184.295C24.5014 183.301 24.1468 182.071 24.1136 180.607H28.2798C28.3262 181.289 28.5218 181.859 28.8665 182.317C29.2178 182.768 29.6851 183.109 30.2685 183.341C30.8584 183.566 31.5246 183.679 32.267 183.679C32.9962 183.679 33.6293 183.573 34.1662 183.361C34.7098 183.149 35.1307 182.854 35.429 182.476C35.7273 182.098 35.8764 181.664 35.8764 181.173C35.8764 180.716 35.7405 180.331 35.4688 180.02C35.2036 179.708 34.8125 179.443 34.2955 179.224C33.785 179.006 33.1586 178.807 32.4162 178.628L30.1989 178.071C28.482 177.653 27.1264 177 26.1321 176.112C25.1378 175.224 24.6439 174.027 24.6506 172.523C24.6439 171.29 24.9721 170.213 25.6349 169.291C26.3045 168.37 27.2225 167.651 28.3892 167.134C29.5559 166.616 30.8816 166.358 32.3665 166.358C33.8778 166.358 35.197 166.616 36.3239 167.134C37.4574 167.651 38.339 168.37 38.9688 169.291C39.5985 170.213 39.9233 171.28 39.9432 172.493H35.8168ZM48.9586 187.298C47.4141 187.298 46.0784 186.97 44.9515 186.314C43.8312 185.651 42.9661 184.73 42.3563 183.55C41.7464 182.363 41.4415 180.988 41.4415 179.423C41.4415 177.846 41.7464 176.467 42.3563 175.287C42.9661 174.1 43.8312 173.179 44.9515 172.523C46.0784 171.86 47.4141 171.528 48.9586 171.528C50.5031 171.528 51.8355 171.86 52.9557 172.523C54.0826 173.179 54.951 174.1 55.5608 175.287C56.1707 176.467 56.4756 177.846 56.4756 179.423C56.4756 180.988 56.1707 182.363 55.5608 183.55C54.951 184.73 54.0826 185.651 52.9557 186.314C51.8355 186.97 50.5031 187.298 48.9586 187.298ZM48.9785 184.017C49.6811 184.017 50.2678 183.818 50.7384 183.42C51.209 183.016 51.5637 182.466 51.8023 181.77C52.0476 181.074 52.1702 180.282 52.1702 179.393C52.1702 178.505 52.0476 177.713 51.8023 177.017C51.5637 176.321 51.209 175.771 50.7384 175.366C50.2678 174.962 49.6811 174.76 48.9785 174.76C48.2692 174.76 47.6726 174.962 47.1887 175.366C46.7114 175.771 46.3501 176.321 46.1049 177.017C45.8662 177.713 45.7469 178.505 45.7469 179.393C45.7469 180.282 45.8662 181.074 46.1049 181.77C46.3501 182.466 46.7114 183.016 47.1887 183.42C47.6726 183.818 48.2692 184.017 48.9785 184.017ZM62.605 187.288C61.6306 187.288 60.7622 187.119 59.9999 186.781C59.2376 186.437 58.6343 185.929 58.1902 185.26C57.7527 184.584 57.534 183.742 57.534 182.734C57.534 181.886 57.6897 181.173 58.0013 180.597C58.3128 180.02 58.7371 179.556 59.274 179.205C59.811 178.853 60.4208 178.588 61.1036 178.409C61.793 178.23 62.5155 178.104 63.2712 178.031C64.1594 177.938 64.8753 177.852 65.4189 177.773C65.9625 177.687 66.3569 177.561 66.6021 177.395C66.8474 177.229 66.97 176.984 66.97 176.659V176.599C66.97 175.97 66.7712 175.482 66.3735 175.138C65.9824 174.793 65.4255 174.621 64.703 174.621C63.9407 174.621 63.3342 174.79 62.8834 175.128C62.4326 175.459 62.1343 175.877 61.9885 176.381L58.0709 176.062C58.2698 175.134 58.6609 174.332 59.2442 173.656C59.8275 172.973 60.5799 172.45 61.5013 172.085C62.4293 171.714 63.5032 171.528 64.7229 171.528C65.5714 171.528 66.3834 171.628 67.159 171.827C67.9412 172.026 68.6339 172.334 69.2371 172.751C69.8469 173.169 70.3275 173.706 70.6789 174.362C71.0302 175.012 71.2058 175.791 71.2058 176.699V187H67.1888V184.882H67.0695C66.8242 185.359 66.4961 185.78 66.0851 186.145C65.6741 186.503 65.1803 186.785 64.6036 186.99C64.0269 187.189 63.3607 187.288 62.605 187.288ZM63.8181 184.365C64.4412 184.365 64.9914 184.242 65.4686 183.997C65.9459 183.745 66.3204 183.407 66.5922 182.983C66.864 182.559 66.9999 182.078 66.9999 181.541V179.92C66.8673 180.007 66.685 180.086 66.453 180.159C66.2276 180.225 65.9724 180.288 65.6874 180.348C65.4023 180.401 65.1173 180.451 64.8323 180.497C64.5472 180.537 64.2887 180.573 64.0567 180.607C63.5595 180.679 63.1253 180.795 62.7541 180.955C62.3829 181.114 62.0946 181.329 61.8891 181.601C61.6836 181.866 61.5808 182.197 61.5808 182.595C61.5808 183.172 61.7896 183.613 62.2073 183.918C62.6315 184.216 63.1684 184.365 63.8181 184.365ZM73.5121 192.727V171.727H77.6882V174.293H77.8771C78.0627 173.882 78.3312 173.464 78.6825 173.04C79.0405 172.609 79.5045 172.251 80.0746 171.966C80.6513 171.674 81.3672 171.528 82.2223 171.528C83.3359 171.528 84.3634 171.82 85.3047 172.403C86.246 172.98 86.9983 173.852 87.5618 175.018C88.1252 176.179 88.4069 177.634 88.4069 179.384C88.4069 181.087 88.1319 182.526 87.5817 183.699C87.0381 184.866 86.2957 185.75 85.3544 186.354C84.4197 186.95 83.3724 187.249 82.2123 187.249C81.3904 187.249 80.691 187.113 80.1143 186.841C79.5443 186.569 79.0769 186.228 78.7123 185.817C78.3478 185.399 78.0694 184.978 77.8771 184.554H77.7479V192.727H73.5121ZM77.6584 179.364C77.6584 180.272 77.7843 181.064 78.0362 181.74C78.2881 182.416 78.6527 182.943 79.13 183.321C79.6072 183.692 80.1873 183.878 80.87 183.878C81.5594 183.878 82.1427 183.689 82.62 183.311C83.0973 182.927 83.4586 182.396 83.7038 181.72C83.9557 181.037 84.0817 180.252 84.0817 179.364C84.0817 178.482 83.959 177.706 83.7138 177.037C83.4685 176.367 83.1072 175.844 82.63 175.466C82.1527 175.088 81.566 174.899 80.87 174.899C80.1806 174.899 79.5973 175.081 79.12 175.446C78.6494 175.811 78.2881 176.328 78.0362 176.997C77.7843 177.667 77.6584 178.455 77.6584 179.364ZM94.8545 184.216L94.7451 185.31C94.659 186.185 94.4932 187.056 94.248 187.925C94.0093 188.8 93.7574 189.592 93.4923 190.301C93.2338 191.01 93.025 191.567 92.8659 191.972H90.1216C90.221 191.58 90.3569 191.034 90.5292 190.331C90.7016 189.635 90.864 188.853 91.0164 187.984C91.1689 187.116 91.265 186.231 91.3048 185.33L91.3545 184.216H94.8545ZM121.083 176.818C121.083 179.039 120.662 180.928 119.821 182.486C118.985 184.044 117.845 185.233 116.4 186.055C114.962 186.871 113.344 187.278 111.548 187.278C109.738 187.278 108.114 186.867 106.676 186.045C105.237 185.223 104.1 184.034 103.265 182.476C102.43 180.918 102.012 179.032 102.012 176.818C102.012 174.598 102.43 172.708 103.265 171.151C104.1 169.593 105.237 168.406 106.676 167.591C108.114 166.769 109.738 166.358 111.548 166.358C113.344 166.358 114.962 166.769 116.4 167.591C117.845 168.406 118.985 169.593 119.821 171.151C120.662 172.708 121.083 174.598 121.083 176.818ZM116.718 176.818C116.718 175.38 116.503 174.167 116.072 173.179C115.648 172.191 115.048 171.442 114.272 170.932C113.497 170.421 112.589 170.166 111.548 170.166C110.507 170.166 109.599 170.421 108.823 170.932C108.048 171.442 107.445 172.191 107.014 173.179C106.59 174.167 106.377 175.38 106.377 176.818C106.377 178.257 106.59 179.47 107.014 180.457C107.445 181.445 108.048 182.194 108.823 182.705C109.599 183.215 110.507 183.47 111.548 183.47C112.589 183.47 113.497 183.215 114.272 182.705C115.048 182.194 115.648 181.445 116.072 180.457C116.503 179.47 116.718 178.257 116.718 176.818ZM123.213 187V171.727H127.449V187H123.213ZM125.341 169.759C124.711 169.759 124.171 169.55 123.72 169.132C123.276 168.708 123.054 168.201 123.054 167.611C123.054 167.027 123.276 166.527 123.72 166.109C124.171 165.685 124.711 165.473 125.341 165.473C125.971 165.473 126.508 165.685 126.952 166.109C127.403 166.527 127.628 167.027 127.628 167.611C127.628 168.201 127.403 168.708 126.952 169.132C126.508 169.55 125.971 169.759 125.341 169.759ZM134.098 166.636V187H129.862V166.636H134.098ZM141.115 184.216L141.005 185.31C140.919 186.185 140.753 187.056 140.508 187.925C140.269 188.8 140.018 189.592 139.752 190.301C139.494 191.01 139.285 191.567 139.126 191.972H136.382C136.481 191.58 136.617 191.034 136.789 190.331C136.962 189.635 137.124 188.853 137.277 187.984C137.429 187.116 137.525 186.231 137.565 185.33L137.615 184.216H141.115ZM148.631 187V166.636H152.936V175.038H161.676V166.636H165.971V187H161.676V178.588H152.936V187H148.631ZM172.817 187.288C171.842 187.288 170.974 187.119 170.212 186.781C169.449 186.437 168.846 185.929 168.402 185.26C167.964 184.584 167.746 183.742 167.746 182.734C167.746 181.886 167.901 181.173 168.213 180.597C168.525 180.02 168.949 179.556 169.486 179.205C170.023 178.853 170.633 178.588 171.315 178.409C172.005 178.23 172.727 178.104 173.483 178.031C174.371 177.938 175.087 177.852 175.631 177.773C176.174 177.687 176.569 177.561 176.814 177.395C177.059 177.229 177.182 176.984 177.182 176.659V176.599C177.182 175.97 176.983 175.482 176.585 175.138C176.194 174.793 175.637 174.621 174.915 174.621C174.152 174.621 173.546 174.79 173.095 175.128C172.644 175.459 172.346 175.877 172.2 176.381L168.283 176.062C168.481 175.134 168.873 174.332 169.456 173.656C170.039 172.973 170.792 172.45 171.713 172.085C172.641 171.714 173.715 171.528 174.935 171.528C175.783 171.528 176.595 171.628 177.371 171.827C178.153 172.026 178.846 172.334 179.449 172.751C180.059 173.169 180.539 173.706 180.891 174.362C181.242 175.012 181.418 175.791 181.418 176.699V187H177.401V184.882H177.281C177.036 185.359 176.708 185.78 176.297 186.145C175.886 186.503 175.392 186.785 174.815 186.99C174.239 187.189 173.572 187.288 172.817 187.288ZM174.03 184.365C174.653 184.365 175.203 184.242 175.68 183.997C176.158 183.745 176.532 183.407 176.804 182.983C177.076 182.559 177.212 182.078 177.212 181.541V179.92C177.079 180.007 176.897 180.086 176.665 180.159C176.439 180.225 176.184 180.288 175.899 180.348C175.614 180.401 175.329 180.451 175.044 180.497C174.759 180.537 174.5 180.573 174.268 180.607C173.771 180.679 173.337 180.795 172.966 180.955C172.595 181.114 172.306 181.329 172.101 181.601C171.895 181.866 171.793 182.197 171.793 182.595C171.793 183.172 172.001 183.613 172.419 183.918C172.843 184.216 173.38 184.365 174.03 184.365ZM187.96 178.17V187H183.724V171.727H187.761V174.422H187.94C188.278 173.534 188.845 172.831 189.64 172.314C190.435 171.79 191.4 171.528 192.533 171.528C193.594 171.528 194.519 171.76 195.308 172.224C196.096 172.688 196.71 173.351 197.147 174.213C197.585 175.068 197.803 176.089 197.803 177.276V187H193.568V178.031C193.574 177.097 193.336 176.367 192.852 175.844C192.368 175.313 191.702 175.048 190.853 175.048C190.283 175.048 189.779 175.171 189.342 175.416C188.911 175.661 188.573 176.019 188.327 176.49C188.089 176.954 187.966 177.514 187.96 178.17ZM205.79 187.249C204.63 187.249 203.579 186.95 202.638 186.354C201.703 185.75 200.961 184.866 200.41 183.699C199.867 182.526 199.595 181.087 199.595 179.384C199.595 177.634 199.877 176.179 200.44 175.018C201.004 173.852 201.753 172.98 202.687 172.403C203.629 171.82 204.659 171.528 205.78 171.528C206.635 171.528 207.347 171.674 207.917 171.966C208.494 172.251 208.958 172.609 209.309 173.04C209.667 173.464 209.939 173.882 210.125 174.293H210.254V166.636H214.48V187H210.304V184.554H210.125C209.926 184.978 209.644 185.399 209.28 185.817C208.922 186.228 208.454 186.569 207.878 186.841C207.308 187.113 206.612 187.249 205.79 187.249ZM207.132 183.878C207.815 183.878 208.391 183.692 208.862 183.321C209.339 182.943 209.704 182.416 209.956 181.74C210.214 181.064 210.344 180.272 210.344 179.364C210.344 178.455 210.218 177.667 209.966 176.997C209.714 176.328 209.349 175.811 208.872 175.446C208.395 175.081 207.815 174.899 207.132 174.899C206.436 174.899 205.849 175.088 205.372 175.466C204.895 175.844 204.533 176.367 204.288 177.037C204.043 177.706 203.92 178.482 203.92 179.364C203.92 180.252 204.043 181.037 204.288 181.72C204.54 182.396 204.901 182.927 205.372 183.311C205.849 183.689 206.436 183.878 207.132 183.878ZM216.983 187V171.727H221.019V174.422H221.198C221.517 173.527 222.047 172.821 222.789 172.304C223.532 171.787 224.42 171.528 225.454 171.528C226.501 171.528 227.393 171.79 228.129 172.314C228.865 172.831 229.355 173.534 229.6 174.422H229.76C230.071 173.547 230.635 172.848 231.45 172.324C232.272 171.794 233.243 171.528 234.363 171.528C235.788 171.528 236.945 171.982 237.833 172.891C238.728 173.792 239.176 175.071 239.176 176.729V187H234.95V177.564C234.95 176.715 234.724 176.079 234.274 175.655C233.823 175.231 233.26 175.018 232.583 175.018C231.814 175.018 231.215 175.264 230.784 175.754C230.353 176.238 230.137 176.878 230.137 177.673V187H226.031V177.474C226.031 176.725 225.815 176.129 225.385 175.685C224.96 175.241 224.4 175.018 223.704 175.018C223.233 175.018 222.809 175.138 222.431 175.376C222.06 175.608 221.765 175.937 221.546 176.361C221.328 176.778 221.218 177.269 221.218 177.832V187H216.983ZM245.897 187.288C244.922 187.288 244.054 187.119 243.292 186.781C242.529 186.437 241.926 185.929 241.482 185.26C241.044 184.584 240.826 183.742 240.826 182.734C240.826 181.886 240.981 181.173 241.293 180.597C241.605 180.02 242.029 179.556 242.566 179.205C243.103 178.853 243.713 178.588 244.395 178.409C245.085 178.23 245.807 178.104 246.563 178.031C247.451 177.938 248.167 177.852 248.711 177.773C249.254 177.687 249.649 177.561 249.894 177.395C250.139 177.229 250.262 176.984 250.262 176.659V176.599C250.262 175.97 250.063 175.482 249.665 175.138C249.274 174.793 248.717 174.621 247.995 174.621C247.232 174.621 246.626 174.79 246.175 175.128C245.724 175.459 245.426 175.877 245.28 176.381L241.363 176.062C241.561 175.134 241.953 174.332 242.536 173.656C243.119 172.973 243.872 172.45 244.793 172.085C245.721 171.714 246.795 171.528 248.015 171.528C248.863 171.528 249.675 171.628 250.451 171.827C251.233 172.026 251.926 172.334 252.529 172.751C253.139 173.169 253.619 173.706 253.971 174.362C254.322 175.012 254.498 175.791 254.498 176.699V187H250.481V184.882H250.361C250.116 185.359 249.788 185.78 249.377 186.145C248.966 186.503 248.472 186.785 247.895 186.99C247.319 187.189 246.652 187.288 245.897 187.288ZM247.11 184.365C247.733 184.365 248.283 184.242 248.76 183.997C249.238 183.745 249.612 183.407 249.884 182.983C250.156 182.559 250.292 182.078 250.292 181.541V179.92C250.159 180.007 249.977 180.086 249.745 180.159C249.519 180.225 249.264 180.288 248.979 180.348C248.694 180.401 248.409 180.451 248.124 180.497C247.839 180.537 247.58 180.573 247.348 180.607C246.851 180.679 246.417 180.795 246.046 180.955C245.675 181.114 245.386 181.329 245.181 181.601C244.975 181.866 244.873 182.197 244.873 182.595C244.873 183.172 245.081 183.613 245.499 183.918C245.923 184.216 246.46 184.365 247.11 184.365ZM262.432 187.249C261.272 187.249 260.221 186.95 259.28 186.354C258.345 185.75 257.603 184.866 257.052 183.699C256.509 182.526 256.237 181.087 256.237 179.384C256.237 177.634 256.519 176.179 257.082 175.018C257.646 173.852 258.395 172.98 259.329 172.403C260.271 171.82 261.301 171.528 262.422 171.528C263.277 171.528 263.989 171.674 264.559 171.966C265.136 172.251 265.6 172.609 265.952 173.04C266.309 173.464 266.581 173.882 266.767 174.293H266.896V166.636H271.122V187H266.946V184.554H266.767C266.568 184.978 266.286 185.399 265.922 185.817C265.564 186.228 265.096 186.569 264.52 186.841C263.95 187.113 263.254 187.249 262.432 187.249ZM263.774 183.878C264.457 183.878 265.033 183.692 265.504 183.321C265.981 182.943 266.346 182.416 266.598 181.74C266.856 181.064 266.986 180.272 266.986 179.364C266.986 178.455 266.86 177.667 266.608 176.997C266.356 176.328 265.991 175.811 265.514 175.446C265.037 175.081 264.457 174.899 263.774 174.899C263.078 174.899 262.491 175.088 262.014 175.466C261.537 175.844 261.175 176.367 260.93 177.037C260.685 177.706 260.562 178.482 260.562 179.364C260.562 180.252 260.685 181.037 260.93 181.72C261.182 182.396 261.543 182.927 262.014 183.311C262.491 183.689 263.078 183.878 263.774 183.878ZM280.585 187.298C279.014 187.298 277.661 186.98 276.528 186.344C275.401 185.701 274.533 184.793 273.923 183.619C273.313 182.439 273.008 181.044 273.008 179.433C273.008 177.862 273.313 176.483 273.923 175.297C274.533 174.11 275.391 173.186 276.498 172.523C277.612 171.86 278.918 171.528 280.416 171.528C281.423 171.528 282.361 171.691 283.23 172.016C284.105 172.334 284.867 172.814 285.517 173.457C286.173 174.1 286.683 174.909 287.048 175.884C287.412 176.851 287.595 177.985 287.595 179.284V180.447H274.698V177.822H283.608C283.608 177.213 283.475 176.672 283.21 176.202C282.945 175.731 282.577 175.363 282.106 175.098C281.642 174.826 281.102 174.69 280.485 174.69C279.842 174.69 279.272 174.839 278.775 175.138C278.285 175.429 277.9 175.824 277.622 176.321C277.343 176.812 277.201 177.358 277.194 177.962V180.457C277.194 181.213 277.333 181.866 277.612 182.416C277.897 182.966 278.298 183.391 278.815 183.689C279.332 183.987 279.945 184.136 280.654 184.136C281.125 184.136 281.556 184.07 281.947 183.938C282.338 183.805 282.673 183.606 282.951 183.341C283.23 183.076 283.442 182.751 283.588 182.366L287.505 182.625C287.306 183.566 286.899 184.388 286.282 185.091C285.672 185.787 284.884 186.33 283.916 186.722C282.955 187.106 281.844 187.298 280.585 187.298ZM32.8139 205.727V208.909H23.6165V205.727H32.8139ZM25.7045 202.068H29.9403V216.307C29.9403 216.698 30 217.003 30.1193 217.222C30.2386 217.434 30.4044 217.583 30.6165 217.669C30.8352 217.755 31.0871 217.798 31.3722 217.798C31.571 217.798 31.7699 217.782 31.9688 217.749C32.1676 217.709 32.3201 217.679 32.4261 217.659L33.0923 220.811C32.8802 220.877 32.5819 220.954 32.1974 221.04C31.813 221.133 31.3456 221.189 30.7955 221.209C29.7746 221.249 28.8797 221.113 28.1108 220.801C27.3485 220.49 26.7552 220.006 26.331 219.349C25.9067 218.693 25.6979 217.865 25.7045 216.864V202.068ZM39.1571 212.17V221H34.9213V200.636H39.0378V208.422H39.2167C39.5614 207.52 40.1182 206.814 40.8872 206.304C41.6561 205.787 42.6206 205.528 43.7807 205.528C44.8413 205.528 45.766 205.76 46.5548 206.224C47.3503 206.682 47.9667 207.341 48.4042 208.203C48.8484 209.058 49.0671 210.082 49.0605 211.276V221H44.8247V212.031C44.8313 211.09 44.5927 210.357 44.1088 209.834C43.6315 209.31 42.962 209.048 42.1003 209.048C41.5236 209.048 41.0131 209.171 40.569 209.416C40.1315 209.661 39.7868 210.019 39.5349 210.49C39.2897 210.954 39.1637 211.514 39.1571 212.17ZM51.4139 221V205.727H55.6497V221H51.4139ZM53.5418 203.759C52.912 203.759 52.3718 203.55 51.921 203.132C51.4769 202.708 51.2548 202.201 51.2548 201.611C51.2548 201.027 51.4769 200.527 51.921 200.109C52.3718 199.685 52.912 199.473 53.5418 199.473C54.1715 199.473 54.7084 199.685 55.1526 200.109C55.6033 200.527 55.8287 201.027 55.8287 201.611C55.8287 202.201 55.6033 202.708 55.1526 203.132C54.7084 203.55 54.1715 203.759 53.5418 203.759ZM62.2986 212.17V221H58.0628V205.727H62.0998V208.422H62.2788C62.6168 207.534 63.1836 206.831 63.979 206.314C64.7745 205.79 65.739 205.528 66.8725 205.528C67.9331 205.528 68.8578 205.76 69.6466 206.224C70.4355 206.688 71.0486 207.351 71.4861 208.213C71.9236 209.068 72.1424 210.089 72.1424 211.276V221H67.9066V212.031C67.9132 211.097 67.6746 210.367 67.1907 209.844C66.7068 209.313 66.0406 209.048 65.1921 209.048C64.622 209.048 64.1182 209.171 63.6807 209.416C63.2499 209.661 62.9118 210.019 62.6665 210.49C62.4279 210.954 62.3053 211.514 62.2986 212.17ZM81.3815 227.045C80.0093 227.045 78.8327 226.857 77.8517 226.479C76.8772 226.107 76.1017 225.6 75.525 224.957C74.9483 224.314 74.5737 223.592 74.4014 222.79L78.319 222.263C78.4383 222.568 78.6272 222.853 78.8858 223.118C79.1443 223.383 79.4857 223.595 79.9099 223.754C80.3408 223.92 80.8644 224.003 81.4809 224.003C82.4023 224.003 83.1613 223.777 83.7579 223.327C84.3611 222.883 84.6627 222.137 84.6627 221.089V218.295H84.4838C84.2982 218.72 84.0198 219.121 83.6485 219.499C83.2773 219.876 82.8001 220.185 82.2167 220.423C81.6334 220.662 80.9374 220.781 80.1287 220.781C78.9819 220.781 77.9378 220.516 76.9966 219.986C76.0619 219.449 75.3162 218.63 74.7593 217.53C74.2091 216.423 73.9341 215.024 73.9341 213.334C73.9341 211.604 74.2158 210.159 74.7792 208.999C75.3427 207.839 76.0917 206.97 77.0264 206.393C77.9677 205.817 78.9984 205.528 80.1187 205.528C80.9738 205.528 81.6897 205.674 82.2664 205.966C82.8431 206.251 83.3072 206.609 83.6585 207.04C84.0164 207.464 84.2915 207.882 84.4838 208.293H84.6429V205.727H88.8488V221.149C88.8488 222.448 88.5306 223.536 87.8943 224.411C87.2579 225.286 86.3763 225.942 85.2494 226.379C84.1291 226.823 82.8398 227.045 81.3815 227.045ZM81.471 217.599C82.1537 217.599 82.7305 217.43 83.2011 217.092C83.6784 216.748 84.043 216.257 84.2948 215.621C84.5534 214.978 84.6826 214.209 84.6826 213.314C84.6826 212.419 84.5567 211.643 84.3048 210.987C84.0529 210.324 83.6883 209.811 83.211 209.446C82.7338 209.081 82.1537 208.899 81.471 208.899C80.775 208.899 80.1883 209.088 79.711 209.466C79.2338 209.837 78.8725 210.354 78.6272 211.017C78.382 211.68 78.2593 212.446 78.2593 213.314C78.2593 214.196 78.382 214.958 78.6272 215.601C78.8791 216.237 79.2404 216.731 79.711 217.082C80.1883 217.427 80.775 217.599 81.471 217.599ZM103.947 210.082L100.069 210.321C100.003 209.99 99.8603 209.691 99.6415 209.426C99.4228 209.154 99.1344 208.939 98.7765 208.78C98.4252 208.614 98.0042 208.531 97.5137 208.531C96.8575 208.531 96.304 208.67 95.8532 208.949C95.4024 209.221 95.1771 209.585 95.1771 210.043C95.1771 210.407 95.3229 210.715 95.6146 210.967C95.9062 211.219 96.4067 211.421 97.116 211.574L99.8802 212.131C101.365 212.436 102.472 212.926 103.201 213.602C103.93 214.278 104.295 215.167 104.295 216.267C104.295 217.268 104 218.146 103.41 218.902C102.827 219.658 102.025 220.248 101.004 220.672C99.9896 221.089 98.8196 221.298 97.4938 221.298C95.472 221.298 93.8612 220.877 92.6614 220.036C91.4683 219.187 90.7689 218.034 90.5634 216.575L94.7296 216.357C94.8556 216.973 95.1605 217.444 95.6444 217.768C96.1283 218.087 96.7481 218.246 97.5038 218.246C98.2462 218.246 98.8428 218.103 99.2935 217.818C99.7509 217.527 99.9829 217.152 99.9896 216.695C99.9829 216.31 99.8205 215.995 99.5023 215.75C99.1842 215.498 98.6936 215.306 98.0308 215.173L95.3859 214.646C93.8944 214.348 92.7841 213.831 92.0549 213.095C91.3324 212.359 90.9711 211.421 90.9711 210.281C90.9711 209.3 91.2362 208.455 91.7665 207.746C92.3035 207.036 93.0558 206.49 94.0236 206.105C94.9981 205.721 96.1382 205.528 97.4441 205.528C99.3731 205.528 100.891 205.936 101.998 206.751C103.112 207.567 103.761 208.677 103.947 210.082ZM108.458 221.259C107.802 221.259 107.238 221.027 106.768 220.562C106.304 220.092 106.072 219.528 106.072 218.872C106.072 218.223 106.304 217.666 106.768 217.202C107.238 216.738 107.802 216.506 108.458 216.506C109.094 216.506 109.651 216.738 110.129 217.202C110.606 217.666 110.844 218.223 110.844 218.872C110.844 219.31 110.732 219.711 110.506 220.075C110.288 220.433 109.999 220.722 109.641 220.94C109.283 221.152 108.889 221.259 108.458 221.259Z" fill="#0E0E0E"/>
<path d="M260.5 106.125C279.105 106.125 294.188 90.8467 294.188 72C294.188 53.1533 279.105 37.875 260.5 37.875C241.895 37.875 226.812 53.1533 226.812 72C226.812 90.8467 241.895 106.125 260.5 106.125Z" fill="#028CB0"/>
<path d="M237.533 72C237.533 81.2194 242.827 89.16 250.483 92.9345L239.529 62.5332C238.213 65.5114 237.533 68.7374 237.533 72ZM260.5 95.265C263.167 95.265 265.733 94.7906 268.135 93.9451L267.972 93.6357L260.907 74.0419L254.025 94.3163C256.061 94.9349 258.24 95.265 260.5 95.265ZM263.656 61.0893L271.963 86.1075L274.264 78.3526C275.241 75.1351 275.994 72.8251 275.994 70.8244C275.994 67.9369 274.976 65.9569 274.121 64.4306C272.94 62.4918 271.861 60.8626 271.861 58.965C271.861 56.82 273.449 54.84 275.73 54.84H276.015C271.783 50.9046 266.245 48.7253 260.5 48.735C256.696 48.7343 252.952 49.6914 249.604 51.5203C246.256 53.3493 243.41 55.9926 241.32 59.2124L242.786 59.2538C245.189 59.2538 248.894 58.9443 248.894 58.9443C250.157 58.8826 250.299 60.718 249.057 60.8626C249.057 60.8626 247.815 61.0276 246.41 61.0893L254.799 86.293L259.828 71.0306L256.245 61.0893C255.442 61.0444 254.641 60.9757 253.842 60.8831C252.6 60.8007 252.743 58.8826 253.985 58.9443C253.985 58.9443 257.772 59.2538 260.032 59.2538C262.434 59.2538 266.14 58.9443 266.14 58.9443C267.382 58.8826 267.545 60.718 266.303 60.8626C266.303 60.8626 265.061 61.0069 263.656 61.0893ZM272.044 92.1094C275.519 90.0629 278.402 87.1286 280.407 83.5998C282.411 80.071 283.466 76.0714 283.467 72C283.467 67.9574 282.449 64.1625 280.657 60.8419C281.021 64.4952 280.475 68.1826 279.069 71.5669L272.044 92.1094ZM260.5 98.8125C253.48 98.8125 246.748 95.9877 241.784 90.9594C236.82 85.931 234.031 79.1112 234.031 72C234.031 64.8888 236.82 58.069 241.784 53.0407C246.748 48.0124 253.48 45.1875 260.5 45.1875C267.52 45.1875 274.252 48.0124 279.216 53.0407C284.18 58.069 286.969 64.8888 286.969 72C286.969 79.1112 284.18 85.931 279.216 90.9594C274.252 95.9877 267.52 98.8125 260.5 98.8125Z" fill="white"/>
<defs>
<filter id="filter0_d_755_55" x="18" y="69" width="108" height="37" filterUnits="userSpaceOnUse" color-interpolation-filters="sRGB">
<feFlood flood-opacity="0" result="BackgroundImageFix"/>
<feColorMatrix in="SourceAlpha" type="matrix" values="0 0 0 0 0 0 0 0 0 0 0 0 0 0 0 0 0 0 127 0" result="hardAlpha"/>
<feOffset dy="2"/>
<feGaussianBlur stdDeviation="4"/>
<feComposite in2="hardAlpha" operator="out"/>
<feColorMatrix type="matrix" values="0 0 0 0 0.0313726 0 0 0 0 0.521569 0 0 0 0 0.980392 0 0 0 1 0"/>
<feBlend mode="normal" in2="BackgroundImageFix" result="effect1_dropShadow_755_55"/>
<feBlend mode="normal" in="SourceGraphic" in2="effect1_dropShadow_755_55" result="shape"/>
</filter>
<linearGradient id="paint0_linear_755_55" x1="164" y1="0" x2="164" y2="281" gradientUnits="userSpaceOnUse">
<stop stop-color="#AEBFED" stop-opacity="0.25"/>
<stop offset="1" stop-color="#31C5F0" stop-opacity="0.25"/>
</linearGradient>
<linearGradient id="paint1_linear_755_55" x1="26" y1="95.5242" x2="75.9646" y2="42.2754" gradientUnits="userSpaceOnUse">
<stop stop-color="#0B99FF"/>
<stop offset="1" stop-color="#0B99FF"/>
</linearGradient>
</defs>
</svg>
