<svg width="836" height="787" viewBox="0 0 836 787" fill="none" xmlns="http://www.w3.org/2000/svg">
<g filter="url(#filter0_d_669_102)">
<rect x="250" y="250" width="336" height="287" rx="9" fill="white" fill-opacity="0.2" shape-rendering="crispEdges"/>
<rect x="254" y="253" width="328" height="281" rx="12" fill="url(#paint0_linear_669_102)"/>
<path d="M286.8 304V291.4H288.492V302.524H294.9V304H286.8ZM296.886 304V294.46H298.47V304H296.886ZM297.678 293.2C297.366 293.2 297.108 293.098 296.904 292.894C296.7 292.69 296.598 292.432 296.598 292.12C296.598 291.808 296.7 291.55 296.904 291.346C297.108 291.142 297.366 291.04 297.678 291.04C297.99 291.04 298.248 291.142 298.452 291.346C298.656 291.55 298.758 291.808 298.758 292.12C298.758 292.432 298.656 292.69 298.452 292.894C298.248 293.098 297.99 293.2 297.678 293.2ZM304.402 304L300.442 294.46H302.206L305.302 302.38L308.11 294.46H309.802L306.202 304H304.402ZM315.203 304.18C314.399 304.18 313.643 304.006 312.935 303.658C312.239 303.31 311.675 302.776 311.243 302.056C310.823 301.336 310.613 300.424 310.613 299.32V298.96C310.613 297.904 310.817 297.034 311.225 296.35C311.633 295.654 312.173 295.138 312.845 294.802C313.517 294.454 314.243 294.28 315.023 294.28C316.427 294.28 317.513 294.664 318.281 295.432C319.049 296.2 319.433 297.286 319.433 298.69V299.698H312.197C312.197 300.442 312.347 301.036 312.647 301.48C312.959 301.924 313.343 302.248 313.799 302.452C314.267 302.644 314.735 302.74 315.203 302.74C315.923 302.74 316.475 302.62 316.859 302.38C317.255 302.14 317.537 301.81 317.705 301.39H319.253C319.061 302.302 318.587 302.998 317.831 303.478C317.087 303.946 316.211 304.18 315.203 304.18ZM315.113 295.72C314.621 295.72 314.153 295.816 313.709 296.008C313.265 296.188 312.899 296.476 312.611 296.872C312.335 297.268 312.197 297.778 312.197 298.402H317.939C317.927 297.742 317.789 297.22 317.525 296.836C317.273 296.44 316.937 296.158 316.517 295.99C316.097 295.81 315.629 295.72 315.113 295.72ZM325.464 299.698V298.222H330.864V299.698H325.464ZM340.006 304L336.622 291.4H338.422L341.014 301.3L343.966 291.4H345.478L348.484 301.3L351.094 291.4H352.822L349.438 304H347.746L344.686 294.1L341.698 304H340.006ZM358.041 304.18C357.237 304.18 356.481 304.006 355.773 303.658C355.077 303.298 354.513 302.758 354.081 302.038C353.661 301.318 353.451 300.412 353.451 299.32V298.96C353.451 297.928 353.661 297.064 354.081 296.368C354.513 295.672 355.077 295.15 355.773 294.802C356.481 294.454 357.237 294.28 358.041 294.28C358.857 294.28 359.613 294.454 360.309 294.802C361.005 295.15 361.563 295.672 361.983 296.368C362.415 297.064 362.631 297.928 362.631 298.96V299.32C362.631 300.412 362.415 301.318 361.983 302.038C361.563 302.758 361.005 303.298 360.309 303.658C359.613 304.006 358.857 304.18 358.041 304.18ZM358.041 302.74C358.533 302.74 359.001 302.632 359.445 302.416C359.901 302.188 360.273 301.822 360.561 301.318C360.861 300.814 361.011 300.148 361.011 299.32V298.96C361.011 298.192 360.861 297.574 360.561 297.106C360.273 296.626 359.901 296.278 359.445 296.062C359.001 295.834 358.533 295.72 358.041 295.72C357.561 295.72 357.093 295.834 356.637 296.062C356.181 296.278 355.803 296.626 355.503 297.106C355.215 297.574 355.071 298.192 355.071 298.96V299.32C355.071 300.148 355.215 300.814 355.503 301.318C355.803 301.822 356.181 302.188 356.637 302.416C357.093 302.632 357.561 302.74 358.041 302.74ZM364.874 304V294.46H366.35V296.26C366.494 295.876 366.692 295.54 366.944 295.252C367.196 294.952 367.502 294.718 367.862 294.55C368.234 294.37 368.648 294.28 369.104 294.28C369.344 294.28 369.536 294.292 369.68 294.316C369.836 294.34 369.974 294.37 370.094 294.406V295.882C369.938 295.822 369.782 295.78 369.626 295.756C369.482 295.732 369.278 295.72 369.014 295.72C368.534 295.72 368.102 295.834 367.718 296.062C367.334 296.29 367.028 296.608 366.8 297.016C366.572 297.412 366.458 297.88 366.458 298.42V304H364.874ZM375.041 304.18C374.261 304.18 373.571 304 372.971 303.64C372.371 303.28 371.903 302.74 371.567 302.02C371.243 301.3 371.081 300.4 371.081 299.32V298.96C371.081 297.952 371.249 297.1 371.585 296.404C371.933 295.708 372.401 295.18 372.989 294.82C373.589 294.46 374.273 294.28 375.041 294.28C375.809 294.28 376.475 294.448 377.039 294.784C377.615 295.12 378.041 295.582 378.317 296.17V291.4H379.901V304H378.425V302.2C378.185 302.788 377.765 303.268 377.165 303.64C376.565 304 375.857 304.18 375.041 304.18ZM375.401 302.776C375.977 302.776 376.481 302.656 376.913 302.416C377.357 302.164 377.699 301.822 377.939 301.39C378.191 300.946 378.317 300.436 378.317 299.86V298.42C378.317 297.904 378.191 297.442 377.939 297.034C377.699 296.614 377.357 296.284 376.913 296.044C376.481 295.804 375.977 295.684 375.401 295.684C374.633 295.684 373.985 295.972 373.457 296.548C372.929 297.112 372.665 297.916 372.665 298.96V299.32C372.665 300.448 372.929 301.306 373.457 301.894C373.985 302.482 374.633 302.776 375.401 302.776ZM382.786 307.6V294.46H384.262V296.26C384.586 295.624 385.036 295.138 385.612 294.802C386.2 294.454 386.878 294.28 387.646 294.28C388.846 294.28 389.806 294.676 390.526 295.468C391.246 296.248 391.606 297.412 391.606 298.96V299.32C391.606 300.4 391.438 301.3 391.102 302.02C390.778 302.74 390.316 303.28 389.716 303.64C389.128 304 388.438 304.18 387.646 304.18C386.83 304.18 386.146 304 385.594 303.64C385.054 303.28 384.646 302.83 384.37 302.29V307.6H382.786ZM387.286 302.776C388.066 302.776 388.714 302.482 389.23 301.894C389.758 301.306 390.022 300.448 390.022 299.32V298.96C390.022 297.916 389.758 297.112 389.23 296.548C388.714 295.972 388.066 295.684 387.286 295.684C386.71 295.684 386.2 295.804 385.756 296.044C385.324 296.284 384.982 296.614 384.73 297.034C384.49 297.442 384.37 297.904 384.37 298.42V299.86C384.37 300.436 384.49 300.946 384.73 301.39C384.982 301.822 385.324 302.164 385.756 302.416C386.2 302.656 386.71 302.776 387.286 302.776ZM393.86 304V294.46H395.336V296.26C395.48 295.876 395.678 295.54 395.93 295.252C396.182 294.952 396.488 294.718 396.848 294.55C397.22 294.37 397.634 294.28 398.09 294.28C398.33 294.28 398.522 294.292 398.666 294.316C398.822 294.34 398.96 294.37 399.08 294.406V295.882C398.924 295.822 398.768 295.78 398.612 295.756C398.468 295.732 398.264 295.72 398 295.72C397.52 295.72 397.088 295.834 396.704 296.062C396.32 296.29 396.014 296.608 395.786 297.016C395.558 297.412 395.444 297.88 395.444 298.42V304H393.86ZM404.658 304.18C403.854 304.18 403.098 304.006 402.39 303.658C401.694 303.31 401.13 302.776 400.698 302.056C400.278 301.336 400.068 300.424 400.068 299.32V298.96C400.068 297.904 400.272 297.034 400.68 296.35C401.088 295.654 401.628 295.138 402.3 294.802C402.972 294.454 403.698 294.28 404.478 294.28C405.882 294.28 406.968 294.664 407.736 295.432C408.504 296.2 408.888 297.286 408.888 298.69V299.698H401.652C401.652 300.442 401.802 301.036 402.102 301.48C402.414 301.924 402.798 302.248 403.254 302.452C403.722 302.644 404.19 302.74 404.658 302.74C405.378 302.74 405.93 302.62 406.314 302.38C406.71 302.14 406.992 301.81 407.16 301.39H408.708C408.516 302.302 408.042 302.998 407.286 303.478C406.542 303.946 405.666 304.18 404.658 304.18ZM404.568 295.72C404.076 295.72 403.608 295.816 403.164 296.008C402.72 296.188 402.354 296.476 402.066 296.872C401.79 297.268 401.652 297.778 401.652 298.402H407.394C407.382 297.742 407.244 297.22 406.98 296.836C406.728 296.44 406.392 296.158 405.972 295.99C405.552 295.81 405.084 295.72 404.568 295.72ZM414.469 304.18C413.833 304.18 413.281 304.108 412.813 303.964C412.345 303.808 411.955 303.604 411.643 303.352C411.331 303.1 411.079 302.806 410.887 302.47C410.707 302.122 410.581 301.762 410.509 301.39H412.093C412.177 301.774 412.399 302.11 412.759 302.398C413.131 302.674 413.701 302.812 414.469 302.812C415.357 302.812 415.975 302.674 416.323 302.398C416.671 302.11 416.845 301.774 416.845 301.39C416.845 301.126 416.767 300.898 416.611 300.706C416.467 300.502 416.203 300.328 415.819 300.184C415.447 300.04 414.913 299.92 414.217 299.824C413.689 299.752 413.215 299.65 412.795 299.518C412.375 299.374 412.015 299.188 411.715 298.96C411.415 298.732 411.181 298.456 411.013 298.132C410.857 297.808 410.779 297.424 410.779 296.98C410.779 296.5 410.917 296.056 411.193 295.648C411.469 295.24 411.883 294.91 412.435 294.658C412.987 294.406 413.665 294.28 414.469 294.28C415.225 294.28 415.849 294.412 416.341 294.676C416.845 294.928 417.235 295.264 417.511 295.684C417.787 296.104 417.973 296.566 418.069 297.07H416.485C416.389 296.65 416.185 296.308 415.873 296.044C415.561 295.78 415.093 295.648 414.469 295.648C413.689 295.648 413.143 295.78 412.831 296.044C412.519 296.296 412.363 296.608 412.363 296.98C412.363 297.412 412.531 297.736 412.867 297.952C413.215 298.168 413.845 298.336 414.757 298.456C415.345 298.528 415.867 298.636 416.323 298.78C416.779 298.912 417.163 299.098 417.475 299.338C417.787 299.566 418.021 299.848 418.177 300.184C418.345 300.52 418.429 300.922 418.429 301.39C418.429 301.894 418.285 302.356 417.997 302.776C417.709 303.196 417.271 303.538 416.683 303.802C416.107 304.054 415.369 304.18 414.469 304.18ZM424.014 304.18C423.378 304.18 422.826 304.108 422.358 303.964C421.89 303.808 421.5 303.604 421.188 303.352C420.876 303.1 420.624 302.806 420.432 302.47C420.252 302.122 420.126 301.762 420.054 301.39H421.638C421.722 301.774 421.944 302.11 422.304 302.398C422.676 302.674 423.246 302.812 424.014 302.812C424.902 302.812 425.52 302.674 425.868 302.398C426.216 302.11 426.39 301.774 426.39 301.39C426.39 301.126 426.312 300.898 426.156 300.706C426.012 300.502 425.748 300.328 425.364 300.184C424.992 300.04 424.458 299.92 423.762 299.824C423.234 299.752 422.76 299.65 422.34 299.518C421.92 299.374 421.56 299.188 421.26 298.96C420.96 298.732 420.726 298.456 420.558 298.132C420.402 297.808 420.324 297.424 420.324 296.98C420.324 296.5 420.462 296.056 420.738 295.648C421.014 295.24 421.428 294.91 421.98 294.658C422.532 294.406 423.21 294.28 424.014 294.28C424.77 294.28 425.394 294.412 425.886 294.676C426.39 294.928 426.78 295.264 427.056 295.684C427.332 296.104 427.518 296.566 427.614 297.07H426.03C425.934 296.65 425.73 296.308 425.418 296.044C425.106 295.78 424.638 295.648 424.014 295.648C423.234 295.648 422.688 295.78 422.376 296.044C422.064 296.296 421.908 296.608 421.908 296.98C421.908 297.412 422.076 297.736 422.412 297.952C422.76 298.168 423.39 298.336 424.302 298.456C424.89 298.528 425.412 298.636 425.868 298.78C426.324 298.912 426.708 299.098 427.02 299.338C427.332 299.566 427.566 299.848 427.722 300.184C427.89 300.52 427.974 300.922 427.974 301.39C427.974 301.894 427.83 302.356 427.542 302.776C427.254 303.196 426.816 303.538 426.228 303.802C425.652 304.054 424.914 304.18 424.014 304.18Z" fill="black"/>
<g filter="url(#filter1_d_669_102)">
<path d="M366.371 310H295.629C289.759 310 285 314.701 285 320.5C285 326.299 289.759 331 295.629 331H366.371C372.241 331 377 326.299 377 320.5C377 314.701 372.241 310 366.371 310Z" fill="url(#paint1_linear_669_102)"/>
</g>
<path d="M304.8 325.5L302.266 315.7H304.94L306.27 321.776L307.81 315.7H310.19L311.912 321.804L313.34 315.7H315.72L313.2 325.5H310.68L308.93 319.172L307.32 325.5H304.8ZM319.559 325.682C318.831 325.682 318.178 325.547 317.599 325.276C317.02 324.996 316.558 324.571 316.213 324.002C315.877 323.433 315.709 322.719 315.709 321.86V321.58C315.709 320.759 315.872 320.077 316.199 319.536C316.526 318.995 316.969 318.589 317.529 318.318C318.098 318.038 318.728 317.898 319.419 317.898C320.642 317.898 321.566 318.215 322.191 318.85C322.816 319.475 323.129 320.385 323.129 321.58V322.364H317.921C317.94 322.728 318.024 323.031 318.173 323.274C318.332 323.517 318.532 323.694 318.775 323.806C319.018 323.909 319.279 323.96 319.559 323.96C319.97 323.96 320.292 323.899 320.525 323.778C320.768 323.647 320.926 323.475 321.001 323.26H322.989C322.84 324.072 322.471 324.679 321.883 325.08C321.295 325.481 320.52 325.682 319.559 325.682ZM319.489 319.62C319.228 319.62 318.98 319.662 318.747 319.746C318.514 319.83 318.322 319.97 318.173 320.166C318.033 320.353 317.954 320.609 317.935 320.936H321.015C321.015 320.591 320.945 320.325 320.805 320.138C320.665 319.942 320.478 319.807 320.245 319.732C320.021 319.657 319.769 319.62 319.489 319.62ZM328.545 325.682C327.976 325.682 327.495 325.561 327.103 325.318C326.711 325.066 326.422 324.791 326.235 324.492V325.5H324.247V315.7H326.403V319.018C326.655 318.654 326.968 318.379 327.341 318.192C327.724 317.996 328.125 317.898 328.545 317.898C329.59 317.898 330.384 318.206 330.925 318.822C331.466 319.438 331.737 320.357 331.737 321.58V321.86C331.737 322.7 331.606 323.405 331.345 323.974C331.084 324.534 330.715 324.959 330.239 325.248C329.763 325.537 329.198 325.682 328.545 325.682ZM328.027 323.904C328.456 323.904 328.811 323.731 329.091 323.386C329.38 323.031 329.525 322.523 329.525 321.86V321.58C329.525 320.936 329.385 320.46 329.105 320.152C328.834 319.835 328.475 319.676 328.027 319.676C327.728 319.676 327.453 319.741 327.201 319.872C326.958 319.993 326.762 320.18 326.613 320.432C326.473 320.684 326.403 320.997 326.403 321.37V322.07C326.403 322.453 326.473 322.784 326.613 323.064C326.762 323.335 326.958 323.545 327.201 323.694C327.453 323.834 327.728 323.904 328.027 323.904ZM336.08 325.682C335.473 325.682 334.951 325.621 334.512 325.5C334.083 325.369 333.728 325.197 333.448 324.982C333.168 324.758 332.958 324.501 332.818 324.212C332.678 323.913 332.599 323.596 332.58 323.26H334.736C334.792 323.465 334.913 323.647 335.1 323.806C335.287 323.955 335.613 324.03 336.08 324.03C336.556 324.03 336.897 323.965 337.102 323.834C337.307 323.703 337.41 323.531 337.41 323.316C337.41 323.204 337.363 323.106 337.27 323.022C337.186 322.929 337.023 322.845 336.78 322.77C336.547 322.695 336.206 322.621 335.758 322.546C335.347 322.481 334.96 322.397 334.596 322.294C334.241 322.191 333.929 322.056 333.658 321.888C333.387 321.711 333.173 321.487 333.014 321.216C332.865 320.945 332.79 320.605 332.79 320.194C332.79 319.755 332.921 319.363 333.182 319.018C333.443 318.673 333.821 318.402 334.316 318.206C334.811 318.001 335.399 317.898 336.08 317.898C336.855 317.898 337.466 318.019 337.914 318.262C338.371 318.495 338.707 318.799 338.922 319.172C339.137 319.536 339.263 319.919 339.3 320.32H337.13C337.074 320.087 336.953 319.9 336.766 319.76C336.589 319.62 336.36 319.55 336.08 319.55C335.651 319.55 335.352 319.615 335.184 319.746C335.025 319.877 334.946 320.035 334.946 320.222C334.946 320.409 335.077 320.558 335.338 320.67C335.599 320.773 336.015 320.861 336.584 320.936C336.995 320.992 337.377 321.071 337.732 321.174C338.096 321.277 338.413 321.421 338.684 321.608C338.964 321.785 339.183 322.014 339.342 322.294C339.501 322.565 339.58 322.896 339.58 323.288C339.58 323.755 339.445 324.17 339.174 324.534C338.913 324.898 338.521 325.183 337.998 325.388C337.485 325.584 336.845 325.682 336.08 325.682ZM340.834 325.5V318.08H342.99V325.5H340.834ZM341.912 317.38C341.511 317.38 341.198 317.277 340.974 317.072C340.759 316.857 340.652 316.587 340.652 316.26C340.652 315.933 340.759 315.667 340.974 315.462C341.198 315.247 341.511 315.14 341.912 315.14C342.313 315.14 342.621 315.247 342.836 315.462C343.06 315.667 343.172 315.933 343.172 316.26C343.172 316.587 343.06 316.857 342.836 317.072C342.621 317.277 342.313 317.38 341.912 317.38ZM347.686 325.584C347.07 325.584 346.566 325.505 346.174 325.346C345.782 325.178 345.493 324.907 345.306 324.534C345.119 324.151 345.026 323.633 345.026 322.98V319.844H344.116V318.08H345.026V316.4H347.182V318.08H348.876V319.844H347.182V322.63C347.182 323.05 347.247 323.349 347.378 323.526C347.518 323.703 347.784 323.792 348.176 323.792C348.456 323.792 348.736 323.778 349.016 323.75V325.5C348.839 325.528 348.652 325.547 348.456 325.556C348.26 325.575 348.003 325.584 347.686 325.584ZM353.711 325.682C352.983 325.682 352.33 325.547 351.751 325.276C351.173 324.996 350.711 324.571 350.365 324.002C350.029 323.433 349.861 322.719 349.861 321.86V321.58C349.861 320.759 350.025 320.077 350.351 319.536C350.678 318.995 351.121 318.589 351.681 318.318C352.251 318.038 352.881 317.898 353.571 317.898C354.794 317.898 355.718 318.215 356.343 318.85C356.969 319.475 357.281 320.385 357.281 321.58V322.364H352.073C352.092 322.728 352.176 323.031 352.325 323.274C352.484 323.517 352.685 323.694 352.927 323.806C353.17 323.909 353.431 323.96 353.711 323.96C354.122 323.96 354.444 323.899 354.677 323.778C354.92 323.647 355.079 323.475 355.153 323.26H357.141C356.992 324.072 356.623 324.679 356.035 325.08C355.447 325.481 354.673 325.682 353.711 325.682ZM353.641 319.62C353.38 319.62 353.133 319.662 352.899 319.746C352.666 319.83 352.475 319.97 352.325 320.166C352.185 320.353 352.106 320.609 352.087 320.936H355.167C355.167 320.591 355.097 320.325 354.957 320.138C354.817 319.942 354.631 319.807 354.397 319.732C354.173 319.657 353.921 319.62 353.641 319.62Z" fill="white"/>
<path d="M299.832 371.273V396H295.316L284.558 380.437H284.377V396H279.149V371.273H283.737L294.411 386.824H294.628V371.273H299.832ZM308.153 396.35C306.97 396.35 305.915 396.145 304.99 395.734C304.064 395.316 303.331 394.7 302.792 393.887C302.261 393.066 301.995 392.044 301.995 390.82C301.995 389.79 302.184 388.925 302.563 388.224C302.941 387.524 303.456 386.961 304.108 386.534C304.76 386.107 305.501 385.786 306.33 385.568C307.167 385.351 308.044 385.198 308.962 385.109C310.04 384.997 310.91 384.892 311.57 384.795C312.23 384.691 312.709 384.538 313.007 384.337C313.304 384.135 313.453 383.838 313.453 383.443V383.371C313.453 382.606 313.212 382.014 312.729 381.596C312.254 381.177 311.578 380.968 310.7 380.968C309.775 380.968 309.038 381.173 308.491 381.584C307.944 381.986 307.581 382.493 307.404 383.105L302.647 382.719C302.889 381.592 303.364 380.618 304.072 379.797C304.78 378.968 305.694 378.332 306.813 377.889C307.94 377.438 309.244 377.213 310.725 377.213C311.755 377.213 312.741 377.334 313.683 377.575C314.633 377.817 315.474 378.191 316.206 378.698C316.947 379.205 317.53 379.857 317.957 380.654C318.383 381.443 318.597 382.389 318.597 383.491V396H313.719V393.428H313.574C313.276 394.008 312.878 394.519 312.379 394.962C311.88 395.396 311.28 395.738 310.58 395.988C309.879 396.229 309.07 396.35 308.153 396.35ZM309.626 392.8C310.383 392.8 311.051 392.652 311.63 392.354C312.21 392.048 312.664 391.637 312.994 391.122C313.325 390.607 313.49 390.023 313.49 389.371V387.403C313.329 387.508 313.107 387.605 312.825 387.693C312.552 387.774 312.242 387.85 311.896 387.923C311.55 387.987 311.204 388.047 310.857 388.104C310.511 388.152 310.197 388.196 309.916 388.237C309.312 388.325 308.785 388.466 308.334 388.659C307.883 388.852 307.533 389.114 307.284 389.444C307.034 389.766 306.909 390.168 306.909 390.651C306.909 391.352 307.163 391.887 307.67 392.257C308.185 392.619 308.837 392.8 309.626 392.8ZM331.262 377.455V381.318H320.093V377.455H331.262ZM322.629 373.011H327.772V390.301C327.772 390.776 327.845 391.146 327.989 391.412C328.134 391.67 328.336 391.851 328.593 391.955C328.859 392.06 329.165 392.112 329.511 392.112C329.752 392.112 329.994 392.092 330.235 392.052C330.477 392.004 330.662 391.967 330.791 391.943L331.6 395.771C331.342 395.851 330.98 395.944 330.513 396.048C330.046 396.161 329.479 396.229 328.811 396.254C327.571 396.302 326.484 396.137 325.551 395.759C324.625 395.38 323.905 394.793 323.389 393.996C322.874 393.199 322.621 392.193 322.629 390.977V373.011ZM345.315 388.104V377.455H350.458V396H345.52V392.631H345.327C344.908 393.718 344.212 394.591 343.238 395.251C342.272 395.911 341.093 396.241 339.7 396.241C338.461 396.241 337.37 395.96 336.428 395.396C335.487 394.833 334.75 394.032 334.219 392.994C333.696 391.955 333.43 390.712 333.422 389.263V377.455H338.565V388.345C338.574 389.44 338.867 390.305 339.447 390.941C340.026 391.577 340.803 391.895 341.777 391.895C342.397 391.895 342.976 391.754 343.516 391.472C344.055 391.183 344.49 390.756 344.82 390.192C345.158 389.629 345.323 388.933 345.315 388.104ZM353.382 396V377.455H358.369V380.69H358.562C358.9 379.539 359.468 378.67 360.265 378.082C361.061 377.487 361.979 377.189 363.017 377.189C363.275 377.189 363.553 377.205 363.85 377.237C364.148 377.269 364.41 377.314 364.635 377.37V381.934C364.394 381.862 364.06 381.797 363.633 381.741C363.206 381.684 362.816 381.656 362.462 381.656C361.705 381.656 361.029 381.821 360.434 382.151C359.846 382.473 359.379 382.924 359.033 383.504C358.695 384.083 358.526 384.751 358.526 385.508V396H353.382ZM370.862 396.35C369.678 396.35 368.624 396.145 367.698 395.734C366.773 395.316 366.04 394.7 365.501 393.887C364.97 393.066 364.704 392.044 364.704 390.82C364.704 389.79 364.893 388.925 365.271 388.224C365.65 387.524 366.165 386.961 366.817 386.534C367.469 386.107 368.209 385.786 369.038 385.568C369.876 385.351 370.753 385.198 371.671 385.109C372.749 384.997 373.618 384.892 374.279 384.795C374.939 384.691 375.417 384.538 375.715 384.337C376.013 384.135 376.162 383.838 376.162 383.443V383.371C376.162 382.606 375.921 382.014 375.438 381.596C374.963 381.177 374.287 380.968 373.409 380.968C372.484 380.968 371.747 381.173 371.2 381.584C370.652 381.986 370.29 382.493 370.113 383.105L365.356 382.719C365.597 381.592 366.072 380.618 366.781 379.797C367.489 378.968 368.403 378.332 369.521 377.889C370.648 377.438 371.952 377.213 373.433 377.213C374.464 377.213 375.45 377.334 376.391 377.575C377.341 377.817 378.182 378.191 378.915 378.698C379.655 379.205 380.239 379.857 380.666 380.654C381.092 381.443 381.306 382.389 381.306 383.491V396H376.428V393.428H376.283C375.985 394.008 375.587 394.519 375.087 394.962C374.588 395.396 373.989 395.738 373.288 395.988C372.588 396.229 371.779 396.35 370.862 396.35ZM372.335 392.8C373.091 392.8 373.759 392.652 374.339 392.354C374.918 392.048 375.373 391.637 375.703 391.122C376.033 390.607 376.198 390.023 376.198 389.371V387.403C376.037 387.508 375.816 387.605 375.534 387.693C375.261 387.774 374.951 387.85 374.605 387.923C374.258 387.987 373.912 388.047 373.566 388.104C373.22 388.152 372.906 388.196 372.624 388.237C372.021 388.325 371.493 388.466 371.043 388.659C370.592 388.852 370.242 389.114 369.992 389.444C369.743 389.766 369.618 390.168 369.618 390.651C369.618 391.352 369.872 391.887 370.379 392.257C370.894 392.619 371.546 392.8 372.335 392.8ZM389.249 371.273V396H384.106V371.273H389.249ZM395.186 396.314C394.389 396.314 393.705 396.032 393.133 395.469C392.57 394.897 392.288 394.213 392.288 393.416C392.288 392.627 392.57 391.951 393.133 391.388C393.705 390.824 394.389 390.543 395.186 390.543C395.959 390.543 396.635 390.824 397.214 391.388C397.794 391.951 398.084 392.627 398.084 393.416C398.084 393.947 397.947 394.434 397.673 394.877C397.408 395.312 397.057 395.662 396.623 395.928C396.188 396.185 395.709 396.314 395.186 396.314Z" fill="#0E0E0E"/>
<path opacity="0.45" d="M289.817 425.493C289.737 424.691 289.396 424.068 288.793 423.624C288.189 423.179 287.371 422.957 286.337 422.957C285.634 422.957 285.041 423.057 284.557 423.256C284.073 423.448 283.702 423.716 283.443 424.061C283.191 424.406 283.065 424.797 283.065 425.234C283.052 425.599 283.128 425.917 283.294 426.189C283.466 426.461 283.702 426.696 284 426.895C284.298 427.087 284.643 427.256 285.034 427.402C285.425 427.541 285.843 427.661 286.287 427.76L288.116 428.197C289.005 428.396 289.82 428.661 290.562 428.993C291.305 429.324 291.948 429.732 292.491 430.216C293.035 430.7 293.456 431.27 293.754 431.926C294.059 432.582 294.215 433.335 294.222 434.183C294.215 435.429 293.897 436.51 293.267 437.425C292.644 438.333 291.742 439.039 290.562 439.543C289.389 440.04 287.974 440.288 286.317 440.288C284.673 440.288 283.241 440.036 282.021 439.533C280.808 439.029 279.86 438.283 279.178 437.295C278.501 436.301 278.147 435.071 278.114 433.607H282.28C282.326 434.289 282.522 434.859 282.866 435.317C283.218 435.768 283.685 436.109 284.268 436.341C284.858 436.566 285.525 436.679 286.267 436.679C286.996 436.679 287.629 436.573 288.166 436.361C288.71 436.149 289.131 435.854 289.429 435.476C289.727 435.098 289.876 434.664 289.876 434.173C289.876 433.716 289.741 433.331 289.469 433.02C289.204 432.708 288.813 432.443 288.295 432.224C287.785 432.006 287.159 431.807 286.416 431.628L284.199 431.071C282.482 430.653 281.126 430 280.132 429.112C279.138 428.224 278.644 427.027 278.651 425.523C278.644 424.29 278.972 423.213 279.635 422.291C280.304 421.37 281.223 420.651 282.389 420.134C283.556 419.616 284.882 419.358 286.366 419.358C287.878 419.358 289.197 419.616 290.324 420.134C291.457 420.651 292.339 421.37 292.969 422.291C293.598 423.213 293.923 424.28 293.943 425.493H289.817ZM302.959 440.298C301.414 440.298 300.078 439.97 298.951 439.314C297.831 438.651 296.966 437.73 296.356 436.55C295.746 435.363 295.442 433.988 295.442 432.423C295.442 430.846 295.746 429.467 296.356 428.287C296.966 427.1 297.831 426.179 298.951 425.523C300.078 424.86 301.414 424.528 302.959 424.528C304.503 424.528 305.835 424.86 306.956 425.523C308.083 426.179 308.951 427.1 309.561 428.287C310.171 429.467 310.476 430.846 310.476 432.423C310.476 433.988 310.171 435.363 309.561 436.55C308.951 437.73 308.083 438.651 306.956 439.314C305.835 439.97 304.503 440.298 302.959 440.298ZM302.978 437.017C303.681 437.017 304.268 436.818 304.738 436.42C305.209 436.016 305.564 435.466 305.802 434.77C306.048 434.074 306.17 433.282 306.17 432.393C306.17 431.505 306.048 430.713 305.802 430.017C305.564 429.321 305.209 428.771 304.738 428.366C304.268 427.962 303.681 427.76 302.978 427.76C302.269 427.76 301.673 427.962 301.189 428.366C300.711 428.771 300.35 429.321 300.105 430.017C299.866 430.713 299.747 431.505 299.747 432.393C299.747 433.282 299.866 434.074 300.105 434.77C300.35 435.466 300.711 436.016 301.189 436.42C301.673 436.818 302.269 437.017 302.978 437.017ZM316.605 440.288C315.631 440.288 314.762 440.119 314 439.781C313.238 439.437 312.634 438.929 312.19 438.26C311.753 437.584 311.534 436.742 311.534 435.734C311.534 434.886 311.69 434.173 312.001 433.597C312.313 433.02 312.737 432.556 313.274 432.205C313.811 431.853 314.421 431.588 315.104 431.409C315.793 431.23 316.515 431.104 317.271 431.031C318.159 430.938 318.875 430.852 319.419 430.773C319.962 430.687 320.357 430.561 320.602 430.395C320.847 430.229 320.97 429.984 320.97 429.659V429.599C320.97 428.97 320.771 428.482 320.373 428.138C319.982 427.793 319.426 427.621 318.703 427.621C317.941 427.621 317.334 427.79 316.883 428.128C316.433 428.459 316.134 428.877 315.989 429.381L312.071 429.062C312.27 428.134 312.661 427.332 313.244 426.656C313.828 425.973 314.58 425.45 315.501 425.085C316.429 424.714 317.503 424.528 318.723 424.528C319.571 424.528 320.383 424.628 321.159 424.827C321.941 425.026 322.634 425.334 323.237 425.751C323.847 426.169 324.328 426.706 324.679 427.362C325.03 428.012 325.206 428.791 325.206 429.699V440H321.189V437.882H321.069C320.824 438.359 320.496 438.78 320.085 439.145C319.674 439.503 319.18 439.785 318.604 439.99C318.027 440.189 317.361 440.288 316.605 440.288ZM317.818 437.365C318.441 437.365 318.991 437.242 319.469 436.997C319.946 436.745 320.32 436.407 320.592 435.983C320.864 435.559 321 435.078 321 434.541V432.92C320.867 433.007 320.685 433.086 320.453 433.159C320.228 433.225 319.972 433.288 319.687 433.348C319.402 433.401 319.117 433.451 318.832 433.497C318.547 433.537 318.289 433.573 318.057 433.607C317.56 433.679 317.125 433.795 316.754 433.955C316.383 434.114 316.095 434.329 315.889 434.601C315.684 434.866 315.581 435.197 315.581 435.595C315.581 436.172 315.79 436.613 316.207 436.918C316.632 437.216 317.168 437.365 317.818 437.365ZM327.512 445.727V424.727H331.688V427.293H331.877C332.063 426.882 332.331 426.464 332.683 426.04C333.04 425.609 333.504 425.251 334.075 424.966C334.651 424.674 335.367 424.528 336.222 424.528C337.336 424.528 338.363 424.82 339.305 425.403C340.246 425.98 340.998 426.852 341.562 428.018C342.125 429.179 342.407 430.634 342.407 432.384C342.407 434.087 342.132 435.526 341.582 436.699C341.038 437.866 340.296 438.75 339.354 439.354C338.42 439.95 337.372 440.249 336.212 440.249C335.39 440.249 334.691 440.113 334.114 439.841C333.544 439.569 333.077 439.228 332.712 438.817C332.348 438.399 332.069 437.978 331.877 437.554H331.748V445.727H327.512ZM331.658 432.364C331.658 433.272 331.784 434.064 332.036 434.74C332.288 435.416 332.653 435.943 333.13 436.321C333.607 436.692 334.187 436.878 334.87 436.878C335.559 436.878 336.143 436.689 336.62 436.311C337.097 435.927 337.459 435.396 337.704 434.72C337.956 434.037 338.082 433.252 338.082 432.364C338.082 431.482 337.959 430.706 337.714 430.037C337.469 429.367 337.107 428.844 336.63 428.466C336.153 428.088 335.566 427.899 334.87 427.899C334.181 427.899 333.597 428.081 333.12 428.446C332.649 428.811 332.288 429.328 332.036 429.997C331.784 430.667 331.658 431.455 331.658 432.364ZM348.855 437.216L348.745 438.31C348.659 439.185 348.493 440.056 348.248 440.925C348.009 441.8 347.757 442.592 347.492 443.301C347.234 444.01 347.025 444.567 346.866 444.972H344.122C344.221 444.58 344.357 444.034 344.529 443.331C344.702 442.635 344.864 441.853 345.016 440.984C345.169 440.116 345.265 439.231 345.305 438.33L345.355 437.216H348.855ZM375.083 429.818C375.083 432.039 374.662 433.928 373.821 435.486C372.985 437.044 371.845 438.233 370.4 439.055C368.962 439.871 367.344 440.278 365.548 440.278C363.738 440.278 362.114 439.867 360.676 439.045C359.237 438.223 358.1 437.034 357.265 435.476C356.43 433.918 356.012 432.032 356.012 429.818C356.012 427.598 356.43 425.708 357.265 424.151C358.1 422.593 359.237 421.406 360.676 420.591C362.114 419.769 363.738 419.358 365.548 419.358C367.344 419.358 368.962 419.769 370.4 420.591C371.845 421.406 372.985 422.593 373.821 424.151C374.662 425.708 375.083 427.598 375.083 429.818ZM370.718 429.818C370.718 428.38 370.503 427.167 370.072 426.179C369.648 425.191 369.048 424.442 368.272 423.932C367.497 423.421 366.589 423.166 365.548 423.166C364.507 423.166 363.599 423.421 362.823 423.932C362.048 424.442 361.445 425.191 361.014 426.179C360.59 427.167 360.377 428.38 360.377 429.818C360.377 431.257 360.59 432.47 361.014 433.457C361.445 434.445 362.048 435.194 362.823 435.705C363.599 436.215 364.507 436.47 365.548 436.47C366.589 436.47 367.497 436.215 368.272 435.705C369.048 435.194 369.648 434.445 370.072 433.457C370.503 432.47 370.718 431.257 370.718 429.818ZM377.213 440V424.727H381.449V440H377.213ZM379.341 422.759C378.711 422.759 378.171 422.55 377.72 422.132C377.276 421.708 377.054 421.201 377.054 420.611C377.054 420.027 377.276 419.527 377.72 419.109C378.171 418.685 378.711 418.473 379.341 418.473C379.971 418.473 380.508 418.685 380.952 419.109C381.403 419.527 381.628 420.027 381.628 420.611C381.628 421.201 381.403 421.708 380.952 422.132C380.508 422.55 379.971 422.759 379.341 422.759ZM388.098 419.636V440H383.862V419.636H388.098ZM395.115 437.216L395.005 438.31C394.919 439.185 394.753 440.056 394.508 440.925C394.269 441.8 394.018 442.592 393.752 443.301C393.494 444.01 393.285 444.567 393.126 444.972H390.382C390.481 444.58 390.617 444.034 390.789 443.331C390.962 442.635 391.124 441.853 391.277 440.984C391.429 440.116 391.525 439.231 391.565 438.33L391.615 437.216H395.115ZM402.631 440V419.636H406.936V428.038H415.676V419.636H419.971V440H415.676V431.588H406.936V440H402.631ZM426.817 440.288C425.842 440.288 424.974 440.119 424.212 439.781C423.449 439.437 422.846 438.929 422.402 438.26C421.964 437.584 421.746 436.742 421.746 435.734C421.746 434.886 421.901 434.173 422.213 433.597C422.525 433.02 422.949 432.556 423.486 432.205C424.023 431.853 424.633 431.588 425.315 431.409C426.005 431.23 426.727 431.104 427.483 431.031C428.371 430.938 429.087 430.852 429.631 430.773C430.174 430.687 430.569 430.561 430.814 430.395C431.059 430.229 431.182 429.984 431.182 429.659V429.599C431.182 428.97 430.983 428.482 430.585 428.138C430.194 427.793 429.637 427.621 428.915 427.621C428.152 427.621 427.546 427.79 427.095 428.128C426.644 428.459 426.346 428.877 426.2 429.381L422.283 429.062C422.481 428.134 422.873 427.332 423.456 426.656C424.039 425.973 424.792 425.45 425.713 425.085C426.641 424.714 427.715 424.528 428.935 424.528C429.783 424.528 430.595 424.628 431.371 424.827C432.153 425.026 432.846 425.334 433.449 425.751C434.059 426.169 434.539 426.706 434.891 427.362C435.242 428.012 435.418 428.791 435.418 429.699V440H431.401V437.882H431.281C431.036 438.359 430.708 438.78 430.297 439.145C429.886 439.503 429.392 439.785 428.815 439.99C428.239 440.189 427.572 440.288 426.817 440.288ZM428.03 437.365C428.653 437.365 429.203 437.242 429.68 436.997C430.158 436.745 430.532 436.407 430.804 435.983C431.076 435.559 431.212 435.078 431.212 434.541V432.92C431.079 433.007 430.897 433.086 430.665 433.159C430.439 433.225 430.184 433.288 429.899 433.348C429.614 433.401 429.329 433.451 429.044 433.497C428.759 433.537 428.5 433.573 428.268 433.607C427.771 433.679 427.337 433.795 426.966 433.955C426.595 434.114 426.306 434.329 426.101 434.601C425.895 434.866 425.793 435.197 425.793 435.595C425.793 436.172 426.001 436.613 426.419 436.918C426.843 437.216 427.38 437.365 428.03 437.365ZM441.96 431.17V440H437.724V424.727H441.761V427.422H441.94C442.278 426.534 442.845 425.831 443.64 425.314C444.435 424.79 445.4 424.528 446.533 424.528C447.594 424.528 448.519 424.76 449.308 425.224C450.096 425.688 450.71 426.351 451.147 427.213C451.585 428.068 451.803 429.089 451.803 430.276V440H447.568V431.031C447.574 430.097 447.336 429.367 446.852 428.844C446.368 428.313 445.702 428.048 444.853 428.048C444.283 428.048 443.779 428.171 443.342 428.416C442.911 428.661 442.573 429.019 442.327 429.49C442.089 429.954 441.966 430.514 441.96 431.17ZM459.79 440.249C458.63 440.249 457.579 439.95 456.638 439.354C455.703 438.75 454.961 437.866 454.41 436.699C453.867 435.526 453.595 434.087 453.595 432.384C453.595 430.634 453.877 429.179 454.44 428.018C455.004 426.852 455.753 425.98 456.687 425.403C457.629 424.82 458.659 424.528 459.78 424.528C460.635 424.528 461.347 424.674 461.917 424.966C462.494 425.251 462.958 425.609 463.309 426.04C463.667 426.464 463.939 426.882 464.125 427.293H464.254V419.636H468.48V440H464.304V437.554H464.125C463.926 437.978 463.644 438.399 463.28 438.817C462.922 439.228 462.454 439.569 461.878 439.841C461.308 440.113 460.612 440.249 459.79 440.249ZM461.132 436.878C461.815 436.878 462.391 436.692 462.862 436.321C463.339 435.943 463.704 435.416 463.956 434.74C464.214 434.064 464.344 433.272 464.344 432.364C464.344 431.455 464.218 430.667 463.966 429.997C463.714 429.328 463.349 428.811 462.872 428.446C462.395 428.081 461.815 427.899 461.132 427.899C460.436 427.899 459.849 428.088 459.372 428.466C458.895 428.844 458.533 429.367 458.288 430.037C458.043 430.706 457.92 431.482 457.92 432.364C457.92 433.252 458.043 434.037 458.288 434.72C458.54 435.396 458.901 435.927 459.372 436.311C459.849 436.689 460.436 436.878 461.132 436.878ZM470.983 440V424.727H475.019V427.422H475.198C475.517 426.527 476.047 425.821 476.789 425.304C477.532 424.787 478.42 424.528 479.454 424.528C480.501 424.528 481.393 424.79 482.129 425.314C482.865 425.831 483.355 426.534 483.6 427.422H483.76C484.071 426.547 484.635 425.848 485.45 425.324C486.272 424.794 487.243 424.528 488.363 424.528C489.788 424.528 490.945 424.982 491.833 425.891C492.728 426.792 493.176 428.071 493.176 429.729V440H488.95V430.564C488.95 429.715 488.724 429.079 488.274 428.655C487.823 428.231 487.26 428.018 486.583 428.018C485.814 428.018 485.215 428.264 484.784 428.754C484.353 429.238 484.137 429.878 484.137 430.673V440H480.031V430.474C480.031 429.725 479.815 429.129 479.385 428.685C478.96 428.241 478.4 428.018 477.704 428.018C477.233 428.018 476.809 428.138 476.431 428.376C476.06 428.608 475.765 428.937 475.546 429.361C475.328 429.778 475.218 430.269 475.218 430.832V440H470.983ZM499.897 440.288C498.922 440.288 498.054 440.119 497.292 439.781C496.529 439.437 495.926 438.929 495.482 438.26C495.044 437.584 494.826 436.742 494.826 435.734C494.826 434.886 494.981 434.173 495.293 433.597C495.605 433.02 496.029 432.556 496.566 432.205C497.103 431.853 497.713 431.588 498.395 431.409C499.085 431.23 499.807 431.104 500.563 431.031C501.451 430.938 502.167 430.852 502.711 430.773C503.254 430.687 503.649 430.561 503.894 430.395C504.139 430.229 504.262 429.984 504.262 429.659V429.599C504.262 428.97 504.063 428.482 503.665 428.138C503.274 427.793 502.717 427.621 501.995 427.621C501.232 427.621 500.626 427.79 500.175 428.128C499.724 428.459 499.426 428.877 499.28 429.381L495.363 429.062C495.561 428.134 495.953 427.332 496.536 426.656C497.119 425.973 497.872 425.45 498.793 425.085C499.721 424.714 500.795 424.528 502.015 424.528C502.863 424.528 503.675 424.628 504.451 424.827C505.233 425.026 505.926 425.334 506.529 425.751C507.139 426.169 507.619 426.706 507.971 427.362C508.322 428.012 508.498 428.791 508.498 429.699V440H504.481V437.882H504.361C504.116 438.359 503.788 438.78 503.377 439.145C502.966 439.503 502.472 439.785 501.895 439.99C501.319 440.189 500.652 440.288 499.897 440.288ZM501.11 437.365C501.733 437.365 502.283 437.242 502.76 436.997C503.238 436.745 503.612 436.407 503.884 435.983C504.156 435.559 504.292 435.078 504.292 434.541V432.92C504.159 433.007 503.977 433.086 503.745 433.159C503.519 433.225 503.264 433.288 502.979 433.348C502.694 433.401 502.409 433.451 502.124 433.497C501.839 433.537 501.58 433.573 501.348 433.607C500.851 433.679 500.417 433.795 500.046 433.955C499.675 434.114 499.386 434.329 499.181 434.601C498.975 434.866 498.873 435.197 498.873 435.595C498.873 436.172 499.081 436.613 499.499 436.918C499.923 437.216 500.46 437.365 501.11 437.365ZM516.432 440.249C515.272 440.249 514.221 439.95 513.28 439.354C512.345 438.75 511.603 437.866 511.052 436.699C510.509 435.526 510.237 434.087 510.237 432.384C510.237 430.634 510.519 429.179 511.082 428.018C511.646 426.852 512.395 425.98 513.329 425.403C514.271 424.82 515.301 424.528 516.422 424.528C517.277 424.528 517.989 424.674 518.559 424.966C519.136 425.251 519.6 425.609 519.952 426.04C520.309 426.464 520.581 426.882 520.767 427.293H520.896V419.636H525.122V440H520.946V437.554H520.767C520.568 437.978 520.286 438.399 519.922 438.817C519.564 439.228 519.096 439.569 518.52 439.841C517.95 440.113 517.254 440.249 516.432 440.249ZM517.774 436.878C518.457 436.878 519.033 436.692 519.504 436.321C519.981 435.943 520.346 435.416 520.598 434.74C520.856 434.064 520.986 433.272 520.986 432.364C520.986 431.455 520.86 430.667 520.608 429.997C520.356 429.328 519.991 428.811 519.514 428.446C519.037 428.081 518.457 427.899 517.774 427.899C517.078 427.899 516.491 428.088 516.014 428.466C515.537 428.844 515.175 429.367 514.93 430.037C514.685 430.706 514.562 431.482 514.562 432.364C514.562 433.252 514.685 434.037 514.93 434.72C515.182 435.396 515.543 435.927 516.014 436.311C516.491 436.689 517.078 436.878 517.774 436.878ZM534.585 440.298C533.014 440.298 531.661 439.98 530.528 439.344C529.401 438.701 528.533 437.793 527.923 436.619C527.313 435.439 527.008 434.044 527.008 432.433C527.008 430.862 527.313 429.483 527.923 428.297C528.533 427.11 529.391 426.186 530.498 425.523C531.612 424.86 532.918 424.528 534.416 424.528C535.423 424.528 536.361 424.691 537.23 425.016C538.105 425.334 538.867 425.814 539.517 426.457C540.173 427.1 540.683 427.909 541.048 428.884C541.412 429.851 541.595 430.985 541.595 432.284V433.447H528.698V430.822H537.608C537.608 430.213 537.475 429.672 537.21 429.202C536.945 428.731 536.577 428.363 536.106 428.098C535.642 427.826 535.102 427.69 534.485 427.69C533.842 427.69 533.272 427.839 532.775 428.138C532.285 428.429 531.9 428.824 531.622 429.321C531.343 429.812 531.201 430.358 531.194 430.962V433.457C531.194 434.213 531.333 434.866 531.612 435.416C531.897 435.966 532.298 436.391 532.815 436.689C533.332 436.987 533.945 437.136 534.654 437.136C535.125 437.136 535.556 437.07 535.947 436.938C536.338 436.805 536.673 436.606 536.951 436.341C537.23 436.076 537.442 435.751 537.588 435.366L541.505 435.625C541.306 436.566 540.899 437.388 540.282 438.091C539.672 438.787 538.884 439.33 537.916 439.722C536.955 440.106 535.844 440.298 534.585 440.298ZM286.814 458.727V461.909H277.616V458.727H286.814ZM279.705 455.068H283.94V469.307C283.94 469.698 284 470.003 284.119 470.222C284.239 470.434 284.404 470.583 284.616 470.669C284.835 470.755 285.087 470.798 285.372 470.798C285.571 470.798 285.77 470.782 285.969 470.749C286.168 470.709 286.32 470.679 286.426 470.659L287.092 473.811C286.88 473.877 286.582 473.954 286.197 474.04C285.813 474.133 285.346 474.189 284.795 474.209C283.775 474.249 282.88 474.113 282.111 473.801C281.348 473.49 280.755 473.006 280.331 472.349C279.907 471.693 279.698 470.865 279.705 469.864V455.068ZM293.157 465.17V474H288.921V453.636H293.038V461.422H293.217C293.561 460.52 294.118 459.814 294.887 459.304C295.656 458.787 296.621 458.528 297.781 458.528C298.841 458.528 299.766 458.76 300.555 459.224C301.35 459.682 301.967 460.341 302.404 461.203C302.848 462.058 303.067 463.082 303.06 464.276V474H298.825V465.031C298.831 464.09 298.593 463.357 298.109 462.834C297.632 462.31 296.962 462.048 296.1 462.048C295.524 462.048 295.013 462.171 294.569 462.416C294.132 462.661 293.787 463.019 293.535 463.49C293.29 463.954 293.164 464.514 293.157 465.17ZM305.414 474V458.727H309.65V474H305.414ZM307.542 456.759C306.912 456.759 306.372 456.55 305.921 456.132C305.477 455.708 305.255 455.201 305.255 454.611C305.255 454.027 305.477 453.527 305.921 453.109C306.372 452.685 306.912 452.473 307.542 452.473C308.172 452.473 308.708 452.685 309.153 453.109C309.603 453.527 309.829 454.027 309.829 454.611C309.829 455.201 309.603 455.708 309.153 456.132C308.708 456.55 308.172 456.759 307.542 456.759ZM316.299 465.17V474H312.063V458.727H316.1V461.422H316.279C316.617 460.534 317.184 459.831 317.979 459.314C318.774 458.79 319.739 458.528 320.873 458.528C321.933 458.528 322.858 458.76 323.647 459.224C324.435 459.688 325.049 460.351 325.486 461.213C325.924 462.068 326.142 463.089 326.142 464.276V474H321.907V465.031C321.913 464.097 321.675 463.367 321.191 462.844C320.707 462.313 320.041 462.048 319.192 462.048C318.622 462.048 318.118 462.171 317.681 462.416C317.25 462.661 316.912 463.019 316.667 463.49C316.428 463.954 316.305 464.514 316.299 465.17ZM335.381 480.045C334.009 480.045 332.833 479.857 331.852 479.479C330.877 479.107 330.102 478.6 329.525 477.957C328.948 477.314 328.574 476.592 328.401 475.79L332.319 475.263C332.438 475.568 332.627 475.853 332.886 476.118C333.144 476.383 333.486 476.595 333.91 476.754C334.341 476.92 334.864 477.003 335.481 477.003C336.402 477.003 337.161 476.777 337.758 476.327C338.361 475.883 338.663 475.137 338.663 474.089V471.295H338.484C338.298 471.72 338.02 472.121 337.649 472.499C337.277 472.876 336.8 473.185 336.217 473.423C335.633 473.662 334.937 473.781 334.129 473.781C332.982 473.781 331.938 473.516 330.997 472.986C330.062 472.449 329.316 471.63 328.759 470.53C328.209 469.423 327.934 468.024 327.934 466.334C327.934 464.604 328.216 463.159 328.779 461.999C329.343 460.839 330.092 459.97 331.026 459.393C331.968 458.817 332.998 458.528 334.119 458.528C334.974 458.528 335.69 458.674 336.266 458.966C336.843 459.251 337.307 459.609 337.658 460.04C338.016 460.464 338.292 460.882 338.484 461.293H338.643V458.727H342.849V474.149C342.849 475.448 342.531 476.536 341.894 477.411C341.258 478.286 340.376 478.942 339.249 479.379C338.129 479.823 336.84 480.045 335.381 480.045ZM335.471 470.599C336.154 470.599 336.73 470.43 337.201 470.092C337.678 469.748 338.043 469.257 338.295 468.621C338.553 467.978 338.683 467.209 338.683 466.314C338.683 465.419 338.557 464.643 338.305 463.987C338.053 463.324 337.688 462.811 337.211 462.446C336.734 462.081 336.154 461.899 335.471 461.899C334.775 461.899 334.188 462.088 333.711 462.466C333.234 462.837 332.872 463.354 332.627 464.017C332.382 464.68 332.259 465.446 332.259 466.314C332.259 467.196 332.382 467.958 332.627 468.601C332.879 469.237 333.24 469.731 333.711 470.082C334.188 470.427 334.775 470.599 335.471 470.599ZM357.947 463.082L354.069 463.321C354.003 462.99 353.86 462.691 353.642 462.426C353.423 462.154 353.134 461.939 352.776 461.78C352.425 461.614 352.004 461.531 351.514 461.531C350.857 461.531 350.304 461.67 349.853 461.949C349.402 462.221 349.177 462.585 349.177 463.043C349.177 463.407 349.323 463.715 349.615 463.967C349.906 464.219 350.407 464.421 351.116 464.574L353.88 465.131C355.365 465.436 356.472 465.926 357.201 466.602C357.93 467.278 358.295 468.167 358.295 469.267C358.295 470.268 358 471.146 357.41 471.902C356.827 472.658 356.025 473.248 355.004 473.672C353.99 474.089 352.82 474.298 351.494 474.298C349.472 474.298 347.861 473.877 346.661 473.036C345.468 472.187 344.769 471.034 344.563 469.575L348.73 469.357C348.856 469.973 349.16 470.444 349.644 470.768C350.128 471.087 350.748 471.246 351.504 471.246C352.246 471.246 352.843 471.103 353.294 470.818C353.751 470.527 353.983 470.152 353.99 469.695C353.983 469.31 353.821 468.995 353.502 468.75C353.184 468.498 352.694 468.306 352.031 468.173L349.386 467.646C347.894 467.348 346.784 466.831 346.055 466.095C345.332 465.359 344.971 464.421 344.971 463.281C344.971 462.3 345.236 461.455 345.767 460.746C346.303 460.036 347.056 459.49 348.024 459.105C348.998 458.721 350.138 458.528 351.444 458.528C353.373 458.528 354.891 458.936 355.998 459.751C357.112 460.567 357.761 461.677 357.947 463.082ZM362.458 474.259C361.802 474.259 361.238 474.027 360.768 473.562C360.304 473.092 360.072 472.528 360.072 471.872C360.072 471.223 360.304 470.666 360.768 470.202C361.238 469.738 361.802 469.506 362.458 469.506C363.094 469.506 363.651 469.738 364.129 470.202C364.606 470.666 364.844 471.223 364.844 471.872C364.844 472.31 364.732 472.711 364.506 473.075C364.288 473.433 363.999 473.722 363.641 473.94C363.283 474.152 362.889 474.259 362.458 474.259Z" fill="#0E0E0E"/>
<path d="M515.5 345.625C534.105 345.625 549.188 330.347 549.188 311.5C549.188 292.653 534.105 277.375 515.5 277.375C496.895 277.375 481.812 292.653 481.812 311.5C481.812 330.347 496.895 345.625 515.5 345.625Z" fill="#028CB0"/>
<path d="M492.533 311.5C492.533 320.719 497.827 328.66 505.483 332.434L494.529 302.033C493.213 305.011 492.533 308.237 492.533 311.5ZM515.5 334.765C518.167 334.765 520.733 334.291 523.135 333.445L522.972 333.136L515.907 313.542L509.025 333.816C511.061 334.435 513.24 334.765 515.5 334.765ZM518.656 300.589L526.963 325.608L529.264 317.853C530.241 314.635 530.994 312.325 530.994 310.324C530.994 307.437 529.976 305.457 529.121 303.931C527.94 301.992 526.861 300.363 526.861 298.465C526.861 296.32 528.449 294.34 530.73 294.34H531.015C526.783 290.405 521.245 288.225 515.5 288.235C511.696 288.234 507.952 289.191 504.604 291.02C501.256 292.849 498.41 295.493 496.32 298.712L497.786 298.754C500.189 298.754 503.894 298.444 503.894 298.444C505.157 298.383 505.299 300.218 504.057 300.363C504.057 300.363 502.815 300.528 501.41 300.589L509.799 325.793L514.828 310.531L511.245 300.589C510.442 300.544 509.641 300.476 508.842 300.383C507.6 300.301 507.743 298.383 508.985 298.444C508.985 298.444 512.772 298.754 515.032 298.754C517.434 298.754 521.14 298.444 521.14 298.444C522.382 298.383 522.545 300.218 521.303 300.363C521.303 300.363 520.061 300.507 518.656 300.589ZM527.044 331.609C530.519 329.563 533.402 326.629 535.407 323.1C537.411 319.571 538.466 315.571 538.467 311.5C538.467 307.457 537.449 303.662 535.657 300.342C536.021 303.995 535.475 307.683 534.069 311.067L527.044 331.609ZM515.5 338.312C508.48 338.312 501.748 335.488 496.784 330.459C491.82 325.431 489.031 318.611 489.031 311.5C489.031 304.389 491.82 297.569 496.784 292.541C501.748 287.512 508.48 284.688 515.5 284.688C522.52 284.688 529.252 287.512 534.216 292.541C539.18 297.569 541.969 304.389 541.969 311.5C541.969 318.611 539.18 325.431 534.216 330.459C529.252 335.488 522.52 338.312 515.5 338.312Z" fill="white"/>
</g>
<defs>
<filter id="filter0_d_669_102" x="0" y="0" width="836" height="787" filterUnits="userSpaceOnUse" color-interpolation-filters="sRGB">
<feFlood flood-opacity="0" result="BackgroundImageFix"/>
<feColorMatrix in="SourceAlpha" type="matrix" values="0 0 0 0 0 0 0 0 0 0 0 0 0 0 0 0 0 0 127 0" result="hardAlpha"/>
<feOffset/>
<feGaussianBlur stdDeviation="125"/>
<feComposite in2="hardAlpha" operator="out"/>
<feColorMatrix type="matrix" values="0 0 0 0 0 0 0 0 0 0 0 0 0 0 0 0 0 0 0.25 0"/>
<feBlend mode="normal" in2="BackgroundImageFix" result="effect1_dropShadow_669_102"/>
<feBlend mode="normal" in="SourceGraphic" in2="effect1_dropShadow_669_102" result="shape"/>
</filter>
<filter id="filter1_d_669_102" x="277" y="304" width="108" height="37" filterUnits="userSpaceOnUse" color-interpolation-filters="sRGB">
<feFlood flood-opacity="0" result="BackgroundImageFix"/>
<feColorMatrix in="SourceAlpha" type="matrix" values="0 0 0 0 0 0 0 0 0 0 0 0 0 0 0 0 0 0 127 0" result="hardAlpha"/>
<feOffset dy="2"/>
<feGaussianBlur stdDeviation="4"/>
<feComposite in2="hardAlpha" operator="out"/>
<feColorMatrix type="matrix" values="0 0 0 0 0.0313726 0 0 0 0 0.521569 0 0 0 0 0.980392 0 0 0 1 0"/>
<feBlend mode="normal" in2="BackgroundImageFix" result="effect1_dropShadow_669_102"/>
<feBlend mode="normal" in="SourceGraphic" in2="effect1_dropShadow_669_102" result="shape"/>
</filter>
<linearGradient id="paint0_linear_669_102" x1="418" y1="253" x2="418" y2="534" gradientUnits="userSpaceOnUse">
<stop stop-color="#AEBFED" stop-opacity="0.25"/>
<stop offset="1" stop-color="#31C5F0" stop-opacity="0.25"/>
</linearGradient>
<linearGradient id="paint1_linear_669_102" x1="285" y1="330.524" x2="334.965" y2="277.275" gradientUnits="userSpaceOnUse">
<stop stop-color="#0B99FF"/>
<stop offset="1" stop-color="#0B99FF"/>
</linearGradient>
</defs>
</svg>
